<?xml version="1.0" encoding="utf-8"?>
<!-- Generator: Adobe Illustrator 25.2.1, SVG Export Plug-In . SVG Version: 6.00 Build 0)  -->
<svg version="1.1"
	 id="Layer_1" xmlns:cc="http://creativecommons.org/ns#" xmlns:dc="http://purl.org/dc/elements/1.1/" xmlns:rdf="http://www.w3.org/1999/02/22-rdf-syntax-ns#"
	 xmlns="http://www.w3.org/2000/svg" xmlns:xlink="http://www.w3.org/1999/xlink" x="0px" y="0px" viewBox="0 0 827 884.2"
	 style="enable-background:new 0 0 827 884.2;" xml:space="preserve">
<style type="text/css">
	.st0{fill:#FFFFFF;}
	.st1{fill:#33FF99;}
	.st2{fill:#C61D23;}
	.st3{fill:#231F20;}
</style>
<g>
	<path class="st0" d="M582.5,605.2h-59.8H513h-99H305.3h-64.8c-24.2,0-44,19.8-44,44v176c0,24.2,19.8,47,44,47h64.8h40.1l46.9-101.9
		c6.2-6.2,13.7-10.1,21.7-11.8c14.2-3.1,29.6,0.9,40.5,11.8l46.9,101.9H513h9.7h59.8c26.4,0,48-22.8,48-47v-176
		C630.5,625,608.9,605.2,582.5,605.2z"/>
	<polygon class="st1" points="630.5,311.1 630.5,342.1 631.6,343.2 631.6,312.2 	"/>
	<path class="st2" d="M802.1,209.8L620.5,28.1c-2.2-2.7-4.8-5.1-7.6-7.3c-9-7.4-70.6-8.6-88.6-8.8c-0.6,0-0.9,0-0.9,0c0,0,0,0,0,0
		c-0.2,0-0.4,0-0.7,0v7.7c-6.4,52.5-52.9,93.3-109.4,93.5c-0.2,0-0.3,0-0.5,0c-52.2,0-96-34.7-107.6-81.4V12c-0.8,0-1.8,0-2.9,0
		c0,0,0,0,0,0c0,0-0.8,0-2.4,0v0.1c-20.8,0.4-77.3,1.8-85.9,8.8c-2.8,2.1-5.3,4.6-7.6,7.3L24.8,209.8c-17.1,17.1-17.1,45.1,0,62.2
		l43.5,43.5v0.1l30.8,30.7c17.1,17.1,45.1,17.1,62.2,0l35.2-35.2v30v180.3c0,24.2,19.8,44,44,44H300v0.1h113.4H527v-0.1h59.5
		c24.2,0,44-19.8,44-44V342.1v-31l1.1,1.1v0l34.1,34.1c17.1,17.1,45.1,17.1,62.2,0l30.3-30.3h0l43.9-43.9
		C819.3,254.9,819.3,226.9,802.1,209.8z"/>
	<g>
		<path class="st3" d="M586.5,884.2h-92.7l-49.2-106.8c-5.8-5.1-13.3-8-21.2-8s-15.4,2.8-21.2,8L353,884.2H240.5
			c-14.9,0-29.1-6.5-39.9-18.3c-10.2-11.2-16.1-26-16.1-40.7v-176c0-30.9,25.1-56,56-56h346c30.9,0,56,25.1,56,56v176
			c0,14.7-5.9,29.5-16.1,40.7C615.6,877.7,601.4,884.2,586.5,884.2z M509.2,860.2h77.3c16.7,0,32-16.7,32-35v-176
			c0-17.6-14.4-32-32-32h-346c-17.6,0-32,14.4-32,32v176c0,18.3,15.3,35,32,35h97.2l44.6-96.9l1.5-1.5
			c10.5-10.5,24.6-16.3,39.6-16.3s29.1,5.8,39.6,16.3l1.5,1.5L509.2,860.2z"/>
	</g>
	<g>
		<path class="st3" d="M586.5,577.5h-346c-30.9,0-56-25.1-56-56V340.1l-14.7,14.7c-10.5,10.5-24.6,16.3-39.6,16.3
			c-15,0-29.1-5.8-39.6-16.3l-74.2-74.2C5.8,270,0,255.9,0,240.9s5.8-29.1,16.3-39.6L197.6,20c2.7-3.2,5.7-6.1,9.1-8.6
			c4.7-3.8,13.8-8,57.5-10.2C286.3,0.1,306.7,0,307.6,0h11.5l0.5,11.5c2.2,50.3,43.5,89.7,93.9,89.7s91.7-39.4,93.9-89.7L507.9,0
			h11.5c0.9,0,21.3,0.1,43.4,1.2c43.7,2.2,52.8,6.4,57.5,10.2c3.3,2.5,6.4,5.4,9.1,8.6l181.3,181.3c21.8,21.8,21.8,57.4,0,79.2
			l-74.2,74.2C726,365.2,711.9,371,696.9,371s-29.1-5.8-39.6-16.3L642.6,340v181.4C642.5,552.4,617.4,577.5,586.5,577.5z
			 M208.5,282.1v239.4c0,17.6,14.4,32,32,32h346c17.6,0,32-14.4,32-32V282.1l55.7,55.7c6,6,14,9.3,22.6,9.3s16.6-3.3,22.6-9.3
			l74.2-74.2c12.5-12.5,12.5-32.8,0-45.3l-182-182.1l-0.4-0.4c-1.6-1.9-3.4-3.7-5.4-5.2c-7.1-3.4-42.6-5.9-75.5-6.4
			c-8.2,57.6-57.4,101.1-116.8,101.1S304.9,81.7,296.7,24.2c-32.9,0.5-68.4,3-75.5,6.4c-2,1.5-3.8,3.3-5.4,5.2l-0.4,0.4L33.3,218.3
			c-6,6-9.3,14-9.3,22.6s3.3,16.6,9.3,22.6l74.2,74.2c12.5,12.5,32.8,12.5,45.3,0L208.5,282.1z M606,30.6L606,30.6L606,30.6z
			 M221,30.6L221,30.6L221,30.6z"/>
	</g>
</g>
</svg>
