<?xml version="1.0" encoding="utf-8"?>
<!-- Generator: Adobe Illustrator 25.2.1, SVG Export Plug-In . SVG Version: 6.00 Build 0)  -->
<svg version="1.1" id="Layer_1" xmlns="http://www.w3.org/2000/svg" xmlns:xlink="http://www.w3.org/1999/xlink" x="0px" y="0px"
	 viewBox="0 0 625.3 632.2" style="enable-background:new 0 0 625.3 632.2;" xml:space="preserve">
<style type="text/css">
	.st0{fill:#FFFFFF;}
	.st1{fill:#393838;}
	.st2{fill:#432F2F;}
	.st3{fill:#4F3332;}
	.st4{fill:#383737;}
	.st5{fill:#653A3A;}
	.st6{fill:#020202;}
	.st7{fill:#B7292D;}
	.st8{fill:#A1282A;}
	.st9{fill:#434343;}
	.st10{fill:#ED2829;}
	.st11{fill:#ED2C2B;}
	.st12{fill:#403F3F;}
	.st13{fill:#FEFEFE;}
	.st14{fill:#1A1A1A;}
	.st15{fill:#EB2B2C;}
	.st16{fill:#DA6364;}
	.st17{fill:#FEFBFB;}
	.st18{fill:#DA292C;}
	.st19{fill:#ED2C2C;}
	.st20{fill:#FDF7F7;}
	.st21{fill:#FDFDFD;}
	.st22{fill:#D56367;}
	.st23{fill:#FDF8F8;}
	.st24{fill:#FCFCFC;}
	.st25{fill:#FEFEFD;}
	.st26{fill:#AF2124;}
	.st27{fill:#FAFAFA;}
	.st28{fill:#FBFBFB;}
	.st29{fill:#B72226;}
	.st30{fill:#F9F8F8;}
	.st31{fill:#FDEEEF;}
	.st32{fill:#CB2B2F;}
	.st33{fill:#0C0D0D;}
	.st34{fill:#3F3F3F;}
	.st35{fill:#EB3030;}
	.st36{fill:#414140;}
	.st37{fill:#F7F6F6;}
	.st38{fill:#F7F7F7;}
	.st39{fill:#DE242A;}
	.st40{fill:#454545;}
	.st41{fill:#F6F6F5;}
	.st42{fill:#931E1F;}
	.st43{fill:#414242;}
	.st44{fill:#BA2830;}
	.st45{fill:#F1F1F0;}
	.st46{fill:#E7E5E6;}
	.st47{fill:#737373;}
	.st48{fill:#5B5A5C;}
	.st49{fill:#B12533;}
	.st50{fill:#F5F4F4;}
	.st51{fill:#F3F2F2;}
	.st52{fill:#E5E4E3;}
	.st53{fill:#C14848;}
	.st54{fill:#E8E7E6;}
	.st55{fill:#EBEBEB;}
	.st56{fill:#AB3535;}
	.st57{fill:#89181A;}
	.st58{fill:#BF504E;}
	.st59{fill:#E4E3E2;}
	.st60{fill:#9B1F24;}
	.st61{fill:#BA3334;}
	.st62{fill:#0F0F0F;}
	.st63{fill:#B62226;}
	.st64{fill:#050505;}
	.st65{fill:#47221F;}
	.st66{fill:#A22323;}
	.st67{fill:#C8C7C7;}
	.st68{fill:#C7C6C6;}
	.st69{fill:#C6C5C5;}
	.st70{fill:#101010;}
	.st71{fill:#A8A7A7;}
	.st72{fill:#C8C8C7;}
	.st73{fill:#040404;}
	.st74{fill:#030303;}
	.st75{fill:#C7C7C7;}
	.st76{fill:#0A0A0A;}
	.st77{fill:#050303;}
	.st78{fill:#070504;}
	.st79{fill:#060505;}
	.st80{fill:#A73F44;}
	.st81{fill:#591310;}
	.st82{fill:#6D6D6C;}
	.st83{fill:#C5C5C7;}
	.st84{fill:#C4C4C5;}
	.st85{fill:#C5C4C5;}
	.st86{fill:#C0C1C6;}
	.st87{fill:#C7C7C9;}
	.st88{fill:#C6C8CB;}
	.st89{fill:#C1C1C4;}
</style>
<path class="st0" d="M622.4,426.5c-0.4-1.9-0.7-3.9-1.1-5.8l-0.1-0.5c-0.9-5.4-2.3-13.5-9.8-18.8c-2.6-1.8-4.3-4.2-5.9-8.4
	c-8.1-21-17.3-44.8-27-67.8c-0.6-1.4-1.2-2.7-1.8-4.1c-2.4-5.3-3.9-8.7-3.5-12.2c0.8-3.7,1.6-7.3,2.4-11c1.9-8.6,3.9-17.4,5.5-26.3
	c2.8-15.3,5-31,6.4-46.6l0.3-3.5c1.3-13.9,2.6-28.2,2.5-42.6c0-4.5,0-9,0-13.5c0-17.4,0-35.4-1.9-53.3c-0.2-2-0.4-3.9-0.6-5.9
	c-0.8-7.1-1.6-14.4-2.1-21.5c-1.2-15.2-12.9-20.2-16.8-21.9c-16.4-7-33.8-13.8-51.7-20c-8.6-3-17.4-5.7-25.9-8.3
	c-4.5-1.4-9.2-2.8-13.7-4.3c-16.8-5.4-34-9.3-50.7-13c-2.6-0.6-5.3-1.2-7.9-1.8c-15.9-3.6-33.1-6.7-54-9.8c-2.2-0.3-4.3-0.7-6.5-1
	c-7.2-1.1-14.6-2.3-22.3-2.4c-4.3-1.3-8.5-1.5-12-1.7c-1,0-2-0.1-3-0.2c-15.1-1.2-29.8,0.6-44.1,2.3c-2.1,0.3-4.3,0.5-6.4,0.8
	c-17.4,2-34.6,5.1-50.6,8.1c-30.9,5.8-62.3,13.7-93.1,23.5c-28.3,9-53.1,18.2-76.1,28.4c-8.5,3.7-13.5,9.4-15,17
	c-1.1,5.5-1.9,11.1-2.3,16.9c-0.2,3.1-0.5,6.3-0.8,9.4c-0.9,11.2-1.9,22.7-2.1,34.3c-0.2,13.3-0.4,29,0.5,45.1
	c0.9,17,2.1,35.3,4.4,53.2c0.2,1.3,0.3,2.6,0.5,3.9c0.7,6.1,1.5,12.3,3.4,18.7c0.1,2.7,0.4,5.2,0.6,7.7c0.4,3.3,0.7,6.5,0.4,9.2
	c-0.8,7.2,1.6,13.1,4,17.4c0.1,0.6,0.1,1.3,0.3,2c0.2,0.8,0.3,1.4,0.3,1.8c-0.3,0.2-0.7,0.5-1.3,0.9c-2.7,1.9-6.1,4.2-9.3,6.9
	c-9.9,8.5-19.3,18.5-21.8,33.5c-2.3,14-4.3,27.9-6.3,41.4c-1.3,9-2.6,18.2-3.8,27c-0.6,4.6-1.3,9.2-1.9,13.7
	c-0.8,5.4-3.1,21.6,11.8,32.2c4.7,3.3,8.8,6.5,12.5,9.8c8.8,7.6,19.3,10.5,30.3,8.2c3.8-0.8,7.5-1.5,11.3-2.3
	c11.8-2.5,24.1-5,36.1-7.1c3.8-0.7,8.1,0.8,13,2.4c0.9,0.3,1.7,0.6,2.6,0.9c0.4,0.5,0.9,1.4,1.4,2.1c0.5,0.8,1,1.6,1.6,2.5
	c1.2,1.7,2.4,3.4,3.6,5.1c1.6,2.3,3.3,4.7,4.9,7.1c10.5,15.4,22.6,30.3,36.9,45.6c18.4,19.6,36.3,36.4,54.9,51.3
	c19.4,15.5,40.6,29.7,63.2,42c1.8,1,3.7,1.8,5.3,2.5c2.5,1.1,4.7,2.1,5.9,3.3c1.9,2,4.5,3.1,7.2,3.1h17c3.1,0,5.9-1.4,7.8-3.7
	c0.3-0.1,0.6-0.2,0.9-0.4c11.8-5,24.1-11.6,38.6-20.9c19.6-12.5,38.8-27.2,58.5-44.9c14.2-12.8,27.9-27.1,42-43.6
	c15-17.7,27.5-34.3,38-50.8c2.3-3.7,4.2-4.4,5.8-4.6c6.4-0.9,12.3-3,18-6.5c3.7,5.7,9.2,9.5,16.2,11.1c2.9,0.7,5.7,1.4,8.6,2.1
	c10.7,2.6,21.7,5.3,33,6.9c12.4,1.8,23.5-2.2,31.5-11.3c6-4.9,6.1-11.8,6.1-14.2C625.4,442.7,623.9,434.4,622.4,426.5z"/>
<g>
	<path class="st1" d="M612.3,458.3c-6,7.4-14.2,10.1-23.1,8.7c-13.7-2-27.2-5.7-40.7-8.9c-5.8-1.4-9.7-4.8-11.9-10.3
		c-0.7-1.6-1.2-3.5-3.1-4.5c-2.3-0.4-3.7,1.4-5.2,2.5c-5.3,3.9-11.1,6.5-17.7,7.4c-5.9,0.8-9.8,4.3-12.9,9.1
		c-11.2,17.5-23.8,34-37.2,49.7c-12.8,15-26.4,29.4-41.1,42.7c-17.9,16.2-36.8,31-57.1,43.9c-11.9,7.6-24.1,14.6-37.2,20.1
		c-1.8,0.8-3.9,1.2-4.8,3.3c-5.7,0-11.3,0-17,0c-3.8-4-9.1-5.2-13.7-7.7c-21.8-11.9-42.4-25.4-61.7-41
		c-19.2-15.4-37.1-32.4-53.9-50.3c-13-13.9-25.2-28.6-36-44.4c-2.8-4.1-5.7-8.1-8.6-12.2c-2.2-3.1-3.7-7-7.6-8.2
		c-6.8-2.2-13.5-5.1-20.8-3.8c-16,2.8-31.8,6.2-47.7,9.5c-8.1,1.7-15.4-0.4-21.8-6c-4.2-3.7-8.7-7.2-13.3-10.4
		c-8.1-5.8-8.9-13.8-7.7-22.7c1.9-13.6,3.8-27.2,5.8-40.8c2-13.7,4-27.5,6.2-41.2c1.9-11.9,9.8-20.1,18.4-27.6
		c2.6-2.3,5.5-4.3,8.4-6.2c5.8-3.9,6.6-5.9,5.1-13c-0.2-1-0.1-2-0.2-3c3.6,2.1,4.7,8.5,2.4,13.4c-0.6,1.3-1.7,2.5-1.9,4
		c-8.6,6.1-15.3,14.3-22.9,21.4c-2.5,2.4-4,5.2-4.6,8.6c-3.4,21.5-6.5,43.2-9.6,64.7c-1.2,8.4-2.2,16.9-3.6,25.2
		c-0.8,4.4,0.4,7.8,3.9,10.5c7.2,5.6,14.3,11.4,21.6,17c3.2,2.5,6.3,3.1,10.2,2.2c16.9-3.6,33.9-7.1,51-10.3
		c11.6-2.2,25.9,3.8,32.6,13.5c12.9,18.9,27.2,36.7,42.5,53.6c25.1,27.9,53.2,52.3,84.1,73.5c15,10.3,30.8,19.2,47.1,27.3
		c3.5,1.8,6.6,1.2,10-0.2c22.3-9.7,43-22,62.6-36.2c23.3-16.9,44.4-36.2,64-57.2c18.3-19.6,35-40.7,49.6-63.2
		c4.8-7.4,10.8-11.2,19-12.8c10.7-2,15.1-5.7,19-15.3c3.4-1.8,5.2,0,6.2,3.1c1.2,4,2.9,7.8,4.2,11.8c1.1,3.3,3.1,5.3,6.6,6
		c14.3,3.1,28.7,6.2,42.9,9.6c2.9,0.7,5.5-0.2,8.2-1.3c4.1-1.8,7.4-5.3,12.1-5.7C612,456.9,612.6,457.3,612.3,458.3z"/>
	<path class="st2" d="M49.2,260.2c-2.4-7.2-3-14.8-3.9-22.3c-2.3-17.4-3.4-34.9-4.4-52.4c-0.8-14.8-0.8-29.6-0.5-44.4
		c0.3-14.4,1.7-28.8,2.9-43.1c0.4-5.3,1.1-10.5,2.1-15.7c1-5,4.8-7.8,9.2-9.8c24.5-10.8,49.6-19.9,75.1-28
		c30.2-9.6,60.8-17.4,92-23.2c16.6-3.1,33.2-6,49.9-8c16.1-1.9,32.3-4.3,48.6-3.1c4.7,0.4,9.6,0.1,14.1,1.9c-2.7,2-5.6,3.6-8.9,4.5
		c-6.9,0.4-13.8-0.1-20.7,0.1c-6.7-0.5-13.2,0.8-19.8,1.8c-14.1,2.2-28.4,3.3-42.4,6.2c-22.3,4.5-44.7,8.6-66.8,14.2
		c-20.5,5.2-40.8,11.3-60.8,17.9C95.8,63.1,77,70.4,58.5,78.4c-2.3,1-4.7,1.9-6.2,4c-3.2,13.2-3.9,26.8-4.4,40.2
		c-0.6,16.3-1.8,32.6-1.2,48.9c1,26.1,2.8,52.1,6.5,78c0.2,1.7,0.5,3.3,0.3,5C53,257,51.8,259.2,49.2,260.2z"/>
	<path class="st3" d="M326.2,15.3c2.6-1.3,4.7-3.8,8.1-3.1c9.8-0.1,19.5,2,29.1,3.4c17.8,2.6,35.6,5.6,53.2,9.6
		c19.4,4.4,38.8,8.6,57.8,14.6c13.1,4.2,26.4,8,39.4,12.5c17.2,6,34.3,12.6,51.1,19.7c6,2.6,10.2,6.1,10.7,13.4
		c0.7,9.2,1.8,18.4,2.8,27.7c2.3,21.9,1.7,43.8,1.8,65.8c0.1,15.1-1.4,30.1-2.8,45.2c-1.4,15.3-3.5,30.6-6.3,45.7
		c-2.3,12.5-5.3,24.9-7.9,37.4c-1.6,2.6,1.2,6.7-3,8.5c-2.7-0.6-3.5-2.7-4.2-4.9c0-6.6,2.3-12.7,3.8-19c5.4-23.2,9.3-46.7,11.6-70.4
		c2.8-29,3-58.2,2-87.3c-0.6-17.6-1.6-35.2-5.1-52.5c-2.7-2.4-5.9-3.5-8.9-4.8c-33.3-13.7-67.1-26-101.9-35.2
		c-39.3-10.4-79.1-18.7-119.6-23c-2.7-0.3-5.3-0.7-7.9-1C328.5,17.5,326.5,17.6,326.2,15.3z"/>
	<path class="st4" d="M560.2,315.3c3.1-1.9,1-5.8,3.1-8c-1.1,8.1,3.1,14.9,6,21.8c9.4,22.3,18.2,44.9,26.9,67.5
		c2,5.2,4.7,9.7,9.5,13c4.3,3,5,8,5.8,12.8c1.6,9.6,3.9,19.1,3.8,29c0,2.8-0.4,5.3-3,7c-0.4-0.4-0.7-0.7-1.1-1.1
		c1.1-9.6-1.6-18.8-3-28.1c-0.4-2.5-1.1-4.9-1.3-7.4c-0.4-5.3-2.2-9.3-8.1-10.3c-2.3-0.4-3.3-2.5-4.1-4.6
		c-10.6-28.6-21.8-56.9-33.7-85C560,319.7,558.4,317.7,560.2,315.3z"/>
	<path class="st5" d="M49.2,260.2c0.3-2.1,2.5-3,3.1-4.9c2.4,0.2,2,2.2,2.3,3.7c1.4,6.4,1.1,12.9,0.8,19.3c-0.2,4,0.6,7.5,2.9,11.1
		c3.8,6,6.2,12.7,5.2,20.2c-2.9,2.5-6,2.9-9.3,0.7c-0.4-0.2-0.9-0.3-1.4-0.5c0.3-1.9,2.2-2.4,3.2-4.8c-0.5-3.4,1.8-8-1.9-11.8
		c-2.6-4.1-4.5-8.4-3.9-13.4C51,273.2,49.2,266.8,49.2,260.2z"/>
	<path class="st6" d="M54.3,310.3c3.1-0.3,6.3,0.7,9.1-1.1c0.9-1.2,3.3-1.2,2.7-3.5c-0.5-3.4-2.9-6.7-1-10.6
		c3.3-0.1,5.1,2.1,7.2,3.8c2,1.7,3.4,4,5.8,5.1c0.1,0,0.3-0.1,0.4-0.2c0.1-0.1,0.1-0.3,0.1-0.5c-2.6-5.3-6.6-9.5-11.2-13.1
		c-7.1-5.4-7.6-7.1-5.4-15.6c2.3-8.8,6.6-16.5,12.1-23.8c4.5-5.9,9.2-11.8,11.7-18.9c0.2-1.2,0.6-2.3,1.4-3.3c3.1-2.7,5-6.5,8.9-9.2
		c-2,0.4-3.5,1-4.5-0.7c-0.8-2.6,0.8-4.5,2.2-6.3c12.7-17,27.7-31.9,43.3-46.2c5.6-5.1,11.5-10,17.5-15.3c-5.1-0.6-8.9,4.1-13.6,2.3
		c-0.5-2.9,1.5-4,2.9-5.2c12.7-10.9,26.5-20.2,40.9-28.6c30.2-17.7,62.6-30.3,96.1-40.2c1.9-0.6,3.9-0.8,5.4-2.5
		c0.2-2.8-3.7-3.4-3.3-6.5c0.8-2.1,2.9-2.2,4.9-2.4c9.9-1.1,19.8-2.4,29.9-2c6.3,0.3,12.6-2,18.9-0.9c10.9,1.9,21-1.7,31.4-3.7
		c24.7-4.7,49.2-5,73.3,3.5c12.7,4.5,24.2,11.1,34.7,19.4c3.3,2.6,7,4.5,10.7,6.4c6.7,3.4,11.5,8.4,13.4,15.9c0.8,3,2.6,4.8,4.9,6.6
		c9.6,7.7,17.9,16.8,26.5,25.6c3,3.1,3.7,7.1,1.8,11.2c-1.9,4.3-2.4,8.6-2.3,13.4c0.1,7.2-2.6,14.1-8,19.3
		c-5.4,5.2-10.7,10.3-14.9,16.6c-2.6,4-6.6,7.1-10.9,9.4c-1.9,1-3.9,2.1-6.5,0.5c-1.5-5.6,3.4-10.4,3-16.1c-2.8-2.2-4.9-1-7,1
		c-3.2,3.1-6.2,6.6-9.6,9.4c-2.8,2.3-5.5,5.7-10,4.2c-1.6-1.9-0.7-3.8-0.1-5.7c1-3.5,2.3-6.9,2.6-10.7c-6.4,4.9-10.3,15.4-8.2,22.1
		c1.7,0.9,3.6-0.6,5.7,0.8c2.9,2.4,0,6.9,2.6,10c5.5-0.9,7.2-7.4,12.4-8.5c3.3,0.9,3.9,3.6,3.1,6c-3.5,10.1-4.9,20.7-7.1,31.1
		c-1.4,6.6-6.5,11.1-11.5,15.3c-0.3,0.2-0.5,0.5-0.8,0.6c-9.3,1.2-17.8,6.3-27.4,5.6c-1.8-0.5-1.5-2.6-2.6-3.4
		c-3.1-0.5-6.9,0.6-7.7-3.6c-2.8-1.1-5.7,0.2-8-1.8c-1.8-2.5,0.5-5.5-0.9-8.6c-0.7-1.3-3.1-1-4.8-3.3c-0.4-10.2-6.1-17.5-16.4-21
		c-4.6-1.6-11.7,0.9-16.7,5.7c17.5,16.5,34.2,33.9,43.5,56.8c0.8,2.6,1.9,5.2,3,7.7c0.2,0.4,0.5,0.9,1.4,0.9c3-2.8,5.5-6.4,8.6-9.5
		c1.7-1,3.5-1.3,5.3-1c7.5,1.2,15.3,0.3,22.8,2.3c5.9,1.2,11.8,1.3,17.8,2c4.5,0.6,7.7,2.3,7.4,7.6c0.7-4.8,2.3-6.1,7-5.5
		c7.6,1,15.1,2.3,22.6,3.7c1.6,0.3,3.1,0.9,4.7,1.1c3.4,0.8,6.9,1.2,10.3,1.7c1.5,0,3,0.3,4.5-0.4c1.9-1.4,2.1-3.6,2.7-5.7
		c7.2-28.6,12.1-57.6,14.9-87c2.3-23.9,2.3-47.9,1.6-71.8c-0.4-14.9-1.3-29.9-3.4-44.8c-0.6-4-2.5-6.1-6.1-7.6
		c-51.4-20.8-104.1-37.2-158.7-47.2c-24.1-4.4-48.3-7.6-72.6-10.5c-2-0.2-5.3-1.9-5.9,2.3c-0.3,9,0.7,18-0.6,27
		c-1.2,2.7-3.8,2.2-6,2.5c-13.1,1.4-26.1,2.9-39.2,6.5c2.7,2.8,7.8,1.7,8.7,6.1c-0.9,2.8-3.4,3.1-5.6,3.7
		c-20.3,6.5-40.4,13.5-59.7,22.6c-17.6,8.4-34.4,18.2-50.3,29.5c-2,1.4-3.8,3.3-6.7,2.8c-1.9-0.8-2.4-2.6-3-4.3
		c-1.9-5.5-3.9-10.9-6.1-16.3c-1.3-3.2-1-5.9,1.1-8.8c6.8-9.6,13.6-19.2,20.5-28.8c4.4-3.3,9.8-4.1,14.8-5.5
		c13.4-3.9,26.9-7.5,40.6-10.1c10.7-2,19.7-7.8,29.1-12.6c6-2.6,11.7-5.9,17.3-9.3c3.8-1.5,7.4-3.7,10.3-4.5
		c-72.7,9-143.8,28.6-212,57c-2.2,5.6-2.1,10.6-2.6,15.6c-2.8,28.5-3.6,57.1-1.9,85.7c1.1,19.5,3.7,38.7,6,58.1
		c-1.6,5.7-3.6,11.1-8.6,15c-4-2.8-3.8-6.6-4.2-10.1c-2.1-15-4.7-29.9-5.6-45.1c-0.4-7-1.1-13.9-1.5-20.8c-0.7-10.8-1-21.6-0.8-32.4
		c0.5-23.3,1.8-46.5,4.9-69.6c0.5-4,2.5-6.3,6-7.7c28.5-11.7,57.2-22.7,86.8-31.4c22.6-6.7,45.4-12.7,68.6-17.4
		c18.7-3.8,37.5-7.1,56.5-9.7c7.6-1,15.2-1.6,22.7-2.6c17.9-3,35.5-0.4,53.2,2c32.9,4.4,65.5,10.3,97.7,18.5
		c40.7,10.4,80.5,23.8,119.3,40.1c4.2,1.8,6.3,4.3,6.8,8.9c1.4,13.9,2.7,27.8,3.7,41.8c1.2,17,1,34,0.8,50.9
		c-0.4,28-3.6,55.7-8.4,83.3c-2.4,13.9-5.6,27.7-8.9,41.5c-0.5,2-1.6,4.2,0.9,5.9c1,1.4,2,2.8,3,4.2c1.4,6.4,4.7,12,7.1,18
		c8.7,21,16.9,42.2,25.1,63.3c1.6,4.2,3.6,8.2,4.3,12.7c3.3,1.7,7.3,1.4,10.2,4.5c2,11.9,4.2,24.1,6.2,36.3c0.4,2.5,0.8,5.4-1.9,7.2
		c-5.3,2.7-10.3,6.1-16.6,8.6c-17-3.8-34.5-7.8-51.6-11.6c-4.5-6.8-4.8-14.7-9.1-20.8c-0.2-0.3-1.2,0-1.8,0.1
		c-1.7,1.6-0.5,3.7-1.5,5.7c-3.3,4.4-8.6,7.1-11.7,9.7c-9.2,1.9-17.2,1.4-22.5,9.7c-11.9,18.6-25.6,35.9-39.7,52.8
		c-12.1,14.5-25.2,28-39,40.6c-23.1,21.1-47.7,40.1-75.5,54.8c-9.4,5-18.8,10-28.7,13.8c-0.8,0.3-1.6,0.5-2.6,0.7
		c-11.6-5.3-22.8-11.4-33.8-17.9c-20.3-12-39.3-26-57.2-41.3c-14.3-12.2-28.1-25-40.8-38.8c-18-19.7-34.9-40.4-49.6-62.8
		c-1.7-2.6-3.8-4.5-6.9-5.3c-5-1.4-9.9-2.9-14.8-4.2c-3.7-1-7.2,0.7-10.7,1.4c-17.7,3.4-35.3,7-53.2,10.6
		c-10.8-7.7-21.3-16.1-31.4-24.9c-0.3-8,1.6-15.4,2.5-22.9c1.6-12.6,3.6-25.2,5.4-37.8c2-13.2,4-26.5,6.1-39.7
		c0.3-2.1,1.5-3.6,3-5.1c6.4-6.3,12.9-12.6,19-19.1C50.1,311.7,52.5,311.7,54.3,310.3z"/>
	<path class="st7" d="M557.2,311c-1.1,0-2.3,0.4-3.9-0.9c20.1-74.5,24-150.3,13.6-227c-1.5-1.9-4-2.2-6.1-3.1
		c-24.1-10.4-48.8-19.3-73.9-27.2c-33.8-10.7-68.1-19.1-103-25.1c-22.6-3.9-45.3-6.9-68.2-9.3c-7.9-0.8-15.6,1.4-23.4,1
		c-1.1,0.6-2.2,0.7-3.3-0.4c1.7-3.1,4.8-2.6,7.5-3.1c2.5-0.4,5.2,0.6,7.7-0.6c7.3,0,14.6,0.1,22,0.1c6.6,1.8,13.4,1.9,20.1,2.7
		c22.8,2.7,45.2,7,67.7,11.6c27.7,5.7,54.9,13.3,81.8,21.8c24.1,7.7,47.5,17,70.8,26.8c2.2,0.9,3.4,2.3,3.7,4.8
		c0.8,7.1,2.1,14.1,2.8,21.2c2.6,27.7,2.8,55.5,1.9,83.3c-0.9,26.2-3.3,52.4-8.3,78.2c-2.8,14.4-5.9,28.6-9.4,42.8
		C557.2,309.3,557.2,310.2,557.2,311z"/>
	<path class="st8" d="M304.3,15.2c-3.7,2.3-8.2,0.1-12,2c-0.8,0.4-2,0.1-2.2,1.5c0.6,0.8,1.5,0.4,2.3,0.6
		c-7.1,1.9-14.4,1.9-21.6,2.9c-43.6,5.9-86.5,15.1-128.7,28c-29,8.9-57.2,19.5-85.2,31c-1.3,0.5-2.4,1.1-3.3,2.5
		c-1.9,17.3-3.7,34.7-4.5,52.4c-0.6,12.8-1.1,25.6-0.6,38.4c0.9,23.2,2.5,46.5,6.5,69.4c0.7,3.8,0.9,7.6,1.3,11.4
		c-1.2,1.2-1.1,2.7-0.8,4.2c1.3,6.7,2.5,13.4,1.4,20.2c-0.3,1.9-0.1,3.8,1.1,5.2c4.2,4.8,5,10.8,6.4,16.5c0.5,1.8,0.3,4.1,2.8,4.8
		c0.4,2.7,0.4,2.7-3.9,3c-1.1-4.3-2.2-8.6-3.3-12.9c-0.9-3.6-2.5-6.8-5.6-9.2c-0.2-3.3-0.7-6.4-0.5-9.7c0.5-7.3,0.6-14.8-1.7-21.9
		c-1.1-9.6-2.3-19.1-3.4-28.7c-0.5-3.9-1.3-7.9-1.5-11.8c-0.8-22.6-3.3-45.2-2-67.8c1-17.2,0.9-34.5,2.9-51.7
		c0.5-4.6,1.6-9.1,2.4-13.8c2.4-3.2,6.2-4.3,9.7-5.7c13.5-5.5,27-11,40.8-15.9c14.7-5.2,29.6-9.9,44.5-14.5
		c17.3-5.3,34.9-9.7,52.5-13.5c21.7-4.7,43.5-9.3,65.5-12.2C277.2,18,290.5,14.5,304.3,15.2z"/>
	<path class="st9" d="M297.3,97.4c-0.5,14.4,0.7,16.6,4.9,26.7c-7.3,2.1-15.1,2.2-22,5.7c9.8-0.3,18.9,2,28.1,6.5
		c-10.2,15.3-16.5,31.6-19,50.4c-17.1-13.9-34.8-23.8-56.1-26.1c11.8,5,23.1,10.5,33.4,20.5c-24.8-5.8-48-6-71.2,4.2
		c1.7,1.2,2.9,0.9,4.1,0.7c1.3-0.2,2.6-0.7,3.9-0.7c16.6-0.3,32.7,2.4,48.2,8.2c1.9,0.7,3.6,1.7,4.7,3.6c-3.7,2.3-6.5-1.1-8.8-1.3
		c29.6,12.1,52.8,33.2,69.6,61.3c1.6,1.4,4.6,0.2,5.4,2.9c-3.6,0.9-7.3-0.5-10.8,0.6c-0.3,0.1-0.4,0.4-0.8,0.8
		c3,2.5,7.3,1.3,10.3,3.6c4.1,2.6,9.1,2.8,13.4,4.9c8.1,3.9,16,8.3,23.6,13.1c1.5,0.9,3.3,1.8,3.1,4.1c-5.6,2.6-11.3,0.1-16.2,0.1
		c-2.5,1.6-1.6,3.6-2.4,5.3c-3.7-0.6-6.2-3.5-9.7-5.3c-7.4-0.3-15.2,0.4-22.8-1.1c-20.2-3.4-39.5-9.2-55.7-22.4
		c-9-7.4-17-15.8-24.9-24.4c-13.9-15.1-29.2-28.7-48.7-36.4c-1.2-0.5-2.4-1.1-3.8-1.3c-0.5-0.1-1,0-1.9,0.5c-2.2,3.1-3.6,7.3-5.7,11
		c-1.1,2-2,4.3-4.5,5c-5.4,5-8.1,11.7-10.8,18.2c-2.1,5.1-4.3,10.4-4.5,17.2c-7-6.9-10.3-15.3-15.5-22.4c-2.5,0.3-4.2,1.8-5.7,3.1
		c-11.8,11-22.4,23-29.9,37.5c-5,9.5-4.1,18.8-1,28.3c0.3,0.9,0.7,1.8,1,2.6c-1.3,2-3.1,1.4-4.7,1.4c-1.4-0.8-2.4-1.8-2.9-3.3
		c-3.2-9.7-6.2-19.4-5.3-29.8c0.3-3.1,1.4-5.8,2.7-8.5c10.6-22,25.8-40.7,42.5-58.2c1-1.1,2-2.9,4.1-2c0.2,3.1-2.3,5-3.4,7.6
		c-2.5,5.9-4.9,11.9-4.6,19.5c4.6-5.3,5.6-11.8,9.8-16.2c4.4-4,7.3-9.3,11.1-13.9c15.5-19,45.2-44,64.4-53.8
		c-6.1,1.3-12.4,3.7-19.3,3.1c0-2.6,1.7-3.3,3.1-4.1c12.3-7.3,24.6-14.4,38.9-17.3c-0.1-0.4-0.2-0.9,0.1-1.3
		c6.3-3,13.1-2.9,19.1-2.8c-3.8-1.4-9.2,1.2-13.4-2.6c-0.4-2.5,1.7-3,3.2-3.9c15.4-8.4,31.7-14.4,48.4-19.6
		C294.2,96.7,295.8,95.9,297.3,97.4z"/>
	<path class="st10" d="M311.1,60.8c0.1-9.5,0.1-19,0.2-28.5c1.9-1.9,4.3-1.6,6.6-1.3c29.9,3.5,59.6,8.8,88.9,15.8
		c46,10.9,90.6,25.9,134.1,44.3c6.3,2.7,9.5,6.2,10.3,13.5c3.3,30.2,4.4,60.5,3.3,90.8c-1.1,29.6-4.9,59.1-11.3,88.1
		c-1.5,6.5-3.4,12.9-5.1,19.3c-0.4,1.7-0.8,3.7-3,4.2c-3.4-0.1-6.8-0.4-9.9-1.8c-2.2-1.6-2.7-3.9-2.6-6.4
		c0.8-11.3,4.6-22.1,6.1-33.3c1.3-9.2,2.5-18.4,5.2-27.3c0.2-1.5,0.9-2.9,0.1-4.8c-6.5-8.3-12-17.8-19.5-27c-0.6,3,1,4.2,2,5.5
		c4.3,5.9,8.9,11.7,12.9,17.8c1.9,3,2.2,5.6,0.4,8.8c-5.2,9.1-11,17.9-16.3,27c-0.5,0.9-1.2,1.6-2.8,2.5c-9.8-0.5-19.8-3.8-30.3-4.3
		c7.4,3.3,15.9,3.1,23.2,6.8c1.3,0.6,2.9,1,3.2,3c-0.8,2.8-3.3,4.3-5.4,6c-4,3.3-8,6.5-11.5,10.2c-6.7,7-14.7,8.2-23.6,6.7
		c-6.7-0.6-13.4-1.4-20.1-1.8c-2.9-0.2-6-1.2-8.7,0.7c-2.4,2.9-4.7,5.8-8.2,7.8c-3.2-1.7-3.2-5.3-5-7.7
		c-10.3-22.9-26.5-41.2-45.6-58c6.5-4.7,12.8-8.5,19.9-6.2c10.7,3.4,17.4,10.8,16.8,22.5c1.9,1.5,3.7,0.3,5.5,1.4
		c1.8,3,0,6.2-0.5,9.8c3.6,0.2,6.8,0.3,9.9,0.4c1.2,1.5-1,2-0.4,3.8c2.5,0.2,5.2,0.4,8,0.7c1,1-0.6,1.7-0.1,3.4
		c5.7,0.2,11.4-1.2,17-2.9c2.6-0.8,4.8-3.3,8.1-1.5c0.6,0.4,2.4-0.8,3.4-1.6c6-5,10.4-11.2,12.2-19c0.8-3.4,0.7-6.6-1.1-9.5
		c3.6-7,8-13.6,6.2-22.4c-6.2,2.4-8.3,9.9-15.3,10.3c-2-3.9,0.3-8.2-1.4-11.7c-2.5-1.2-4,1.8-6.2,1.1c-3.6-7.8,1.7-22.2,10.4-27.8
		c1.1,6.8-2.9,12.6-3.6,18.9c2,1.7,3.6,0.3,5.3-0.6c4.4-2.3,7.5-6,10.9-9.4c2.1-2.1,4.4-3.6,7.6-2c3.7,4.7-1.4,9.5-0.2,14.4
		c4.7,1.1,7.7-1.9,10.7-4.3c3.6-2.9,7.1-6.2,9.4-10.3c2.2-3.9,5.4-6.6,8.7-9.5c7.9-6.9,11.8-15.4,10.5-26.1
		c-0.3-2.3,0.6-4.2,1.4-6.2c3.5-7.9,3-11.1-3.1-16.9c-8.6-8.1-15.9-17.5-25.6-24.3c-1.5-1.1-2.6-2.6-3-4.5
		c-1.7-8.4-6.9-13.9-14.5-17.1c-5-2.1-9.1-5.4-13.3-8.7c-20-15.2-42.6-22.4-67.6-23c-18.4-0.4-36.4,2.6-54.1,7c-2.9,0.7-5.6,0-8.4,0
		c-8.3,0.1-16.6,0-24.9,1C311.9,67.2,310.3,65.6,311.1,60.8z"/>
	<path class="st11" d="M445.3,473.4c7.4-3.3,14.9-6.4,22.9-8.1c1.6,3.1-0.8,5.1-2.3,7c-9.2,12.2-18.9,24.1-29,35.6
		c-16.2,18.4-34.1,35.1-53.3,50.3c-21,16.6-43.4,30.9-67.5,42.5c-1.5,0.7-3,1.5-4.7,1.5c-6-1.2-11-4.5-16.3-7.3
		c-27.2-14.4-51.6-32.8-74.6-53.2c-21.4-18.9-40.2-40.2-58-62.4c-1.7-2.2-5.1-4.3-2.4-8c9,1.4,17.5,3.1,23.8,11
		c15.3,19.5,32.6,37.3,51.6,53.2c1.7,0.6,3.3,1.4,4.7,2.5c19.4,16.9,40.1,31.9,63.3,43.4c1.5,0.9,2.9,2.1,4.7,2.6
		c2-0.1,1.7-1.7,1.7-2.9c0-5.9,0.3-11.8-0.2-17.7c0.2-3.5,3-5,5.5-6.5c11.2-6.8,22.4-13.4,33.7-20c8.2-4.8,9.7-4.7,17.1,1.4
		c0.9,1.1,2.1,2,3,3.9c0.8,1.4-1.1,3.7,0.3,5.6c2.7,0,3.8-2.3,5.4-3.7c1.5-1,3-2,4.3-3.3c5-3.1,9.3-7,13.4-11.1
		c16.8-16.6,33.9-32.9,48-52C441.8,476,443.2,474.3,445.3,473.4z"/>
	<path class="st0" d="M359.5,412.8c0-7.6,0-14.7,0-22.1c1.1-1.2,3,0,4.8-1.1c-0.4-23.1,0.1-46.4-0.8-69.7c-2-0.3-3.5-0.5-5.3-0.7
		c0-6.9,0-13.7,0-20.7c10-1.1,19.9,1.1,30,0.7c11.1,22.7,22.1,45.3,33.4,68.5c10.4-20.8,18.4-42.1,28.6-62.8
		c9.5,1.1,19.1,2.1,28.8,3.2c0.5,6.9,1,13.5,1.4,19.8c-1.5,1.9-3.4,0.5-5,1.6c1.4,23.2,2.8,46.6,4.1,69.6c1.7,1.7,3.6,0.9,5.6,1.8
		c0,7.5,1.6,15.1,1.1,23c-10.9-1.4-21.6-2.8-32.5-4.2c-1-18.4-2-36.6-2.9-54.8c-0.3,0-0.5,0-0.8,0c-5.9,13.1-11.7,26.1-17.7,39.4
		c-6.3,0.7-12.5-0.7-18.9-1c-7-14.3-14-28.7-21-43c-0.3,0.1-0.5,0.2-0.8,0.3c0.5,17.9,1.1,35.8,1.6,54.2
		C381.9,414,371,413.4,359.5,412.8z"/>
	<path class="st12" d="M467.4,100.2c2.9,1.9,1.5,4.7,1.7,7.2c-1.5,2.5-3.5,4.1-6.6,4.8c-4.4-1.7-7.5-5.5-11.2-8.5
		c-5.8-4.8-11.5-9.5-19.2-11c-3-0.6-6-0.3-8.9-0.4c-8.7-0.2-17.4,0.6-26.6-0.7c3.6,3.8,8.5,5.5,10.8,10.1
		c-3.1,5.9-8.8,9.9-11.8,16.3c3.3,0,5.7-1.7,8.2-2.6c10.6-4.2,20.1-2.9,28.7,4.7c1.9,1.7,4.1,2.9,6.4,3.6c7.7-0.4,15.3-0.8,23-0.1
		c-1.8,2.1-3.7,2.9-6.2,2c-3.6-1.3-6.8,0.8-10.1,1.7c-6.5,1.8-13,4-18.4,8.3c-3.2,1.9-6.3-0.7-8.9,0.2c1.6,0.1,3.9-0.3,5.8,1
		c1.3,1.9-0.4,2.8-1.5,3.5c-3.9,3-7.4,6.5-11.7,8.9c-5,1.4-10.1,1.5-15.1,2.2c-1.2-0.1-2.5-0.5-3.4,0.9c-4.1,5.4-3.6,12.1-4.7,19
		c-10.1-5.5-20.1-9.6-26-19.4c-6.3-10.6-4.5-21.3-0.2-32c1.8-4.5,4.7-8.4,9.1-12.5c-6.2,0.8-10.6,3.7-16.8,4.6
		c5.8-5.7,11.5-10.2,15.5-17.4c-9.6,0.3-18.6,1.9-27.3-1.3c-8.4-3.1-16.9-5.7-25.4-8.6c-1.5-1.1-1.2-3.1-2.3-4.4
		c1-1.2,2.5-1.1,3.7-0.7c9.8,2.9,19.5,1.1,29.2-0.3c6-0.9,11.6-0.4,17.1,1.8c2.6,1.6,5.4,2.1,8.4,2.6c0.8-2-1.9-2.7-1.3-4.5
		c-1.3-3.5,1.8-3.4,3.6-3.9c5.8-1.5,11.8-2.2,17.7-2.6c29.2-2.1,56.6,3.4,80.5,21.5c1.1,0.8,2.2,1.4,3.5,1.8c0.7,0.3,1.4,0.7,2.1,1
		c5.9,2.1,10,6.1,12.5,11.7c-0.5,2.8-2.7,2.8-4.6,3.2c-2.3-1.4-0.3-4-2.3-5.6c-2.2,2-3,6.2-7.4,5.2c-1.4-5.8-3.8-11.2-8.1-15.4
		c-1.8,0.8-1.1,1.9-1.4,2.8c-3.7,2.5-7,1.1-10.1-1c-5.5-3.7-10.8-7.7-17-10.3c6.1,2.6,11.4,6.3,16.6,10.2
		C460.1,100.6,463.5,101.5,467.4,100.2z"/>
	<path class="st0" d="M116.5,311.2c4.9,4.3,9.7,8.4,14.7,12.7c-0.8,8.1-1.6,16.5-2.5,25.1c-9.6,1.5-19.1,3-29.4,4.6
		c1.2-5.4,0.8-10.3,1.4-15.8c-11.3,1.9-22.2,3.6-33.5,5.5c-2.7,22.3-5.5,44.5-8.3,67.5c11.9-2.2,23.4-4.2,35.1-6.4
		c0.5-5,1-9.9,1.6-15.4c-5.3,0.9-10.1,1.7-15.5,2.6c0.9-8.1,1.7-15.9,2.6-24.4c14.6-2.2,29.1-4.4,44.1-6.7c-0.9,17-3,33.4-4.5,49.9
		c-6.1,5.9-12.1,11.8-18.7,18.3c-20.1,3.4-40.9,7.8-61.7,12.1c-4.7-3.8-9.3-7.6-14.3-11.5c4-29.8,8-59.7,12.3-91.8
		c4.9-4.6,10.8-10.7,17.3-16.1c3.1-2.6,7.6-2,11.5-2.7C84.5,315.7,100.6,313.5,116.5,311.2z"/>
	<path class="st0" d="M233.5,397.5c-6.4,7.2-11.6,13-16.4,18.4c-21.2,1.6-41.3,3.5-61.8,6c-5.1-4.3-10.3-8.6-15.7-13.1
		c2.7-29.3,5.3-58.7,8-87.8c4.7-3.5,8.3-8.2,12.5-12.1c2.5-2.4,5.3-3.5,8.8-3.8c13.1-1,26.1-2.3,39.1-3.6c4.4-0.4,9,0.1,13.5-1.4
		c5.7,4.5,11.4,9,16.3,14C236.3,342.7,234.8,370.9,233.5,397.5z"/>
	<path class="st0" d="M344.1,396.8c-5.5,5-11,10.1-16.7,15.3c-20,0.2-40.1-0.5-60.2,1.1c-5.6-4.9-11.1-9.7-16.9-14.8
		c0.4-9.4,0.8-19.1,1.3-28.7c0.5-8.6,0.6-17.3,0.7-25.9c0.1-9.6,1.6-19.1,0.9-28.7c-0.1-1.7,0.7-3.4,2-4.2c5.6-3.5,9-9.6,15.4-12.6
		c18.8-1.7,38.2-0.9,57.2-1.2c5.5,5,10.8,9.8,16.2,14.6C344.1,339.9,344.1,368,344.1,396.8z"/>
	<path class="st13" d="M588.4,417.8c2.4,0.7,4.9,1.5,7.8,2.4c1.6,7.9,2.9,15.8,3.7,24.4c-10.1-2.3-19.9-4.5-30-6.7
		c-3.7-9.7-7.4-19.4-11.2-29.4c-10.1-1.9-20.1-3.7-30.5-5.7c-2.4,9.1-4.6,17.7-6.9,26.6c-9.3-1.6-18.3-3-27.8-4.6
		c-0.4-7.7-0.9-15.4-1.4-23.2c2.8,0.3,5.1,0.6,7.9,0.9c6.1-22.2,11.3-44.5,16.7-66.9c-2.1-2.3-5.6-0.4-8.2-2.7
		c-0.2-6.4-1.7-13.1-1.4-20.1c14,1.7,27.6,4.7,41.9,7.1C562.8,351.9,575.2,384.9,588.4,417.8z"/>
	<path class="st14" d="M165.2,218.2c3.9-5.8,6.6-12.2,9.5-18.9c12.1,3.8,22.5,9.9,32.4,17.2c13.3,9.9,23.7,22.6,35.2,34.3
		c8.4,8.6,17.4,16.3,28.1,21.9c10.8,5.6,22.6,8.4,34.3,11.4c1.9,0.5,3.9,0.8,5.5,2c-1.8,1.2-3.8,1.1-5.8,1.1
		c-10.7,0-21.3,0.1-32-0.1c-6-0.1-11,1.2-15,6.1c-2,2.5-4.2,5.2-8.2,5.9c-15.1-8.8-28-20.5-39.7-33.8
		c-11.8-13.4-21.6-28.6-35.2-40.6C171.6,222.3,168.7,219.9,165.2,218.2z"/>
	<path class="st15" d="M251.3,48.1c-14.2,9.6-30.4,13.5-46.8,17.1c-12.9,2.9-25.7,6.2-38.1,11c-1.2,1-2.5,1.8-4,2.3
		c-21.7,7-43.2,14.2-64,23.6c-1.5,0.6-3,1.1-4.5,1.6c-5.7,1.7-8.5,5.4-8.8,11.6c-0.5,12.4-2.5,24.7-2.5,37.1
		c0.3,1.8-0.2,3.5,0.1,5.3c-0.2,19.7,0,39.3,1.9,58.9C88,223,86,229.2,84,235.5c-0.5,1.7-1.5,3.1-2.7,4.3c-3.9,4.9-3.9,4.9-8.2,4.8
		c-1.7-4.2-1.7-8.9-2.1-13.4c-1.3-13.9-2.4-27.8-2.8-41.7c-0.4-13.6-1.1-27.3,0.6-40.9c0.5-4,0.1-8,0.2-12c0.1-11.5,2-22.8,3-34.2
		c0.3-3.7,2.4-6,5.6-7.6c3.7-1.8,7.8-2.9,11.3-5.1c1.8-1.9,4.1-2.9,6.4-3.8c32.6-13.6,66.2-24.3,100.4-33.3
		c12.1-3.2,24.2-6.1,36.4-8.8c2.4-0.5,4.9-1.1,7.4-1.1c3.9,0.4,7.5-0.9,11.3-1.3c2.5-0.2,4.7-0.2,5.2,2.9
		C255,46.6,252.8,46.9,251.3,48.1z"/>
	<path class="st16" d="M535.2,306.8c3.4-10,5.8-20.3,7.9-30.7c3.3-15.9,5.4-31.9,7.4-48.1c2.9-24.2,3.2-48.4,2.7-72.7
		c-0.3-16.9-2.1-33.8-3.4-50.6c-0.6-8.2-4.8-10.4-10.9-12.9c-23.9-10.1-48.1-19.3-72.8-27.1C444.6,58,422.9,52.2,400.9,47
		c-21.6-5.1-43.5-8.5-65.4-12.4c-8-1.4-16.1-2.3-24.3-2.3c-0.3-1-0.4-1.9,0.1-2.8c36.8-4.6,201.6,36.2,245.5,60.7
		c9.4,66.6,1.5,182.5-15.1,217.7C539.5,308.3,537.4,307.3,535.2,306.8z"/>
	<path class="st17" d="M238.9,44.2c-13.5,2-26.6,5.7-39.8,9c-35.9,9.2-71.2,20.4-105.4,34.9c-1.2,0.5-2.4,1.2-3.6,1.7
		c-3.5,2.6-7.8,3.3-11.7,5.2c-2,0.9-3.9,1.7-5.5,4c-1.8,13.5-3.1,27.5-3.7,41.6c-0.5,12.3-0.6,24.6-0.6,36.9
		c0.1,16.4,1,32.8,2.7,49.2c0.4,3.9,0.4,7.9,1.1,11.9c1.1,5.4-1.8,9.9-6.1,11.4c-6.3-38-8.6-76.3-6.6-114.8
		c0.8-14.9,1.9-29.9,3.7-44.7c32.7-19.3,149.1-50.5,220-58.7c-5.3,2.9-10.5,5.9-16.3,7.8C258.1,43.1,248.2,41.7,238.9,44.2z"/>
	<path class="st18" d="M83.2,235.2c-1.7-1.8,0.3-3,0.7-4.3c1.6-4.4,2.3-8.8-0.5-13c11.5-16.8,24.5-32.4,39-46.6
		c2-1.4,3.6-3.2,5.5-4.9c-2.4,0.6-4.2,2.6-6.7,2.2c-1.1-0.5-1.8-1.3-2.2-2.4c-0.2-1.4,0.6-2.5,1.2-3.6c8.5-10.2,18.8-18.6,29.3-26.7
		c1.3-0.7,2.4-1.9,4-2.2c7.5-4.9,14.9-9.9,22.5-14.8c29.4-18.8,61.6-31.3,94.8-41.5c1.1-0.3,2.2-0.7,3.3-1.1
		c0.5-0.2,0.9-0.5,1.2-0.6c-1.2-2.9-3.8-2.6-5.6-3.5c-1.9-0.9-4-1.6-6-3c15.4-5.2,31.4-6.8,47.4-8.4c1.1,5.1,2.2,5.8,7.1,5
		c7.3-1.3,14.6-0.7,21.9-0.5c8.8,0.3,17.1-1.9,25.5-3.8c16.4-3.7,33-4.2,49.5-3.1c19,1.3,36.4,7.8,52.4,18.3c1.8,1.2,3.5,2.6,5,4.1
		c4.7,4.6,10.5,7.4,16.4,10.2c5.3,2.5,9.3,6.5,10.6,12c1.5,6.6,6.4,9.6,10.7,13.7c7.7,7.3,15.1,14.9,22.4,22.6
		c2.5,2.7,2.8,6.7,1.4,9.5c-3.4,7.1-2,14.7-3.7,21.9c-1.4,6.1-4.7,11.1-9.3,15c-3.6,3-6.8,6.2-9.5,10.1c-3.6,5.1-8,9.3-13.1,12.8
		c-2.3,1.6-4.8,2.2-7.6,1.4c-2.1-4.7,2.1-9.5-0.2-14.2c-3-1.1-5,0.8-6.9,2.6c-3.3,3.2-6.4,6.8-10.7,8.8c-2,0.9-3.8,2.2-5.6-0.2
		c4,0.5,6.5-2.3,9.1-4.4c4.4-3.6,8-7.9,11.6-12.2c2.9-0.3,5.5-0.5,7.8,1.7c-0.3,5.8-3.9,10.8-4.6,17c3.6,0.3,5.8-1.8,8.2-3.3
		c1.5-1,2.9-2.2,4.2-3.6c6.6-6.9,12.3-14.7,19.3-21.3c5.7-5.3,7.9-13,6.6-21.2c-0.5-3,0.5-5.6,1.9-8.1c3-5.3,2.1-9.9-2.4-13.8
		c-9.3-8.1-16.2-18.6-26.9-25.1c-1.7-1-2.4-2.8-2.7-4.6c-1.4-7.9-6.1-13.2-13.2-16.4c-4.8-2.1-8.9-5-13.1-8.2
		c-24.5-18.9-52.3-26-83-23.7c-12.8,1-25.4,3.2-37.8,6.4c-3,0.8-5.9,0.4-8.9,0.4c-19-0.1-38,0.5-56.9,2.7c-1,0.1-2,0.3-2.7,1.3
		c1,2.7,4.6,3.3,5.4,6.3c-0.6,1.9-2.4,2-4,2.4c-27,8-53.4,17.5-78.7,29.9c-21,10.3-40.6,22.9-59,37.3c-2.2,1.7-4.1,3.7-6,5.9
		c5.3-0.4,9.8-4,15.4-3.5c0.4,2.7-1.7,3.6-3.3,4.9c-21.7,18-42.2,37.3-59.2,60c-1.2,1.6-2.8,3-2.3,5.3c-0.3,2.3-2.4,3.4-3.6,5.4
		c0.6,1.5,1.2,3.2-0.5,4.6c-0.9,0.7-0.9,1.8-1.1,2.7C86.4,233.7,85.5,235.3,83.2,235.2z"/>
	<path class="st19" d="M311.7,552.7c-0.8-1.5-0.7-3.2-0.7-4.9c0-21.6,0-43.2,0.1-64.8c0-1.1,0.2-2.3,0.3-3.7
		c4.7-0.3,9.1-0.5,13.5-0.8c7.3,1.4,13.6,5.4,20.1,8.6c2.2,1.1,3.8,2.9,4.1,5.4c1.4,12.2,3.3,24.4,3.7,36.8
		c-5.2,5-11.4,8.2-17.4,11.6c-5.9,3.4-11.8,6.8-17.7,10.3C315.9,552.3,314.1,553.9,311.7,552.7z"/>
	<path class="st20" d="M311.7,552.7c13.6-7.2,26.9-15.1,40.1-23.6c-1.4-13.1-2.8-26.1-4.2-39.1c-7.3-4.6-15.6-6.9-22.7-11.5
		c5.4,0.5,11-0.6,16.4,1c3.2,0.2,5.9,2.1,8.7,2.7c2.5-0.2,4-2.2,6.1-2.7c2.3-0.3,4.6-0.7,6.9,0.2c-0.1,3-2.4,4.6-4.2,6.4
		c-2.3,2.2-3.5,4.6-3.1,7.9c0.6,5.5,0.9,11.1,1.7,16.6c0.2,4.2,0.8,8.4,1.3,12.6c-0.4,4.1,1.4,6.8,5.2,8.4c1.5,0.6,2.8,1.7,4.2,2.4
		c3.7,2.6,8.8,3.1,11.5,7.3c0,2.7-2,2.9-4,3.2c-4.2-0.4-7-3.5-10.2-5.5c-2.5-2.2-5.6-3.4-9-5.1c-14.4,8.6-29,17.3-43.6,25.9
		c-1.3,0.8-1.9,1.8-2,3.2c0.1,5.6-0.6,11.2-1.2,16.8c-0.2,2-0.7,3.9-2.5,5.2c-1.5-0.5-3.1-0.8-3.9-2.4c-1.8-4.6-0.4-9.3,0.5-13.7
		c1.1-5.9-0.2-9.9-5.2-13.7c-9.2-7.1-18-14.8-26.7-22.5c-3.1-2.7-5.9-3-9.5-1.4c-5.7,2.4-11.5,4.3-17.3,6.6
		c-1.9,0.7-3.7,1.5-5.8,0.6c-1.7-0.4-2.8-1.5-3.6-2.9c10.5-3.9,21-7.9,31.5-11.8c3.6-13.2,7.1-26.3,10.6-39.2
		c-1.4-1.7-2.6-3.1-3.8-4.4c2.8-2.1,5.3-0.7,7.7,0.4c7.8-3,15.6-1.8,23.6-0.9c-7.3,2.3-14.6,4.6-22.3,7c-3.3,12.4-6.6,25-10,37.8
		c11.8,10.4,23.7,20.4,35.5,29.9C310.1,554.5,310.8,553.4,311.7,552.7z"/>
	<path class="st21" d="M297.3,97.4c-19.6,5.5-38.6,12.5-56.2,22.7c-3.4,3.9-8.2,5.5-12.8,7c-1.7,0.6-3.5,1-4.4,1.6
		c3.4-0.8,7-3.8,11.4-1.5c-2.8,2.2-6.4,2.8-9.7,4c-11.2,4.3-21.7,9.8-31.5,16.9c7.2-1.4,14.4-2.8,21.6-4.2
		c-9.2,5.9-18,12.1-26.6,18.6c-18.3,13.8-34.2,30.1-48.4,48.1c-0.9,1.1-1.6,2.5-3,3.2c-0.1,0-0.3-0.1-0.4-0.2
		c-0.1-0.1-0.1-0.3-0.2-0.5c12.2-20.5,27-38.8,45.9-53.7c-11.1,2.8-21.3,7.7-31.5,12.6c11.2-9,22.6-17.7,34.8-25.2
		c5.7-3.4,11.7-6.4,17-10.3c9.7-7.1,19.5-14.1,29.6-20.5c18.7-11.8,38.5-21.2,59.4-28.5c1-0.3,1.9-0.7,3.1-0.3
		c0.9,2.3,1.8,4.7,2.8,7.1C298.7,95.8,298.7,96.8,297.3,97.4z"/>
	<path class="st22" d="M310.9,601.3c11.6-4.3,22.1-10.7,32.6-17c31.9-19,60.1-42.7,85.5-69.7c12.7-13.5,24.5-27.9,35.7-42.8
		c1.5-2,3.1-3.9,3.4-6.5c3.8-2.9,8.3-3.7,13.6-5.6c-7,11.4-14.6,20.9-22.2,30.4c-29.2,37-63.2,68.9-102.7,94.7
		c-13.1,8.5-26.7,16.2-41,22.7c-1.5,0.7-2.9,1.6-4.7,1.5C309.5,606.5,309.3,603.9,310.9,601.3z"/>
	<path class="st11" d="M367.3,534.9c-3.1-1.3-6-3.1-8.8-4.9c-1-1.9-1.2-3.8-1-5.7c-2.3-9,3.6-12.9,10-16.9
		c9.9-6.1,19.3-13,27.6-21.1c5.3-5.2,11.3-5.1,17.8-3.9c3.4,1.2,6.8,1.4,10.2-0.2c1.8-0.5,3.6-1.7,5.6-0.7c1.5,2.5-0.6,3.7-1.7,5.2
		c-5.7,7.6-13.3,13.4-20.1,19.9c-9.4,9.1-19.6,17.4-30.2,25.1C374,533.7,371.2,535.9,367.3,534.9z"/>
	<path class="st23" d="M310.9,601.3c0.1,2.5,0.3,5.1,0.4,7.6c-19.3-9.2-37.7-20-55.1-32.4c-38.9-27.8-71.9-61.6-100.9-99.3
		c-3.1-4.1-6.2-8.2-9.6-12.8c6.5-0.2,10,4.3,14.4,7c-1.2,2.2,0.4,3.7,1.5,5.1c34.1,43.3,73.2,81.2,120.7,109.8
		C291.5,591.9,301.1,596.9,310.9,601.3z"/>
	<path class="st24" d="M424.2,137.3c-2.6-1.1-5.4-0.9-8.1-1.5c3.6-1,7.3-0.6,11-0.2c12.4,1.5,24.4,4.8,36.2,8.7
		c3,0.1,5.8,1.2,8.3,2.7c3.4-3.9,6.6-3.9,14.3,0c-3.1-5.9-10.3-7.3-15.2-11.9c4.8-2.9,14.3-1.1,18.6,3c7.5,4.4,13.1,10.5,17,18.2
		c3.7,9.4-2.5,17.2-13,17.5c-4.6,0.1-9.2,0.7-13.7-1c-3-1.6-7.3-1.8-7.3-6.7c4.4-1.6,9-1.6,12.5-0.5c-2.8-0.5-6.7-2.3-10-5.3
		c-1.5-1.4-3.3-1.4-5.1-1.6c-12.8-4.7-26.3-5.7-39.7-7.2c-3.3-1.1-6.8-0.5-10.2-0.7c-2-0.1-4.3,0.4-5.7-1.8c0.5-1.9,2.2-1.9,3.6-1.9
		c15.3-0.3,30.6-0.6,45.6,2.8c1,0.2,1.9,0.5,2.8,1c-5.3-2.8-11-4.4-16.6-6.3c-5.8-2-11.8-3.5-17.8-4.7
		C429.1,139.2,426.3,139.2,424.2,137.3z"/>
	<path class="st25" d="M135.3,202.3c-17.9,17.7-33.4,37.2-45,59.8c-3.5,6.8-4.1,13.8-2.5,21.2c1.6,7.1,3.4,14.1,6.3,20.8
		c-3.8,0.6-5.3-2.6-7-4.7c-5.6-7-11.6-13.6-17.8-20.8c16.1-32.7,40.1-58.8,69-81.9C137.9,199.5,135.9,200.5,135.3,202.3z"/>
	<path class="st26" d="M367.3,534.9c7.7-1.6,12.7-7.4,18.5-11.9c9.1-6.9,17.6-14.5,25.7-22.6c5-5,10.8-9.2,15-15.1
		c0.7-1,2.3-1.5,1.9-3.3c-1.8-0.8-3.5,0.6-5.3,0c6.9-4,14.7-5.8,22.1-8.8c-16.1,22.4-35.7,41.5-55.6,60.5c-2.9,2.8-5.5,6.9-10.2,7.4
		C375.4,539.2,371.4,537,367.3,534.9z"/>
	<path class="st27" d="M153.4,133.6c-0.3,1.7-1.3,2.6-3,2.5c-3-1.6-3.2-4.8-4.4-7.5c-2.3-5.4-3.3-11.5-7.2-16.5
		c-10.8,1-21.6,0.9-32.7,3c-3.7,10.7-6.1,21.4-8.4,32.3c6.3,6.9,14.8,10.2,20.9,16.6c0.5,3-0.9,4.5-3.8,4.9
		c-6.3-2.4-10.7-7.8-16.3-11.1c-2-1.2-3.6-3-5.2-3.5c-4.8-0.7-7.7,3.8-11.9,2.8c0.1-1.6,0.1-3.1,0.2-4.7c0.6-1,1.3-2.1,2.4-2.4
		c5.6-1.4,7-5.8,8.1-10.8c1.6-7,3.1-14,5.4-20.8c1.4-4.1,1.2-7.7-1.8-11.1c-1.1-1.3-2.6-2.7-1.6-4.9c1.2-1,2.5-1.6,4.1-1.5
		c3,0.8,3.6,4.3,6.8,6.1c7.5,0,15.5-1.3,23.6-1.6c1,0,2-0.6,3-0.4c7.9,1.3,11.9-3.6,15.9-9.4c4.4-6.4,8-13.5,14.6-18.2
		c1.5-0.5,2.7-1.7,4.4-1.3c-6.2,10.4-13.8,19.8-20.6,29.8c-0.5,0.8-1.1,1.6-1.8,2.6C147.2,117,150.3,125.3,153.4,133.6z"/>
	<path class="st24" d="M278.5,424.5c0,2,0,3.8,0,4.8c-0.5,2.2-2.3,1.5-3,3c-0.5,10,0.1,20.5-1,31.2c-3,0.1-5.6,0.3-8.5,0.4
		c-4.5-6.5-9.1-13.1-13.7-19.6c-0.5,4.8-2.6,9.5,0.7,13.7c-0.3,2-0.6,4-0.9,6.2c-4.4,0.4-8.8,0.8-13.2,1.2c-0.9-2.3-0.4-4.3-0.5-6.4
		c0.9-0.6,1.8-1.2,3-2c-0.4-7.7,0.9-15.5,0.9-23c-0.4-1.6-2.5-0.9-2.6-2.5c0.2-1.8,0.4-3.6,0.7-5.8c3.7,0,7.3,0,11.4,0
		c4,5.9,8.3,12.3,13.3,19.6c0.6-7.6,0-14.1,1.1-20.7C270.2,424.5,274.1,424.5,278.5,424.5z"/>
	<path class="st21" d="M322.5,260c-1.8-1.2-3.9-0.3-6.1-1.1c-16.9-30-41.9-51.1-74.9-64.6c6,0,10.2,2.4,14.8,2.7
		c33.2,10.3,59,36.5,72.7,63.3C326.8,260.3,324.6,260.1,322.5,260z"/>
	<path class="st28" d="M418.3,428.1c2.5,2.2,4.7,4,6.7,5.8c0.9,9.5,2.4,18.9,2.2,28.8c-3,3.2-6.4,5.3-11.5,4.7
		c-7.7-0.9-15.5-1.2-23.4-1.8c-0.1-2.5-0.2-4.6-0.3-6.5c0.5-1.2,2.1-0.9,2.3-2.2c-0.4-7.6-0.9-15.2-1.3-22.7
		c-0.4-1.3-1.9-0.6-2.6-2.2c-0.4-1.4-0.2-3.3,0-5.9C399.9,426.7,409.1,427.4,418.3,428.1z"/>
	<path class="st29" d="M466.1,296.3c4.9-0.5,9.7,0.3,14.6-1.9c4.3-1.9,7-5.4,10.5-8.1c5.2-3.9,9.8-8.7,14.9-13.2
		c-1.2-0.8-2.1-1.3-3-1.9c4.5-1.9,8.2-1.1,9.4,2.7c3,8.9,6.2,17.8,8.7,26.9c0.3,1,0.2,2-0.4,2.9c-7.8,0.3-15.3-2.4-23-3.1
		c-1.1-0.1-2.3-0.2-3.5-0.4c-1.6,1.5-1.8,3.9-3.7,5.2c-1.3-1.7-1.1-3.8-1.8-5.8c-5.7-1.4-11.6-1.9-17.5-2.4
		C469.6,297.1,467.7,297.6,466.1,296.3z"/>
	<path class="st30" d="M363.4,431.7c0,3.3-0.2,5.8,0.8,8.2c3.9,0.9,8-0.2,11.9,1.3c1.1,2,0.8,4.2,0.7,6.5c-4,1-8.2-0.1-12.5,0.5
		c0,2.5,0,4.9,0,7.7c3.5,0.2,6.9,0.5,10.1,0.7c1.1-0.5,0.7-2.1,2.7-2.2c2,0.2,4.6,0.5,7.4,0.8c0.6,3.2,0.6,6.3,0.3,9.7
		c-11.1-0.5-21.8-1-32.8-1.5c-0.2-2.2-0.4-4.2-0.5-5.3c0.3-2.3,2.2-1.5,2.4-1.9c0-8.5,0-16.1,0-23.8c-0.4-1.7-2.4-0.9-3-2.6
		c-0.1-1.3-0.2-3.1-0.4-5.7c10.9,0.4,21.6,1.3,32.6,1.1c0.4,3.1,0.7,5.8,1.1,8.7c-2.8,0.9-5.4,0.2-8,0.5
		C372.5,430.2,367.8,432.7,363.4,431.7z"/>
	<path class="st31" d="M520.9,303.7c-3.4-10.3-6.7-20.6-10.1-31.1c-2.4-1-4.9-1.7-7.6-1.4c-8.4-2.9-17.3-3.9-25.8-6.2
		c-0.2-1.7,0.5-2.7,2.1-3.7c10.1,1.8,20.6,3.7,31.3,5.7c6.9-10.7,13.5-21.5,20-32.8c-5.8-9.4-12.5-18-19-26.6c0.6-1.6,1.7-2.3,3-3.1
		c8,8.9,13.3,19.8,21.6,28.8c0.5,1.3-0.3,2.6-1,3.9c-4.2,10.7-10.9,20-16.7,29.8c-1.8,3-2.1,5.6-1,8.9c2.6,7.7,5.8,15.2,6.1,23.4
		c0.5,1.9,1,3.8,1.5,5.8C523.5,305.5,522,305.3,520.9,303.7z"/>
	<path class="st32" d="M66.4,249.9c3.9-4.1,5.9-8.3,5.2-14.6c-5-43.3-4.9-86.6-0.3-129.9c0.3-2.6,0.8-5.3,1.2-8.3
		c5.5-3,11.5-5.4,17.6-7.3c-0.5,2.6-3,2.3-4.7,3.1c-4.1,2-8.9,2.7-11.9,6.6c-6,48.1-5.5,96.2,0.3,144.3c4.4,0.5,4.3-4.9,7.5-5.7
		c1.4,2.6-0.9,4.1-2,5.7c-6.2,9-12.7,17.8-16.2,28.4c-1,3-1.6,6.1-2.9,8.8c0.9,4.3,4.7,6.1,7.4,8.6c4.8,4.4,9.4,8.9,12.7,14.6
		c0.1,3.4-1.8,1.9-2.9,1c-2.3-1.8-4.4-4-6.5-6c-1.4-1.3-2.8-2.8-5-3.6c-1,3.8,1.7,6.9,1.5,10.4c-0.4,0.7-0.8,1.5-2.1,1.7
		c-2.5-2.2-1.8-5.7-2.7-8.5c-1.4-4.7-1.8-9.8-5.8-13.4c-1.5-1.4-1.8-3.6-1.4-5.6c1.3-7,0-13.8-0.9-20.7c-0.2-1.6-1-3.9,1.8-4.4
		c-0.2,3,1,5.7,1.9,9.5C62.5,259.9,64.4,254.8,66.4,249.9z"/>
	<path class="st27" d="M206.5,459.3c4.1-0.5,7.7-0.9,11.9-1.3c0.8-10.2,1.5-20.2,2.3-30.5c4.1-0.6,8.1-1.3,12.5-1.1
		c0,2.1,0,4.1,0,6.3c-0.3,1.1-2.2,0.2-2.6,1.6c-1.2,8.4-1.3,16.8-1.5,25.4c-1.9,2.9-5.2,4.1-7.1,6.6c-6.3,0.6-12.5,1.2-18.9,1.8
		c-2.4-0.8-4.5-2.7-6.8-4.5c0.1-8.8,1-17.6,1.9-26.9c0-0.8-1.7-0.2-2.2-1.5c0.1-1.7,0.3-3.6,0.4-5.9c4-0.9,8-0.8,12.4-1
		C208,438.5,207.3,448.6,206.5,459.3z"/>
	<path class="st33" d="M430.3,150c10.2,0.4,20.3,2,30.3,4c3.4,0.7,6.4,2.3,9.6,3.3c0.7,0.4,1.6,0.4,2.1,1c0.3,0.8-0.1,1.2-0.6,1.6
		c-3.9,1.6-7.8-0.1-11.7-0.2c-14.8-0.6-29.4,0.8-43.7,4.3c-1.9,0.5-3.9,0.4-5.8,1.2c-2.6,1.1-5.3,1.7-8.1,2
		c-1.4,0.3-1.7-0.7-1.8-1.7c-0.4-4.5,5.3-14,9.7-16.2C416.9,150.2,423.6,149.3,430.3,150z"/>
	<path class="st28" d="M320.9,431c-2-0.9-3.4-0.5-4.9-0.6c-0.5,0.9-0.9,1.8-1.3,2.5c-2.5,0-4.7,0-7.3,0c0-3.1,0-6,0-8.9
		c12.1,0,24.2,0,36.5,0c0,3.3,0,6,0,9.1c-2.3,0-4.8,0-7.8,0c-0.9-1.3-2.3-3.3-5.1-1.5c0,7.5,0,15.1,0,22.2c0.3,1.9,2.3,1.2,2.7,2.6
		c0,2,0,4,0,6.4c-4.7,0-9.6,0-14.8,0c-0.7-1.8-0.1-4-0.3-5.5c0.3-1.9,2.1-1.6,2.3-2.4C320.9,446.7,320.9,438.9,320.9,431z"/>
	<path class="st34" d="M505.1,122.4c0.5,2.1-2.7,3.7-0.9,6.1c12-1.9,14.9,9,21.5,15.2c-8.4-1.6-16.5-4.1-25.3-4.6
		c-6.8-9.2-16.2-13.8-27.9-14.1c5-5.3,12.5-3.6,31.2,6.4c-3.5-6.8-7.9-9.4-23.8-14C486.1,111.4,499.1,114,505.1,122.4z"/>
	<path class="st14" d="M184.4,291.5c-3.3,3.1-7.1,0.9-10,2.3c-9-6.1-11.7-50.1-1.7-62.8c0.9,7.5-1.3,14.2,0.1,20.9
		c1.4,6.8,1.8,13.7,3.9,20.4C178.8,278.8,182,285,184.4,291.5z"/>
	<path class="st35" d="M356.1,510.3c-1.5-6.8-1.5-13.8-2.4-20.7c3.1-3.3,6.2-6.5,9.2-9.8c3.4,1.2,6.9,0,10.4,0.5
		c3.5,1.5,7.5-0.8,10.8,1.4c0.8,2-0.3,3.1-1.2,4.2c-6.9,8.5-14.6,16.2-23.2,23C358.7,509.8,357.5,510.4,356.1,510.3z"/>
	<path class="st26" d="M356.1,510.3c10.3-8.1,19.6-17.3,27.9-27.7c-3.4-2.8-7.6,0.1-10.7-2.3c12.7,0.4,25.4,1.4,38.1,1.2
		c0.7,0,1.3,0.3,1.6,0.9c-3.6,0-7.3,0-11.3,0c-13.1,12.7-28.3,22.9-42.9,32.6c-1.2,3.7,0.2,6.7-1.3,9.3
		C356.7,519.6,355.8,515,356.1,510.3z"/>
	<path class="st36" d="M472.1,245.7c-2.6,7.4-12.8,13.8-18.4,11.9c-0.8-1.5,1.4-2.2,1.1-3.8c-2.4-0.8-4.4,2.6-6.9,0.9
		c-1.4-1.6,1.6-2.4,0.6-4.2c-9.9,0.3-14.2-6.8-17.8-14.5c-4.7-10-8.3-20.3-6.9-31.7c0.7,2.5,1.4,4.9,2.1,7.4
		c0.8,2.7,1.5,5.4,2.4,8.1c2.1,6.1,4.3,12.2,8,17.6c4.4,6.3,10.4,8.4,17.8,7.3C460,243.9,465.9,243.8,472.1,245.7z"/>
	<path class="st37" d="M476.5,96.2c-2.2,0.3-2.1,0.2-4.3-1.2c-10.8-6.8-21.8-13.3-34.3-16.7c-18.6-5-37.5-5-56.4-2.6
		c-2.8,0.4-5.5,1.1-8.3,1.4c-1.6,0.2-1.8,1-1.9,2.2c-1.5-1.1-2.9-2.1-4.4-3.2c7.8-4.1,45.5-7.6,57.9-4.8
		C443.8,75.7,461.6,82.9,476.5,96.2z"/>
	<path class="st38" d="M285.3,462.9c0-2.1,0-3.9,0-5.5c0.2-1.7,1.9-1.5,2.7-3.3c0-6.8,0-14.5,0-22.1c0.1-1.4-1.7-1.2-2.1-2.2
		c0-1.8,0-3.4,0-5.3c4.6-1.4,9.2-0.6,14.1-1.2c0.4,3.2,1.4,6-1.9,8.1c0,7.4,0,14.9,0,22.4c-0.3,1.6,1.6,1.4,2,2.5c0,2.1,0,4.2,0,6.7
		C295,462.9,290.2,462.9,285.3,462.9z"/>
	<path class="st9" d="M489.3,138c-5.4-2.2-11-3.5-17.1-3.2c7.5,3,13,8.2,17,14.9c-5.2-2.1-9.8-6.3-15.7-4.3c-1,2.3,1.5,2.3,1.5,4
		c-4-1.7-8.1-3-11.7-5.2c1.7-0.9,2.3-2.7,3.2-4.4c-2.4-1.4-5.4,0.5-7.5-1.5c-0.3-2.7,2.8-2.5,3.5-4.3c-0.8-1.4-2.6-0.1-3.7-1.4
		c3.9-3.8,8.9-3.5,13.7-3.3c5.1,0.1,9.6,2.2,14.1,4.4C488.5,134.4,489.5,135.9,489.3,138z"/>
	<path class="st39" d="M440.2,195.3c0.9,1.5,1,3.2,1.2,4.9c0.4,3.3,2.6,6.1,2.6,8.3c-0.2-1.6,0-4.3,1.5-6.9c3.1-2,4.1-0.2,4.4,2.5
		c0.3,3.4-0.5,6.8,0.4,10.1c-0.1,2,0.6,3.7,1.9,5.2c1.6,2,0.5,3.4-1.2,4.4c-2.2,1.3-4.7,1.8-7,0.2c-3.8-2.7-6.1-6.5-7-11
		c-1-4.8-1.5-9.8-2.6-14.6c-0.5-2.4-0.2-4.6,2.4-5.7C438.6,192.7,439.4,194,440.2,195.3z"/>
	<path class="st37" d="M364.2,81.2c-8.6-1.4-17.1-0.6-25.6,0.9c-8.3,1.5-16.4,0.2-24.4-1.7c-2.1-0.8-4.2-1.6-6.3-2.4
		c0-0.3,0.1-0.7,0.1-1c16.7,1.8,33.5-3.2,50.2,1.3C360.3,78.9,362.8,79,364.2,81.2z"/>
	<path class="st40" d="M409.3,150.5c-4.2,4-5.6,9.6-7.9,14.7c-0.4,0.8,0,1.6,0.9,2.1c-3.1,3.6-1.6,8.1-2.3,13.2
		c-3.1-4.8-3.9-9.2-5.2-13.5c-1.4-4.8,0.8-9.2,0.3-13.4c-0.8-1.3-2-1-2.9-1.3c-0.2-0.6-0.6-1.2,0.1-2c0.7,0,1.5,0.1,2.3,0.2
		c4,0.8,7.7-1.1,11.6-0.9C407.4,149.6,408.6,149.3,409.3,150.5z"/>
	<path class="st41" d="M361.4,287.1c-11-8.7-23.6-14.5-36.6-19.7c-1.3-0.5-2.7-1.1-4-1.7c0,0,0-0.3,0.1-0.4c0.1-0.1,0.3-0.2,0.4-0.3
		c18.9,3.2,35.6,11,50.3,23.4C366.5,289.4,365.5,289.3,361.4,287.1z"/>
	<path class="st42" d="M440.2,195.3c-1.2-0.4-1.9-2-3.4-1.6c-2,1-1.8,2.9-1.3,4.4c1.6,5.1,1.8,10.5,2.9,15.6
		c0.8,4.1,3.4,7.2,6.7,9.6c3.3,2.5,6.3,0.7,7.1-3.8c1.5,0.5,1.7,1.8,2.1,3.2c-2.8,2.7-6.2,3.4-9.9,3.4c-6.6-4-8.6-10.5-9.8-17.3
		c-1-5.5-1-11.2-4.7-16c-1.4-1.8-0.5-3.7,2-7.1C436.3,185.6,437.9,187.5,440.2,195.3z"/>
	<path class="st14" d="M80.2,304.4c-6.7-7.1-13-14.6-20.9-20.5c-0.7-4.2,1.5-7.6,2.8-11.1c3.9-10.5,9.8-19.9,16.1-29.1
		c1.2-1.7,2.9-3.2,3.2-5.5c0.6-1,1.2-2,1.8-3c1.3-1.1,2.6-2.3,3.9-3.4c-1.2,6.1-5.1,10.9-8.7,15.4c-8.1,10.2-14.3,21.1-16.8,34.6
		c1,3.1,4,5.2,6.8,7.6C73.4,293.5,78.3,297.8,80.2,304.4z"/>
	<path class="st43" d="M472.4,166.3c1.5,2.7,4.3,3.7,6.8,5.1c1.1,1.2,1.2,2.5,0.2,3.8c-8-0.3-14.2-4.6-20.1-9.4
		c-1.5-1.2-2.7-2.9-4.1-4.3c1.3-1.6,3.1-1.4,4.8-1.2c3.9,1.5,8.3-0.4,11.9,1.6C473.2,163.4,472.7,164.8,472.4,166.3z"/>
	<path class="st44" d="M516.9,158.9c0.4-4.2,1.2-8.1-3.7-10.5c-1.3-0.1-3.1-0.2-5.1-0.3c-1.5-0.9-2.9-2-2.7-4.4
		c8.2-2,14.7,3.8,22.2,4.4C526.9,154.9,520.5,155.3,516.9,158.9z"/>
	<path class="st45" d="M460.2,161.4c-1.7,0-3.3,0-5,0c-13.2-1-26.1,0.9-38.9,3.3c-2,0.4-3.9,0.5-5.9,0.5c8.2-3.5,17-4.4,25.7-6
		c12.1-2.1,24.1-0.8,36.2,0.1c1,0.2,1.9,0.4,2,2.5C469.5,161.6,464.9,162,460.2,161.4z"/>
	<path class="st46" d="M486.6,179.9c-2,8.7-6.8,14.5-13.5,20.6c1.9-7.1,3.5-13.1,3.5-19.6C479.6,179.8,482.7,180.1,486.6,179.9z"/>
	<path class="st47" d="M479.4,175.1c-0.1-1.3-0.1-2.5-0.2-3.8c3.6,0.3,7.2,0.8,10.8,0.9c12.3,0.4,16.4-3.7,16.3-16
		c6.7,9.7,1.5,16.3-6.8,18.1C492.8,175.7,486.1,175.1,479.4,175.1z"/>
	<path class="st48" d="M512.4,181.9c-2.5-6.7,1.2-13.1,11.2-20C524.8,168.3,519.7,177.4,512.4,181.9z"/>
	<path class="st49" d="M446.6,109.7c0.6,4.7,6.7,3.7,7.9,7.9c-6.8,3.9-13.7,0.7-16.1-7.4C441.6,108.8,441.6,108.8,446.6,109.7z"/>
	<path class="st50" d="M448.4,231.8c5.5-2.2,9.7-6.6,14.9-10.8c-2.3,6.3-4.7,11.7-8.4,16.2C449.4,237.2,448.7,236.6,448.4,231.8z"/>
	<path class="st51" d="M458.3,237.6c0.3-2.1,0.9-3,2.4-3.8c2.5,1.5,5.6,1.5,8.7,1.4c0.6-5.1,6.2-5.3,8.5-8.8
		c-0.4,4.7-3.2,8.2-5.8,11.7C467.5,238.8,463.2,236.2,458.3,237.6z"/>
	<path class="st52" d="M467.4,100.2c-1.5,3.8-4.4,2.3-6.6,1.5c-2.1-0.8-4.1-2.2-6-3.5c-5.8-4.2-11.5-8.5-19-11.5
		c3.5-0.5,5.5,1.1,7.5,2.1c4.5,2.4,9,5,13.3,7.8c3.3,2.1,6.7,3.4,10.6,2.7C467.3,99.5,467.4,99.9,467.4,100.2z"/>
	<path class="st53" d="M238.9,44.2c9.3-2.5,18.7-4.1,28.3-4.7c-4.9,3.6-10.2,6.5-15.9,8.6c0.6-1.9,3.2-1.8,3.8-4.5
		C249.6,41.2,244.2,45.3,238.9,44.2z"/>
	<path class="st54" d="M501.9,187.8c-1.6-2.5-8.8-4.3-11.5-3.1c-0.4-1.7,0-3.2,1.4-4.8c4.3,0.8,8.4,2.9,13.4,2.6
		C504.7,185.2,503.3,186.4,501.9,187.8z"/>
	<path class="st55" d="M498,201c1.8-6.2,3.6-11.9,9.6-15.3C508.2,190.2,504.4,196.3,498,201z"/>
	<path class="st56" d="M88.2,229.1c0.2-0.9,0.4-1.9,0.5-2.9c-0.8-0.4-1.5-0.7-2.5-1.1c2.3-1.9,3.2-4.8,6-6c2.7,0.7,4-2.2,6.6-2.4
		C95.6,221.2,92.4,225.5,88.2,229.1z"/>
	<path class="st57" d="M445.4,202.5c0,3.6,0,7.3,0,10.9c-0.4,0.1-0.8,0.1-1.2,0.2c-2.1-4.1-3.1-8.6-2.9-13.3c0.6,0.9,1.2,1.8,2.1,3
		c2-3.5,0.1-7,1.2-10.3c2-0.5,2.4,0.8,2.7,2.3C446.9,197.7,446.5,200.2,445.4,202.5z"/>
	<path class="st58" d="M356.1,479.6c-1.3,1.9-3.1,3.3-5.3,4.7c-3.2-1.4-6.5-2.5-9.5-4.7C346.2,478.6,351.2,479,356.1,479.6z"/>
	<path class="st59" d="M491.1,108.9c-3.4-4.8-8-8.2-12.5-11.7C485.1,96.9,489.6,101.2,491.1,108.9z"/>
	<path class="st60" d="M445.4,202.5c0.1-2.6-1.3-5.5,1.9-7.3c4.1,5.9,2.7,12.6,2.9,19.1c-2.2-3.8,0.1-8.3-1.6-12
		C447.2,201,446.3,201.7,445.4,202.5z"/>
	<path class="st61" d="M424.1,295.3c2.6,1.5,2.1,5.2,5,6.7c3.5-1.3,4.9-5.2,8.2-6.8c-1.6,4.7-6.3,6.8-8.5,11.8
		C426.5,302.7,425,299.1,424.1,295.3z"/>
	<path class="st62" d="M235.2,127.2c-4,0.6-8.1,1.2-12.1,1.9c5.9-3.3,11.6-6.7,17.9-9c4.5,1.9,9.5,0.9,14.1,2.1
		c1.4,0.3,3-0.4,4.8,1.9c-5.9,0.3-11.2-0.2-16.3,1C240.9,125.8,237.8,125.6,235.2,127.2z"/>
	<path class="st63" d="M523.7,299.2c-3-9.5-5.9-18.9-9-28.6c6.8-11,13.7-22.3,20.6-33.5c-0.3,5.6-2.4,10.9-3.3,16.5
		C529.6,268.8,526.5,284,523.7,299.2z"/>
	<path class="st64" d="M239,538.4c9.5-3.5,18.9-7,28.7-10.6c12.8,10.8,25.6,21.6,38.5,32.4c-1.8,7.4-1.7,15-3.1,22.3
		c-13.4-6-25.6-14-37.4-22.6C256.4,553.3,247,546.7,239,538.4z"/>
	<path class="st65" d="M307,585c1.2-7.3,2.4-14.7,3.7-22c1.6,7.7,0.4,15.5,0.5,23.1C309.2,587.2,308.2,585.7,307,585z"/>
	<path class="st66" d="M365.3,539c3.7,1.4,7.3,2.9,10.2,5.5c-1.3,3.5-4.4,4.3-7.3,5.9c-1.8-3-0.5-5.5-0.1-7.8
		C367.4,541,365.6,540.6,365.3,539z"/>
	<path class="st67" d="M422.8,376c2.6-5.2,5.2-10.3,8.1-16c4.9,1.7,9.8,0.9,15.3,1.4c-5.3,13.3-11.5,25.8-17.4,38.8
		c-4.2-0.5-8.3-0.9-12.9-1.4c-6.3-13.3-12.7-26.7-19.2-40.2c2.3-1.1,3.9-0.4,5.5-0.3c10.9,0.1,10.9,0.2,15,10.5
		C419.3,373.9,419.4,374.1,422.8,376z"/>
	<path class="st68" d="M364.6,409.5c-0.6-5.5-0.4-9.9-0.2-14.1c1.2-1.7,3.1-0.6,4.8-2.4c-1.4-11.6-0.9-23.8-1-36.2
		c6.4-1.5,12.2,0.3,18.9,0.7c-0.1,17.4,0.1,34.8,1.4,52.2C380,411.3,372.6,408.1,364.6,409.5z"/>
	<path class="st69" d="M455.1,363c6.4,0.6,11.8,1.2,17.7,1.8c0.8,12.8,1.6,25.2,2.4,37.1c1.5,1.9,3.4,0.8,4.8,2.3
		c0.3,4.3,0.7,8.8,1.1,13.8c-8,1.3-15.2-2.5-23.6-1.6C457.5,398.4,455.5,381.2,455.1,363z"/>
	<path class="st70" d="M424.2,137.3c12.9,0.4,39.2,8.9,47.4,15.9c-18.8-5.3-38-5.7-57.4-4.8c-1.1,0.7-2.1,0.8-3-0.3
		C415.1,143.8,420.1,141,424.2,137.3z"/>
	<path class="st71" d="M411.3,148c1,0.1,2,0.2,3,0.3c3.1,1.5,6.5,0.6,9.7,0.8c2.1,0.2,4.3-0.5,6.3,0.8c-7,0.1-14,0.3-21,0.4
		c-3.3-0.1-6.5,0-9.7,0.7c-1.6,0.3-3.5,0.9-5-0.7C400.1,149,405.7,148.8,411.3,148z"/>
	<path class="st72" d="M37.6,385.1c6.3-2.7,13.1-3.6,20.6-5.3c-1.1,12.2-3.2,23.5-3.8,35.7c15-1.7,29-5.3,43.5-7.5
		c1.2-7.7,2.3-15.2,2.5-22.9c-4.8-1.8-8.9,1.7-13.4,1c-1-2.6-0.8-5.1,0.1-8.2c11.1-1.9,22.2-3.8,34.2-5.9
		c-0.3,12.7-2.2,24.6-3.1,36.1c-5.6,5.7-11,11.1-16.7,16.9c-18.6,3.6-37.9,7.4-57.4,11.2c-3.8-3.1-7.8-6.2-11.7-9.3
		C34,412.7,36.5,399.2,37.6,385.1z"/>
	<path class="st69" d="M214.1,411.7c-19.5,1.9-38.2,3.7-56.6,5.5c-5.1-2.9-8.4-7.3-13.2-10.5c1.1-13.2,2.3-26.5,3.4-40.1
		c6.4-2,13.2-2.2,20-3c-0.1,11.4-1.5,22.7-2.6,34.6c15.2-0.1,29.4-2.9,43.9-3.7c0.3-12.3,1.2-23.5,2.6-35.4
		c6.4,0.7,12.4-1.6,19.5-0.8c0.1,13.1-1.8,26.1-2,39.5C224.2,402.5,219,407.2,214.1,411.7z"/>
	<path class="st73" d="M204.8,391c-11.9,1.1-23.1,2.1-34.9,3.2c1.7-22.1,3.5-43.8,5.2-65.7c11.3-1,22.3-2,34.2-3.1
		C207.8,347.2,206.3,368.9,204.8,391z"/>
	<path class="st69" d="M338.9,394.4c-4.5,4.5-8.9,9-13.7,13.9c-13.7,0-27.9,0-42,0c-3.6,0-7.3-0.4-10.9,0.7
		c-1.9,0.6-3.8-0.1-5.1-1.5c-3.6-3.9-8.5-6.5-11.8-10.8c-0.9-13.3,0.4-26.5,1.1-40.1c6.5-0.4,12.8-0.8,19.7-1.2
		c0,11.7,0,22.9,0,34.5c14.4,0,28.3,0,43,0c0-11.6,0-23.1,0-35.1c7-0.6,13.1,1.2,19.9,0.2C339.2,368.6,340.7,381.6,338.9,394.4z"/>
	<path class="st74" d="M280,385.9c0.6-21.4,1.3-42.8,1.9-64.4c11.5,0,22.6,0,33.6,0c0,21.5,0,42.7,0,64.4
		C303.6,385.9,292.2,385.9,280,385.9z"/>
	<path class="st75" d="M498.9,421.2c-2.2-4.6-1.7-8.9-1.5-13c1.9-1.7,4.1-0.3,6.1-1.4c3-11.6,6.1-23.4,9.2-35.3
		c5.8,0.8,11.2,2,16.8,2c0.8,3.9-2.7,7.2-0.4,11.2c8.6,1.4,17.4,2.9,26.5,4.3c0.6-4.1-2.9-7.2-2.9-11.5c5.7,1.1,11.1,2.1,16.7,3.2
		c4.5,11.2,8.8,22.3,13.3,33.3c2.7,6.8,2.8,6.8,9.3,9.7c0.3,4.6,2.3,9.2,0.8,14.5c-6.6-1.5-13.3-2.1-19.7-4.4
		c-3.9-10-7.7-19.8-11.2-28.9c-12.9-2.5-24.8-4.8-37.2-7.1c-2.3,9.1-4.5,17.7-6.8,26.8C511.1,423.3,504.9,422.2,498.9,421.2z"/>
	<path class="st76" d="M538.5,352c3.9,10.9,7.5,21,11.4,31.7c-6-1-11.2-1.9-17-2.9C534.3,371.4,536.3,362.1,538.5,352z"/>
	<path class="st77" d="M81.4,157.1c3.6-1.7,7.2-3.3,11.2-5.2c7.3,5.1,14.7,10.4,21.7,16.2c1,3.8-2.6,4.3-3.6,5.8
		c3.1-1.5,5.6-6.2,10.8-5.2c1.6,0.6,2.9,1.3,1.6,3.2c-13.4,13.9-26.1,28.3-37,44.2c-0.6,1-1.3,2-2.8,1.7
		c-1.9-18.6-2.8-37.2-2.3-55.9C81.1,160.4,81.3,158.8,81.4,157.1z"/>
	<path class="st78" d="M162.1,77.5c-6.9,9.5-13.7,19.1-20.4,28.3c-12.8,1-25.2,1.9-38,2.9c-2.4-1.9-3.5-5.2-5.5-7.8
		c12.7-6.2,25.9-11,39.2-15.6C145.6,82.5,153.6,79.4,162.1,77.5z"/>
	<path class="st79" d="M94.1,102.5c2.1,3.1,4.2,6.3,6.4,9.5c-3.1,12.1-6.2,24.1-9.4,36.3c-3.3,1.4-6.4,2.8-9.6,4.1
		c-0.5-15.4,1.8-30.6,3-45.7C88.1,104.9,90.7,102.9,94.1,102.5z"/>
	<path class="st74" d="M118,164.3c-7.3-5.1-14.6-10.2-22.3-15.6c2.9-11.8,5.8-23.3,8.8-35.4c11.9-1,23.7-2,35.9-3
		c3.9,8.4,6.5,17.3,9.9,25.8c-8.5,7.7-17.7,14.5-25.7,22.8c-1.3,1.3-2.5,2.6-3.8,4C120.3,164,119.5,164.8,118,164.3z"/>
	<path class="st80" d="M118,164.3c1-0.5,2-0.9,3-1.4c-0.4,1-0.8,1.9-1.2,3c0.5,0.7,1,1.5,1.5,2.2c0.3,0.3,0.3,0.5,0.2,0.7
		c-0.1,0.2-0.3,0.2-0.4,0.2c-4.2,1.1-7.2,4.4-11.9,6.2c1.5-3.1,4.4-4.4,5.1-7.2C116.4,167.7,118,166.8,118,164.3z"/>
	<path class="st81" d="M121.1,169.1c0-0.3,0.1-0.6,0.2-0.9c3.2-1.2,5.9-3.5,10.1-4.4c-2.6,3.5-5,6.3-8.2,8.2
		C123.2,170.5,122.3,169.7,121.1,169.1z"/>
	<path class="st82" d="M460.2,161.4c4.5,0,8.9,0,13.9,0c-0.9-1-1.4-1.6-1.8-2.1c-0.7-0.6-1.4-1.3-2-1.9c1.3,0,2.6,0,3.9,0
		c3.3,5,8.8,6.1,13.7,8.5c-5.2,1.3-10.3,0.1-15.4,0.4c-2-0.7-0.5-2.5-1.1-3.6C467.6,161.7,463.7,163.1,460.2,161.4z"/>
	<path class="st83" d="M265.7,448.8c2-1.1,1.3-3.2,3.7-4.4c0.6-0.2,2-0.4,3.9,0.8c-0.5,5.2-0.9,10.7-1.4,16.1
		c-4.8,0.7-12.9-8.1-15.9-16.9C260.1,444,262.8,446.8,265.7,448.8z"/>
	<path class="st84" d="M249.1,445.6c0.3,5.6-0.3,11.1,1.1,16.4c-3.8,1.9-6.7,1.1-9.5-0.4c-0.9-2.6,1.9-3.4,2.3-5.3
		c0.6-2.9-0.3-6,0.7-8.9C245.1,446,246.8,445.7,249.1,445.6z"/>
	<path class="st64" d="M416.9,458.9c-4.1,0.6-7.6-0.6-11.5-0.6c-1.5-7.8-1.1-15.7-1.9-23.8c4,0.3,7.6,0.6,11.6,0.9
		C415.7,443.1,416.3,450.8,416.9,458.9z"/>
	<path class="st85" d="M401.8,448.5c1.2,3.8-0.8,8.1,3,11.5c4.2-0.5,8.7,2.4,13.5,0.5c1.8-3.1,0.2-6.4,1.2-9.5
		c1.3-1.2,2.7-1,4.4-0.3c0.3,3.4,2,6.8,1.1,10.7c-1.3,2.2-3.3,3.5-6,3.7c-7.6,0.6-15.2-0.9-22.8-1.2c-0.6,0-1.1-0.6-2-1.2
		c3.1-4.3,1.3-9.3,2.2-13.8C398.2,447.8,399.8,448.2,401.8,448.5z"/>
	<path class="st86" d="M356.3,456.1c0-3.3,0-6.6,0-9.7c1.5-1.5,2.9-1.2,4.5-0.6c1.2,3.2-0.2,6.9,1.1,10.8c5.1,1.2,10.2,4.7,16,0.9
		c1.3-0.8,1.4-0.7,4.7,0.2c0.8,1.5,0.7,3.1,0.2,4.7c-4,0.9-26.9-0.5-29.1-1.7C353.3,458.6,355.8,457.9,356.3,456.1z"/>
	<path class="st87" d="M198.4,461.3c0-3.4-0.9-7.1,1.6-10.2c1.5-1.1,2.9-0.9,4.6-0.6c0,3.1,0,6,0,9.1c4.3,1.2,8.4,0.8,12.5,0.4
		c2.9-0.2,4.2-2.6,4.1-5.4c0-1.8-0.5-3.6-0.7-5.6c1.6-1.1,3.3-2,5.3-1.5c3.2,5.8,2.1,9.9-4.3,15.8c-5.2,2.9-10.9,1.5-16.2,2.4
		C202.4,466.2,199.9,464.3,198.4,461.3z"/>
	<path class="st88" d="M320.4,460.6c2.5-5.2,3.5-10.2,2.9-15.2c1.6-1.6,3-1.1,4.8-0.8c0,3.5,0,6.9,0,10.3c0.6,2,3.3,2.8,3,5.4
		C327.7,462.2,324.2,460.8,320.4,460.6z"/>
	<path class="st89" d="M291.2,444.8c2-0.7,3.4-0.8,4.8,1.1c-1.5,4.7,0.8,9.5,1.1,14.6c-3.2,1.2-6.3,0.8-9.3,0.4
		c-1.2-2.9,1.4-4.3,2.1-6.4C290.9,451.4,289.3,447.9,291.2,444.8z"/>
</g>
</svg>
