<?xml version="1.0" encoding="utf-8"?>
<!-- Generator: Adobe Illustrator 25.2.1, SVG Export Plug-In . SVG Version: 6.00 Build 0)  -->
<svg version="1.1" id="Layer_1" xmlns="http://www.w3.org/2000/svg" xmlns:xlink="http://www.w3.org/1999/xlink" x="0px" y="0px"
	 viewBox="0 0 719 295.6" style="enable-background:new 0 0 719 295.6;" xml:space="preserve">
<style type="text/css">
	.st0{fill:#FFFFFF;}
	.st1{fill:#262626;}
	.st2{fill:#535353;}
	.st3{fill:#A7A7A6;}
	.st4{fill:#FDFDFD;}
	.st5{fill:#B22E35;}
</style>
<path class="st0" d="M710.5,208.7c-2.6-2.4-5-5.1-7.5-8c-2.3-2.6-4.6-5.2-7.2-7.8c-4.6-4.5-10.1-6.9-16-6.9c-2.9,0-5.8,0.6-8.7,1.8
	c-3.6,1.5-7.3,2.2-11.5,2.2c-4.9,0-9.9-1-14.4-2.1c2.2-2.6,3.8-5.3,5-8c2.2-0.3,4.1-0.9,5.6-1.5c7.9-3.2,13.3-8.8,16.7-12.7l0.1-0.1
	c6.6-1.8,10.2-6.7,12.5-9.8c0.4-0.6,0.9-1.2,1.3-1.7c2.5-3.2,3.6-6.6,4.4-9.2c0.3-1,0.8-2.5,1.1-2.9c6.3-7.8,6.7-16.7,1.2-26.5
	c-3.5-6.3-8.3-12.1-14.5-17.6c-0.2-0.2-0.5-0.4-0.7-0.6c-0.1-0.1-0.1-0.1-0.2-0.2c2.2-7.4,0.1-14.6-6.2-21.2
	c-4.1-4.3-8.6-7.7-12.9-11c-3.1-2.3-5.9-4.5-8.5-6.9c-13.9-12.9-30.2-21-48.3-24.2c-2.3-0.4-4.4-0.5-6.3-0.5c-0.4,0-0.7,0-1.1,0
	c-0.3,0-0.7,0-1,0c-1.9,0-3.3-0.1-4.1-0.5c-16.7-7.6-32.4-13.2-48-17.1c-11.8-2.9-24.5-5.7-37.6-5.7c-0.5,0-1,0-1.5,0
	c-3.8,0.1-7.3,0.6-10.7,1.1c-2.2,0.3-4.2,0.6-6.2,0.8c-1.1,0.1-2.1,0.1-3.2,0.1c-7.6,0-15.2-2.1-24.1-6.5C452.5,3,446.1,0.3,438.6,0
	c-0.5,0-1,0-1.5,0l0,0c-14,0-24.6,6.6-33.2,13c-0.8,0.6-1.6,1.3-2.3,1.9c-1.1,0.9-2.5,2-3.1,2.3c-13.8,5.2-28.2,7.9-42.8,7.9
	c-6.1,0-12.4-0.5-18.7-1.4c-10.4-1.5-20-5.9-30.3-10.6c-1.3-0.6-2.7-1.2-4-1.8C290,5.6,278,2.8,265.9,2.8c-6.7,0-13.4,0.9-20,2.6
	c-4.8,1.3-9.1,3.1-13.3,4.9c-4.4,1.9-8.6,3.7-12.6,4.5c-30.1,6-57.9,19.6-85,41.7c-13.3,10.8-27,22-42.3,30.3
	c-14.2,7.7-25.4,11.1-36.2,11.1c-0.8,0-1.6,0-2.5-0.1c-10.5-0.5-14-3.4-15.8-7.5c-1.8-3.9-2.5-8.8,4.3-17.4
	c5.9-7.4,14.3-12.4,25.6-15.2c2-0.5,4.2-0.8,6.6-1.1c4.5-0.6,9.7-1.2,14.9-3.6c8.8-4.1,13.8-12.2,12.4-20.4
	c-0.8-4.7-3.8-13.1-15.5-16.5c-3.1-0.9-6.3-1.3-9.6-1.3c-6.6,0-12.7,1.8-17.7,3.6c-13.6,4.7-24.7,10.9-33.8,18.8
	c-10.1,9-17.6,20.1-22.2,33c-4.9,13.7-4.1,27.7,2.1,39.4c6.4,12,18,20.6,32.7,24.3c5.4,1.4,10.9,2,16.7,2c6.5,0,13.3-0.8,21.3-2.6
	c1.8-0.4,3.6-0.8,5.3-1.3c-3.8,16.1-11.3,31.2-23.7,47.5c-13.5,17.9-14.1,28-2.6,49.2c3.9,7.3,10.5,11.7,17.8,12
	c0.8,3.9,4.2,6.9,8.3,7.2c0.2,0,0.4,0,0.5,0c4,0,7.6-2.7,8.7-6.6h0.1c0.3,0.5,0.5,1,0.9,1.5c1.7,2.5,4.5,4,7.5,4c0.1,0,0.2,0,0.4,0
	c3.1-0.1,5.9-1.9,7.5-4.6c0-0.1,0.1-0.1,0.1-0.2c0.2,0.2,0.5,0.4,0.7,0.6c1.5,1.1,3.4,1.7,5.2,1.7c0.8,0,1.5-0.1,2.3-0.3
	c2.6-0.7,4.7-2.5,5.9-4.9c0.1-0.2,0.2-0.3,0.2-0.5c0.1,0,0.2,0.1,0.3,0.1c0.8,0.2,1.6,0.3,2.4,0.3c3.3,0,6.4-1.8,8-4.8
	c2.3-4.3,2.4-8.6,2.5-11.7c0.1-5.6-2.2-9.7-3.9-12.6c-0.6-1-1.2-2-1.4-2.7c-3.5-10.2-9.5-14.4-15.1-15.8c2.8-5.8,6.5-10.3,11.2-13.7
	c2.1-1.5,4.2-2.2,6.6-2.2c2.9,0,6.4,1.1,10.7,3.2c8.1,4.2,16,6.2,24.1,6.2c4.3,0,8.7-0.6,13-1.8c15.8-4.3,30.5-11.4,45.2-21.9
	c0.4,1.1,1,2.1,1.6,3.2c1.5,2.5,3.1,4.7,4.7,6.7c15.4,17.5,26.9,31.3,37.3,44.8c4.3,5.6,10.6,8.7,18.6,9.3c1.2,0.1,2.5,0.2,3.8,0.4
	c1,0.1,2,0.2,2.9,0.3s1.9,0.2,2.8,0.3c3,0.3,6.2,0.6,9.5,0.6c4,0,7.6-0.5,10.8-1.6c0.1,0,0.2-0.1,0.3-0.1c1.5,2.9,4.4,4.7,7.6,4.9
	c0.1,0,0.2,0,0.4,0c2.5,0,4.9-1,6.5-2.8c1.3,0.7,2.7,1,4.2,1c0.7,0,1.5-0.1,2.2-0.3c1.9-0.5,3.5-1.5,4.7-3c4.4-0.4,7.9-4,8.1-8.5
	c0-0.8,0.1-2,0.1-3.4c0.8,0.4,1.8,0.8,2.8,1.1c5.4,1.5,10.8,4.6,16.9,9.6c9.7,8,18.7,13.2,28.1,16.2c7.3,2.4,14.5,3.8,21.6,5.2
	c4.4,0.9,8.6,1.7,12.8,2.7c13.3,3.3,23.1,6.4,28.6,16.6c3.5,6.5,9.4,10.6,15.6,11.1c3.6,0.3,6.3,2,10.5,5.4
	c5.2,4.2,11.3,6.3,18.3,6.3c4.2,0,8.7-0.8,13.8-2.3c0.1,0.3,0.2,1,0.2,1.6c0.1,0.6,0.2,1.1,0.2,1.7c0.5,3,2.5,5.6,5.3,6.8
	c1.2,0.5,2.4,0.8,3.6,0.8c1.7,0,3.4-0.5,4.9-1.5c4.3-2.8,5.4-7.2,5.8-8.7c0.2-0.7,0.3-1.4,0.5-2.2c0.1-0.5,0.3-1.2,0.4-1.8
	c0.4,0,0.7,0.1,1.1,0.1c0.7,0,1.3-0.1,1.9-0.2c0.4,1.1,0.8,2.3,1.2,3.8c1,3.7,4.3,6.3,8.1,6.5c0.2,0,0.4,0,0.6,0
	c3.6,0,6.8-2.1,8.3-5.4c0.4-0.8,0.7-1.7,1.1-2.6c1.3,0.9,2.8,1.5,4.4,1.7c0.3,0,0.6,0,0.9,0c3.6,0,6.9-2.2,8.3-5.5
	c0.3-0.7,0.6-1.3,0.9-1.9c0.7-1.5,1.4-3.1,1.9-5.1c0.4-1.5,0.6-3,0.8-4.5c0.9-0.2,1.8-0.4,2.6-0.9c3-1.6,4.9-4.7,4.9-8.1
	c-0.1-4.8-0.3-19.2-14.5-27c-1.9-3.1-4.2-5.7-6.7-8c2.5,0.4,5,0.8,7.5,1.2c8.5,1.3,16.6,2.5,24,5.3c0.1,0,0.2,0.1,0.3,0.1
	c4.5,10,16.5,17.5,28,17.5c1.2,0,2.3-0.1,3.4-0.2c2.7-0.4,5.1-2,6.5-4.4c0.5-0.8,0.8-1.6,1-2.4c1.4,0.5,2.9,1.2,4.6,2
	c5.1,2.4,10.5,3.6,15.9,3.6c4.7,0,9.5-0.9,14.2-2.7c0,0,0,0.1,0.1,0.1c0.4,0.8,0.8,1.9,1.3,3.1c0.3,0.7,0.6,1.6,0.9,2.4
	c1.3,3.1,4.2,5.3,7.6,5.6c0.2,0,0.5,0,0.7,0c3.1,0,6-1.6,7.7-4.3c0.2-0.4,0.5-0.8,0.8-1.3c1.4,1.9,3.5,3.2,5.9,3.6
	c0.4,0.1,0.9,0.1,1.3,0.1c3,0,5.9-1.5,7.5-4.1c0.3-0.4,0.5-0.9,0.8-1.3c0.2,0,0.4,0,0.7,0c0.1,0,0.2,0,0.3,0c3.3-0.1,6.3-2,7.8-5
	C721.6,230.9,719.6,217.2,710.5,208.7z M530.8,216.5c-0.3,0-0.6,0.1-0.8,0.1c-0.5,0-0.9-0.1-1.3-0.2c-0.6-0.2-1.2-0.4-1.9-0.6
	c0.6,0.1,1.2,0.2,1.8,0.3C529.4,216.2,530.1,216.3,530.8,216.5z M502.6,207.3c-5.5-2.2-10.7-4.4-15.7-7c3.6-1,7.1-2.2,10.5-3.6
	c1.1,2.2,2.2,4.3,3,6.3C501,204.7,501.8,206.1,502.6,207.3z M141.7,101.6c-0.3,0.9-0.6,1.7-1,2.6c-1.8,5.1-5.4,8.1-12,10.2
	c-1.6,0.5-3.4,0.8-5.2,0.8c-0.8,0-1.7-0.1-2.6-0.1c3.2-1.9,6.2-3.7,8.9-5.5C133.9,106.9,137.8,104.2,141.7,101.6z M346.7,197.9
	c-1.4-2.1-3.2-4.1-5.6-5.9l-0.8-0.6c-1.9-1.4-3.7-2.7-4.5-3.9c-3.8-5.8-9.3-8.8-16.3-8.8c-2.5,0-4.8,0.4-6.9,0.7l-0.5,0.1
	c-1.3,0.2-2.5,0.5-3.5,0.7s-1.9,0.5-2.4,0.5c-0.1,0-0.1,0-0.1,0c-4.9-0.7-7.9-3.1-10.8-7.7c5.9-0.8,12.1-2.4,18.1-5.4
	c11,10.7,23.1,18.9,36.1,24.4C348.6,194,347.7,196,346.7,197.9z"/>
<g>
	<path class="st1" d="M704.4,215.3c-5.3-5-9.7-10.8-14.9-15.9c-4.3-4.2-9.6-5.4-15.1-3.2c-11.6,4.7-23,2.8-34.5-0.4
		c-4.8-1.4-6.6-8.3-3-12.1c3.7-3.9,6.8-8.9,5.9-13.6c-1.1-5.7,3.3-6.7,5.4-9.6c0.8-1.2,2.5-1,3.6-0.1c1.6,1.3-0.1,2.3-0.6,3.3
		c-1.3,2.6-4.4,4-5.3,7c2.5,0.7,4.5,0.1,6.5-0.7c5.4-2.1,9.6-5.9,13.3-10.2c0.8-1,1.3-2.5,2.8-2.6c5.6-0.5,7.8-5,10.8-8.7
		c2.8-3.6,2.7-8.7,5.4-12.1c4.6-5.7,3.5-10.9,0.4-16.5c-3.2-5.8-7.6-10.8-12.6-15.2c-2.5-2.1-5.8-4.4-4.1-8.7
		c2.2-5.5,0.3-9.7-3.6-13.8c-6.3-6.7-14.3-11.3-21-17.5c-12.3-11.4-26.8-18.9-43.7-21.9c-4.9-0.9-10,0.5-14.7-1.6
		c-15-6.9-30.5-12.6-46.5-16.6c-12-3-24.2-5.6-36.7-5.4c-5.4,0.1-10.9,1.4-16.3,1.8c-11.4,0.9-21.9-2.3-32-7.3
		C449,11.2,444,9.2,438.4,9c-11.3-0.4-20.4,4.7-29,11.2c-2.5,1.9-4.9,4.3-7.7,5.4c-21.3,8.1-43.3,10.3-65.9,7
		c-13.1-1.9-24.8-7.8-36.7-13.1c-16.4-7.3-33.2-10-50.8-5.3c-9.1,2.4-17.3,7.7-26.5,9.5c-30.7,6-57.1,20.3-81.1,39.8
		C126.8,74.8,112.8,86.1,97,94.7c-13.5,7.3-27.7,12.9-43.4,12.1C43.9,106.3,34.5,104,30,94c-4.6-10-0.8-18.8,5.5-26.7
		C43.3,57.5,53.9,52,66,49c6.5-1.6,13.5-1.2,19.8-4.1c4.9-2.2,8-6.6,7.3-10.7c-0.9-5.1-4.2-7.9-9.1-9.3c-7.6-2.2-14.8-0.3-21.9,2.1
		c-23.4,8.2-41.9,22.1-50.4,46.2c-8.5,23.9,3.9,45.7,28.5,51.9c11.4,2.9,22.6,1.9,33.9-0.6c18.6-4,35-12.6,50.9-22.6
		c11.6-7.3,22.4-15.9,34.6-22.4c0.1,0,0.2-0.1,0.3-0.1c-0.1,0-0.2,0.1-0.3,0.1c0.2,0.2,0.4,0.5,0.6,0.8c0.6-0.2,0.8-0.6,0.5-1
		c-0.1-0.1-0.4,0-0.7,0.1c0.3-0.1,0.7-0.2,1-0.2c0.3,0.5,0,0.8-0.5,1c-3.7,9-7.7,17.9-11,27c-3.2,8.7-9.7,13.2-17.9,15.7
		c-8.3,2.6-16.4,0.4-24.4-2c-5.7-1.7-9.9,0-13.4,4.8c-1.7,2.3-2.7,5-3.3,7.7c-4.4,19.2-13.5,35.9-25.4,51.5
		c-10.9,14.4-12,20.8-1.9,39.4c2.4,4.4,6.3,7.5,11,7.3c5.4-0.2,7.2,2.1,7.7,7.2c1.7-8.2,9-5.7,13.8-7.5c1.9-0.7,1.7,4.2,3.2,6.4
		c1.9-3.3,3.3-6.3,7.1-8c6.4-2.8,4.4,3.7,6.9,5.5c0.9-1.9,1.8-3.5,2.4-5.2c0.8-2.2,1.7-4.8,4.2-5c2.7-0.2,2.6,3,3.8,4.6
		c0.1,0.2,0.5,0.2,0.7,0.3c1.2-2.4,1.3-5,1.4-7.7c0.1-4.8-3.4-8.1-4.8-12.2c-2.5-7.3-6.4-11.3-14.5-10.2c-3.3,0.4-4.4-1.3-3.5-4.2
		c3.3-10.2,8.6-19.1,17.3-25.4c8.7-6.3,17.9-4.2,26.6,0.3c9.9,5,19.8,6.7,30.7,3.7c24.4-6.6,44.5-20.4,62.7-37.4
		c1.5-1.4,2.7-3.8,5.3-2.8c1.6,0.6,2.8,1.8,3,3.7c0.2,2.7-1.4,4.4-3.5,5.6c-2.3,1.3-4.7,2.4-7,3.6c-5.7,3.1-6.8,7-3.5,12.7
		c1,1.9,2.3,3.7,3.7,5.3c12.9,14.7,25.6,29.7,37.6,45.2c3.1,4,7.3,5.5,12.1,5.8c2.3,0.2,4.6,0.5,6.9,0.7c6.4,0.6,13.3,1.8,19.3-0.2
		c5.6-1.9,8.6-1.2,11.2,4.3c1.7-2.9,1.5-6.6,4.7-7.2c3.6-0.7,4.1,3.3,6.1,5.4c0.6-2.3,1.1-4.2,1.6-6c2.3,0.1,2.3,2.7,4.5,2.8
		c0.4-6.6-0.7-12.6-6-16.5c-2.8-2.1-5.6-4-7.4-6.8c-3.9-6-9.3-4.9-14.9-4.1c-2.9,0.4-5.5,1.7-8.7,1.2c-13-2-17.8-12-22.3-22.3
		c-1.3-2.8,1-2.4,2.6-2.5c9.5-0.5,18.8-1.9,27.1-6.9c2.5-1.6,3.7-0.6,5.4,1.1c11.8,12,25.3,21.3,41.3,26.8c2.6,0.8,2.6,1.9,1.6,3.9
		c-2,4-3.7,8.1-5.7,12.1c-0.9,1.8-1.4,2.5,1.3,3.3c7.6,2.1,14.1,6.3,20.2,11.3c7.6,6.2,15.7,11.5,25.2,14.6
		c11.1,3.6,22.6,5,33.8,7.8c13.7,3.4,26.9,7.3,34.4,21c1.8,3.2,4.9,6.2,8.5,6.5c6.3,0.5,10.7,3.6,15.4,7.4
		c7.1,5.8,15.7,4.9,24.1,2.3c6.9-2.2,8.8-1,10.9,6.1c0.4,1.4,0.5,2.9,0.7,4.4c1.2-0.8,1.7-2,2-3.3c1.4-5.7,1.7-12.4,10.6-10.7
		c0.6,0.1,1.6-0.6,2.1-1.2c2-2.5,3.3-0.9,4.7,0.6c2.7,3.1,4,6.8,5.1,10.8c2.1-4.7,4-9.2,3-14.3c-0.7-3.5,2.7-3.8,4.4-5.1
		c1.7-1.4,2.2,1.2,3.1,2.2c2.5,2.9,3.4,6.5,4.3,10.9c1-2.4,1.9-4,2.3-5.7c1.3-5.5,0.3-11.1-0.1-16.8c3.8,0.2,5.2,3.5,8.1,5.6
		c-0.2-8.5-2.5-15.2-9.9-19.2c-1.2-0.7-2.2-1.2-2.9-2.5c-4.1-7.1-11-11.2-17.7-15.4c-1.7-1-3.5-0.3-5.3,0.1
		c-5.5,1.2-10.9,4.3-16.9,2.4c-17.5-5.4-34.8-11.4-50.7-20.5c-4.1-2.4-8.3-5.2-11.3-10.2c12.9,0.1,24.5-2.6,35.3-8.3
		c2.3-1.2,2.6,0.6,3.2,1.6c2.2,4.1,4.5,8.1,6.2,12.4c1.8,4.6,5,6.3,9.6,6.1c4.9-0.2,9.6,0.9,14.3,1.7c11.3,1.9,22.1,5.6,33.3,7.6
		c11.8,2.1,23.9,2.9,35.3,7.3c2.5,1,4.1,2,5.2,4.6c3.3,7.9,13.8,13.4,22.1,12.3c-0.8-2.1-4.6-2.9-3.3-5.5c1.2-2.5,4.3-1.8,6.7-2
		c5-0.5,9.3,1.5,13.7,3.5c7.6,3.5,15.3,3.5,23.1,0.6c6.4-2.4,7.7-2,11.1,4.2c1.1,2,1.8,4.2,2.7,6.5c1.6-2.6,2.8-5.3,2.2-8.1
		c-1.2-5,3.3-5.2,5.7-6.3c2.1-0.9,3.2,2.2,4.3,4c1.6,2.6,2.5,5.5,3.4,8.6c3.3-5.1,2.6-10.6,2.8-16.4c4.4,2.6,4.1,7.5,6.2,11
		C711.6,231,711.1,221.5,704.4,215.3z M122.7,222.3c0-0.4,0.1-0.8,0.1-1.1C122.8,221.5,122.7,221.9,122.7,222.3z M119.7,214.6
		c-0.7-0.4-1.2,0.3-1.3,1C118.5,214.8,119,214.1,119.7,214.6z M118.3,216.7c0,2.5,1.1,4.4,3.7,5.7
		C119.5,221.3,118.3,219.3,118.3,216.7z M113,221.8c0.1,1.8,0,3.6,0,6.1C113,225.3,113,223.5,113,221.8c-0.2-1-0.7-1.7-1.4-2
		C112.3,220.1,112.9,220.8,113,221.8z M110.3,219.5C110.3,219.5,110.3,219.5,110.3,219.5C110.3,219.5,110.3,219.5,110.3,219.5
		C110.3,219.5,110.3,219.5,110.3,219.5z M317.6,206.7c0.3-0.3,0.6-0.5,0.9-0.5C318.2,206.2,317.9,206.4,317.6,206.7
		c-0.8,0.9-0.6,2.3,0.3,3.1c1.3,1.2,2.8,2.2,5,3.8c-0.2-2.9-1.2-4.5-2.6-5.9c1.5,1.4,2.4,3,2.6,5.9c-2.2-1.6-3.7-2.5-5-3.8
		C316.9,209,316.8,207.6,317.6,206.7z M690.9,218.4c-0.6-0.4-1.3-1-1.9-1C689.6,217.4,690.3,218,690.9,218.4z M679.6,200
		c-0.9-0.2-1.9-0.6-2.8-0.6C677.6,199.3,678.7,199.7,679.6,200z M551.2,160.4c0-1.4-0.5-2.4-2.2-2.4c0,0,0.1-0.1,0.1-0.1
		C550.8,158,551.2,159,551.2,160.4z M526.1,158.4c-0.3,0.2-0.7,0.3-1,0.5c-0.1,0-0.1,0-0.2,0C525.3,158.7,525.7,158.5,526.1,158.4
		C526.1,158.3,526.1,158.4,526.1,158.4z M525.8,158.8c-0.2,0-0.4,0-0.6,0C525.4,158.8,525.6,158.8,525.8,158.8z M524.8,159.1
		c-10.1,5.1-19.8,11.2-30.7,14.5c-5.1,1.6-10.2,3.2-16.5,3.7c0,0,0.1-0.1,0.1-0.1c6.1-0.6,11.3-2.1,16.3-3.7
		c11-3.3,20.6-9.5,30.8-14.5C524.8,159,524.8,159.1,524.8,159.1z M515.9,262.4c0.1-1.2,0.7-2.5,1.4-3.7
		C516.6,259.8,515.9,261.1,515.9,262.4z M501.2,248.2c-1,0.6-2.1,1.5-3.6,1.5C499,249.6,500.1,248.8,501.2,248.2
		c1.9-1.1,3.8-1.6,5.8-1.7c1.3,0,2.7,0.1,4,0.4c-1.3-0.3-2.7-0.4-4-0.4C505.1,246.6,503.1,247.1,501.2,248.2z M506.2,229.9
		C506.2,229.9,506.2,229.9,506.2,229.9C506.2,229.9,506.2,229.9,506.2,229.9L506.2,229.9z M516.6,249.7c-0.1-1.2-1.1-1.5-2.1-1.8
		c-1.1-0.4-2.1-0.7-3.2-0.9c1,0.2,2.1,0.6,3.2,0.9C515.5,248.2,516.6,248.5,516.6,249.7z M509.7,234.9c-1.2-1.3-3.3-2.2-3.5-5
		C506.5,232.7,508.5,233.5,509.7,234.9z M513.4,233.1c0.3,0.1,0.5,0.1,0.8,0.1C513.9,233.2,513.6,233.1,513.4,233.1z M507.1,239.7
		c-3.2-0.5-6.1-1.7-9-3.2C500.9,237.9,503.9,239.1,507.1,239.7z M495,248.6c5.9-1.7,3.1-4.6,1.1-7
		C498.2,244.1,500.9,246.9,495,248.6z M494.7,248.7C494.7,248.7,494.7,248.7,494.7,248.7C494.7,248.7,494.7,248.7,494.7,248.7
		L494.7,248.7z M520.2,232.8c0.1,0,0.3,0,0.4,0C520.4,232.8,520.3,232.8,520.2,232.8z M520.7,232.7c0.1,0,0.2,0,0.3-0.1
		C520.9,232.7,520.8,232.7,520.7,232.7z M521.1,232.6c0.8-0.3,1.4-0.9,1.6-1.8C522.5,231.8,521.9,232.3,521.1,232.6z M488.4,243.6
		c-0.1,0.1-0.2,0.2-0.2,0.2C488.2,243.7,488.3,243.7,488.4,243.6z M433.5,223c9.1-2.2,17.8,0.5,27.1,1.8c0,0,0,0.1,0,0.1
		c-9.1-1.3-18-4-27-1.8C433.6,223,433.5,223,433.5,223z M390,191c9.3,0,17.7-0.6,26,0.3c3.7,0.4,8.2,2,11,5.5c2.4,0.9,4.7,1.8,7,2.7
		c2.1-3,4.6-1.5,7-0.5c5,2.2,9.7,5.4,15.2,6.3c0.1,0,0.1,0.1,0.2,0.1c-5.7-0.9-10.3-4.1-15.4-6.3c-2.4-1-4.9-2.5-7,0.5
		c-2.3-0.9-4.6-1.9-6.9-2.7c-1.1,0.1-2.3,0-3.4-0.2c1.1,0.2,2.1,0.3,3.2,0.2c-2.8-3.5-7.2-5.1-11-5.5
		C407.7,190.5,399.2,191.1,390,191C390.1,191.1,390,191,390,191z M387.8,184.4c0.9-5.8,4.8-9.5,13.1-12.5c6.5-3.9,13.4-3.3,20.4-1.6
		c6.2,1.6,11.8,4.3,16.7,8.4c3.4,2.9,6.7,5.8,10,8.8c-3.2-3-6.6-5.8-10-8.6c-4.8-4.1-10.5-6.9-16.7-8.4c-6.9-1.8-13.8-2.4-20.2,1.5
		c-0.1,0-0.1,0-0.2,0C392.7,175,388.8,178.7,387.8,184.4C387.8,184.4,387.8,184.4,387.8,184.4z M615.6,198.7
		c0.1,0.6-0.3,1.5-0.6,2.2c0,0,0,0,0,0C615.2,200.2,615.6,199.3,615.6,198.7z M605,79.3c13.4-1.6,24.9,2.3,34.8,11.3
		c1.6,1.4,3.2,3,5.7,1.8c0,0-0.1-0.1-0.1-0.1c2.8,0.1,2.3-1.7,2-3.4c-3.8-0.8-4.6-3.3-3.8-6.7c-0.3-1-0.7-2-1-3c0,0,0.1,0,0.1,0
		c0.3,1,0.7,2,1,3c-0.8,3.4,0,5.9,3.8,6.7c0.3,1.7,0.8,3.5-2.3,3.7c-2.5,1.2-4.1-0.4-5.7-1.8c-9.8-8.9-21.3-12.8-34.4-11.3
		C605,79.4,605,79.3,605,79.3z M630.6,78.8c4.1,3,8,6.1,11.4,9.7C638.6,84.9,634.7,81.8,630.6,78.8
		C630.6,78.8,630.6,78.8,630.6,78.8z M641.2,82.5c-0.1-1.3-1.3-2.2-1.3-3.4c0,0,0,0,0,0C640,80.3,641.2,81.1,641.2,82.5z
		 M665.3,125.1c0.3,0,0.6,0,0.9,0C665.9,125.1,665.6,125.1,665.3,125.1z M666.6,129.2c-0.1,0-0.1,0-0.2-0.1
		C666.5,129.2,666.6,129.2,666.6,129.2z M666.4,122.1c0.2,0,0.5,0,0.7,0.1C666.8,122.1,666.6,122.1,666.4,122.1z M656.5,98.8
		c-0.1,0.4,0.3,1.2,0.7,1.6C656.7,100.1,656.4,99.2,656.5,98.8z M656.6,93.1c1-0.8,0.5-3.2,1.7-4.2C657.2,90,657.7,92.5,656.6,93.1z
		 M644.4,135.1c-4.7-5.6-10.9-9-17.2-12.5c0,0,0,0,0-0.1c6.3,3.4,12.7,6.8,17.3,12.6C644.5,135.1,644.4,135.1,644.4,135.1z
		 M636.8,154.2c-1.1,6.1-3.4,11.7-7.7,16.6c-1-2.2-0.3-4.2-1.7-5.6c-0.9-0.2-1.4,0.4-1.8,1.2s-1.1,1.9-2.2,1.6
		c-1.3-0.4-1.3-1.7-1.3-2.9c0.2-5.4,1.3-10.5,4.4-15c1.6-2.2,3.2-5.3,6.6-3.8C636.2,147.7,637.4,150.8,636.8,154.2z M622.8,179.8
		C622.8,179.8,622.7,179.8,622.8,179.8C622.7,179.9,622.7,179.9,622.8,179.8L622.8,179.8c0,0,0,0.1,0,0.1c-1.1,0.3-1.3,1-1,2h-0.1
		C621.4,180.9,621.6,180.2,622.8,179.8c-0.3-2.6,2.4-4.7,1.6-7.8c0,0,0,0,0.1-0.1C625.3,175.1,622.6,177.2,622.8,179.8z
		 M612.8,154.2c-0.1,1-0.2,2.1-0.3,3.1C612.6,156.2,612.7,155.2,612.8,154.2c0.1-2.7-1.1-4.9-2.5-7c-0.2-0.2-0.4-0.5-0.6-0.6
		c0.3,0.2,0.5,0.5,0.7,0.7C611.8,149.4,613,151.5,612.8,154.2z M610.1,174.6c2.2,2.1,4.6,1.4,6.9,0c2.1-1.3,3-2.9,1.8-5.4
		c-1.3-2.7-0.9-5.5-0.5-8.3c0.4-3.1,0.4-6.3,0.5-9.4c0-0.6-0.1-1.3-0.4-1.7c0.4,0.5,0.5,1.2,0.5,1.8c-0.1,3.1-0.1,6.3-0.5,9.4
		c-0.4,2.8-0.8,5.6,0.5,8.3c1.2,2.5,0.3,4.1-1.8,5.4C614.8,176.1,612.4,176.8,610.1,174.6c-0.1-0.1-0.3-0.3-0.5-0.5
		C609.7,174.2,609.9,174.4,610.1,174.6z M613.2,184.3c1.8,1.1,3.3,0.9,4.7,0.2c-1.3,0.7-2.8,0.9-4.6-0.1c-0.2-0.2-0.5-0.3-0.7-0.5
		C612.8,184,613,184.2,613.2,184.3z M618.1,184.4c0,0-0.1,0.1-0.1,0.1C618,184.5,618,184.5,618.1,184.4z M622,182
		c0.5-0.1,1-0.3,1.2-0.6c-0.2,0.3-0.6,0.5-1.1,0.6C622.1,182,622.1,182,622,182z M638.6,99.4c0-0.4-0.2-0.9-0.5-1.6c0,0,0,0,0,0
		c0,0,0,0,0,0C638.5,98.5,638.6,99,638.6,99.4z M628.3,92.1c0.2-0.1,0.5-0.2,0.8-0.2C628.8,91.9,628.6,92,628.3,92.1z M604.9,85.1
		c1.7-0.3,4.3-0.3,5.5-1.2c-1,1.2-3.9,1.1-5.8,1.4c-0.5,0.1-1.2,0-1.7,0.1C603.4,85.1,604.3,85.2,604.9,85.1z M605.4,126.6
		c0.4-0.2,0.7-0.5,1-0.7C606.1,126.2,605.7,126.4,605.4,126.6C605.4,126.6,605.4,126.6,605.4,126.6z M628.9,188.8
		C628.9,188.8,629,188.8,628.9,188.8c-4,0.2-8,0.2-12.1,0.1C620.9,189,624.8,188.9,628.9,188.8z M624.2,197.2c0.5,1.3-1.6,2-0.1,3.5
		c0,0,0,0-0.1,0C622.5,199.2,624.6,198.6,624.2,197.2C624.1,197.2,624.2,197.2,624.2,197.2z M627.5,180.8c4.3-0.2,7.7-3.4,11-6.9
		C635.2,177.5,631.9,180.6,627.5,180.8z M631.5,175.8c-1,0.5-2.5,0.5-2.6-1.3c-0.1-1.2,0-2.6,1.6-2.4c2.2,0.2,4-1.7,6.5-0.8
		C635.8,173.8,633.6,174.9,631.5,175.8z M646.9,142.2c-1.2-0.6-2.3-1.2-3.4-1.8c-2.2-1-4.6-1.9-6.7-3.2c-0.8-0.5-2.6-0.9-2.6-2.1
		c0.1,1.1,1.7,1.5,2.6,2c2.1,1.3,4.5,2.1,6.7,3.2C644.7,140.8,645.8,141.5,646.9,142.2C647,142.1,647,142.1,646.9,142.2z M648,153.1
		c-2.6-0.8-4.2-1.3-5.3-1.2C643.8,151.8,645.4,152.3,648,153.1z M639.4,157.3C639.4,157.3,639.4,157.3,639.4,157.3
		c0,0.2-0.1,0.3-0.1,0.5C639.3,157.6,639.4,157.5,639.4,157.3C639.4,157.3,639.4,157.3,639.4,157.3z M650.5,130.8
		c-1.9-7.2-8.9-8.9-13.1-13.4c-1-1.1-3.4-1.2-3.2-2.9c-0.1,1.7,2.3,1.7,3.2,2.8C641.6,121.8,648.5,123.5,650.5,130.8
		C650.5,130.8,650.5,130.8,650.5,130.8z M652.1,121.8c-0.1-3-2.6-4.5-3.8-6.9c-0.1-0.1-0.3-0.3-0.4-0.4c-1-0.6-2.1-1.3-3.1-1.9
		c-1.6-0.4-3.4-0.7-5-1.1c0,0,0,0-0.1,0c1.7,0.4,3.5,0.8,5.2,1.1c0.3-0.9,0.7-1.1,1.2-1.1c-0.5,0-0.9,0.2-1.2,1.1
		c1,0.6,2.1,1.3,3.1,1.9c0.5-0.7,0.7-1.4,0.3-1.9c0.5,0.6,0.3,1.2-0.3,1.9c0,0.1,0.2,0.3,0.4,0.4c0,0,0,0,0.1,0
		c1.2,2.3,3.6,3.8,3.7,6.8c0.2,0.2,0.4,0.4,0.5,0.6c0,0,0,0-0.1,0.1C652.5,122.2,652.3,122,652.1,121.8z M652.5,122.5
		C652.5,122.5,652.4,122.6,652.5,122.5L652.5,122.5C652.4,122.6,652.5,122.5,652.5,122.5z M667,129.4c0.1,0,0.1,0,0.2,0
		C667.2,129.4,667.1,129.4,667,129.4z M666.9,125c3.2,0.6,6.1,1.3,8.7,3.2c0.8,0.6,1.8,0.9,2.5,1.6c0.2,0.2,0.3,0.2,0.5,0.3
		c-0.2-0.1-0.5-0.1-0.6-0.3c-0.7-0.7-1.7-1-2.5-1.6C673,126.4,670.1,125.7,666.9,125z M668.3,122.4c0.1,0,0.2,0,0.3,0.1
		C668.5,122.4,668.4,122.4,668.3,122.4z M669.8,114.6c-4.9-3.8-9.3-8.7-16.5-8.5C660.5,105.8,665,110.7,669.8,114.6
		C669.9,114.5,669.8,114.6,669.8,114.6z M583.8,58.5c-0.2,0-0.3,0-0.5,0.1c-6.6-3.1-13-5-19.5-7c0.5-0.7,1-1.3,1.6-1.8
		c-0.5,0.4-1,0.9-1.4,1.6C570.6,53.5,577,55.3,583.8,58.5z M593.3,94.3c-0.4-0.5-1.2-0.1-1.6,0.5c0.3,0.3,0.5,0.5,0.8,0.8
		c0,0,0,0,0,0c-0.3-0.3-0.5-0.5-0.8-0.7c-4.8,3.1-7.4,7-7.6,11.5c0.1-4.5,2.7-8.5,7.6-11.6c0.4-0.6,1.2-1,1.6-0.6
		c0.3,0.3,0.3,0.5,0.1,0.7C593.5,94.8,593.5,94.6,593.3,94.3z M575.4,106.9c0.1-0.2,0.2-0.4,0.3-0.7c0.5,6.6,2,12.7,5.6,18.5
		c-0.1,0.1-0.2,0.2-0.3,0.3C577.5,119.3,576,113.3,575.4,106.9z M588.4,86c-2.8,0.4-4.9,1.2-6.3,2.5C583.5,87.2,585.6,86.4,588.4,86
		c-3.6,3.1-6.3,5.3-8.9,7.5C582.2,91.2,584.8,89,588.4,86z M588.3,73.7c-0.1-0.2-0.2-0.3-0.3-0.4c0.1,0,0.1-0.1,0.2-0.1
		c0,0,0.2,0.3,0.3,0.4C588.4,73.6,588.4,73.7,588.3,73.7z M587.3,73.8c0.1-0.1,0.3-0.2,0.5-0.3C587.6,73.6,587.5,73.6,587.3,73.8z
		 M587,74.2c0,0,0.1,0,0.2-0.1c-4.2,4-8.4,8-12.6,12c-8.4,8.2-13.8,26.3-7.5,37.7c3.3,6.2,7.9,10.9,15.6,13.2c0,0.1,0.1,0.2,0.1,0.3
		c-7.8-2.3-12.5-7-16-13.3c-6.3-11.4-0.9-29.5,7.5-37.7c4.2-4,8.4-8,12.6-12l-0.1-0.1c-4.5-0.1-7.5,4.2-12,4c0,0,0-0.1,0-0.1
		c0.7-0.8,1.4-1.6,2-2.5c-1.4-1.5-4.6,0.9-5.1-2.4c-0.1-0.8,0.1-1.2,0.5-1.5c-0.2,0.3-0.3,0.6-0.2,1.2c0.5,3.3,3.7,0.9,5.1,2.4
		c-0.7,0.9-1.4,1.7-2.1,2.6c4.5,0.2,7.5-4.1,12-4c-0.1,0-0.1,0.1-0.2,0.1C586.9,74,587,74.1,587,74.2z M567.1,156.1
		c-0.2,0-0.3,0.1-0.4,0.1C566.8,156.1,566.9,156.1,567.1,156.1z M544.1,54.4c0.1,0,0.2,0,0.4,0.1c1.6,2.4,4.6,2,6.4,3.6
		c0.1,0,0.1,0,0.2,0c5.5,8.8,13.5,12.7,24,11.9c-0.1,0.1-0.2,0.2-0.3,0.3c0,0,0,0,0,0c-10.6,0.8-18.6-3.1-24.1-12
		C548.8,56.5,545.7,57.1,544.1,54.4z M582.3,64.5c1.2-1.5-3.7-3.7-1.8-5C579.1,60.9,584.1,63,582.3,64.5z M571.4,149.2
		c0.5,0.3,1.1,0.6,1.6,0.9c0.8,0.5,1.6,1,2.2,1.6c0.4,0.4,0.8,0.9,1.2,1.4c-0.3-0.5-0.7-1-1.2-1.4c-0.7-0.6-1.4-1.1-2.2-1.6
		C572.5,149.8,572,149.5,571.4,149.2z M574.8,78.2c-0.1,0.1-0.1,0.3-0.2,0.4C574.6,78.5,574.7,78.3,574.8,78.2
		C574.8,78.2,574.8,78.2,574.8,78.2C574.8,78.2,574.8,78.2,574.8,78.2C574.8,78.2,574.8,78.2,574.8,78.2z M556.5,46.9
		c-6.1,0.8-12.3,0-18.1-2.3c-3.4-1.4-4.8-0.1-5.9,3c-2.6,7.7-1.9,15.4-0.4,23.1c0.3,1.4,1.6,3.7-1.7,2.9
		c-11.2-2.6-22.7-2.5-33.8-5.4c-6.7-1.7-12.4-5.5-18.6-8.2c0,0,0,0,0,0c6.1,2.7,11.8,6.4,18.5,8.1c11.1,2.9,22.7,2.8,33.8,5.4
		c3.4,0.8,2-1.5,1.7-2.9c-1.5-7.7-2.2-15.4,0.4-23.1c1.1-3.1,2.5-4.4,5.9-3c5.8,2.3,12,3.2,18.1,2.3c4.6-0.6,9.6,0.6,13.4-3.3
		c0,0,0,0,0.1,0c0,0,0.1,0,0.1,0C566.2,47.4,561,46.3,556.5,46.9z M440.5,204.3C440.5,204.3,440.5,204.3,440.5,204.3
		c-11.2-2.3-21.4-3.8-31.6-8.4c2.2-1,4.2-1.2,6.2-1c-1.9-0.1-3.9,0.1-6,1C419.1,200.4,429.3,201.9,440.5,204.3z M410.2,154.2
		c1.4,4.1,1.9,5.8,0.7,7c1-1.2,0.4-2.9-0.9-6.8c0-0.2,0.3-0.6,0.5-1.1c0,0,0,0,0,0C410.3,153.7,410.1,154,410.2,154.2z M391.6,83.6
		c0.2,4.7-0.4,9.5-0.6,14.3c0,0.7-0.3,1.3-0.6,1.8c0.3-0.5,0.5-1,0.5-1.7c0.2-4.8,0.9-9.6,0.6-14.3c-0.6-10.1,2.9-19.1,6.7-28
		c0-0.1,0.1-0.1,0.2-0.2c0,0,0,0-0.1,0.1C394.5,64.5,391,73.4,391.6,83.6z M505.6,37.9c0.1,0,0.2,0.1,0.3,0.1c-3.3-0.8-6.7-1-9.9-1
		C499.2,36.9,502.4,37.2,505.6,37.9z M523.4,52.1c0-2.9-1.7-3.3-7.4-4.6c-1.5-0.4-2.9-0.8-4.4-1c-8.6-1.2-16.4,1.3-24.8,6.1
		c-0.1,0-0.1,0-0.2,0c8.5-4.9,16.3-7.3,25-6.2c1.5,0.2,2.9,0.6,4.4,1C521.6,48.8,523.4,49.2,523.4,52.1z M485.4,34.2
		c3.4,0.1,6.8,0.4,10.2,0.9C492.3,34.6,488.9,34.4,485.4,34.2z M469.5,48.4c-0.2-0.2-0.4-0.5-0.4-0.8
		C469.1,47.8,469.4,48.1,469.5,48.4z M468.1,33.2c1.4-0.1,2.4,2.1,3.8,2.8c2.1,1,4.1,2,6.5,2.1c-2.4-0.1-4.5-1.1-6.7-2.1
		C470.4,35.4,469.4,33.3,468.1,33.2z M475.9,68.9C475.9,68.9,475.9,68.9,475.9,68.9C475.9,68.9,475.8,68.9,475.9,68.9
		C475.8,68.9,475.9,68.9,475.9,68.9C475.9,68.9,475.9,68.9,475.9,68.9z M475.9,68.9c2.3,0.7,4.6,1.4,6.9,2.1
		c0.1-4.5-4.8-6.6-5.1-10.9c-0.3-0.4-0.6-0.7-0.9-1.1c-0.1-0.2-0.2-0.3-0.3-0.4c0.1,0,0.1,0,0.1,0.1c0.1,0.1,0.1,0.2,0.2,0.3
		c0.2,0.2,0.4,0.3,0.6,0.5c0.2,0.2,0.3,0.4,0.5,0.6l-0.1,0.1c0.4,4.2,5.3,6.4,5.1,10.9C480.6,70.4,478.3,69.7,475.9,68.9L475.9,68.9
		z M475.5,68.6C475.5,68.6,475.4,68.6,475.5,68.6c0,0.2,0.2,0.4,0.3,0.6l0.1-0.1c0.6,5.6,4.6,10.2,4.7,16.1
		c-0.1-0.1-0.2-0.2-0.2-0.2c-0.3-5.9-4.2-10.3-4.7-15.9c-0.1-0.2-0.3-0.4-0.4-0.6C475.4,68.6,475.4,68.6,475.5,68.6z M477.4,146.3
		c-0.1-0.1-0.1-0.2-0.1-0.4C477.3,146,477.4,146.2,477.4,146.3z M477.6,145.8c0.1,0.1,0.1,0.3,0.1,0.4
		C477.7,146.1,477.6,145.9,477.6,145.8z M472.6,96c2.1,13-1.5,29.3-10.3,42.2c8.7-12.9,12.1-29.1,10.1-42
		c-1.7-10.6-6.1-19.7-12.8-28.1c0.2,0.1,0.4,0.3,0.6,0.4C466.7,76.7,470.9,85.6,472.6,96z M462.1,85.6c-0.3,2.3-0.7,4.2-0.9,6.2
		c-1.3,14.8-7.1,27.5-18.2,37.6c-4.1,3.7-8.7,7.1-13,10.6c4.3-3.6,8.8-6.9,13-10.7c11-10.1,16.9-22.8,18.2-37.6
		c0.1-1.9,0.5-3.9,0.9-6.2c3.5,10,3.7,21.8-0.4,31.9C465.8,107.3,465.5,95.5,462.1,85.6z M417.6,136.6c-0.4,0.4-0.7,0.8-0.1,1.2
		c0,0,0,0-0.1,0C416.8,137.4,417.1,137,417.6,136.6c1-4.6,3.3-8.7,5.7-12.6c8.7-14,15.1-28.7,14.1-45.8c0,0.1,0.1,0.2,0.1,0.2
		c0.9,17-5.4,31.5-14.1,45.6C421,127.9,418.6,132,417.6,136.6c0.2,0.2,0.4,0.4,0.6,0.6c0,0,0,0-0.1,0
		C418,137,417.8,136.8,417.6,136.6z M415.7,34.6c5-0.9,10-1.7,14.7-1.8C425.7,32.9,420.8,33.7,415.7,34.6c5.3-4.3,11.1-6.4,16.4-6.5
		C426.8,28.2,421,30.3,415.7,34.6z M428.4,74c0,0.1,0,0.2,0,0.3c-2.9,8.5-5.9,17.1-12.8,24.4c0,0,0,0,0,0
		C422.5,91.3,425.4,82.6,428.4,74z M400.7,54c-0.1-0.1-0.3-0.2-0.4-0.3c-0.1,0.3-0.2,0.8-0.3,1.1c0,0,0,0,0,0
		c0.1-0.4,0.3-0.9,0.4-1.2C400.5,53.7,400.7,53.9,400.7,54C400.7,53.9,400.7,53.9,400.7,54z M400.3,54.6c-0.1,0.1-0.1,0.2-0.2,0.3
		c0,0,0,0,0,0l0,0C400.1,54.8,400.2,54.7,400.3,54.6z M420.3,24.9c0.1,0,0.2-0.1,0.2-0.1c0.1,0,0.1,0,0.2-0.1
		C420.5,24.8,420.4,24.9,420.3,24.9z M400,38.3c-0.3,0.3-0.6,0.5-0.9,0.7c0.2-0.2,0.5-0.4,0.7-0.6c1.3-1.3,2.8-2.4,4.2-3.5
		C402.6,36,401.3,37.1,400,38.3z M403.2,112.7c0.9-0.6,2.1-1.4,3.2-0.6c1.1,0.8,0.6,2.1,0.4,3.2c-1.3,7.5-3,15-2.6,22.7
		c0,0.8-0.2,1.7,1,2.3c-0.1,0.1-0.1,0.2-0.1,0.2c-1.3-0.6-1.1-1.5-1.1-2.3c-0.4-7.7,1.2-15.2,2.6-22.7c0.2-1.1,0.7-2.4-0.4-3.2
		c-1.1-0.8-2.3,0-3.2,0.6c-1,0.7-2,1.3-3,2C401.1,114.2,402.2,113.4,403.2,112.7z M449,179.4c-2.8-0.2-5.3-2.2-7.6-6.4
		C443.7,177.2,446.1,179.3,449,179.4z M463.9,210.2c-0.1,0-0.1,0-0.2-0.1C463.8,210.2,463.8,210.2,463.9,210.2z M463.4,210
		c-0.1,0-0.2-0.1-0.3-0.1C463.2,210,463.3,210,463.4,210z M462.8,209.8c-0.1,0-0.2-0.1-0.3-0.1C462.6,209.7,462.7,209.7,462.8,209.8
		z M462.1,209.5c-0.1,0-0.2-0.1-0.3-0.1C462,209.4,462.1,209.4,462.1,209.5z M461.4,209c0,0-0.1,0-0.1-0.1
		C461.3,209,461.4,209,461.4,209z M462,201.9C462,201.9,462,201.9,462,201.9c0.3-0.2,0.6-0.3,0.8-0.3
		C462.6,201.6,462.3,201.7,462,201.9z M462,201.8c0-0.5-0.1-0.9-0.2-1.2C461.9,200.9,462,201.3,462,201.8L462,201.8z M460.6,199.5
		c0.3,0.2,0.6,0.4,0.9,0.6C461.3,199.9,461,199.7,460.6,199.5z M458.9,199.6c0-0.2,0-0.5,0-0.7c0,0,0,0,0,0
		C459,199.2,458.9,199.4,458.9,199.6z M458,182.7c-1.2,0.6-3.4,0.9-3,2.7c0.1,0.4,0.2,0.7,0.4,1c-0.3-0.3-0.4-0.7-0.5-1.1
		c-0.4-1.8,1.8-2,3-2.7c11.6-6.7,22.4-14.2,30.9-25.8c0,0.1,0,0.2,0,0.3C480.3,168.6,469.5,176.1,458,182.7z M419.7,19.9
		c0.3-0.2,0.7-0.4,1-0.6C420.4,19.5,420,19.7,419.7,19.9z M397.6,39.2c-0.4,0.2-0.8,0.4-1.1,0.6C396.8,39.6,397.2,39.4,397.6,39.2
		C397.6,39.2,397.6,39.2,397.6,39.2z M397.2,117.2c0.2-0.2,0.5-0.4,0.8-0.6c-0.3,0.3-0.6,0.5-1,0.8c-0.5,0.5-1,1-1.5,1.4
		C396,118.3,396.6,117.7,397.2,117.2z M399,115.7c-0.1,0.1-0.3,0.2-0.4,0.3C398.7,115.9,398.9,115.8,399,115.7z M415.3,194.9
		c0.3,0,0.5,0.1,0.8,0.1C415.9,194.9,415.6,194.9,415.3,194.9z M422.7,196.5c0.2,0,0.4,0.1,0.5,0.1
		C423.1,196.6,422.9,196.5,422.7,196.5z M498.9,145c-0.1,0.2-0.2,0.4-0.4,0.7C498.6,145.4,498.8,145.2,498.9,145
		c-0.2,0.1-0.4,0.2-0.7,0.3C498.4,145.2,498.7,145.1,498.9,145c4.3-4.3,9-7,14-8.7c-5,1.7-9.6,4.4-13.9,8.7
		C499,145,498.9,145,498.9,145z M571,170.1C571,170,571,170,571,170.1c3.6,1,7,2.8,10,5C578,172.9,574.7,171.2,571,170.1z
		 M567.5,156C567.5,156,567.6,156,567.5,156c6.2-0.1,17.1,8.9,18.6,16.2L567.5,156z M599.6,169.5c-0.1,0-0.1,0-0.2,0
		C599.5,169.5,599.5,169.5,599.6,169.5z M613.2,208.7c1.8,1,3.5,1.4,5.2,1.4c-1.7,0.1-3.5-0.3-5.4-1.4c-1.2-0.6-2.5-1.1-4-1.3
		C610.6,207.6,612,208.1,613.2,208.7z M658,204.2c-2.3,3.1-6.8,2.2-9.3,5.6c0.6,0.2,1.2,0.3,1.9,0.4c-0.7-0.1-1.4-0.2-2.1-0.4
		C651.2,206.4,655.7,207.3,658,204.2c-2.8-0.1-5.6-0.1-8.5-0.2c-0.1,0-0.2,0-0.4,0c0.2,0,0.4,0,0.6,0
		C652.5,204.1,655.2,204.1,658,204.2c0.1-0.2,0.3-0.5,0.5-0.7C658.4,203.8,658.2,204,658,204.2z M635.5,199.5
		c3.4,1.2,7,2.5,10.7,2.7c0.2,1.3,0.9,1.6,1.7,1.7c-0.9-0.1-1.7-0.4-1.9-1.7c-3.7-0.2-7.2-1.4-10.7-2.7c-0.5-0.2-1-0.6-1.4-0.7
		C634.4,198.8,634.9,199.3,635.5,199.5z M638.5,174.2c0-0.1,0.1-0.2,0.1-0.3c0,0,0,0,0,0C638.6,174,638.5,174.1,638.5,174.2z
		 M634.8,168c5.9-3.6,11.1-7.9,13.3-14.9C645.9,160.2,640.7,164.4,634.8,168z M654.6,164.9c4.5-1.9,7.6-5.4,10.2-9.5
		c-1.7-1.5-3.7,0.3-5.3-1.3c1.6,1.5,3.6-0.3,5.3,1.3C662.3,159.5,659.2,163,654.6,164.9z M657.3,155.7c-0.4-0.8,0.6-1.8,1.5-1.8
		C657.9,153.9,657,154.9,657.3,155.7z M664.2,142.7c-5,2.2-10.2,2.8-15.6,2.2c-0.8-0.1-2.3-0.1-2.5-1c0.2,0.8,1.7,0.8,2.5,0.9
		C654,145.4,659.3,144.7,664.2,142.7c1.6-0.8,2.7-1.6,3.2-2.6C666.9,141.1,665.8,142,664.2,142.7z M674.2,138.6
		C674.2,138.6,674.2,138.6,674.2,138.6c1.8,0.1,8.3-4.7,8.3-6.5c0-1.3-0.4-1.8-1.1-1.9c0.7,0.1,1.2,0.6,1.2,1.9
		C682.5,133.9,675.9,138.9,674.2,138.6z M682.6,126.7c-1.1,1.4-2.2,1.4-3.3,0.9c1.1,0.4,2.1,0.4,3.1-0.9c1.7-2.2,0.1-3.6-1.7-4.7
		c0,0,0.1,0,0.1,0C682.6,123.2,684.2,124.5,682.6,126.7z M675,113.2c0.4,0.3,0.7,0.6,1,0.9l0.1,0.2l-0.2,0.2h0
		c0.3,2.7,2,4.8,2.3,7.7c0.1,1.1,0.3,1.5,0.5,1.5c-0.3,0-0.5-0.4-0.6-1.5c-0.3-2.8-2-5-2.3-7.7l0.2-0.2l-0.1-0.2
		c-0.1-0.1-0.2-0.2-0.3-0.3C675.4,113.6,675.2,113.4,675,113.2c0.2,0.2,0.4,0.4,0.6,0.6c-0.2-0.2-0.5-0.4-0.8-0.6
		c-0.9-1.4-1.8-2.7-2.8-4.1c0,0,0.1-0.1,0.1-0.1C673.1,110.4,674,111.8,675,113.2z M667.5,108.4
		C667.5,108.4,667.5,108.4,667.5,108.4C667.5,108.4,667.5,108.4,667.5,108.4c0.5-0.6,0.5-1.9,0.4-2.8c0,0,0,0,0,0c0,0,0,0,0,0
		C668,106.5,668,107.8,667.5,108.4z M653.4,77.1c4.4,3.9,9.8,6.9,11.9,12.9c0.2,1.9-0.5,3.9-1.7,4.7c1.1-0.9,1.7-2.8,1.6-4.6
		C663.2,84,657.8,81,653.4,77.1c-0.3-0.1-0.8-0.1-1.1,0.1C652.6,76.9,653.1,76.8,653.4,77.1z M641.6,68.7c1.7,1.6,3.8,2.7,4.2,5.1
		c0,0,0,0,0,0c-0.5-2.4-2.6-3.6-4.2-5c-19-17.7-41.4-24.8-67.2-21.6l0,0C600.2,44,622.6,51.1,641.6,68.7z M472.2,26.2
		c10.3,0,20.6-1.4,30.8-1.8c14.5-0.7,28.5,3.6,42.4,7.2c10.2,2.6,19.8,7,29.7,10.8c-0.6,1.1-1.3,1.5-1.9,1.6
		c0.6-0.1,1.2-0.6,1.7-1.5c-9.9-3.8-19.5-8.1-29.7-10.8c-13.9-3.6-27.9-7.8-42.4-7.2C492.6,24.9,482.4,26.3,472.2,26.2
		c-0.1,0.1-0.1,0-0.2,0c-1.3,0-2.5-0.9-3.8-1C469.6,25.2,470.8,26.2,472.2,26.2z M451,19.8c6.9,6.1,12,13.6,15.4,22.2
		c1.3,0.7,0.9,2,0.8,3c-0.1,0-0.1,0-0.2,0c0,0-0.1-0.1-0.1-0.1c0.1-1,0.4-2.1-0.8-2.9c0,0,0,0,0.1,0l-0.1-0.1c0,0,0,0,0,0.1
		c0,0,0,0-0.1-0.1c0,0,0,0.1,0,0.1c-3.3-8.6-8.5-16-15.4-22c-6.5-5.7-13.9-7-22.2-4.1c-2.4,0.8-4.6,1.8-6.8,2.9
		c2.3-1.2,4.7-2.2,7.2-3.1C437.1,12.8,444.6,14.1,451,19.8z M338.5,45.9c15.6,2.3,31.1,2.3,46-3.9c0.7-0.3,1.8-0.6,2.3-0.3
		c0.9,0.6,0.7,1.8,0.3,2.7c-1,2-2.2,4-3.5,6.3c1.2,0.1,2.1,0,2.8-0.4c-0.8,0.5-1.7,0.6-3,0.5c1.3-2.3,2.5-4.2,3.5-6.3
		c0.5-0.9,0.7-2.1-0.3-2.7c-0.5-0.3-1.6,0-2.3,0.3c-14.9,6.2-30.4,6.2-46,3.9c-6.3-0.9-12.7-2.1-18.3-5.6c0.1,0,0.2,0,0.3,0
		C326,43.8,332.3,45,338.5,45.9z M382.6,70.9c-0.9,1.2-1.6,2.4-2.2,3.7C381,73.3,381.7,72.1,382.6,70.9
		C382.6,70.9,382.6,70.9,382.6,70.9z M237.2,110.1C237.2,110.1,237.2,110.1,237.2,110.1c4.6-0.6,6.6-4.9,10.2-7.1
		c0.5-0.3,1-0.7,1.5-1c-0.5,0.4-1,0.8-1.6,1.1c-3.6,2.2-5.6,6.5-10.2,7.1C237.1,110.2,237.2,110.1,237.2,110.1z M150.3,132.2
		c0.7,1.8-0.2,2.9-1.7,4.5C148,134.5,148,133.1,150.3,132.2z M160.4,94.2c0.1,0.1,0.2,0.2,0.3,0.2c0.2-0.4,0.3-0.8,0.5-1.2l0,0
		c0,0,0,0.1,0.1,0.1c-0.2,0.4-0.3,0.8-0.5,1.2C160.6,94.4,160.4,94.2,160.4,94.2C160.4,94.2,160.4,94.2,160.4,94.2z M339.3,111.5
		C339.3,111.5,339.3,111.6,339.3,111.5c-0.8,4.6,3,7.6,2.7,11.4c0.1,0.2,0.2,0.3,0.3,0.4c0,0,0,0-0.1,0c0,0-0.1-0.1-0.1-0.1
		c0-0.1-0.1-0.1-0.1-0.2c0,0-0.1,0-0.1,0C342.1,118.9,338.3,115.9,339.3,111.5z M297,48.2c-6.3,3-12.6,6-17.5,11
		c4.8-5,11.1-7.9,17.4-11C296.9,48.2,297,48.2,297,48.2z M321.5,103.7C321.5,103.7,321.5,103.8,321.5,103.7c-0.7,3.4,1.4,5.3,0.9,8
		c0,0,0,0-0.1-0.1C322.8,108.9,320.6,107,321.5,103.7z M290.7,76.1c3.7,2.5,3.2,6.3,4.4,9.5c1.4,3.7,2,7.8,4.8,11.4
		c-2.8-3.6-3.4-7.6-4.8-11.3C293.9,82.5,294.4,78.8,290.7,76.1c-0.3-0.1-0.5-0.4-0.7-0.7C290.2,75.7,290.4,75.9,290.7,76.1z
		 M301.3,90.3c0.2-0.9,0.4-1.8,0.7-2.8C301.7,88.5,301.5,89.4,301.3,90.3c0,0.3-0.1,0.6-0.1,0.8C301.2,90.9,301.2,90.6,301.3,90.3z
		 M311.6,64.6c0.4-0.7,1.1-1.4,1.1-2.2C312.7,63.3,312.1,64,311.6,64.6c-2.7,4-4.8,8.1-6.4,12.4C306.8,72.7,308.9,68.5,311.6,64.6z
		 M274.6,63.5c0.1-0.1,0.3-0.3,0.4-0.4c0.2-0.2,0.4-0.3,0.5-0.4c0,0.1,0,0.3-0.1,0.3c-0.1,0-0.3,0.1-0.4,0.1
		c-0.1,0.1-0.2,0.2-0.4,0.5C274.6,63.6,274.6,63.5,274.6,63.5z M354.8,101.8c0.1-9.7,1.6-19.2,2.2-28.7c0,0,0,0,0,0
		C356.4,82.5,354.9,92.1,354.8,101.8z M351.2,92.7c0,5.6,1.1,10.7,3.6,13.2c0,0,0,0.1,0,0.1C352.3,103.4,351.1,98.3,351.2,92.7z
		 M344.9,95.1c0,3,0,6,0.2,9.1C344.9,101.1,344.8,98.1,344.9,95.1z M332.1,96.7c-6.8-10-5.5-22.5,2.8-29.3
		C332.7,77,331.9,86.5,332.1,96.7z M228.9,28.2c4.5-0.1,8.5-2.4,12.8-3.5c17.5-4.6,34.6-4.8,51.2,1.3c-16.6-5.9-33.7-5.8-51.1-1.3
		C237.5,25.8,233.5,28.2,228.9,28.2z M235,93.3c0-0.1,0-0.2,0-0.3h0C235,93.2,235,93.2,235,93.3z M234,95C234,95,234,95,234,95
		c-0.6,0.1-0.9,0.4-0.9,1c0,0-0.1,0-0.1,0c0,0,0,0,0,0c-0.8,0.3-1.1,1-1.1,1.9l0.3,0.2c0,0,0,0-0.1,0c0,0-0.1-0.1-0.2-0.2
		c0,0-0.1-0.1-0.1-0.1l0,0c0.1-0.8,0.3-1.5,1.2-1.8C233.1,95.4,233.3,95,234,95c0-0.2,0-0.4,0-0.5C234,94.6,234,94.8,234,95z
		 M234.1,94.4c0-0.1,0.1-0.3,0.1-0.4C234.1,94.1,234.1,94.3,234.1,94.4z M234.3,93.7C234.3,93.7,234.4,93.6,234.3,93.7
		C234.4,93.6,234.3,93.7,234.3,93.7z M232.9,97.4c0,0.1-0.1,0.2-0.2,0.3C232.8,97.6,232.9,97.5,232.9,97.4z M232.7,97.7
		c-0.1,0.1-0.2,0.2-0.3,0.2C232.5,97.9,232.6,97.8,232.7,97.7z M219.3,118.8c-0.1,0.1-0.1,0.1-0.2,0.2c0,0,0-0.1,0-0.1c0,0,0,0,0,0
		c0.1-0.1,0.2-0.2,0.2-0.2C219.3,118.6,219.3,118.7,219.3,118.8z M163,144.4c1.1,1.1,1.6,1.2,2.4,1.1c0,0,0,0,0,0c0,0,0,0,0,0
		C164.6,145.6,164.1,145.6,163,144.4z M166.3,92.1c4.8-8.1,9.5-16.4,16.8-22.7c1-0.9,2.1-1.8,2-3.3c0,0,0-0.1,0.1-0.1
		c0.8,0.1,1.5,0,1.9-0.9c0,0,0,0,0.1,0c0,0,0-0.1,0.1-0.1c0.9,0,1.5-0.1,1.9-0.9c0.4-0.2,0.7-0.5,1-0.7c0,0,0,0,0,0
		c-0.4,0.2-0.7,0.5-1,0.7c0.4-0.2,0.8-0.3,1.2-0.3c-0.4,0.1-0.8,0.2-1.2,0.3c-0.4,0.9-1.1,1-2,1c-0.4,0.9-1.1,1-1.9,1
		c0.1,1.6-1,2.4-2,3.3c-7.3,6.3-12,14.6-16.8,22.7c-1,1.8-1.7,3.5-2.9,3.3C164.6,95.4,165.3,93.7,166.3,92.1z M232.1,48
		c-0.2,0.1-0.4,0.2-0.6,0.3c-4.5,2.5-8.8,5.3-13,8.3c4.2-3.1,8.5-5.9,13.1-8.4C231.7,48.1,231.9,48.1,232.1,48z M181.3,120.2
		c-0.3,0.5-0.6,0.9-1.2,0.8c-0.1,0.4-0.2,0.8-0.3,1.1c0,0,0,0-0.1,0c0.1-0.3,0.1-0.6,0.2-0.9c0-0.1,0.1-0.1,0.1-0.2c0,0,0-0.1,0-0.1
		C180.7,121,181,120.7,181.3,120.2z M207,96.2c9.1-9.1,18-18.4,24.3-29.9C225.1,77.8,216.2,87.1,207,96.2z M218.1,110.8
		c-1.7,1.6-3.5,3.1-5.2,4.6C214.6,113.9,216.4,112.3,218.1,110.8z M202.1,123.7c-1.5,1.1-3,2.1-4.5,3.2
		C199.1,125.8,200.6,124.8,202.1,123.7z M229.8,99.2c-1.8,2-3.7,3.9-5.6,5.8C226.1,103.1,228,101.2,229.8,99.2
		C229.8,99.2,229.8,99.2,229.8,99.2C229.8,99.2,229.8,99.2,229.8,99.2z M221,70.5c3.2-1.7,6.6-3.1,9.9-4.6c0.2-0.2,0.6-0.5,0.6-0.5
		c0.2,0.1,0.3,0.3,0.3,0.3c0-0.1-0.1-0.2-0.2-0.2c-0.1-0.1-0.4,0.3-0.6,0.5c0,0,0.2,0.2,0.3,0.3l0,0l-0.4-0.3
		c-3.3,1.5-6.7,2.9-9.9,4.6c-19.9,11-33.9,26.9-40.4,49c0,0.1-0.1,0.3-0.1,0.4c0-0.2,0.1-0.3,0.1-0.5C187.1,97.4,201,81.4,221,70.5z
		 M179.4,121.8c0.1-0.1,0.2-0.3,0.3-0.4C179.7,121.6,179.6,121.7,179.4,121.8z M198.7,73c0.4-0.4,0.9-0.8,1.3-1.2
		c-0.5,0.4-1,0.9-1.4,1.3c-9.2,8.4-17.5,17.6-25.1,27.4C181.1,90.7,189.4,81.4,198.7,73z M208.2,130.9c-1.5,1.7-3.1,3.4-4.7,5
		c1.5-1.5,3-3.1,4.5-4.8c0.4-0.4,0.8-0.9,1.2-1.3C208.9,130.1,208.5,130.5,208.2,130.9z M209.7,129.1c-0.1,0.1-0.2,0.3-0.3,0.4
		C209.5,129.3,209.6,129.2,209.7,129.1z M235.5,92.7c-0.1,0-0.2,0-0.2,0c0,0-0.1,0.1-0.1,0.1c0,0,0,0-0.1,0c0-0.1,0.1-0.2,0.1-0.3
		c0,0,0.2,0,0.3,0C235.6,92.6,235.5,92.7,235.5,92.7z M232.9,44.1c13.9-15.2,30-16.9,52.5-5.9C267.7,42.2,250.4,39.2,232.9,44.1z
		 M294.5,120.8c-8.3-5.8-18.1-6.3-29-7c0.1,0,0.2-0.1,0.3-0.1c10.9,0.9,20.7,1.2,29,7.2C294.7,120.9,294.6,120.9,294.5,120.8z
		 M325.3,39.7c0.9-0.2,1.7-0.5,2.5-0.8C327.1,39.3,326.2,39.5,325.3,39.7z M328.6,36.1c0.8,0.1,1.4,0.6,1.2,1.3
		c-0.2,0.4-0.6,0.9-1.1,1.2c0.4-0.3,0.8-0.7,0.9-1.1c0.2-0.7-0.4-1.2-1.2-1.3c-4.2-0.6-7.8-3.2-12.1-3.1c0,0,0-0.1,0-0.1
		C320.7,32.7,324.4,35.5,328.6,36.1z M315.8,37.8c-1.6,0.8-3.3-0.4-4.7-1.3c-3.7-2.4-7.3-5.1-11-7.6c0.1,0,0.3,0,0.4,0.1
		c3.6,2.5,7.1,5.1,10.7,7.4C312.6,37.2,314.2,38.5,315.8,37.8z M302.2,26.2c0.8,0.4,2.4,0.7,1.9,1.9c-0.2,0.6-0.5,0.9-0.9,1
		c0.3-0.2,0.5-0.5,0.7-0.9c0.4-1.2-1.1-1.5-1.9-1.9c-23-12-45.7-12.9-68.1-2C256.4,13.3,279.2,14.2,302.2,26.2z M227.1,28
		c-0.1,0-0.1,0.1-0.2,0.1c0,0,0,0,0,0c-3.3,0.1-4.3,3.4-6.8,4.6c-8.9,4-16.3,10.1-23.9,16c-0.3,0.2-0.5,0.4-0.8,0.6
		c0.3-0.2,0.6-0.4,0.9-0.7c7.6-5.9,15.1-12,23.9-16C222.8,31.4,223.8,28,227.1,28z M208.8,32c0.2,0,0.4-0.1,0.3-0.6
		C209.3,32,209.1,32.1,208.8,32z M135.5,73.2c15.8-12.5,31.6-24.9,50.1-33.2c7.3-3.2,14.6-6.4,22.5-7.9c0.1-0.1,0.2-0.1,0.3-0.1
		c-0.1,0-0.2,0-0.3,0.1c0,0,0,0,0,0c-7.9,1.5-15.1,4.7-22.4,7.9C167.2,48.3,151.4,60.8,135.5,73.2c-16.5,13.1-33.5,25.6-53.6,33
		c-1.6,0.6-3.3,1.2-5,1.7c1.6-0.5,3.2-1.1,4.9-1.7C101.9,98.8,118.9,86.3,135.5,73.2z M23.3,67C23.3,67,23.3,67,23.3,67
		c0.1-0.1,0.2-0.2,0.3-0.3c0,0,0.1-0.1,0.1-0.1c0,0.1,0,0.3-0.1,0.3c0,0,0,0,0,0c0-0.1,0-0.1,0-0.2C23.5,66.8,23.4,66.9,23.3,67z
		 M44.2,41.1c1.8,2.2,3.4,0.6,4.9-0.4c6.5-3.9,13.1-7.6,20.6-9c5.9-1.1,11.9-1.5,16.5,3.8c0.3-0.3,0.6-0.5,0.9-0.8
		c-0.3,0.3-0.6,0.6-0.9,0.8c-4.6-5.2-10.6-4.9-16.5-3.8c-7.5,1.4-14.1,5.1-20.6,9C47.5,41.8,45.9,43.4,44.2,41.1
		C44.1,41.1,44.1,41.1,44.2,41.1z M43.5,41.1c-1.4,0-2.7,0.7-4,1.5C40.7,41.8,42,41.1,43.5,41.1z M69.6,115.4
		c-10.6,2.5-21.3,2.7-31.8-1.2c-18.4-6.9-25-21.6-17.5-40.4c0.6-1.6,1.3-3.1,1.9-4.6L22,69c-2.6,0.7-3.1,3.6-5.5,5.2
		c0-0.8-0.2-1.7-0.1-2.4c0,0.7,0.1,1.5,0.1,2.3c2.3-1.6,2.9-4.4,5.5-5.2c0-0.2,0.1-0.3,0.1-0.5c0,0.2-0.1,0.3-0.1,0.5l0.2,0.2
		c0.8-0.5,1-1.2,0.9-2c0,0,0.1,0,0.1,0c0,0,0,0,0,0.1c0,0,0,0,0,0c0,0,0,0,0,0c0.1,0.9-0.1,1.5-0.9,2c-0.6,1.5-1.3,3.1-1.9,4.6
		c-7.4,18.8-0.8,33.5,17.5,40.4c10.5,4,21.2,3.8,31.8,1.2c4.8-1.1,9.4-2.6,14-4.2C79.1,112.8,74.4,114.2,69.6,115.4z M22.2,68
		c0,0.1-0.1,0.1-0.1,0.2C22.2,68.2,22.2,68.1,22.2,68z M152.6,116.3c2.4,0.8,2.8,3.6,2.6,6c-0.1,0.7-0.2,1.3-0.4,2.4
		c1.5-0.4,2.5-1.3,3.3-2.3c-0.8,1-1.8,2-3.4,2.4c0.2-1.1,0.4-1.8,0.4-2.4c0.1-2.5-0.2-5.2-2.6-6c-1.1-0.4-1.8-0.2-2.3,0.4
		C150.7,116.2,151.4,115.9,152.6,116.3z M137.2,132.5c4-0.4,6.3-2,7.9-4.2c-1.6,2.3-3.9,3.9-8,4.3c-5.6,0.6-10.9,3.6-16.7,4.4
		c-0.9,0.1-1.9,0.1-2.5,0.5c0.6-0.5,1.7-0.4,2.6-0.6C126.3,136.2,131.6,133.1,137.2,132.5z M107.9,137.2c3.1,0.7,6.1,1.2,9.2,1.8
		c0,0,0,0.1,0,0.1c-1.3,1.4-3.1,1.2-4.7,1.4c-3.1,0.3-5.5,1.4-7.5,3.2c2-1.9,4.5-3,7.6-3.3c1.5-0.1,3.3,0.1,4.6-1.3
		c-3.1-0.6-6.2-1.1-9.3-1.8c-2.1-0.5-3.6-0.2-4.7,0.7C104.2,137,105.8,136.7,107.9,137.2z M87.3,182.8c0.9-0.9,1.5-2,2.1-3.2
		c1.6-4,3.7-7.7,6.3-10.8c-2.5,3.1-4.5,6.7-6.1,10.6C89,180.8,88.3,181.9,87.3,182.8z M100.3,150.4c-0.5,0.5-1.1,0.7-2.1,0.6
		c0,0,0-0.1,0-0.1C99.2,151,99.8,150.8,100.3,150.4z M80.9,216.6c0.7-0.6,1.3-1.3,1.4-2.1c0.6-2.8-1.7-5.8-4.6-7.6
		c-1-0.6-2.1-1.1-3.1-1.7c-0.8-0.4-1.6-0.9-1.2-1.9c2-4.3,3.5-8.9,6.1-12.8c-2.5,3.9-4,8.4-5.9,12.6c-0.4,1,0.5,1.5,1.2,1.9
		c1.1,0.6,2.1,1.1,3.1,1.7c2.9,1.7,5.2,4.8,4.6,7.6C82.3,215.1,81.7,215.9,80.9,216.6z M88.6,204.6c-1.4-0.3-2.7-1.7-4-1.7
		C85.9,202.9,87.3,204.3,88.6,204.6z M82.5,231.6c-1-1.8-2.1-3.2-2.6-4.8C80.4,228.4,81.6,229.8,82.5,231.6c1.7-3.1,1.8-5.5,1.1-8
		c-0.3-1-0.7-2.3-2-2.2c1.4-0.1,1.8,1.1,2.1,2.2C84.4,226.1,84.2,228.5,82.5,231.6z M93.1,218.5c0.8-0.3,1.5-0.8,2.1-1.4
		C94.6,217.7,93.9,218.2,93.1,218.5z M98.6,228.5c-2.3-0.4-3.2-2.5-3.3-4.8c0-1.2,0.1-2.6,1.4-2.6c-1.3,0-1.4,1.5-1.3,2.6
		C95.5,225.9,96.4,228.1,98.6,228.5c0.2,0,0.4,0,0.5,0C98.9,228.5,98.8,228.5,98.6,228.5z M107.7,209.5c3.3,4.9-3,7.4-3.3,11.7
		C104.6,216.9,110.9,214.4,107.7,209.5c-2.2-3.3-5.1-5.3-10.3-5.3C102.6,204.2,105.6,206.2,107.7,209.5z M108.5,166.2
		c-4,5.8-8.1,11.7-12.2,17.5c-0.4,0.5-1,1.1-1.4,0.8c0.5,0.2,1-0.3,1.3-0.8C100.2,177.9,104.3,172,108.5,166.2
		c0.2-0.4,0.3-0.9,0.5-1.3c0-1.3-0.6-1.7-1.4-1.7c0.8,0,1.4,0.4,1.4,1.7C108.8,165.3,108.7,165.8,108.5,166.2z M111,158.6
		c0,0,0.1-0.1,0.1-0.1C111.1,158.5,111,158.6,111,158.6z M111.2,158.5c0.3-0.3,0.6-0.6,0.8-1c0.3-0.4,0.6-0.8,0.9-1.2
		c-0.3,0.3-0.5,0.7-0.7,1C111.9,157.8,111.6,158.2,111.2,158.5z M144.1,163.8c-1.5-1.1-3.2-2-4.8-3.7c1.6,1.6,3.2,2.5,4.7,3.6
		c0-0.7-0.1-1.4-0.1-2.1c0.9,0.5,1.7,0.9,2.6,1.2c-0.9-0.4-1.7-0.8-2.6-1.2c0.1,0.7,0.1,1.4,0.1,2.1c21.2,13,50.8,6.4,64.5-14.5
		c0.1,0,0.1,0,0.2,0C194.9,170.2,165.2,176.8,144.1,163.8z M250.2,104.7c1.5-1.6,2.9-3.4,3.7-5.6c-0.6,0.1-1.2,0.3-1.7,0.5
		c0.6-0.3,1.1-0.5,1.8-0.6c0.1-0.1,0.1-0.1,0.2-0.2C253.3,101.2,251.9,103.1,250.2,104.7z M254.3,98.7c0,0,0.1-0.1,0.1-0.1
		C254.4,98.6,254.4,98.7,254.3,98.7z M254.5,98.5c0.2-0.2,0.3-0.3,0.5-0.5C254.8,98.2,254.7,98.4,254.5,98.5z M251.7,86.4
		c-3.4,8.7-9.2,16.1-14.8,23.5l0.1,0.1c-0.2,0.3-0.5,0.6-0.7,0.9c-0.1,0.1-0.2,0.2-0.3,0.3c-0.1,0-0.2,0-0.2,0
		c-0.1,0.1-0.1,0.1-0.1,0.2c-0.1,0.1-0.2,0.2-0.2,0.2c0.1-0.1,0-0.2,0.1-0.3c0.1-0.1,0.2-0.1,0.3-0.2c0.3-0.4,0.6-0.7,0.9-1.1
		c5.6-7.4,11.4-14.8,14.8-23.5c4.6-11.7,9.2-23.4,0.4-35.3c0,0,0.1,0,0.1,0.1C260.8,63,256.2,74.8,251.7,86.4z M278.1,178.4
		c1.5,2.3,3,4.6,4.8,6.7C281.1,183,279.6,180.8,278.1,178.4z M295.4,193.4c0.8-1.1-0.3-1.7-1.1-2.3
		C295.2,191.7,296.3,192.3,295.4,193.4z M297.7,157.6c0.5,0,0.9,0.1,1.4,0.1C298.6,157.7,298.2,157.7,297.7,157.6z M307.8,154.9
		C307.8,154.9,307.8,154.9,307.8,154.9C307.8,154.9,307.8,154.9,307.8,154.9c0.9-0.5,2.4-1,1.7-2.5c-0.8-1.6-2.1-3-3.8-3.7
		c-0.8-0.3-1.2,0-1.5,0.4c0.3-0.5,0.8-0.7,1.5-0.4c1.7,0.7,3,2.1,3.8,3.7C310.2,153.9,308.8,154.4,307.8,154.9z M362.9,179.1
		c-3.8,0.7-7-2.1-10.7-2.1c2.1,1.9,4.9,2.5,7.5,3.7c0.2,0.1,0.4,0.2,0.6,0.2c-0.2-0.1-0.5-0.2-0.7-0.2c-2.5-1-5.3-1.7-7.5-3.6
		c-15.2-6.4-27-17.3-38.3-29c-10.5-10.8-21.8-20.5-36.9-24.4c-4.1-1-8.1-1.8-13.3-1.8c0.1,0,0.2-0.1,0.3-0.1
		c5.1,0.1,9.1,0.8,13.1,1.8c15.1,3.9,26.4,13.6,36.9,24.4c11.3,11.7,23.1,22.6,38.3,29C355.9,177,359,179.7,362.9,179.1
		c0.4-2.8,2.8-6.5,0.3-8.4C365.9,172.7,363.4,176.3,362.9,179.1z M375.9,87c-4,10.5-7.2,21.4-11.9,31.6c-0.5,1.2-1.1,2.1-1.6,2.9
		c0.5-0.8,1-1.7,1.5-2.8c4.7-10.2,8-21,11.9-31.6c1.2-3.1,2.1-6.3,3.2-9.4C377.9,80.8,377,84,375.9,87z M380.4,74.6
		c-0.1,0.2-0.2,0.5-0.3,0.7C380.1,75.1,380.2,74.9,380.4,74.6z M379.9,75.7c-0.1,0.1-0.1,0.3-0.2,0.4
		C379.7,76,379.8,75.8,379.9,75.7z M379.4,76.7c-0.1,0.2-0.1,0.3-0.2,0.5C379.3,77.1,379.4,76.9,379.4,76.7z M378.8,177.2
		c8.4-8.3,14.4-17.6,19.4-27.6c0,0.1,0,0.2,0,0.2C393.3,159.8,387.3,168.9,378.8,177.2C378.8,177.2,378.8,177.2,378.8,177.2z
		 M489.5,252.9c1.6-1.7,0-4.3-0.5-6.5c-0.1-0.5-0.1-1-0.1-1.5c0,0,0,0,0,0c-0.1-0.5-0.2-0.9-0.3-1.4l0,0c0.1,0.4,0.3,0.9,0.4,1.3
		c0.3,0.2,0.6,0.4,0.8,0.6c-0.3-0.2-0.5-0.4-0.8-0.6c0,0.5,0,1,0.1,1.5C489.6,248.5,491.3,251.3,489.5,252.9z M495.8,253.8
		c-1.3-3-2.9-5.9-5.5-8C492.9,247.9,494.5,250.8,495.8,253.8c1.4,3.3,3.3,6.1,6.1,8.3c0,0,0,0,0,0c0,0,0,0,0,0
		C499.1,260,497.2,257.1,495.8,253.8z M507.4,262.9c0.6-0.6,1.1-1.6,1.6-2.9C508.5,261.3,508,262.3,507.4,262.9z M538,245.5
		c-2.1,3.3-4.8,6.3-5,10.6c0,1.1-0.4,1.5-1.1,1.4c0.5,0,0.9-0.4,1-1.4C533.1,251.8,535.8,248.8,538,245.5c0.2-0.4,0.4-0.7,0.6-1.1
		C538.4,244.8,538.2,245.1,538,245.5z M541.4,260.9c0.1,0.1,0.3,0.3,0.4,0.4C541.6,261.2,541.5,261.1,541.4,260.9z M541.8,261.4
		c0.1,0.1,0.3,0.2,0.4,0.3C542.1,261.6,542,261.5,541.8,261.4z M553,269.7c0.1-7-2.8-11.9-7.3-16.2c-0.9-0.8-2.3-2-3.4-1.1
		c-0.2,0.1-0.3,0.3-0.5,0.5c0.1-0.2,0.3-0.4,0.5-0.5c1.1-0.8,2.5,0.3,3.4,1.1C550.1,257.7,553,262.6,553,269.7z M546,233.9
		C546,233.9,546,233.9,546,233.9c0,0.2-0.1,0.4-0.1,0.5C545.9,234.3,545.9,234.1,546,233.9C546,233.9,546,233.9,546,233.9z M549,237
		c0,0.1,0,0.2-0.1,0.2C548.9,237.1,548.9,237,549,237C549,237,549,237,549,237z M547.9,235.9C547.9,235.9,548,236,547.9,235.9
		c0,0.2,0,0.3-0.1,0.5C547.9,236.3,547.9,236.1,547.9,235.9z M549.9,237.9C549.9,237.9,549.9,237.9,549.9,237.9
		C550,237.9,550,237.9,549.9,237.9c0,0.2,0,0.3,0,0.4C549.9,238.2,549.9,238.1,549.9,237.9z M550.8,238.8
		C550.8,238.8,550.8,238.8,550.8,238.8c-0.3,0-0.5,0-0.7-0.2C550.3,238.8,550.5,238.8,550.8,238.8z M550.1,238.6
		C550.1,238.6,550.1,238.6,550.1,238.6C550.1,238.6,550.1,238.6,550.1,238.6z M550,238.5C550,238.5,550,238.4,550,238.5
		C550,238.4,550,238.5,550,238.5z M568.2,243.5L568.2,243.5c-1.1,0.1-1.2,1-1.2,1.8c0,0.2,0,0.5,0.1,0.7c0.1,0.4,0.2,0.8,0.3,1.2
		c-0.1-0.4-0.2-0.7-0.3-1.2c0-0.2-0.1-0.5-0.1-0.7C567,244.4,567.1,243.6,568.2,243.5z M567.9,262.7c0-7.3-3.2-12.1-7.9-15.9
		c-1.1-1-3.2-2.6-3.8,0.2c-0.2,1.1-0.4,2.2-0.4,3.3c0-1.1,0.2-2.3,0.4-3.4c0.6-2.8,2.7-1.1,3.8-0.2
		C564.8,250.6,567.9,255.5,567.9,262.7z M560.1,237.9c0.1-0.3,0.3-0.6,0.5-0.9C560.4,237.3,560.2,237.6,560.1,237.9z M546.6,227.5
		c1.2-0.9,2.7-0.4,3.7,0.4c3.6,2.8,7,5.8,10.5,8.7c0,0,0,0,0,0.1c-3.5-2.9-6.9-5.9-10.5-8.7c-1-0.8-2.5-1.3-3.7-0.4
		c-0.5,0.4-0.4,0.9,0,1.4C546.2,228.5,546,228,546.6,227.5z M544.7,232.6c-0.2,0-0.4,0.1-0.6,0.2c0,0,0,0,0,0
		C544.3,232.7,544.5,232.6,544.7,232.6z M533.2,230.5c8,11.7,9.9,12.7,19.5,10.9c0,0.1,0.1,0.1,0.1,0.2c-9.9,1.9-11.7,1-19.9-11
		C533.1,230.5,533.1,230.5,533.2,230.5z M537.2,241.9c-4.8-0.9-9.3-3.1-14.4-3c0,0,0.1,0,0.1,0C527.9,238.8,532.4,241,537.2,241.9z
		 M467,204.8c2,0.9,4.1,1.6,4.9,4c4.8,2,9.7,3.9,14.5,5.9c-4.8-2-9.7-3.9-14.5-5.9c0,0,0,0,0,0c-0.7-2.3-2.9-3-4.8-3.9
		C467,204.9,467,204.8,467,204.8C467,204.8,467,204.8,467,204.8c-0.7-1-1.6-1.8-3-1.9l0,0C465.4,203,466.3,203.8,467,204.8z
		 M507,143.8c16.3-1.6,32.3,1.5,48.1,5.9c0,0,0,0.1,0.1,0.1C539.4,145.4,523.4,142.2,507,143.8z M556.6,160.3
		c-1.5,2.9-3.3,5.7-5.7,8c2.4-2.3,4.2-5.1,5.7-8.1c0.4-0.7,0.6-1.3,0.6-1.9C557.2,158.9,557,159.6,556.6,160.3z M557.5,169.1
		c0,0.1,0.1,0.1,0.1,0.2C557.6,169.2,557.5,169.2,557.5,169.1z M587,186.6c-2.1,1.4-4.1-0.6-5.8-1.8c-7.4-5.1-14.5-10.6-22.5-14.7
		c-0.5-0.2-0.8-0.5-1-0.7c0.2,0.2,0.5,0.4,0.9,0.6c8,4.1,15.1,9.6,22.5,14.7c1.8,1.2,3.7,3.2,5.8,1.8c2-1.4,1-3.9,0.5-6
		c0,0,0.1,0.1,0.1,0.1C588,182.7,589,185.2,587,186.6z M590.3,124.8c-1.4-3-5-4.6-6.1-8.8c0.1-0.1,0.1-0.3,0.2-0.4
		c1.1,4.4,4.8,5.9,6.2,9c1.3,2.9-1.7,6.4,0.2,9.8c-0.1,0.1-0.2,0.2-0.3,0.3C588.6,131.3,591.6,127.7,590.3,124.8z M600.9,125
		c-0.6,0.3-1.1,0.6-1.7,1c0.6-0.4,1.3-0.8,2-1.2c-1.1,4.4-3.9,7.5-3.8,12c-0.1,0.1-0.2,0.2-0.3,0.4
		C596.9,132.5,599.8,129.5,600.9,125z M598,183.7c-0.3-3.8-0.1-7.7-0.1-11.5c0.1-1-0.4-2.7,1.3-2.7c0,0,0,0,0.1,0
		c-1.8,0-1.3,1.7-1.3,2.7c-0.1,3.9-0.3,7.7,0.1,11.5c0.4,4.4,2.2,9.3,6.3,10.6c4.6,1.5,5,2.5,1.3,5.5c0.7,0.2,1.4,0.2,2.1,0.2
		c-0.7,0-1.4,0-2.2-0.2c3.7-3,3.3-4-1.3-5.5C600.1,193,598.4,188.1,598,183.7z M627.6,218.2c-1,0-1.6,0.7-1.6,1.6
		c0.1,2.5-0.3,4.6-3.3,5.1c-0.5,0.1-1.1,0.1-1.6,0.1c0.5,0,0.9-0.1,1.4-0.1c3-0.4,3.4-2.5,3.3-5.1c0-0.9,0.7-1.6,1.6-1.6
		c3.4-0.2,4.7-2.3,4.7-5.5c0.1,0,0.1,0,0.2,0C632.4,215.9,631,218,627.6,218.2z M662.2,220.8c-2.3,3.1-5.1,4.4-8.3,3.5
		c3.1,0.8,5.8-0.5,8.1-3.5c1.9-2.6,4.1-4.8,6.8-6.3c-2.1-2.6-4.7-3.6-7.3-4c2.8,0.4,5.3,1.4,7.5,4
		C666.3,216,664.1,218.2,662.2,220.8z M668.9,225.1c-0.1-1.3,0.7-2.6,1.4-3.7C669.6,222.5,668.8,223.8,668.9,225.1z M670.8,227.8
		C670.8,227.8,670.8,227.8,670.8,227.8C670.8,227.8,670.8,227.8,670.8,227.8C670.8,227.8,670.8,227.8,670.8,227.8
		C670.8,227.8,670.8,227.8,670.8,227.8z M673.1,229.2c1.8,1.1,3.6,2.1,5.4,3.2C676.7,231.3,674.8,230.3,673.1,229.2z M674.9,221.5
		c-0.5-0.4-1-0.8-1.5-1.1C673.9,220.7,674.4,221.1,674.9,221.5c3.3,2.4,4.7,6,6,9.4C679.5,227.5,678.1,223.9,674.9,221.5z
		 M672.5,220.1c0.2,0,0.3,0.1,0.5,0.2C672.8,220.2,672.7,220.1,672.5,220.1z M670.2,210.7c-1.1-1-2.5-1.7-3.6-2.7
		c-0.9-0.9-2.7-0.5-3.2-2c4.4-2,5.8-2.6,11-0.1c-5.2-2.5-6.6-2-11,0.1c0.5,1.4,2.2,1,3.2,1.9C667.7,209,669.1,209.6,670.2,210.7
		c6.6,5.8,6.6,5.8,13.3,0.2c0,0,0,0,0.1,0C676.8,216.6,676.8,216.5,670.2,210.7z M686,206.6c-2.7-0.8-5.4-1.5-7.6-3.4
		c-0.5-0.4-1.3-0.8-1.9-1.2c0.6,0.4,1.3,0.7,1.8,1.1C680.5,205,683.2,205.8,686,206.6c0.7,0.1,1.6,0.5,2.2-0.2
		c0.7-0.8,0.1-1.5-0.5-2.1c-1-1-1.9-2.2-2.8-3.1c1,1,1.9,2.2,2.9,3.2c0.6,0.6,1.2,1.3,0.5,2.1C687.7,207.2,686.8,206.8,686,206.6z
		 M687.8,222.7c0-0.3-0.1-0.6-0.1-1C687.7,222,687.7,222.4,687.8,222.7c0,0.3,0.1,0.6,0.2,0.9C687.9,223.3,687.8,223,687.8,222.7z
		 M698.4,214.8c4,2.6,6.3,5.4,6.4,10.5C700.6,222.6,696.5,221,698.4,214.8z"/>
	<path class="st1" d="M466.4,42C466.4,42,466.4,42,466.4,42c-0.1-0.1-0.1-0.1-0.1-0.1L466.4,42z"/>
	<path class="st1" d="M698.4,214.8c-1.9,6.2,2.3,7.8,6.4,10.5C704.7,220.2,702.3,217.4,698.4,214.8z"/>
	<path class="st1" d="M275.5,62.7c-0.2,0.1-0.3,0.3-0.5,0.4c0.2-0.1,0.3-0.1,0.4-0.1C275.5,62.9,275.5,62.8,275.5,62.7z"/>
	<path class="st1" d="M232.9,44.1c17.5-4.9,34.8-2,52.5-5.9C262.9,27.3,246.8,29,232.9,44.1z"/>
	<path class="st1" d="M334.9,67.4c-8.2,6.8-9.5,19.3-2.8,29.3C331.8,86.5,332.7,77,334.9,67.4z"/>
	<path class="st1" d="M148.6,136.7c1.4-1.6,2.4-2.7,1.7-4.5C148.1,133.1,148,134.5,148.6,136.7z"/>
</g>
<g>
	<path class="st1" d="M159.6,79.5c-12.2,6.5-23,15.1-34.6,22.4c-15.9,10-32.3,18.6-50.9,22.6c-11.3,2.5-22.5,3.5-33.9,0.6
		c-24.6-6.2-37-28-28.5-51.9c8.5-24.1,27-38,50.4-46.2c7.1-2.4,14.3-4.3,21.9-2.1c4.9,1.4,8.2,4.2,9.1,9.3c0.7,4.1-2.4,8.5-7.3,10.7
		C79.5,47.8,72.5,47.4,66,49c-12.1,3-22.7,8.5-30.5,18.3C29.2,75.2,25.4,84,30,94c4.5,10,13.9,12.3,23.6,12.8
		c15.7,0.8,29.9-4.8,43.4-12.1c15.8-8.6,29.8-19.9,43.7-31.2c24-19.5,50.4-33.8,81.1-39.8c9.2-1.8,17.4-7.1,26.5-9.5
		c17.6-4.7,34.4-2,50.8,5.3c11.9,5.3,23.6,11.2,36.7,13.1c22.6,3.3,44.6,1.1,65.9-7c2.8-1.1,5.2-3.5,7.7-5.4
		c8.6-6.5,17.7-11.6,29-11.2c5.6,0.2,10.6,2.2,15.5,4.7c10.1,5,20.6,8.2,32,7.3c5.4-0.4,10.9-1.7,16.3-1.8
		c12.5-0.2,24.7,2.4,36.7,5.4c16,4,31.5,9.7,46.5,16.6c4.7,2.1,9.8,0.7,14.7,1.6c16.9,3,31.4,10.5,43.7,21.9
		c6.7,6.2,14.7,10.8,21,17.5c3.9,4.1,5.8,8.3,3.6,13.8c-1.7,4.3,1.6,6.6,4.1,8.7c5,4.4,9.4,9.4,12.6,15.2c3.1,5.6,4.2,10.8-0.4,16.5
		c-2.7,3.4-2.6,8.5-5.4,12.1c-3,3.7-5.2,8.2-10.8,8.7c-1.5,0.1-2,1.6-2.8,2.6c-3.7,4.3-7.9,8.1-13.3,10.2c-2,0.8-4,1.4-6.5,0.7
		c0.9-3,4-4.4,5.3-7c0.5-1,2.2-2,0.6-3.3c-1.1-0.9-2.8-1.1-3.6,0.1c-2.1,2.9-6.5,3.9-5.4,9.6c0.9,4.7-2.2,9.7-5.9,13.6
		c-3.6,3.8-1.8,10.7,3,12.1c11.5,3.2,22.9,5.1,34.5,0.4c5.5-2.2,10.8-1,15.1,3.2c5.2,5.1,9.6,10.9,14.9,15.9
		c6.7,6.2,7.2,15.7,3,24.2c-2.1-3.5-1.8-8.4-6.2-11c-0.2,5.8,0.5,11.3-2.8,16.4c-0.9-3.1-1.8-6-3.4-8.6c-1.1-1.8-2.2-4.9-4.3-4
		c-2.4,1.1-6.9,1.3-5.7,6.3c0.6,2.8-0.6,5.5-2.2,8.1c-0.9-2.3-1.6-4.5-2.7-6.5c-3.4-6.2-4.7-6.6-11.1-4.2
		c-7.8,2.9-15.5,2.9-23.1-0.6c-4.4-2-8.7-4-13.7-3.5c-2.4,0.2-5.5-0.5-6.7,2c-1.3,2.6,2.5,3.4,3.3,5.5c-8.3,1.1-18.8-4.4-22.1-12.3
		c-1.1-2.6-2.7-3.6-5.2-4.6c-11.4-4.4-23.5-5.2-35.3-7.3c-11.2-2-22-5.7-33.3-7.6c-4.7-0.8-9.4-1.9-14.3-1.7
		c-4.6,0.2-7.8-1.5-9.6-6.1c-1.7-4.3-4-8.3-6.2-12.4c-0.6-1-0.9-2.8-3.2-1.6c-10.8,5.7-22.4,8.4-35.3,8.3c3,5,7.2,7.8,11.3,10.2
		c15.9,9.1,33.2,15.1,50.7,20.5c6,1.9,11.4-1.2,16.9-2.4c1.8-0.4,3.6-1.1,5.3-0.1c6.7,4.2,13.6,8.3,17.7,15.4
		c0.7,1.3,1.7,1.8,2.9,2.5c7.4,4,9.7,10.7,9.9,19.2c-2.9-2.1-4.3-5.4-8.1-5.6c0.4,5.7,1.4,11.3,0.1,16.8c-0.4,1.7-1.3,3.3-2.3,5.7
		c-0.9-4.4-1.8-8-4.3-10.9c-0.9-1-1.4-3.6-3.1-2.2c-1.7,1.3-5.1,1.6-4.4,5.1c1,5.1-0.9,9.6-3,14.3c-1.1-4-2.4-7.7-5.1-10.8
		c-1.4-1.5-2.7-3.1-4.7-0.6c-0.5,0.6-1.5,1.3-2.1,1.2c-8.9-1.7-9.2,5-10.6,10.7c-0.3,1.3-0.8,2.5-2,3.3c-0.2-1.5-0.3-3-0.7-4.4
		c-2.1-7.1-4-8.3-10.9-6.1c-8.4,2.6-17,3.5-24.1-2.3c-4.7-3.8-9.1-6.9-15.4-7.4c-3.6-0.3-6.7-3.3-8.5-6.5
		c-7.5-13.7-20.7-17.6-34.4-21c-11.2-2.8-22.7-4.2-33.8-7.8c-9.5-3.1-17.6-8.4-25.2-14.6c-6.1-5-12.6-9.2-20.2-11.3
		c-2.7-0.8-2.2-1.5-1.3-3.3c2-4,3.7-8.1,5.7-12.1c1-2,1-3.1-1.6-3.9c-16-5.5-29.5-14.8-41.3-26.8c-1.7-1.7-2.9-2.7-5.4-1.1
		c-8.3,5-17.6,6.4-27.1,6.9c-1.6,0.1-3.9-0.3-2.6,2.5c4.5,10.3,9.3,20.3,22.3,22.3c3.2,0.5,5.8-0.8,8.7-1.2c5.6-0.8,11-1.9,14.9,4.1
		c1.8,2.8,4.6,4.7,7.4,6.8c5.3,3.9,6.4,9.9,6,16.5c-2.2-0.1-2.2-2.7-4.5-2.8c-0.5,1.8-1,3.7-1.6,6c-2-2.1-2.5-6.1-6.1-5.4
		c-3.2,0.6-3,4.3-4.7,7.2c-2.6-5.5-5.6-6.2-11.2-4.3c-6,2-12.9,0.8-19.3,0.2c-2.3-0.2-4.6-0.5-6.9-0.7c-4.8-0.3-9-1.8-12.1-5.8
		c-12-15.5-24.7-30.5-37.6-45.2c-1.4-1.6-2.7-3.4-3.7-5.3c-3.3-5.7-2.2-9.6,3.5-12.7c2.3-1.2,4.7-2.3,7-3.6c2.1-1.2,3.7-2.9,3.5-5.6
		c-0.2-1.9-1.4-3.1-3-3.7c-2.6-1-3.8,1.4-5.3,2.8c-18.2,17-38.3,30.8-62.7,37.4c-10.9,3-20.8,1.3-30.7-3.7
		c-8.7-4.5-17.9-6.6-26.6-0.3s-14,15.2-17.3,25.4c-0.9,2.9,0.2,4.6,3.5,4.2c8.1-1.1,12,2.9,14.5,10.2c1.4,4.1,4.9,7.4,4.8,12.2
		c-0.1,2.7-0.2,5.3-1.4,7.7c-0.2-0.1-0.6-0.1-0.7-0.3c-1.2-1.6-1.1-4.8-3.8-4.6c-2.5,0.2-3.4,2.8-4.2,5c-0.6,1.7-1.5,3.3-2.4,5.2
		c-2.5-1.8-0.5-8.3-6.9-5.5c-3.8,1.7-5.2,4.7-7.1,8c-1.5-2.2-1.3-7.1-3.2-6.4c-4.8,1.8-12.1-0.7-13.8,7.5c-0.5-5.1-2.3-7.4-7.7-7.2
		c-4.7,0.2-8.6-2.9-11-7.3c-10.1-18.6-9-25,1.9-39.4c11.9-15.6,21-32.3,25.4-51.5c0.6-2.7,1.6-5.4,3.3-7.7c3.5-4.8,7.7-6.5,13.4-4.8
		c8,2.4,16.1,4.6,24.4,2c8.2-2.5,14.7-7,17.9-15.7c3.3-9.1,7.3-18,11-27c0.5-0.2,0.8-0.5,0.5-1C160.6,79.1,160,79.4,159.6,79.5z
		 M549.9,237.9L549.9,237.9c-0.3-0.3-0.6-0.6-1-1l0,0c-0.3-0.3-0.7-0.7-1-1l0,0c-0.4-1-1-1.7-2-2l0,0c-0.5-0.7-0.8-1.8-2-1l0,0
		c0.4-1.1-0.4-1.1-1.1-1.2c-3-2-6.3-1.5-9.8-1.2c8.2,12,10,12.9,19.9,11c-0.7-0.8-1.4-1.7-2.1-2.5
		C550.9,238.2,550.5,237.9,549.9,237.9z M275,63.1c0.1,0,0.3-0.1,0.4-0.1s0.1-0.2,0.1-0.3C275.4,62.8,275.2,62.9,275,63.1
		c-0.1,0.1-0.2,0.1-0.3,0.2c-0.1,0,0,0.2-0.1,0.3C274.8,63.3,274.9,63.2,275,63.1z M255,98c-0.3,0.3-0.7,0.7-1,1
		c-2.7,0.5-4.4,2.7-6.6,4c-3.6,2.2-5.6,6.6-10.3,7.1l-0.2-0.2c5.6-7.4,11.4-14.8,14.8-23.5c4.5-11.7,9.2-23.5,0.3-35.4l0,0
		c15.5,7.1,30-1.2,45.1-2.9c-7.3,3.6-14.5,6.9-19.6,13.4c4.4-1,8.5-2.6,12.7-3.7c7.9-2.1,15.9-3,24-0.3c1.9,0.6,3.3,1.1,2.2,3.7
		c-6.1,14.4-4.8,28.7,0.8,42.9c1.1,2.8,2.3,5.6,5.2,7.6c0.5-2.8-1.7-4.7-0.8-8.1c5,9,11.3,15.8,20.4,19.3c0.1,0.1,0.1,0.2,0.2,0.3
		c0,0.1,0.2,0,0.2,0.1c-0.1-0.1-0.3-0.2-0.4-0.4c0.3-3.9-3.6-6.9-2.6-11.5c4,4.7,8.1,8.7,13.6,11c6.2,2.6,8.2,2.2,11-3.8
		c4.7-10.2,7.9-21.1,11.9-31.6c2-5.4,3.1-11.3,6.8-16.2c-0.1,6.9,0.8,13.6,2.2,20.2c0.5,2.6-0.3,5.3,1.1,7.8
		c0.6,1.1,1.3,2.1,2.6,1.9c1.5-0.2,2.3-1.3,2.4-2.8c0.2-4.8,0.8-9.6,0.6-14.3c-0.6-10.2,2.9-19.1,6.7-28c0.2-0.4,1.1-0.5,1.7-0.8
		l0.1,0.1c0.6,16.1,12,28.2,15.5,43.8c7.1-7.4,10-16.2,13-24.9c0.9,10-1.1,19.3-5.1,28.3c-4.2,9.6-11.1,17.8-14.5,27.8
		c-1.2,3.5-1.5,7.3-3.7,10.4c-1.3-0.6-1.1-1.5-1.1-2.3c-0.4-7.7,1.3-15.2,2.6-22.7c0.2-1.1,0.7-2.4-0.4-3.2c-1.1-0.8-2.3,0-3.2,0.6
		c-2,1.4-4.1,2.8-6,4.5c-17.6,16.1-18.5,37.4-18.4,60c8.6-8.4,14.7-17.7,19.6-27.8c-0.2,6.2-1.3,12.1-3.6,18.8
		c4.1-2.4,7.2-3.8,10.6-4.8c7.1-2.1,7.1-2.2,4.8-9.2c-0.1-0.2,0.2-0.6,0.5-1.1c4.7,4.6,9.9,8.3,16.7,7.4c33.1-4.3,49.1-40,45.2-64.5
		c-1.7-10.6-6.1-19.7-12.8-28.1c8.1,4.4,14.7,10.4,20.8,17.3c-0.1-6-4.2-10.6-4.7-16.3L476,69c2.3,0.7,4.6,1.4,6.9,2.1
		c0.1,0.1,0.3,0.1,0.4,0.2c-0.1-0.1-0.3-0.1-0.4-0.2c0.2-4.5-4.7-6.7-5.1-10.9L478,60c6.2,2.7,11.9,6.5,18.6,8.2
		c11.1,2.9,22.6,2.8,33.8,5.4c3.3,0.8,2-1.5,1.7-2.9c-1.5-7.7-2.2-15.4,0.4-23.1c1.1-3.1,2.5-4.4,5.9-3c5.8,2.3,12,3.1,18.1,2.3
		c4.5-0.6,9.7,0.5,13.5-3.4c1.7,0.2,3.5,1.7,5.1-1.1c-9.9-3.8-19.5-8.2-29.7-10.8c-13.9-3.6-27.9-7.9-42.4-7.2
		c-10.2,0.4-20.5,1.8-30.8,1.8c-1.9,0-3.6-1.9-5.7-0.4c0.1,2.1,1.9,3,3.2,4.1c4.4,3.6,9.6,4.1,15,4.3c7.3,0.3,14.5,1,21.4,3.8
		c-9-2.1-17.8-0.5-26.7,0.1c-2.8,0.2-5.1-1-7.5-2.1c-1.7-0.8-2.9-4-4.8-2.3c-1.4,1.2,0.6,3.6,1.1,5.4c0.3,1.3,0.8,2.5,1,3.8
		c0.3,1.5-0.7,2.1-2,2.1c0.1-1.1,0.5-2.4-0.9-3.1l0.1,0.1c-3.4-8.6-8.5-16.1-15.4-22.2c-6.4-5.7-13.9-7-22.2-4.1
		C416,20.2,406.5,28.9,398,39c-4.3,1.8-6.9,5.5-9.4,9.1c-1.3,1.9-2.4,2.9-5,2.6c1.3-2.3,2.5-4.3,3.5-6.3c0.4-0.9,0.6-2.1-0.3-2.7
		c-0.5-0.3-1.6,0-2.3,0.3c-14.9,6.2-30.4,6.2-46,3.9c-6.3-0.9-12.6-2.1-18.3-5.6c2.9-0.1,5.7-0.4,8.2-1.6c0.6-0.2,1.2-0.8,1.4-1.3
		c0.2-0.7-0.4-1.2-1.2-1.3c-4.2-0.6-7.9-3.4-12.3-3.1c-1.1,1.8,1.9,3.4,0,4.6c-1.8,1.1-3.6-0.3-5-1.2c-3.7-2.4-7.3-5-11-7.6
		c1.3,0,3.1,1.3,3.8-0.7c0.5-1.2-1.1-1.5-1.9-1.9c-25.3-13.2-50.4-13-75.1,1.8c-3.3,0-4.3,3.4-6.9,4.6c-8.8,4-16.3,10.1-23.9,16
		c-2.8,2.2-6.4,3.9-8.2,8.9c15-6.9,29.8-10.1,45.2-11.3c-0.1,1.5-1,1.7-1.7,2c-12.1,6.7-22.7,15.6-32.9,24.8
		c-15.3,13.9-28.1,30.1-39.3,47.5c-1.1,1.7-2.2,3.5-4.6,4.2c0.2-1.1,0.3-1.7,0.4-2.4c0.2-2.4-0.2-5.2-2.6-6
		c-3.1-1.1-3.2,2.7-3.8,4.1c-2.4,5.6-3.5,11.2-11.6,12.1c-5.6,0.6-10.9,3.7-16.7,4.4c-1.5,0.2-3.1-0.1-3.3,2.1
		c-3.1-0.6-6.2-1.1-9.3-1.8c-3.7-0.9-5.6,0.7-6.5,4.2c-0.9,3.2-2,6.3-3.1,9.4c-0.3,0.8-0.4,1.7-0.8,2.3
		c-9.7,13.6-17.2,28.6-28.2,41.4c-6.5,7.7-4.7,18,3.3,24.2c1.1,0.9,2.5,1.6,3.6,0.9c2.4-1.5,5.9-3.2,6.3-5.3
		c0.6-2.8-1.7-5.9-4.6-7.6c-1-0.6-2-1.1-3.1-1.7c-0.7-0.4-1.6-0.9-1.2-1.9c3.1-6.9,5.1-14.5,12-18.9c1.9-1.2,3.1-2.7,4-4.8
		c3.7-9.1,9.4-16.3,19-19.8c1.3-0.5,2.7-0.7,3.6-2.3c3.6-5.9,16.6-8.6,22.4-4.9c8.7,5.7,18.5,7.9,28.6,6c18.4-3.4,32.7-13.9,45-27.5
		c3.6-4,6.4-8.9,11-12.1l0,0c-0.9,6.7-6.3,11.3-8.7,17.3c1,0.6,1.5,0.2,2-0.3c9.9-9,19.8-18,30.8-25.8c4.2-3,8.9-5.9,10.9-11.2
		C254.4,98.7,254.7,98.4,255,98c0.2-0.1,0.3-0.3,0.5-0.4C255.3,97.7,255.2,97.9,255,98z M187.1,65.1c0.9,0,1.6-0.1,2-1
		c0.4-0.1,0.9-0.2,1.3-0.3c-0.1-0.1-0.2-0.3-0.3-0.4c-0.4,0.2-0.7,0.5-1.1,0.7C188.3,64.1,187.5,64.2,187.1,65.1c-0.8,0-1.6,0.2-2,1
		c-12.4,5.1-19.5,14.8-24,26.9c-0.2,0.4-0.5,0.8-0.7,1.2c0,0,0.2,0.2,0.4,0.3c0.2-0.4,0.3-0.9,0.5-1.3c2.7,4.2,3.6,1.6,5.1-1.1
		c4.8-8.1,9.5-16.4,16.8-22.7c1-0.9,2.1-1.7,2-3.3C186,66.1,186.7,66,187.1,65.1z M464,202.9c-0.4-0.8-0.8-1.8-2-1l0,0
		c0.1-2.1-1.5-2.5-3-3l0,0c-6.3-7.4-13.6-13.9-21-20.2c-4.9-4.1-10.5-6.8-16.7-8.4c-7-1.7-13.9-2.3-20.4,1.6
		c-8.3,3-12.2,6.7-13.1,12.5c26.4-4.6,48,6.5,68.6,20.9c-5.6-0.8-10.3-4.1-15.4-6.3c-2.4-1-4.9-2.5-7,0.5c-2.3-0.9-4.6-1.8-7-2.7
		c-2.8-3.5-7.3-5.1-11-5.5c-8.3-0.9-16.7-0.3-26-0.3c1.1,1.4,1.6,2,2.1,2.6c10.3,10.4,23,15.1,37.4,16.4c9.5,0.9,18.6,3.3,26.6,9
		c1.9,1.4,4,2.7,4.6,5.8c-9.3-1.3-18.1-4-27.2-1.8c3.7,1.8,7.4,2.9,11.2,4.2c11.3,4.1,22.5,8.1,29.8,18.6c1.7,2.4,4,4.4,6.7,5.8
		c2.5,1.4,5.4,3.3,7.9,1.6c2.4-1.6,0.5-4.6,0-6.9c-0.1-0.5-0.1-1-0.1-1.5l0,0c3.4,2.1,5.3,5.5,6.8,9c1.4,3.3,3.3,6.2,6.1,8.3
		c3.5,2.7,5.6,2,7.1-2.1c1.3-3.4,2.1-7.1,5.8-8.9c0.7-0.4,1.8-0.3,1.8-1.4c0-1.2-1.1-1.5-2.1-1.8c-4.5-1.5-8.9-2.3-13.3,0.3
		c-1.7,1-3.6,2.5-6.5,0.5c6.3-1.7,3.5-4.6,1.4-7.1c-2-2.5-3.7-5.2-5.1-9.1c1.6,0.9,2.3,1.3,2.9,1.7c4.2,2.4,8.4,4.7,13.2,5.5
		c1.7,0.3,3.4,0.4,4.4-1.3c1.1-2-0.9-2.4-1.8-3.5c-1.2-1.4-3.2-2.2-3.5-5c1.8,0.7,3.3,1.1,4.4,1.9c3,2.3,6.3,1.3,9.5,1
		c1.2-0.1,2.3-0.6,2.6-2c0.3-1.6-1-1.8-2-2.2c-16.3-6.6-32.5-13.2-48.8-19.8c-0.8-2.4-2.9-3.1-4.9-4l0,0
		C466.3,203.8,465.4,203,464,202.9L464,202.9z M648,114.5c0.8-0.9,0.8-1.8-0.4-2.4c-1-0.5-2.1-1.2-2.7,0.5c-1.8-0.4-3.7-0.8-5.5-1.2
		c-2.2-0.4-4.2,0.4-5,2.3c-1.1,2.5,1.9,2.5,3,3.7c4.2,4.5,11.2,6.2,13.1,13.5c-2.1-0.7-3.9-1.2-5.7-1.8c-0.9-4.7-4.8-6.2-8.6-7.7
		c-6.4-3-6.4-3-9,1.2c6.3,3.5,12.6,6.9,17.3,12.6c-1.8-0.4-3.4-1.3-4.9-2.2c-1.8-1.1-3.5-1.1-4.8,0.7c-1.7,2.4,0.9,2.9,2,3.5
		c2.1,1.3,4.5,2.2,6.7,3.2c1.2,0.6,2.3,1.2,3.5,1.8c-2.3,2.6,0.5,2.5,1.6,2.7c5.4,0.6,10.6,0,15.6-2.2c4.3-1.9,4.7-4.7,1.7-8.1
		c-3.6-4-6.5-8.2-8.1-13.5s-4.9-7.2-9.4-6.2C648.2,114.8,648,114.6,648,114.5z M647.5,88.9c0.1-3-2-4.7-3.8-6.7
		c-0.3-1-0.7-2.1-1-3.1c4.7,1,7.6,4.1,8.9,8.4c0.7,2.6,1.6,5.3,4,5.7c2.6,0.5,1.2-3.6,3.1-4.6c0.8,0.4,1.3,1.1,1.3,1.9
		c0.1,2.1,0.4,4.8,2.5,4.7c1.9-0.2,3-2.8,2.8-5.2c-2.1-6-7.5-9-11.9-12.9c-0.4-0.4-1.3-0.1-1.4,0.8c-3,0.2-4.5-1.9-6.1-3.9
		c-0.4-2.5-2.6-3.7-4.3-5.3C622.5,51,600,43.9,574.1,47.2c-3.6,1-7.9,0.6-10.3,4.4c6.6,2,13.1,3.9,19.8,7.1c-8.3,1,1,4.1-1.5,6
		c-1.2-0.2-2.7-0.4-4.1-0.5c-0.3-0.6-0.4-1.4-0.9-1.7c-9.9-7.2-21.8-5.9-33-8.1c1.6,2.7,4.7,2.1,6.6,3.9c5.5,8.9,13.5,12.8,24.1,12
		c-1,1.3-3.3,0.7-3,2.9c0.5,3.3,3.7,0.9,5.1,2.4c-0.7,0.9-1.4,1.8-2.1,2.6c-0.1,0.1-0.2,0.3-0.2,0.4c0.1-0.1,0.1-0.3,0.2-0.4
		c4.5,0.2,7.5-4.1,12-4l0.1,0.1c-4.2,4-8.4,8-12.6,12c-8.4,8.2-13.8,26.3-7.5,37.7c3.5,6.3,8.2,11,16,13.3
		c-3.3-10.7-12.3-19.3-7.4-30.9c0.5,6.6,2,12.8,5.6,18.6c2.8-2.7,1-6,3.1-9.2c1.1,4.4,4.8,6,6.2,9c1.3,2.9-1.7,6.5,0.2,9.9
		c3.1-3.4,5.5-7.2,10.4-9.7c-1.1,4.5-4,7.5-3.8,12.2c3.4-3.6,4.5-8.2,8-10.4c7.2-4.5,11.6-11.8,17.8-17.2c0.7-0.6,1.8-1.3,1.2-2.4
		c-0.5-1.1-1.7-0.7-2.7-0.8c-1.2-0.1-2.4-0.2-3.5,0c-3.3,0.5-5.1-0.6-5.9-4.1c-1.3-5.7-3.3-11.2-9-14.4c-0.5-0.3-1-1.1-0.9-1.6
		c0.3-1.3,1.6-0.9,2.5-1c2.3-0.4,6.1-0.1,6.2-2.4c0.1-2.1-3.7-1.9-5.8-2.7c-0.2-0.1-0.2-0.5-0.3-0.7c13.3-1.6,24.9,2.3,34.8,11.3
		c1.6,1.4,3.2,3,5.7,1.8C648.3,92.4,647.8,90.6,647.5,88.9z M621.9,181.9c8.7,4.4,14,2,16.7-8c-4.5,4.7-9,8.8-15.8,6.1
		c-0.3-2.7,2.5-4.8,1.7-8.1c-2,1.8-3.5,3.6-5.4,4.9c-1.9,1.3-4,2.3-6,3.4c-3.2,1.6-1.6,3,0.2,4.2C617,186.6,619.2,183.3,621.9,181.9
		z M550.9,168.3c2.4-2.3,4.2-5.1,5.7-8c1-1.9,0.9-3.6-2-3.3c-1.9,0.2-4-0.8-5.6,1c-2.7,7.1-5.4,14.1-9.7,20.6
		C544.3,176.2,548.4,173.2,550.9,168.3z M634.8,168c5.9-3.6,11.1-7.8,13.3-14.9c-7-2.1-7.1-2.1-8.7,4.2
		C638.5,161.3,636.5,164.6,634.8,168l0.1,0.1L634.8,168z M576.9,154c0.1,0.1,0.3,0.3,0.4,0.4C577.2,154.3,577.1,154.1,576.9,154
		c-1.1-2.4-3.3-3.6-5.5-4.8c-6.4-3.7-12.6-7.7-15-15.3c-1.4-4.4-1.6-9.1-1.8-13.7C552.4,139.1,560.2,150.7,576.9,154z M537.2,241.9
		c-4.9-4.9-9-5.8-14.3-3c-2.7-0.2-4.5,1.4-7.3,3.1c6.6,3.1,11.4,7,13.8,13.4c0.2,0.6,0.8,1.1,1.3,1.5c1.2,1,2.3,0.9,2.3-0.8
		c0.2-4.3,2.9-7.3,5-10.6C538.8,244,540,242.6,537.2,241.9z M570.9,170c-2.4-2-4.5-4.3-7.1-6c-3.9-2.5-3.8,2.3-5.7,3.6
		c-1.2,0.7-1,1.7,0.6,2.5c8,4.1,15.1,9.6,22.5,14.7c1.7,1.2,3.7,3.2,5.8,1.8c2-1.4,1-3.9,0.5-6C582.7,175.8,577.4,171.9,570.9,170z
		 M680.8,122c-0.3-3.4-1.1-6.4-4.9-7.5l0.2-0.2l-0.1-0.2c-0.3-0.3-0.6-0.6-1-0.9c-1-1.4-1.9-2.8-2.9-4.2c-1.9,1.8-0.2,4-2.1,5.6
		c-5.6-4.4-10.7-10.2-20-8c6.9,2.9,11.6,7.1,13.1,14c0.3,1.2,1.3,1.4,2.3,1.4c4.7,0.2,8.6,2.4,12.4,4.7c1.7,1.1,3.3,2,4.8,0
		C684.2,124.5,682.6,123.2,680.8,122z M143.9,161.6c-1.6-1.5-3.2-2.9-6.1-3.3c1.9,2.9,4.3,4,6.3,5.5c21.1,13,50.8,6.4,64.6-14.6
		c-2.9,0.1-5.6,0.8-7.4,2.5c-6.3,6.1-14.4,8.9-22.2,11.9C167.2,168,155.3,167.6,143.9,161.6z M614.9,200.9c3.8,0.6,5.9-3.4,9.2-3.7
		c0.5,1.4-1.6,2-0.1,3.5c3.4-2.2,6-4.9,7.2-9c0.7-2.3,0.1-3-2.3-2.9c-4.2,0.1-8.3,0.2-12.5,0.1c-3.9-0.1-7.2-1.3-9.9-4.7
		c-3-3.8-4.4-8-5.7-12.5c-0.3-1-0.5-2.3-1.6-2.2c-1.7,0-1.2,1.7-1.3,2.7c0,3.8-0.2,7.7,0.1,11.5c0.4,4.4,2.1,9.3,6.3,10.6
		c4.6,1.5,5,2.5,1.3,5.5c3.1,0.7,5.3-0.6,7.6-1.4C616.7,197.2,615.5,199.4,614.9,200.9c0,0.2-0.1,0.3-0.2,0.4
		C614.7,201.2,614.8,201.1,614.9,200.9z M498.9,145c19.2-3.8,37.9-0.3,56.3,4.8c-4.4-7.7-9.8-13-19-14.5
		C522.1,132.9,509.5,134.6,498.9,145c-0.2,0.1-0.5,0.2-0.7,0.3c0.1,0.1,0.2,0.2,0.3,0.4C498.7,145.4,498.8,145.2,498.9,145z
		 M496.8,180c2.3-1.2,5-1.1,7.2-2.9c5.8-4.7,11.8-9.1,17.5-13.8c1.4-1.1,3.5-2,3.3-4.4c0.4,0,0.8,0,1.3-0.1c0-0.2,0-0.3,0-0.5
		c-0.4,0.2-0.8,0.4-1.2,0.6c-10.2,5.1-19.9,11.3-30.9,14.6c-5.1,1.6-10.3,3.1-16.5,3.7c2.9-3.6,5.4-6.4,7.4-9.5
		c2-3,3.6-6.4,3.9-10.9c-8.5,11.6-19.3,19.1-30.9,25.8c-1.2,0.7-3.4,0.9-3,2.7c0.4,1.5,2.1,2.8,3.8,2.8c3.7,0.1,7.5,1,11.2-0.4
		C479.8,188.3,488.9,186.1,496.8,180z M658,204.2c0.2-0.2,0.4-0.4,0.5-0.7c0-0.1-0.1-0.4-0.2-0.4c-4.1,0.1-8-1.5-12.1-0.9
		c-3.7-0.2-7.3-1.5-10.7-2.7c-0.9-0.3-1.5-1.2-2.5-0.4c-0.9,0.8-0.3,1.5,0.1,2.2c1.8,3.4-0.4,4.8-3,5.3c-2.3,0.4-4.3,1.4-6.5,2.3
		c-3.4,1.3-6.6,1.9-10.4-0.2c-2.6-1.4-6.1-1.9-10.6-1.2c3.8,3.8,6.2,7.7,8.3,11.8c0.4,0.9,1,1.8,1.7,2.5c2.9,2.6,6.2,3.7,10.1,3.1
		c3-0.5,3.4-2.6,3.3-5.1c0-0.9,0.6-1.6,1.6-1.6c3.4-0.2,4.8-2.3,4.7-5.5c2.3,0.3,3.7,1.5,5.3,2.4c4.7,2.8,9.4,5.7,14.2,8.3
		c4.1,2.3,7.6,1.2,10.4-2.6c1.9-2.6,4.1-4.8,6.8-6.3c-5.5-6.7-13.5-2.9-20.3-4.7C651.2,206.4,655.7,207.3,658,204.2z M362.9,179.1
		c0.6-3.2,3.7-7.5-1.2-9.1c-21.7-7-38.8-20-52.1-38.3c-5.1-7.1-11.6-12.8-19.6-16.5c-7.5-3.5-15.2-4.9-24.5-1.4
		c11,0.8,20.8,1.2,29.2,7.2c-10.1-1.8-20.2-2.3-31.1,0.9c5.2,0,9.2,0.8,13.3,1.8c15.1,3.9,26.4,13.6,36.9,24.4
		c11.3,11.7,23.1,22.6,38.3,29c2.2,1.9,5,2.6,7.5,3.6C360.9,181.1,363.1,182.2,362.9,179.1z M208.1,32.1c-7.9,1.5-15.2,4.7-22.5,7.9
		c-18.5,8.3-34.3,20.7-50.1,33.2c-16.6,13.1-33.6,25.6-53.7,33c-13,4.8-26.2,6.9-40,2.9c-9.4-2.7-17.1-10.7-17.7-19.4
		c-0.7-12.2,3-23.3,11.4-32.3c10.2-11,24-14.7,38.2-17.4c4.2-0.8,9.5,0.5,12.4-4.4c3.1-2.4,2.2-4.3-0.8-5.9
		c-2.2-1.2-4.6-1.7-7.2-1.6c-12.8,0.2-24.1,4.8-34,13c-1.8-0.2-3.2,0.6-4.6,1.5c-10.5,7-17.4,17-22.9,28.1c-0.5,0.9-0.1,2.2-0.1,3.5
		c2.4-1.6,2.9-4.5,5.5-5.2l0.2,0.2c-0.6,1.5-1.3,3-1.9,4.6c-7.5,18.8-0.9,33.5,17.5,40.4c10.5,3.9,21.2,3.7,31.8,1.2
		C87,111.1,103,103.5,118,93.7c27.3-17.6,52.1-38.9,80.8-54.4C202.1,37.6,205.9,35.7,208.1,32.1c0.3-0.3,1.3,0.4,1-0.7
		C208.8,31.6,208.4,31.9,208.1,32.1z M299.9,97c1.8-2.3,1-4.6,1.4-6.6c2-9.1,4.9-17.9,10.3-25.7c0.6-0.9,1.6-1.9,0.8-3.1
		c-0.3-0.4-1.3-0.6-1.8-0.4c-6.5,2-13.2,3.6-18.4,8.4c-1.9,1.7-3.5,5.1-1.5,6.6c3.7,2.6,3.2,6.3,4.4,9.5
		C296.5,89.4,297.1,93.4,299.9,97z M612,163.6c0.3-3.8,0.6-6.6,0.8-9.4c0.2-2.7-1-4.8-2.4-6.9c-0.5-0.7-1.2-1.3-2.1-0.9
		c-1.1,0.4-1.5,1.3-1.1,2.4c1.7,4.7,0.4,9.2-0.8,13.7c-1.3,4.9,0.3,8.9,3.8,12.2c2.2,2.1,4.6,1.4,6.9,0c2.1-1.3,3-2.9,1.8-5.4
		c-1.3-2.7-0.9-5.5-0.5-8.3c0.4-3.1,0.4-6.3,0.5-9.4c0-1-0.2-2.2-1.4-2.3c-1.3,0-1.4,1.2-1.4,2.2C616.2,155.6,614.1,159.1,612,163.6
		z M629.1,170.8c4.3-4.9,6.6-10.5,7.7-16.6c0.6-3.4-0.6-6.5-3.7-7.9c-3.4-1.5-5,1.6-6.6,3.8c-3.1,4.5-4.2,9.6-4.4,15
		c0,1.2,0,2.5,1.3,2.9c1.1,0.3,1.8-0.8,2.2-1.6s0.9-1.4,1.8-1.2C628.8,166.6,628.1,168.6,629.1,170.8z M441.4,173
		c3.6,6.7,7.7,8,13.1,4.7c7.9-4.7,13.5-11.7,18.2-19.4c1.8-3,4-6,3.9-11C467.3,160.1,458.5,172.1,441.4,173z M109,164.9
		c0-1.7-1-1.9-2.3-1.6c-4.6,0.8-14.3,12.2-14.4,16.8c0,1.9,1.4,2.9,2.4,4.2c0.4,0.6,1.2,0,1.6-0.6c4.1-5.8,8.2-11.7,12.2-17.5
		C108.7,165.8,108.8,165.3,109,164.9z M270.9,166c4.2,6.9,7.3,13.6,12,19.1c2.8,3.2,5.5,6.8,9.7,8.5c0.9,0.4,2.1,0.7,2.8-0.2
		c0.9-1.1-0.2-1.7-1.1-2.3c-7.5-5.3-11.8-13-15.8-20.8C277,167.3,275.2,166.1,270.9,166z M529.7,275.6c-0.7-7.2-1.7-12.8-6.4-16.9
		c-1.9-1.6-4.2-2.6-6,0c-1.5,2.3-2.5,5.1,0.5,7C521.8,268.2,525.2,271.5,529.7,275.6z M97.4,213.6c-1.2-5.2-4.3-7.8-8.8-9
		c-1.9-0.5-4-3.1-5.8-0.6c-2,2.8,1.3,3.9,2.7,5.5c1.6,1.9,3.4,3.6,4.5,5.9c0.7,1.4,1,3.9,3.1,3.1C95.2,217.8,96.5,215.4,97.4,213.6z
		 M552.9,271.1c0.5-7.9-2.5-13.1-7.2-17.6c-1.1-1-3-2.5-4.1-0.2c-1.4,2.9-2.5,6.3,0.8,8.5C546,264.2,549,267.3,552.9,271.1z
		 M663.4,206c0.5,1.5,2.3,1.1,3.2,2c1.1,1,2.5,1.7,3.6,2.7c6.6,5.8,6.6,5.9,13.4,0.2C669.8,203.1,669.6,203.1,663.4,206z
		 M567.9,264.2c0.4-8.1-2.8-13.3-7.9-17.5c-1.1-0.9-3.2-2.6-3.8,0.2c-0.7,3.5-1,7.4,2.8,9.8C562,258.6,564.6,260.8,567.9,264.2z
		 M666.9,125c-0.7,0.5-2.6-0.6-2.5,1.2c0.1,1.7,1.6,3.2,3.3,3.3c4.3,0.4,5.7,2.8,5.3,6.8c-0.1,0.9-0.2,2.1,1.2,2.3
		c1.7,0.3,8.3-4.7,8.4-6.5c0.1-3.5-3.2-1-4.5-2.3c-0.7-0.7-1.7-1-2.5-1.6C673,126.3,670.1,125.6,666.9,125z M586.1,172.2
		c-1.5-7.3-12.4-16.3-18.5-16.2c-1.1,0-2,0.4-2.4,1.4c-0.5,1.2,0.6,1.8,1.4,2.3C572.8,163.8,579.2,167.8,586.1,172.2z M95.1,204.3
		c6.1,4.9,7.5,10.9,9.3,16.9c0.3-4.3,6.6-6.8,3.3-11.7C105.3,205.7,101.7,203.6,95.1,204.3z M680.9,230.9c-1.3-3.4-2.7-7-6-9.4
		c-1.4-1.1-3.2-2.6-4.6-0.2c-1.3,2.1-2.6,4.6,0.5,6.5c2.5,1.6,5.1,3.1,7.7,4.6C680.1,233.4,680.9,233.1,680.9,230.9z M697.4,232.4
		c-0.1-6-2.7-11.5-6.5-14c-1-0.7-2.5-2-2.9,0.4c-0.4,2.6-0.8,5.3,1.7,7.3C692.2,228,694.5,230,697.4,232.4z M654.6,164.9
		c4.6-1.9,7.7-5.4,10.2-9.5c-1.7-1.6-3.7,0.2-5.3-1.3c-0.8-0.8-2.7,0.5-2.2,1.6C659,159.7,655.6,161.7,654.6,164.9z M635.4,100.2
		c0.8-0.5,4.6,1.4,2.7-2.4c-1.5-2.9-4.3-5-7.7-5.8c-1.2-0.3-2.3-0.1-3.1,1s-0.6,2.2,0.1,3.2C629.3,98.7,631.5,100.6,635.4,100.2z
		 M297.7,157.6c3.8,0.4,6.9-1.1,10.1-2.7c1-0.5,2.4-1,1.7-2.5c-0.8-1.6-2.1-3-3.8-3.7c-1.6-0.7-1.8,1.1-2.3,2
		C302.1,153.4,300.3,155.7,297.7,157.6z M657.7,97.8c-0.3,0.2-1.1,0.5-1.2,1c-0.1,0.4,0.2,1.3,0.7,1.6c2.6,2.4,5.3,4.8,7.9,7.2
		c0.7,0.6,1.5,1.7,2.4,0.8c0.5-0.6,0.5-1.9,0.4-2.8C667.4,102.8,660.8,97.7,657.7,97.8z M679.6,200c-1.4-0.4-3.3-1.3-3.9,0.3
		c-0.5,1.5,1.7,2,2.7,2.9c2.2,1.9,4.9,2.6,7.6,3.4c0.8,0.2,1.7,0.6,2.3-0.1c0.7-0.8,0.1-1.5-0.5-2.1
		C685.4,202.1,683.9,198.5,679.6,200z M560.1,237.9c0.2-0.4,0.5-0.8,0.7-1.3c-3.5-2.9-6.9-5.9-10.5-8.7c-1-0.8-2.5-1.3-3.7-0.4
		c-0.9,0.7-0.1,1.6,0.6,2C551.3,232.5,555.4,235.8,560.1,237.9z M82.5,231.6c1.7-3.1,1.9-5.5,1.2-8c-0.3-1.1-0.7-2.4-2.2-2.2
		c-1.4,0.2-1.8,1.5-1.9,2.6C79.1,226.8,80.9,228.8,82.5,231.6z M698.4,214.8c-1.9,6.2,2.2,7.8,6.4,10.5
		C704.7,220.2,702.4,217.4,698.4,214.8z M100,225.9c0-2.1-0.5-4.1-2.7-4.7c-1.9-0.5-2,1.2-2,2.5c0.1,2.3,1,4.4,3.3,4.8
		C100,228.8,99.8,227,100,225.9z M573.6,250.6c-1.2-3.7-4-7.2-5.4-7.1c-1.1,0.1-1.2,0.9-1.2,1.8C567.2,249.2,570,250,573.6,250.6z
		 M122.7,222.3c0.3-3.1-0.3-5.8-3-7.7c-0.7-0.5-1.2,0.2-1.3,1c-0.4,3.1,0.7,5.5,3.6,6.8C122.1,222.4,122.3,222.3,122.7,222.3z
		 M637,171.3c-2.5-0.9-4.3,1-6.5,0.8c-1.6-0.2-1.7,1.2-1.6,2.4c0.1,1.8,1.6,1.8,2.6,1.3C633.6,174.9,635.8,173.8,637,171.3z
		 M113,227.9c0-2.5,0.1-4.3,0-6.1c-0.1-1.6-1.5-2.3-2.7-2.3c-1.6,0.1-1.2,1.7-1.2,2.8C109,224.4,110.4,225.8,113,227.9z
		 M322.9,213.6c-0.2-2.9-1.1-4.5-2.6-5.9c-0.7-0.7-1.5-2.3-2.7-1c-0.8,0.9-0.7,2.3,0.3,3.1C319.2,211.1,320.7,212,322.9,213.6z
		 M333,210c-0.7-3.4-2-5.3-4.7-6.5C327.6,207.1,329.5,208.6,333,210z M477.4,146.3c0.1,0,0.3-0.1,0.3-0.1c0-0.1,0-0.3-0.1-0.4
		c-0.1,0-0.3,0.1-0.3,0.1C477.3,146.1,477.3,146.2,477.4,146.3z M136.8,156.7c-0.1,0-0.3,0-0.3,0.1c-0.1,0.1-0.1,0.3-0.1,0.4
		c0.2,0,0.4-0.1,0.6-0.1C136.9,156.9,136.8,156.8,136.8,156.7z"/>
	<path class="st2" d="M117.1,139.1c0.1-2.2,1.8-1.9,3.3-2.1c5.8-0.8,11.1-3.8,16.7-4.4c8.1-0.8,9.2-6.5,11.6-12.1
		c0.6-1.4,0.7-5.2,3.8-4.1c2.4,0.8,2.7,3.5,2.6,6c0,0.6-0.2,1.3-0.4,2.4c2.5-0.7,3.5-2.5,4.6-4.2c11.2-17.4,24-33.5,39.3-47.5
		c10.2-9.3,20.8-18.1,32.9-24.8c0.7-0.4,1.6-0.6,1.7-2c-15.4,1.2-30.2,4.4-45.2,11.3c1.7-5.1,5.4-6.8,8.2-8.9c7.6-5.9,15-12,23.9-16
		c2.6-1.2,3.6-4.5,6.9-4.6c5.4,0.8,9.9-2.1,14.8-3.4c19.9-5.2,39.4-4.6,58.3,4.2c3.7,2.5,7.3,5.2,11,7.6c1.5,1,3.3,2.3,5,1.2
		c1.9-1.2-1.1-2.8,0-4.6c4.4-0.2,8.1,2.5,12.3,3.1c0.8,0.1,1.4,0.6,1.2,1.3c-0.2,0.5-0.8,1.1-1.4,1.3c-2.6,1.1-5.3,1.5-8.2,1.6
		c5.6,3.5,12,4.7,18.3,5.6c15.6,2.3,31.1,2.3,46-3.9c0.7-0.3,1.8-0.6,2.3-0.3c1,0.6,0.8,1.8,0.3,2.7c-1,2.1-2.2,4-3.5,6.3
		c2.6,0.3,3.7-0.7,5-2.6c2.5-3.6,5.1-7.3,9.4-9.1c0.9,0.4,1.6-0.2,2.2-0.8c6.1-5.8,13.3-9.8,20.7-13.6c13.3-7,23.5-5.5,34.4,4.8
		c3,2.9,5.3,6.3,7.9,9.5c0.9,1.1,1,3.3,3.2,3l-0.1-0.1c-0.5,1.3-0.2,2.3,0.9,3.1c1.4-0.1,2.3-0.6,2-2.1c-0.2-1.3-0.7-2.5-1-3.8
		c-0.5-1.8-2.5-4.2-1.1-5.4c1.9-1.7,3.2,1.5,4.8,2.3c2.4,1.1,4.7,2.3,7.5,2.1c8.9-0.6,17.7-2.2,26.7-0.1c-6.9-2.8-14.1-3.6-21.4-3.8
		c-5.4-0.2-10.6-0.7-15-4.3c-1.4-1.1-3.1-2-3.2-4.1c2.1-1.5,3.8,0.4,5.7,0.4c3.4,2.3,7.3,2.6,11.2,3c11.8,1.4,23.9,0,35.5,3.8
		c1.6,0.5,4.8-0.1,5,1.3c0.7,5,3.6,2.3,5.6,1.9c2.3-0.4,4.5-1.1,6.9-0.8c11.5,1.7,22.9,3.5,33.7,8c-3.8,4-8.9,2.8-13.5,3.4
		c-6.1,0.9-12.3,0-18.1-2.3c-3.4-1.4-4.8-0.1-5.9,3c-2.6,7.7-1.9,15.4-0.4,23.1c0.3,1.4,1.7,3.7-1.7,2.9
		c-11.1-2.6-22.7-2.5-33.8-5.4c-6.7-1.8-12.4-5.5-18.6-8.2c-0.4-0.3-0.7-0.6-1.1-0.9c-0.1-0.1-0.1-0.2-0.2-0.3c0-0.1-0.2,0-0.2-0.1
		c0.1,0.1,0.3,0.2,0.4,0.4c0.3,0.4,0.6,0.7,0.9,1.1c0.3,4.3,5.2,6.4,5.1,10.9l0,0c-2.3-0.7-4.6-1.4-6.9-2.1
		c-0.2-0.1-0.4-0.2-0.6-0.4c0.1,0.2,0.3,0.4,0.4,0.6c0.5,5.7,4.6,10.2,4.7,16.3c-6-6.9-12.7-12.9-20.8-17.3
		c6.7,8.4,11.1,17.5,12.8,28.1c3.9,24.5-12,60.3-45.2,64.5c-6.9,0.9-12.1-2.8-16.7-7.4c-0.2,0.5-0.5,0.9-0.5,1.1
		c2.3,7,2.3,7.1-4.8,9.2c-3.3,1-6.5,2.4-10.6,4.8c2.3-6.7,3.4-12.6,3.6-18.8c-5,10.1-11.1,19.4-19.6,27.8
		c-0.2-22.6,0.8-43.9,18.4-60c1.8-1.7,3.9-3.1,6-4.5c0.9-0.6,2.1-1.4,3.2-0.6s0.6,2.1,0.4,3.2c-1.4,7.5-3,15-2.6,22.7
		c0,0.8-0.2,1.7,1.1,2.3c2.2-3.1,2.5-7,3.7-10.4c3.4-10,10.2-18.2,14.5-27.8c4-9,6-18.3,5.1-28.3c-3,8.7-5.9,17.5-13,24.9
		C412,83.3,400.6,71.2,400,55.1c0.2-0.4,0.5-0.8,0.7-1.2c0,0-0.2-0.2-0.4-0.3c-0.1,0.4-0.3,0.9-0.4,1.3c-0.6,0.3-1.5,0.4-1.7,0.8
		c-3.8,8.9-7.3,17.9-6.7,28c0.3,4.7-0.4,9.5-0.6,14.3c-0.1,1.5-0.8,2.6-2.4,2.8c-1.3,0.1-2-0.9-2.6-1.9c-1.4-2.5-0.6-5.2-1.1-7.8
		c-1.4-6.7-2.3-13.3-2.2-20.2c-3.6,4.9-4.7,10.7-6.8,16.2c-3.9,10.6-7.2,21.4-11.9,31.6c-2.8,6.1-4.8,6.5-11,3.8
		c-5.5-2.4-9.6-6.3-13.6-11c-1,4.5,2.9,7.5,2.6,11.5l0,0c-9.2-3.5-15.4-10.3-20.4-19.3c-0.9,3.4,1.4,5.3,0.8,8.1
		c-2.9-1.9-4.1-4.8-5.2-7.6c-5.7-14.2-6.9-28.5-0.8-42.9c1.1-2.7-0.3-3.1-2.2-3.7c-8-2.7-16.1-1.8-24,0.3c-4.2,1.1-8.4,2.7-12.7,3.7
		c5.1-6.5,12.4-9.9,19.6-13.4c-15,1.7-29.6,10-45.1,2.9c-0.1-0.1-0.3-0.2-0.4-0.3c0.1,0.1,0.3,0.2,0.4,0.2
		c8.9,11.9,4.3,23.7-0.3,35.4c-3.4,8.7-9.2,16.1-14.8,23.5c-0.3,0.4-0.6,0.7-0.9,1.1c-0.1,0.1-0.2,0.1-0.3,0.2s0,0.2-0.1,0.3
		c0.1-0.1,0.3-0.3,0.4-0.4c0.4-0.3,0.7-0.6,1.1-0.9c4.7-0.5,6.7-4.9,10.3-7.1c2.2-1.3,3.8-3.6,6.6-4l0,0c-2,5.3-6.7,8.2-10.9,11.2
		c-11,7.8-20.9,16.8-30.8,25.8c-0.5,0.4-1,0.8-2,0.3c2.4-6,7.8-10.6,8.7-17.3c0.1,0,0.3-0.1,0.4-0.2c0.1-0.1,0-0.2,0.1-0.3
		c-0.1,0.1-0.3,0.3-0.4,0.4c-4.5,3.2-7.3,8.1-11,12.1c-12.3,13.6-26.6,24.2-45,27.5c-10.1,1.9-19.9-0.3-28.6-6
		c-5.8-3.8-18.7-1-22.4,4.9c-1,1.6-2.4,1.8-3.6,2.3c-9.6,3.5-15.3,10.8-19,19.8c-0.9,2.1-2.1,3.6-4,4.8c-6.8,4.5-8.9,12-12,18.9
		c-0.4,1,0.4,1.5,1.2,1.9c1,0.6,2.1,1.1,3.1,1.7c2.9,1.8,5.2,4.8,4.6,7.6c-0.4,2.1-3.9,3.7-6.3,5.3c-1.1,0.7-2.5,0-3.6-0.9
		c-7.9-6.2-9.8-16.5-3.3-24.2c11-12.8,18.5-27.8,28.2-41.4c0.5-0.6,0.6-1.5,0.8-2.3c2.6,0.4,2.9-1.9,3.7-3.3
		c2.4-4.2,5.7-6.7,10.6-7.2C114,140.3,115.8,140.5,117.1,139.1z M234,95c1-0.4,1.1-1.1,1-2c0.2-0.1,0.4-0.3,0.6-0.4
		c-0.1,0-0.3,0-0.3,0c-0.1,0.1-0.1,0.3-0.2,0.4C234.2,93.5,234,94.2,234,95c-0.7,0-0.9,0.4-1,1c-0.9,0.3-1.1,1-1.2,1.8
		c-0.7,0.5-1.4,0.8-2,1.4c-14.6,15.8-31.5,28.6-50.5,38.6c-5.1,2.7-10.4,4.9-16.3,6.6c1.1,1.2,1.6,1.2,2.4,1.1
		c31-3.5,50.2-23.5,66.7-47.4c0.9-0.4,1.1-1.1,0.9-2.1C233.8,96.1,234,95.7,234,95z M180.1,121c-0.2,0.3-0.5,0.6-0.7,0.9
		c0.1,0.1,0.2,0.2,0.4,0.2C179.9,121.8,180,121.4,180.1,121c0.6,0.1,0.9-0.3,1.2-0.8c8.6-8,17.3-15.8,25.7-24
		c9.2-9.1,18.1-18.4,24.3-29.9c0.4-0.2,0.9-0.4,0.2-0.9c0,0-0.4,0.3-0.6,0.5c-3.3,1.5-6.7,2.9-9.9,4.6c-20,10.9-33.9,26.9-40.4,49
		C180.5,120.1,180.3,120.6,180.1,121z M357,73.1c-6.6,7.9-8,26.9-2.2,32.9C354.4,94.8,356.3,83.9,357,73.1c0-0.1,0.1-0.2,0.2-0.3
		C357.1,72.9,357.1,73,357,73.1z M418.1,137.2c8.3-7,16.2-14.3,20.6-24.6c4.9-11.7,4.3-23.1-1.3-34.4c1,17.1-5.4,31.8-14.1,45.8
		c-2.4,3.9-4.7,8-5.8,12.6c-0.4,0.4-0.7,0.8-0.1,1.2C417.5,137.8,417.9,137.4,418.1,137.2z M430,140c1.8,0.4,3.6,0,5.4-0.4
		c27.6-6.9,33.7-34.2,26.7-54.1c-0.4,2.3-0.8,4.3-0.9,6.2c-1.3,14.8-7.2,27.5-18.2,37.6C438.8,133.1,434.3,136.4,430,140
		c-0.5,0.1-0.9,0.2-1.3,0.4c0.1,0.1,0.3,0.3,0.3,0.3C429.3,140.5,429.7,140.2,430,140z M285.4,38.2c-22.5-11-38.6-9.3-52.5,5.9
		C250.4,39.2,267.7,42.2,285.4,38.2z M522.4,57.8c1.8-8.4,1.8-8.4-6.4-10.4c-1.5-0.4-2.9-0.8-4.4-1c-8.7-1.1-16.5,1.3-25,6.2
		C499.8,51.8,511.3,53.5,522.4,57.8z M364.8,102.9c1.2-12.8,3.7-24.6,6.4-36.9C362,73.1,359,90.6,364.8,102.9z M449.5,40.1
		c-5.1-13.4-20.7-16-33.8-5.5C428.2,32.4,439.8,30.6,449.5,40.1z M348.4,67.9c-9.5,7.8-8.9,26.8-3.3,36.3
		C344.3,91.9,345.4,80.2,348.4,67.9z M334.9,67.4c-8.3,6.8-9.6,19.3-2.8,29.3C331.9,86.5,332.7,77,334.9,67.4z M322.8,70
		c-3.5,7.7-3.7,15.4-1.3,23.1c0.4,0,0.9,0,1.3,0C322.8,85.4,322.8,77.7,322.8,70z M148.6,136.7c1.5-1.6,2.4-2.7,1.7-4.5
		C148,133.1,148,134.5,148.6,136.7z M469.9,47.6c-0.1-0.3-0.3-0.6-0.4-0.8c-0.1,0.3-0.4,0.6-0.4,0.8c0,0.3,0.2,0.6,0.4,0.8
		C469.6,48.1,469.8,47.8,469.9,47.6z"/>
	<path class="st2" d="M665.2,90.1c0.1,2.4-1,5-2.8,5.2c-2.1,0.2-2.5-2.6-2.5-4.7c0-0.9-0.5-1.6-1.3-1.9c-2,1-0.5,5-3.1,4.6
		c-2.3-0.4-3.2-3.1-4-5.7c-1.2-4.3-4.2-7.4-8.9-8.4c-0.9,0.4-1.8,0.4-2.7-0.1l-0.1-0.1l0.1,0.1c-0.1,1.5,1.7,2.4,1.2,4.3
		c-3.9-0.7-6.3-4.7-10.5-4.6c5.5,4,10.7,8.3,14.9,13.6c-2.5,1.2-4.1-0.4-5.7-1.8c-9.9-9-21.4-12.9-34.8-11.3
		c0.1,0.2,0.1,0.6,0.3,0.7c2.1,0.8,5.9,0.6,5.8,2.7c-0.2,2.2-3.9,2-6.2,2.4c-0.9,0.2-2.2-0.2-2.5,1c-0.1,0.4,0.4,1.3,0.9,1.6
		c5.7,3.1,7.6,8.7,9,14.4c0.8,3.5,2.6,4.6,5.9,4.1c1.1-0.2,2.3-0.1,3.5,0c0.9,0.1,2.2-0.3,2.7,0.8c0.6,1.2-0.5,1.8-1.2,2.4
		c-6.3,5.4-10.6,12.7-17.8,17.2c-3.5,2.2-4.6,6.8-8,10.4c-0.2-4.6,2.7-7.7,3.8-12.2c-4.9,2.5-7.3,6.3-10.4,9.7c-2-3.4,1.1-7-0.2-9.9
		c-1.4-3.1-5.1-4.6-6.2-9c-2.1,3.2-0.3,6.6-3.1,9.2c-3.6-5.8-5.1-12-5.6-18.6c-4.8,11.7,4.1,20.3,7.4,30.9c-7.9-2.2-12.6-7-16-13.3
		c-6.3-11.4-0.9-29.5,7.5-37.7c4.2-4,8.4-8,12.6-12c0.4-0.2,0.9-0.3,1.3-0.5c-0.1-0.1-0.3-0.4-0.3-0.4c-0.4,0.2-0.8,0.5-1.1,0.7
		c-4.5-0.1-7.5,4.2-12,4l0,0c0.7-0.9,1.4-1.7,2.1-2.6c-1.4-1.5-4.6,0.9-5.1-2.4c-0.3-2.2,2-1.6,3-2.9c-10.6,0.8-18.6-3.1-24.1-12
		c2.1,0.2,4.2,0.4,6.4,0.5c7.3,0.3,13.9,3.4,20.8,5.5c1.4,0.2,2.8,0.4,4.1,0.5c2.5-1.9-6.8-4.9,1.5-6c-6.8-3.2-13.2-5-19.8-7.1
		c2.5-3.8,6.7-3.4,10.3-4.4c0.9,1.7,2.6,1.1,4,1.2c19.3,0.6,36.5,7.3,52.8,17.1c4.9,3,9.3,6.8,15,8.6c1.6,2,3.1,4.1,6.1,3.9
		c1,1.1,1.9,2.2,3,3.2C658.3,84.3,660.5,88.6,665.2,90.1z M591.7,94.8c-6.4,4.1-8.9,9.8-6.9,16.1c1.4-5.9,3.4-11.2,7.7-15.4
		c0.4-0.4,1.5-0.5,0.8-1.3C592.9,93.8,592.1,94.2,591.7,94.8z M579.5,93.5c2.6-2.2,5.3-4.4,8.9-7.5
		C582.9,86.7,580.4,89.1,579.5,93.5z"/>
	<path class="st2" d="M434,199.6c2.1-3,4.6-1.5,7-0.5c5.1,2.2,9.7,5.4,15.4,6.3c-20.6-14.4-42.2-25.5-68.6-20.9
		c0.9-5.8,4.8-9.5,13.1-12.5c11.7-0.6,22.6,1.6,32.5,8.5c7.4,5.1,14.1,11,21.1,16.5c1.2,1,2.2,3.1,4.5,1.8l0,0c-0.4,2.4,1.2,2.8,3,3
		l0,0c0.2,1.2,0.9,1.6,2,1l0,0c0,2.2,1.1,2.7,3,2l0,0c0.1,3.2,2.6,3.5,4.9,4c16.3,6.6,32.5,13.2,48.8,19.8c1.1,0.4,2.4,0.6,2,2.2
		c-0.3,1.3-1.3,1.9-2.6,2c-3.2,0.3-6.5,1.3-9.5-1c-1.1-0.8-2.6-1.1-4.4-1.9c0.2,2.8,2.3,3.7,3.5,5c0.9,1,3,1.5,1.8,3.5
		c-1,1.8-2.8,1.6-4.4,1.3c-4.8-0.9-9.1-3.1-13.2-5.5c-0.7-0.4-1.4-0.8-2.9-1.7c1.4,3.9,3.1,6.6,5.1,9.1s4.9,5.4-1.4,7.1
		c3,2,4.9,0.5,6.5-0.5c4.4-2.6,8.8-1.8,13.3-0.3c1,0.3,2,0.6,2.1,1.8c0,1.1-1.1,1-1.8,1.4c-3.6,1.9-4.5,5.5-5.8,8.9
		c-1.6,4.2-3.6,4.8-7.1,2.1c-2.8-2.2-4.7-5-6.1-8.3c-1.5-3.5-3.4-6.9-6.8-9c-0.1-0.4-0.3-0.9-0.4-1.3c-0.1,0.1-0.4,0.2-0.4,0.3
		c0.2,0.4,0.5,0.7,0.7,1.1c0,0.5,0,1,0.1,1.5c0.5,2.4,2.4,5.3,0,6.9c-2.5,1.7-5.4-0.3-7.9-1.6c-2.7-1.5-5.1-3.4-6.7-5.8
		c-7.3-10.5-18.6-14.5-29.8-18.6c-3.7-1.3-7.5-2.5-11.2-4.2c9.1-2.2,18,0.5,27.2,1.8c-0.6-3.1-2.7-4.5-4.6-5.8
		c-7.9-5.7-17.1-8.1-26.6-9c-14.4-1.4-27.1-6-37.4-16.4c-0.5-0.6-1-1.2-2.1-2.6c9.2,0,17.7-0.6,26,0.3c3.8,0.4,8.2,2,11,5.5
		c-5.8,0.4-11.2-4.1-18-1c10.2,4.6,20.4,6.1,31.6,8.4C438.4,200.9,435.7,201.1,434,199.6z M457.9,205.7c2.9,3.9,6.2,4.8,9.6,5.5
		C465.4,208,462.2,207,457.9,205.7z"/>
	<path class="st2" d="M22,68.9c-2.6,0.8-3.2,3.6-5.5,5.2c0-1.3-0.4-2.6,0.1-3.5c5.5-11,12.4-21,22.9-28c1.4-0.9,2.9-1.7,4.6-1.5
		c1.8,2.3,3.4,0.7,5-0.3c6.5-3.9,13.1-7.6,20.6-9c5.9-1.1,11.9-1.5,16.5,3.8c-2.9,4.9-8.1,3.6-12.4,4.4c-14.2,2.7-28,6.4-38.2,17.4
		c-8.3,8.9-12.1,20-11.4,32.3c0.5,8.7,8.3,16.7,17.7,19.4c13.7,4,27,1.8,40-2.9c20.1-7.4,37.1-19.9,53.7-33
		c15.8-12.4,31.6-24.9,50.1-33.2c7.3-3.2,14.6-6.4,22.5-7.9l0,0c-2.2,3.6-6,5.5-9.3,7.3c-28.7,15.5-53.5,36.8-80.8,54.4
		c-15,9.7-31,17.3-48.4,21.5c-10.6,2.6-21.3,2.8-31.8-1.2C19.6,107.2,13,92.5,20.4,73.7c0.6-1.5,1.3-3.1,1.9-4.6
		c0.8-0.5,1-1.2,0.9-2.1c0.1,0,0.3-0.1,0.4-0.1s0.1-0.2,0.1-0.3c-0.1,0.1-0.3,0.3-0.4,0.4C22.3,67.4,22.1,68.1,22,68.9z"/>
	<path class="st3" d="M352.2,177c-15.2-6.4-27-17.3-38.3-29c-10.5-10.8-21.8-20.5-36.9-24.4c-4-1-8.1-1.7-13.3-1.8
		c10.9-3.2,20.9-2.6,31.1-0.9c-8.4-6-18.2-6.3-29.2-7.2c9.3-3.5,17.1-2.1,24.5,1.4c8,3.7,14.4,9.5,19.6,16.5
		c13.2,18.4,30.3,31.4,52,38.4c4.8,1.5,1.7,5.9,1.2,9.1C359,179.7,355.9,177,352.2,177z"/>
	<path class="st2" d="M658,204.2c-2.3,3.1-6.8,2.2-9.5,5.6c6.8,1.7,14.8-2,20.3,4.7c-2.7,1.5-4.9,3.7-6.8,6.3
		c-2.8,3.7-6.2,4.8-10.4,2.6c-4.8-2.6-9.5-5.5-14.2-8.3c-1.6-0.9-3-2.1-5.3-2.4c0,3.2-1.3,5.3-4.7,5.5c-0.9,0-1.6,0.7-1.6,1.6
		c0.1,2.6-0.3,4.7-3.3,5.1c-3.9,0.6-7.3-0.4-10.1-3.1c-0.7-0.7-1.2-1.6-1.7-2.5c-2-4.1-4.5-8-8.3-11.8c4.5-0.8,8-0.2,10.6,1.2
		c3.8,2.1,7,1.5,10.4,0.2c2.1-0.8,4.1-1.8,6.5-2.3c2.6-0.5,4.8-1.9,3-5.3c-0.3-0.6-1-1.4-0.1-2.2c1-0.8,1.6,0,2.5,0.4
		c3.5,1.3,7,2.5,10.7,2.7c0.4,2.1,2.1,1.7,3.5,1.8C652.4,204.1,655.2,204.1,658,204.2z"/>
	<path class="st2" d="M644.8,129c1.8,0.6,3.6,1.1,5.7,1.8c-2-7.3-8.9-9-13.1-13.5c-1.1-1.2-4.1-1.1-3-3.7c0.8-1.9,2.8-2.7,5-2.3
		c5.1,2.4,8.9,6.5,12.5,10.7c0.2,0.2,0.3,0.4,0.5,0.6c0.1-0.1,0.3-0.3,0.3-0.3c-0.1-0.2-0.3-0.4-0.5-0.6c-0.1-3-2.6-4.5-3.8-6.9
		c4.4-1,7.7,0.9,9.4,6.2c1.6,5.2,4.6,9.5,8.1,13.5c3.1,3.4,2.6,6.3-1.7,8.1c-4.9,2.1-10.2,2.8-15.6,2.2c-1.2-0.1-3.9-0.1-1.6-2.7
		c-1.2-0.6-2.3-1.3-3.5-1.8c-2.2-1.1-4.6-1.9-6.7-3.2c-1.1-0.7-3.7-1.1-2-3.5c1.3-1.9,2.9-1.8,4.8-0.7c1.5,0.9,3.1,1.8,4.9,2.2
		c-4.6-5.8-11-9.2-17.3-12.6c2.6-4.2,2.6-4.2,9-1.2C638.3,124.7,641.3,127.1,644.8,129z"/>
	<path class="st3" d="M470,187.8c-3.7,1.4-7.5,0.5-11.2,0.4c-1.7-0.1-3.5-1.3-3.8-2.8c-0.4-1.8,1.8-2.1,3-2.7
		c11.6-6.6,22.4-14.2,30.9-25.8c-0.3,4.5-1.9,7.9-3.9,10.9c-2,3.1-4.5,5.9-7.4,9.5c6.3-0.5,11.4-2.1,16.5-3.7
		c11-3.3,20.7-9.5,30.9-14.6l-0.1-0.1c0.2,2.4-1.9,3.3-3.3,4.4c-5.8,4.7-11.8,9.1-17.5,13.8c-2.2,1.8-4.9,1.7-7.2,2.9
		C487.6,181.7,478.8,184.8,470,187.8z"/>
	<path class="st3" d="M569.9,43.5c-10.8-4.5-22.3-6.3-33.7-8c-2.4-0.3-4.6,0.4-6.9,0.8c-2.1,0.4-4.9,3.1-5.6-1.9
		c-0.2-1.4-3.3-0.8-5-1.3c-11.6-3.8-23.7-2.5-35.5-3.8c-3.9-0.5-7.8-0.8-11.2-3c10.3,0,20.5-1.4,30.8-1.8
		c14.5-0.6,28.5,3.6,42.4,7.2c10.2,2.7,19.8,7,29.7,10.8C573.4,45.2,571.6,43.7,569.9,43.5z"/>
	<path class="st3" d="M499,145c10.5-10.4,23.1-12.1,37.2-9.8c9.2,1.5,14.7,6.9,19,14.5C536.8,144.6,518.1,141.2,499,145L499,145z"/>
	<path class="st2" d="M614.9,201c0.6-1.5,1.8-3.7-1.6-2.6c-2.4,0.8-4.5,2.1-7.6,1.4c3.7-3,3.3-4-1.3-5.5c-4.1-1.3-5.9-6.2-6.3-10.6
		c-0.4-3.8-0.2-7.6-0.1-11.5c0-1-0.5-2.7,1.3-2.7c1.1,0,1.3,1.2,1.6,2.2c1.2,4.5,2.7,8.8,5.7,12.5c2.7,3.3,6,4.6,9.9,4.7
		c4.2,0.1,8.3,0.1,12.5-0.1c2.3-0.1,2.9,0.6,2.3,2.9c-1.2,4.1-3.8,6.8-7.2,9c-1.5-1.5,0.6-2.2,0.1-3.5
		C620.7,197.6,618.6,201.5,614.9,201L614.9,201z"/>
	<path class="st4" d="M466,42.1c-2.2,0.2-2.3-1.9-3.2-3c-2.6-3.2-4.9-6.7-7.9-9.5c-10.9-10.3-21.1-11.8-34.4-4.8
		c-7.3,3.9-14.6,7.9-20.7,13.6c-0.6,0.6-1.2,1.2-2.2,0.8c8.6-10,18-18.8,30.8-23.3c8.3-2.9,15.7-1.6,22.2,4.1
		C457.5,26,462.7,33.5,466,42.1z"/>
	<path class="st2" d="M299.9,97c-2.8-3.6-3.4-7.7-4.8-11.4c-1.2-3.2-0.7-7-4.4-9.5c-2.1-1.4-0.4-4.8,1.5-6.6
		c5.2-4.8,11.9-6.5,18.4-8.4c0.5-0.2,1.6,0,1.8,0.4c0.8,1.2-0.2,2.2-0.8,3.1c-5.4,7.8-8.2,16.6-10.3,25.7
		C300.9,92.4,301.8,94.7,299.9,97z"/>
	<path class="st5" d="M143.9,161.6c11.4,6,23.3,6.4,35.1,1.9c7.8-3,15.9-5.8,22.2-11.9c1.8-1.7,4.6-2.4,7.4-2.5
		c-13.7,21-43.4,27.6-64.6,14.6C144,163,144,162.3,143.9,161.6z"/>
	<path class="st3" d="M300,28.9c-18.9-8.9-38.3-9.5-58.3-4.2c-4.9,1.3-9.4,4.2-14.8,3.4c24.7-14.8,49.7-15,75.1-1.8
		c0.8,0.4,2.3,0.7,1.9,1.9C303.1,30.2,301.4,29,300,28.9z"/>
	<path class="st3" d="M645.9,74.1c-5.6-1.8-10-5.6-15-8.6c-16.3-9.8-33.5-16.5-52.8-17.1c-1.4,0-3.1,0.5-4-1.2
		c25.9-3.3,48.4,3.8,67.5,21.6C643.3,70.3,645.5,71.5,645.9,74.1z"/>
	<path class="st5" d="M612,163.6c2-4.6,4.1-8,4-12.2c0-1,0.1-2.2,1.4-2.2c1.2,0,1.4,1.3,1.4,2.3c-0.1,3.1-0.1,6.3-0.5,9.4
		c-0.4,2.8-0.8,5.6,0.5,8.3c1.2,2.5,0.3,4.1-1.8,5.4c-2.3,1.4-4.7,2.1-6.9,0c-3.5-3.3-5.1-7.3-3.8-12.2c1.2-4.5,2.5-9,0.8-13.7
		c-0.4-1.1,0-2,1.1-2.4c0.9-0.3,1.6,0.2,2.1,0.9c1.4,2.1,2.6,4.3,2.4,6.9C612.6,157,612.4,159.9,612,163.6z"/>
	<path class="st2" d="M675.9,114.1l0.1,0.2l-0.2,0.2c0.3,2.7,2,4.9,2.3,7.7c0.4,3.6,1.7-0.3,2.6-0.2c1.8,1.1,3.4,2.5,1.7,4.7
		c-1.5,1.9-3,1-4.8,0c-3.8-2.3-7.7-4.6-12.4-4.7c-1,0-2.1-0.2-2.3-1.4c-1.5-6.9-6.1-11.1-13.1-14c9.3-2.2,14.4,3.6,20,8
		c1.9-1.5,0.2-3.8,2.1-5.6c1,1.4,2,2.8,2.9,4.2C675.3,113.5,675.6,113.8,675.9,114.1z"/>
	<path class="st5" d="M441.4,173c17.1-0.9,25.8-13,35.2-25.7c0.1,5-2.1,8-3.9,11c-4.7,7.7-10.3,14.7-18.2,19.4
		C449.1,181,445.1,179.7,441.4,173z"/>
	<path class="st3" d="M459,198.9c-2.3,1.3-3.3-0.8-4.5-1.8c-7-5.6-13.8-11.4-21.1-16.5c-9.9-6.9-20.8-9.1-32.5-8.5
		c6.5-4,13.4-3.4,20.4-1.6c6.2,1.5,11.9,4.3,16.7,8.4C445.4,185,452.7,191.4,459,198.9z"/>
	<path class="st2" d="M587.4,180.5c0.5,2.1,1.5,4.6-0.5,6c-2.1,1.4-4-0.6-5.8-1.8c-7.4-5.1-14.5-10.6-22.5-14.7
		c-1.6-0.8-1.7-1.8-0.6-2.5c1.9-1.2,1.9-6.1,5.7-3.6c2.6,1.7,4.8,4,7.1,6c2.9,2.4,5.7,4.9,8.8,7C582,178.6,584,181.3,587.4,180.5z"
		/>
	<path class="st2" d="M537.2,241.9c2.8,0.7,1.7,2.1,0.7,3.6c-2.1,3.3-4.8,6.3-5,10.6c-0.1,1.7-1.1,1.8-2.3,0.8
		c-0.5-0.4-1.1-0.9-1.3-1.5c-2.3-6.4-7.2-10.3-13.8-13.4c2.8-1.7,4.7-3.3,7.3-3.1C527.9,238.8,532.4,241,537.2,241.9z"/>
	<path class="st2" d="M185.1,66.1c0.1,1.5-1,2.4-2,3.3c-7.3,6.3-12,14.6-16.8,22.7c-1.6,2.6-2.5,5.3-5.1,1.1L161,93
		C165.5,80.9,172.7,71.1,185.1,66.1L185.1,66.1z"/>
	<path class="st2" d="M109,164.9c-0.2,0.4-0.3,0.9-0.6,1.3c-4.1,5.8-8.2,11.7-12.2,17.5c-0.4,0.6-1.1,1.1-1.6,0.6
		c-1-1.3-2.4-2.3-2.4-4.2c0.1-4.6,9.9-16,14.4-16.8C108,163,109,163.2,109,164.9z"/>
	<path class="st2" d="M270.9,166c4.3,0.1,6.1,1.3,7.6,4.3c4,7.8,8.3,15.5,15.8,20.8c0.8,0.6,1.9,1.2,1.1,2.3
		c-0.7,0.9-1.9,0.6-2.8,0.2c-4.2-1.7-6.9-5.2-9.7-8.5C278.2,179.5,275,172.9,270.9,166z"/>
	<path class="st3" d="M86.2,35.5c-4.6-5.3-10.6-4.9-16.5-3.8c-7.5,1.4-14.1,5.1-20.6,9c-1.6,1-3.2,2.6-5,0.3
		c9.9-8.1,21.2-12.7,34.1-13c2.5-0.1,4.9,0.5,7.2,1.6C88.4,31.2,89.3,33.1,86.2,35.5z"/>
	<path class="st5" d="M529.7,275.6c-4.5-4.1-7.9-7.4-11.9-9.9c-3-1.8-2-4.7-0.5-7c1.8-2.6,4.1-1.6,6,0
		C528,262.8,529,268.4,529.7,275.6z"/>
	<path class="st2" d="M97.4,213.6c-0.9,1.8-2.1,4.1-4.3,4.9c-2.1,0.8-2.4-1.7-3.1-3.1c-1.1-2.3-2.9-4-4.5-5.9
		c-1.4-1.6-4.7-2.7-2.7-5.5c1.8-2.5,3.8,0.1,5.8,0.6C93.1,205.8,96.2,208.4,97.4,213.6z"/>
	<path class="st5" d="M552.9,271.1c-3.9-3.8-6.9-6.9-10.5-9.3c-3.3-2.2-2.3-5.7-0.8-8.5c1.1-2.3,3-0.8,4.1,0.2
		C550.4,258,553.4,263.3,552.9,271.1z"/>
	<path class="st2" d="M663.4,206c6.3-2.9,6.4-2.8,20.2,4.8c-6.8,5.7-6.8,5.7-13.4-0.2c-1.1-1-2.5-1.6-3.6-2.7
		C665.6,207,663.9,207.4,663.4,206z"/>
	<path class="st2" d="M550.9,238.8c0.7,0.9,1.4,1.7,2.1,2.5c-9.9,1.9-11.7,1-19.9-11c3.5-0.3,6.8-0.8,9.8,1.2
		c-0.1,0.8,0.2,1.3,1.1,1.2l0,0c0.3,1,0.7,2,2,1l0,0c-0.5,1.9,0.3,2.4,2,2l0,0c-0.4,1,0.1,1.3,1,1l0,0c-0.3,1,0.2,1.2,1,1v-0.1
		C549.7,238.7,550.2,238.8,550.9,238.8z"/>
	<path class="st5" d="M567.9,264.2c-3.3-3.4-6-5.5-8.9-7.4c-3.8-2.4-3.5-6.3-2.8-9.8c0.6-2.8,2.7-1.2,3.8-0.2
		C565.1,250.9,568.3,256.1,567.9,264.2z"/>
	<path class="st5" d="M666.9,125c3.2,0.7,6.1,1.4,8.6,3.2c0.8,0.6,1.8,0.9,2.5,1.6c1.3,1.2,4.5-1.2,4.5,2.3c0,1.8-6.7,6.8-8.4,6.5
		c-1.4-0.2-1.3-1.4-1.2-2.3c0.4-4-1-6.3-5.3-6.8c-1.7-0.2-3.2-1.6-3.3-3.3C664.3,124.4,666.2,125.5,666.9,125z"/>
	<path class="st4" d="M586.1,172.2c-6.9-4.4-13.3-8.4-19.6-12.5c-0.8-0.5-1.9-1.1-1.4-2.3c0.4-1,1.3-1.3,2.4-1.4"/>
	<path class="st3" d="M434,199.6c1.7,1.5,4.4,1.3,6.7,4.7c-11.3-2.4-21.5-3.9-31.6-8.4c6.8-3.1,12.2,1.5,18,1
		C429.4,197.7,431.7,198.7,434,199.6z"/>
	<path class="st2" d="M95.1,204.3c6.6-0.7,10.1,1.4,12.6,5.2c3.2,4.9-3.1,7.4-3.3,11.7C102.6,215.3,101.2,209.3,95.1,204.3z"/>
	<path class="st2" d="M576.9,154c-16.7-3.3-24.5-14.9-22.3-33.8c0.2,4.6,0.4,9.3,1.8,13.7c2.4,7.6,8.6,11.6,15,15.3
		C573.6,150.4,575.8,151.6,576.9,154L576.9,154z"/>
	<path class="st4" d="M634.7,168.1c1.8-3.5,3.8-6.8,4.7-10.8c1.5-6.3,1.7-6.3,8.7-4.2c-2.2,7-7.4,11.3-13.3,14.9L634.7,168.1z"/>
	<path class="st2" d="M550.9,168.3c-2.5,4.9-6.6,7.9-11.6,10.3c4.2-6.5,7-13.6,9.7-20.6c2,0,2.3,1.3,2.2,3
		C551,163.4,551,165.9,550.9,168.3z"/>
	<path class="st3" d="M578.1,64.1c-6.9-2-13.5-5.1-20.8-5.5c-2.1-0.1-4.2-0.3-6.4-0.5c-1.9-1.7-5.1-1.2-6.6-3.9
		c11.1,2.2,23,0.9,33,8.1C577.7,62.7,577.8,63.5,578.1,64.1z"/>
	<path class="st5" d="M680.9,230.9c0.1,2.3-0.8,2.5-2.4,1.5c-2.6-1.6-5.2-3-7.7-4.6c-3.1-1.9-1.8-4.3-0.5-6.5
		c1.4-2.4,3.2-0.9,4.6,0.2C678.1,223.9,679.5,227.5,680.9,230.9z"/>
	<path class="st4" d="M621.9,181.9c-2.7,1.5-5,4.7-8.7,2.4c-1.8-1.1-3.4-2.6-0.2-4.2c2.1-1,4.2-2,6-3.4c1.9-1.3,3.4-3.1,5.4-4.9
		c0.9,3.3-2,5.4-1.7,8.1l0.1-0.1c-1.2,0.3-1.4,1.1-1.1,2.1L621.9,181.9z"/>
	<path class="st3" d="M117.1,139.1c-1.3,1.4-3.1,1.2-4.6,1.3c-4.9,0.5-8.2,3-10.6,7.2c-0.8,1.4-1.1,3.7-3.7,3.3
		c1-3.1,2.2-6.2,3.1-9.4c0.9-3.5,2.8-5.1,6.5-4.2C110.9,138,114,138.5,117.1,139.1z"/>
	<path class="st5" d="M697.4,232.4c-2.9-2.4-5.2-4.4-7.7-6.3c-2.5-2-2.1-4.7-1.7-7.3c0.4-2.4,1.8-1.1,2.9-0.4
		C694.7,220.9,697.3,226.4,697.4,232.4z"/>
	<path class="st4" d="M470,187.8c8.8-3,17.6-6.1,26.8-7.8C488.9,186.1,479.8,188.3,470,187.8z"/>
	<path class="st3" d="M639.9,79c0.9,0.5,1.8,0.4,2.7,0.1c0.3,1,0.7,2.1,1,3.1c-0.8,3.4,0,5.9,3.8,6.7c0.3,1.7,0.8,3.5-2,3.4
		c-4.2-5.3-9.4-9.6-14.9-13.6c4.1-0.1,6.6,3.9,10.5,4.6C641.7,81.4,639.9,80.5,639.9,79L639.9,79z"/>
	<path class="st4" d="M622.8,180c6.9,2.7,11.3-1.4,15.8-6.1c-2.7,10-8,12.5-16.7,8l-0.1,0.2C623.1,181.8,623.9,181.3,622.8,180
		L622.8,180z"/>
	<path class="st4" d="M654.6,164.9c1-3.2,4.4-5.2,2.7-9.2c-0.4-1.1,1.4-2.4,2.2-1.6c1.6,1.6,3.6-0.2,5.3,1.3
		C662.2,159.5,659.1,163,654.6,164.9z"/>
	<path class="st5" d="M635.4,100.2c-3.9,0.4-6.1-1.5-8-4c-0.7-1-0.9-2.1-0.1-3.2c0.8-1.1,1.9-1.3,3.1-1c3.4,0.8,6.2,2.8,7.7,5.8
		C640,101.7,636.2,99.7,635.4,100.2z"/>
	<path class="st5" d="M297.7,157.6c2.6-1.9,4.4-4.2,5.7-6.9c0.4-0.9,0.7-2.6,2.3-2c1.7,0.7,3,2.1,3.8,3.7c0.7,1.5-0.8,2-1.7,2.5
		C304.7,156.5,301.5,158,297.7,157.6z"/>
	<path class="st2" d="M657.7,97.8c3.2-0.1,9.8,5,10.2,7.8c0.1,0.9,0.1,2.2-0.4,2.8c-0.9,0.9-1.7-0.1-2.4-0.8
		c-2.7-2.4-5.3-4.8-7.9-7.2c-0.4-0.4-0.8-1.2-0.7-1.6C656.6,98.3,657.4,98,657.7,97.8z"/>
	<path class="st2" d="M679.6,200c4.3-1.5,5.8,2.1,8.1,4.3c0.6,0.6,1.2,1.3,0.5,2.1c-0.6,0.7-1.5,0.3-2.3,0.1
		c-2.7-0.7-5.4-1.5-7.6-3.4c-1-0.9-3.2-1.3-2.7-2.9C676.3,198.7,678.2,199.7,679.6,200z"/>
	<path class="st3" d="M550.9,168.3c0.1-2.5,0.1-4.9,0.3-7.4c0.1-1.7-0.2-2.9-2.2-3c1.6-1.8,3.7-0.8,5.6-1c2.9-0.3,3,1.5,2,3.3
		C555.1,163.2,553.3,166,550.9,168.3z"/>
	<path class="st2" d="M560.1,237.9c-4.7-2-8.8-5.3-12.9-8.3c-0.6-0.4-1.4-1.4-0.6-2c1.2-0.9,2.7-0.4,3.7,0.4c3.6,2.8,7,5.8,10.5,8.7
		C560.6,237,560.3,237.4,560.1,237.9z"/>
	<path class="st3" d="M587.4,180.5c-3.4,0.8-5.4-1.9-7.8-3.5c-3.1-2.1-5.9-4.7-8.8-7C577.4,171.9,582.7,175.8,587.4,180.5z"/>
	<path class="st3" d="M665.2,90.1c-4.7-1.5-7-5.8-10.3-8.9c-1.1-1-2-2.1-3-3.2c0.1-0.9,1-1.2,1.4-0.8C657.8,81,663.2,84,665.2,90.1z
		"/>
	<path class="st5" d="M82.5,231.6c-1.5-2.8-3.4-4.8-3-7.6c0.2-1.1,0.5-2.4,1.9-2.6c1.5-0.2,1.9,1.2,2.2,2.2
		C84.3,226.1,84.2,228.5,82.5,231.6z"/>
	<path class="st5" d="M698.4,214.8c3.9,2.6,6.3,5.4,6.4,10.5C700.7,222.6,696.5,221,698.4,214.8z"/>
	<path class="st3" d="M648.3,114.9c1.2,2.4,3.7,3.9,3.8,6.9l-0.3,0.3c-3.6-4.2-7.3-8.3-12.5-10.7c1.8,0.4,3.7,0.8,5.5,1.2
		c1,0.6,2.1,1.3,3.1,1.9C648,114.6,648.2,114.8,648.3,114.9z"/>
	<path class="st5" d="M100,225.9c-0.2,1.1,0.1,2.9-1.3,2.6c-2.3-0.4-3.2-2.6-3.3-4.8c-0.1-1.3,0.1-3,2-2.5
		C99.5,221.8,100,223.8,100,225.9z"/>
	<path class="st5" d="M573.6,250.6c-3.6-0.6-6.4-1.4-6.6-5.3c0-0.8,0.1-1.7,1.2-1.8C569.7,243.4,572.4,246.9,573.6,250.6z"/>
	<path class="st3" d="M537.2,241.9c-4.8-0.9-9.3-3.1-14.3-3C528.2,236.1,532.3,237,537.2,241.9z"/>
	<path class="st5" d="M122.7,222.3c-0.4,0.1-0.6,0.2-0.7,0.1c-2.9-1.4-4-3.7-3.6-6.8c0.1-0.7,0.6-1.4,1.3-1
		C122.4,216.4,123,219.2,122.7,222.3z"/>
	<path class="st5" d="M113,227.9c-2.6-2-4-3.4-4-5.6c0-1.1-0.3-2.7,1.2-2.8c1.2-0.1,2.6,0.7,2.7,2.3C113,223.5,113,225.3,113,227.9z
		"/>
	<path class="st3" d="M644.8,129c-3.5-1.9-6.5-4.3-8.6-7.7C640,122.8,643.9,124.2,644.8,129z"/>
	<path class="st5" d="M322.9,213.6c-2.2-1.6-3.7-2.6-5-3.8c-0.9-0.8-1.1-2.2-0.3-3.1c1.3-1.3,2,0.3,2.7,1
		C321.7,209.1,322.7,210.7,322.9,213.6z"/>
	<path class="st3" d="M680.8,122c-1-0.1-2.3,3.8-2.6,0.2c-0.3-2.9-2-5-2.3-7.7C679.7,115.6,680.5,118.6,680.8,122z"/>
	<path class="st4" d="M647.5,88.9c-3.8-0.8-4.6-3.3-3.8-6.7C645.5,84.1,647.6,85.8,647.5,88.9z"/>
	<path class="st3" d="M658,204.2c-2.8-0.1-5.5-0.1-8.3-0.2c-1.3-0.1-3.1,0.4-3.5-1.8c4.1-0.6,8,0.9,12.1,0.9c0.1,0,0.2,0.3,0.2,0.4
		C658.3,203.7,658.1,204,658,204.2z"/>
	<path class="st4" d="M352.2,177c3.7,0,6.9,2.8,10.7,2.1c0.2,3.1-1.9,2.1-3.2,1.6C357.1,179.5,354.3,178.9,352.2,177z"/>
	<path class="st5" d="M333,210c-3.5-1.4-5.4-2.9-4.7-6.5C331,204.7,332.3,206.6,333,210z"/>
	<path class="st2" d="M143.9,161.6c0,0.7,0.1,1.4,0.1,2.1c-2-1.5-4.4-2.6-6.3-5.5C140.8,158.7,142.4,160.1,143.9,161.6z"/>
	<path class="st3" d="M471.9,208.9c-2.3-0.6-4.8-0.9-4.9-4C469,205.8,471.2,206.5,471.9,208.9z"/>
	<path class="st2" d="M648,114.5c-1-0.6-2.1-1.3-3.1-1.9c0.6-1.7,1.7-1,2.7-0.5C648.8,112.7,648.7,113.5,648,114.5z"/>
	<path class="st3" d="M462,201.9c-1.8-0.2-3.4-0.6-3-3C460.5,199.4,462.1,199.8,462,201.9z"/>
	<path class="st3" d="M467,204.9c-1.9,0.7-3,0.2-3-2C465.4,203,466.3,203.8,467,204.9z"/>
	<path class="st4" d="M466.9,45c-1.1-0.8-1.4-1.8-0.9-3.1C467.4,42.7,467,43.9,466.9,45z"/>
	<path class="st3" d="M548,235.9c-1.7,0.4-2.6-0.1-2-2C546.9,234.2,547.6,234.9,548,235.9z"/>
	<path class="st2" d="M189.1,64.1c0.4-0.2,0.7-0.5,1.1-0.7c0.1,0.1,0.2,0.3,0.3,0.4C190,63.8,189.5,63.9,189.1,64.1
		C189.1,64,189.1,64.1,189.1,64.1z"/>
	<path class="st2" d="M189.1,64c-0.4,0.9-1.1,1-2,1l0,0C187.5,64.2,188.3,64.1,189.1,64C189.1,64.1,189.1,64,189.1,64z"/>
	<path class="st2" d="M185.1,66c0.4-0.8,1.2-1,2-1l0,0C186.7,66,186,66.1,185.1,66C185.1,66.1,185.1,66,185.1,66z"/>
	<path class="st5" d="M477.4,146.3c0-0.1-0.1-0.3-0.1-0.4c0,0,0.2-0.1,0.3-0.1c0,0.1,0.1,0.3,0.1,0.4
		C477.6,146.3,477.5,146.3,477.4,146.3z"/>
	<path class="st3" d="M498.9,145c-0.1,0.2-0.3,0.4-0.4,0.7c-0.1-0.1-0.2-0.2-0.3-0.4C498.5,145.2,498.7,145.1,498.9,145
		C499,145,498.9,145,498.9,145z"/>
	<path class="st2" d="M136.8,156.7c0.1,0.1,0.1,0.3,0.2,0.4c-0.2,0-0.4,0.1-0.6,0.1c0-0.1,0-0.3,0.1-0.4
		C136.5,156.7,136.7,156.7,136.8,156.7z"/>
	<path class="st3" d="M524.9,159c0.4-0.2,0.8-0.4,1.2-0.6c0,0.2,0,0.3,0,0.5C525.7,158.8,525.3,158.8,524.9,159
		C524.9,158.9,524.9,159,524.9,159z"/>
	<path class="st2" d="M161.2,93.1c-0.2,0.4-0.3,0.9-0.5,1.3c-0.1-0.1-0.4-0.3-0.4-0.3c0.2-0.4,0.5-0.8,0.7-1.2
		C161,93,161.2,93.1,161.2,93.1z"/>
	<path class="st3" d="M464,202.9c-1.1,0.6-1.8,0.2-2-1C463.3,201.1,463.6,202.1,464,202.9z"/>
	<path class="st3" d="M546,233.9c-1.3,0.9-1.7,0-2-1C545.2,232.1,545.5,233.2,546,233.9z"/>
	<path class="st2" d="M208.1,32.1c0.3-0.2,0.7-0.5,1-0.7C209.3,32.5,208.4,31.8,208.1,32.1L208.1,32.1z"/>
	<path class="st2" d="M254,99c0.3-0.3,0.7-0.7,1-1l0,0C254.7,98.4,254.4,98.7,254,99C254.1,99,254,99,254,99z"/>
	<path class="st2" d="M576.9,154c0.1,0.1,0.3,0.3,0.4,0.4C577.2,154.3,577.1,154.1,576.9,154L576.9,154z"/>
	<path class="st4" d="M159.6,79.5c0.4-0.1,1-0.4,1.1-0.2c0.3,0.4,0.1,0.8-0.5,1C160,80,159.8,79.7,159.6,79.5z"/>
	<path class="st3" d="M675.9,114.1c-0.3-0.3-0.6-0.6-1-0.9C675.3,113.5,675.6,113.8,675.9,114.1z"/>
	<path class="st2" d="M574.9,78c-0.1,0.1-0.1,0.3-0.2,0.4C574.8,78.3,574.9,78.2,574.9,78C574.9,78.1,574.9,78,574.9,78z"/>
	<path class="st2" d="M342,123c0.1,0.1,0.3,0.2,0.4,0.4c-0.1,0-0.2,0-0.2-0.1C342.1,123.2,342.1,123.1,342,123L342,123z"/>
	<path class="st2" d="M275,63.1c0.2-0.1,0.3-0.3,0.5-0.4c0,0.1,0,0.2-0.1,0.3C275.3,63,275.2,63,275,63.1L275,63.1z"/>
	<path class="st2" d="M275,63.1c-0.1,0.1-0.3,0.3-0.4,0.4c0-0.1,0-0.2,0.1-0.3C274.8,63.1,274.9,63.1,275,63.1L275,63.1z"/>
	<path class="st3" d="M544,232.9c-0.9,0.1-1.2-0.4-1.1-1.2C543.6,231.7,544.4,231.8,544,232.9z"/>
	<path class="st4" d="M634.8,168l0.1,0.1h-0.2L634.8,168z"/>
	<path class="st3" d="M549,236.9c-0.9,0.2-1.4,0-1-1C548.3,236.2,548.6,236.5,549,236.9z"/>
	<path class="st3" d="M550,237.9c-0.9,0.2-1.3-0.1-1-1C549.3,237.2,549.6,237.6,550,237.9z"/>
	<path class="st3" d="M550.9,238.8c-0.6,0-1.2-0.1-0.9-1C550.5,237.9,550.9,238.2,550.9,238.8z"/>
	<path class="st2" d="M482.9,71.1c0.1,0.1,0.3,0.1,0.4,0.2C483.2,71.2,483.1,71.1,482.9,71.1C483,71,482.9,71.1,482.9,71.1z"/>
	<path class="st2" d="M255,98c0.2-0.1,0.3-0.3,0.5-0.4C255.4,97.7,255.2,97.9,255,98C255.1,98,255,98,255,98z"/>
	<path class="st2" d="M614.9,200.9c-0.1,0.1-0.1,0.3-0.2,0.4C614.8,201.2,614.8,201.1,614.9,200.9
		C614.9,201,614.9,200.9,614.9,200.9z"/>
	<path class="st3" d="M231.3,66.3C225,77.8,216.1,87.1,207,96.2c-8.3,8.2-17.1,16-25.7,24c-0.2-0.2-0.4-0.4-0.7-0.6
		c6.5-22.1,20.5-38,40.4-49c3.2-1.7,6.6-3.1,9.9-4.6L231.3,66.3z"/>
	<path class="st3" d="M430,140c4.3-3.5,8.9-6.9,13-10.6c11.1-10.1,16.9-22.8,18.2-37.6c0.2-2,0.6-3.9,0.9-6.2
		c6.9,19.9,0.9,47.2-26.7,54.1C433.6,140.1,431.8,140.4,430,140L430,140z"/>
	<path class="st3" d="M417.6,136.6c1-4.6,3.4-8.7,5.8-12.6c8.7-14.1,15.1-28.7,14.1-45.8c5.5,11.3,6.2,22.7,1.3,34.4
		c-4.3,10.3-12.3,17.6-20.6,24.6C418,137,417.8,136.8,417.6,136.6z"/>
	<path class="st3" d="M285.4,38.2c-17.7,3.9-35,1-52.5,5.9C246.8,29,262.9,27.3,285.4,38.2z"/>
	<path class="st3" d="M232.1,98.1c-16.5,23.9-35.6,44-66.7,47.4c-0.8,0.1-1.3,0-2.4-1.1c5.9-1.7,11.2-3.9,16.3-6.6
		c19-10,35.9-22.8,50.5-38.6c0.5-0.6,1.3-0.9,2-1.4C231.9,97.9,232.1,98.1,232.1,98.1z"/>
	<path class="st3" d="M522.4,57.8c-11.1-4.2-22.6-5.9-35.8-5.1c8.5-4.9,16.3-7.4,25-6.2c1.5,0.2,2.9,0.6,4.4,1
		C524.2,49.4,524.2,49.4,522.4,57.8z"/>
	<path class="st3" d="M364.8,102.9C359,90.6,362,73.1,371.2,66C368.5,78.3,366,90.1,364.8,102.9z"/>
	<path class="st3" d="M449.5,40.1c-9.7-9.5-21.4-7.7-33.8-5.5C428.8,24.1,444.5,26.7,449.5,40.1z"/>
	<path class="st3" d="M348.4,67.9c-3,12.3-4.1,24.1-3.3,36.3C339.4,94.7,338.8,75.7,348.4,67.9z"/>
	<path class="st3" d="M357,73c-0.7,10.9-2.6,21.8-2.2,32.9C349,100,350.4,80.9,357,73L357,73z"/>
	<path class="st3" d="M334.9,67.4c-2.2,9.6-3.1,19.1-2.8,29.3C325.4,86.7,326.7,74.2,334.9,67.4z"/>
	<path class="st3" d="M322.8,70c0,7.7,0,15.4,0,23.1c-0.4,0-0.9,0-1.3,0C319.1,85.4,319.2,77.7,322.8,70z"/>
	<path class="st1" d="M148.6,136.7c-0.6-2.2-0.5-3.6,1.7-4.5C151,134,150,135.1,148.6,136.7z"/>
	<path class="st1" d="M469.9,47.6c-0.1,0.3-0.3,0.6-0.4,0.8c-0.1-0.3-0.4-0.6-0.4-0.8c0-0.3,0.2-0.6,0.4-0.8
		C469.6,47,469.8,47.3,469.9,47.6z"/>
	<path class="st1" d="M399.9,55c0.1-0.4,0.3-0.9,0.4-1.3c0.1,0.1,0.4,0.2,0.4,0.3C400.5,54.3,400.3,54.7,399.9,55
		C400,55.1,399.9,55,399.9,55z"/>
	<path class="st3" d="M430,140c-0.3,0.2-0.7,0.5-1,0.7c0,0-0.2-0.2-0.3-0.3C429.1,140.2,429.5,140.1,430,140L430,140z"/>
	<path class="st3" d="M180,121c-0.1,0.4-0.2,0.8-0.3,1.2c-0.1-0.1-0.2-0.2-0.4-0.2C179.6,121.7,179.9,121.3,180,121
		C180.1,121,180,121,180,121z"/>
	<path class="st3" d="M233.1,96c0.2,0.9-0.1,1.6-0.9,2.1l-0.3-0.2C231.9,97,232.2,96.3,233.1,96L233.1,96z"/>
	<path class="st3" d="M235,93c0.1,0.9,0,1.7-1,2l0,0C234,94.2,234.2,93.5,235,93L235,93z"/>
	<path class="st1" d="M237.2,110.1c-0.4,0.3-0.7,0.6-1.1,0.9l0,0c0.3-0.4,0.6-0.7,0.9-1.1C237,109.9,237.2,110.1,237.2,110.1z"/>
	<path class="st1" d="M236.1,111c-0.1,0.1-0.3,0.3-0.4,0.4c0-0.1,0-0.2,0.1-0.3C235.8,111.1,235.9,111.1,236.1,111L236.1,111z"/>
	<path class="st1" d="M219.1,119c0.1-0.1,0.3-0.3,0.4-0.4c0,0.1,0,0.2-0.1,0.3C219.3,119,219.2,119,219.1,119L219.1,119z"/>
	<path class="st3" d="M181.3,120.2c-0.3,0.5-0.6,0.9-1.3,0.7l0.1,0.1c0.2-0.5,0.4-1,0.5-1.4C180.9,119.8,181.1,120,181.3,120.2z"/>
	<path class="st3" d="M418.1,137.2c-0.2,0.2-0.6,0.7-0.6,0.6c-0.6-0.4-0.3-0.8,0.1-1.2C417.8,136.8,418,137,418.1,137.2z"/>
	<path class="st3" d="M235.1,93.1c0.1-0.1,0.1-0.3,0.2-0.4c0-0.1,0.2,0,0.3,0C235.4,92.7,235.2,92.9,235.1,93.1
		C235,93,235.1,93.1,235.1,93.1z"/>
	<path class="st1" d="M477.9,60.1c-0.3-0.4-0.6-0.7-0.9-1.1l0,0c0.4,0.3,0.7,0.6,1.1,0.9C478,60,477.9,60.1,477.9,60.1z"/>
	<path class="st3" d="M357,73.1c0.1-0.1,0.1-0.2,0.2-0.3C357.1,72.9,357,72.9,357,73.1C357,73,357,73.1,357,73.1z"/>
	<path class="st1" d="M477,59c-0.1-0.1-0.3-0.2-0.4-0.4c0.1,0,0.2,0,0.2,0.1C476.9,58.8,476.9,59,477,59C476.9,59.1,477,59,477,59z"
		/>
	<path class="st1" d="M252.1,51.1c-0.1-0.1-0.3-0.2-0.4-0.2C251.8,50.9,251.9,51,252.1,51.1C252,51.1,252.1,51.1,252.1,51.1z"/>
	<path class="st1" d="M475.8,69.2c-0.1-0.2-0.3-0.4-0.4-0.6c0.2,0.1,0.4,0.2,0.6,0.4L475.8,69.2z"/>
	<path class="st3" d="M231,66c0.2-0.2,0.5-0.6,0.6-0.5c0.6,0.5,0.1,0.6-0.2,0.9C231.3,66.3,231,66,231,66z"/>
	<path class="st3" d="M233.1,96c0-0.6,0.3-1,1-1l0,0C234,95.7,233.8,96.1,233.1,96L233.1,96z"/>
	<path class="st3" d="M592.5,95.6c-4.3,4.1-6.3,9.4-7.7,15.4c-2-6.4,0.5-12,6.9-16.1C592,95.1,592.2,95.3,592.5,95.6z"/>
	<path class="st1" d="M579.5,93.5c0.8-4.4,3.4-6.7,8.9-7.5C584.8,89,582.2,91.2,579.5,93.5z"/>
	<path class="st3" d="M591.7,94.8c0.4-0.6,1.2-1,1.6-0.5c0.6,0.8-0.5,0.9-0.8,1.3C592.2,95.3,592,95.1,591.7,94.8z"/>
	<path class="st1" d="M586.9,74c0.4-0.2,0.8-0.5,1.1-0.7c0,0,0.2,0.2,0.3,0.4c-0.4,0.2-0.9,0.3-1.3,0.5C587,74.1,586.9,74,586.9,74z
		"/>
	<path class="st3" d="M639.9,79l-0.1-0.1L639.9,79z"/>
	<path class="st1" d="M457.9,205.7c4.3,1.3,7.6,2.3,9.6,5.5C464,210.5,460.7,209.5,457.9,205.7z"/>
	<path class="st1" d="M488.9,244.9c-0.2-0.4-0.5-0.7-0.7-1.1c0,0,0.2-0.2,0.4-0.3C488.7,244,488.8,244.4,488.9,244.9
		C489,244.9,488.9,244.9,488.9,244.9z"/>
	<path class="st1" d="M22,68.9c0.1-0.8,0.3-1.5,1.1-1.9l0,0c0.1,0.9-0.1,1.6-0.9,2.1L22,68.9z"/>
	<path class="st1" d="M23.2,67.1c0.1-0.1,0.3-0.3,0.4-0.4c0,0.1,0,0.2-0.1,0.3C23.4,67,23.3,67,23.2,67.1
		C23.1,67,23.2,67.1,23.2,67.1z"/>
	<path class="st3" d="M652.1,121.8c0.2,0.2,0.4,0.4,0.5,0.6c0,0-0.2,0.2-0.3,0.3c-0.2-0.2-0.3-0.4-0.5-0.6
		C651.8,122.1,652.1,121.8,652.1,121.8z"/>
	<path class="st1" d="M622.9,179.9c1,1.4,0.2,1.9-1.1,2.1C621.5,181,621.7,180.2,622.9,179.9z"/>
</g>
</svg>
