<?xml version="1.0" encoding="utf-8"?>
<!-- Generator: Adobe Illustrator 25.2.1, SVG Export Plug-In . SVG Version: 6.00 Build 0)  -->
<svg version="1.1" id="Layer_1" xmlns="http://www.w3.org/2000/svg" xmlns:xlink="http://www.w3.org/1999/xlink" x="0px" y="0px"
	 viewBox="0 0 719 295.6" style="enable-background:new 0 0 719 295.6;" xml:space="preserve">
<style type="text/css">
	.st0{fill:#FFFFFF;}
	.st1{fill:#262626;}
	.st2{fill:#535353;}
	.st3{fill:#A7A7A6;}
	.st4{fill:#FDFDFD;}
	.st5{fill:#B22E35;}
</style>
<path class="st0" d="M710.5,208.7c-2.6-2.4-5-5.1-7.5-8c-2.3-2.6-4.6-5.2-7.2-7.8c-4.6-4.5-10.1-6.9-16-6.9c-2.9,0-5.8,0.6-8.7,1.8
	c-3.6,1.5-7.3,2.2-11.5,2.2c-4.9,0-9.9-1-14.4-2.1c2.2-2.6,3.8-5.3,5-8c2.2-0.3,4.1-0.9,5.6-1.5c7.9-3.2,13.3-8.8,16.7-12.7
	c0,0,0.1-0.1,0.1-0.1c6.6-1.8,10.2-6.7,12.5-9.8c0.4-0.6,0.9-1.2,1.3-1.7c2.5-3.2,3.6-6.6,4.4-9.2c0.3-1,0.8-2.5,1.1-2.9
	c6.3-7.8,6.7-16.7,1.2-26.5c-3.5-6.3-8.3-12.1-14.5-17.6c-0.2-0.2-0.5-0.4-0.7-0.6c-0.1-0.1-0.1-0.1-0.2-0.2
	c2.2-7.4,0.1-14.6-6.2-21.2c-4.1-4.3-8.6-7.7-12.9-11c-3.1-2.3-5.9-4.5-8.5-6.9c-13.9-12.9-30.2-21-48.3-24.2
	c-2.3-0.4-4.4-0.5-6.3-0.5c-0.4,0-0.7,0-1.1,0c-0.3,0-0.7,0-1,0c-1.9,0-3.3-0.1-4.1-0.5c-16.7-7.6-32.4-13.2-48-17.1
	c-11.8-2.9-24.5-5.7-37.6-5.7c-0.5,0-1,0-1.5,0c-3.8,0.1-7.3,0.6-10.7,1.1c-2.2,0.3-4.2,0.6-6.2,0.8c-1.1,0.1-2.1,0.1-3.2,0.1
	c-7.6,0-15.2-2.1-24.1-6.5C452.5,3,446.1,0.3,438.6,0c-0.5,0-1,0-1.5,0c0,0,0,0,0,0c-14,0-24.6,6.6-33.2,13
	c-0.8,0.6-1.6,1.3-2.3,1.9c-1.1,0.9-2.5,2-3.1,2.3c-13.8,5.2-28.2,7.9-42.8,7.9c-6.1,0-12.4-0.5-18.7-1.4
	c-10.4-1.5-20-5.9-30.3-10.6c-1.3-0.6-2.7-1.2-4-1.8c-12.7-5.7-24.7-8.5-36.8-8.5c-6.7,0-13.4,0.9-20,2.6c-4.8,1.3-9.1,3.1-13.3,4.9
	c-4.4,1.9-8.6,3.7-12.6,4.5c-30.1,6-57.9,19.6-85,41.7C121.7,67.3,108,78.5,92.7,86.8c-14.2,7.7-25.4,11.1-36.2,11.1
	c-0.8,0-1.6,0-2.5-0.1c-10.5-0.5-14-3.4-15.8-7.5c-1.8-3.9-2.5-8.8,4.3-17.4c5.9-7.4,14.3-12.4,25.6-15.2c2-0.5,4.2-0.8,6.6-1.1
	c4.5-0.6,9.7-1.2,14.9-3.6c8.8-4.1,13.8-12.2,12.4-20.4c-0.8-4.7-3.8-13.1-15.5-16.5c-3.1-0.9-6.3-1.3-9.6-1.3
	c-6.6,0-12.7,1.8-17.7,3.6c-13.6,4.7-24.7,10.9-33.8,18.8C15.3,46.2,7.8,57.3,3.2,70.2c-4.9,13.7-4.1,27.7,2.1,39.4
	c6.4,12,18,20.6,32.7,24.3c5.4,1.4,10.9,2,16.7,2c6.5,0,13.3-0.8,21.3-2.6c1.8-0.4,3.6-0.8,5.3-1.3c-3.8,16.1-11.3,31.2-23.7,47.5
	c-13.5,17.9-14.1,28-2.6,49.2c3.9,7.3,10.5,11.7,17.8,12c0.8,3.9,4.2,6.9,8.3,7.2c0.2,0,0.4,0,0.5,0c4,0,7.6-2.7,8.7-6.6
	c0,0,0.1,0,0.1,0c0.3,0.5,0.5,1,0.9,1.5c1.7,2.5,4.5,4,7.5,4c0.1,0,0.2,0,0.4,0c3.1-0.1,5.9-1.9,7.5-4.6c0-0.1,0.1-0.1,0.1-0.2
	c0.2,0.2,0.5,0.4,0.7,0.6c1.5,1.1,3.4,1.7,5.2,1.7c0.8,0,1.5-0.1,2.3-0.3c2.6-0.7,4.7-2.5,5.9-4.9c0.1-0.2,0.2-0.3,0.2-0.5
	c0.1,0,0.2,0.1,0.3,0.1c0.8,0.2,1.6,0.3,2.4,0.3c3.3,0,6.4-1.8,8-4.8c2.3-4.3,2.4-8.6,2.5-11.7c0.1-5.6-2.2-9.7-3.9-12.6
	c-0.6-1-1.2-2-1.4-2.7c-3.5-10.2-9.5-14.4-15.1-15.8c2.8-5.8,6.5-10.3,11.2-13.7c2.1-1.5,4.2-2.2,6.6-2.2c2.9,0,6.4,1.1,10.7,3.2
	c8.1,4.2,16,6.2,24.1,6.2c4.3,0,8.7-0.6,13-1.8c15.8-4.3,30.5-11.4,45.2-21.9c0.4,1.1,1,2.1,1.6,3.2c1.5,2.5,3.1,4.7,4.7,6.7
	c15.4,17.5,26.9,31.3,37.3,44.8c4.3,5.6,10.6,8.7,18.6,9.3c1.2,0.1,2.5,0.2,3.8,0.4c1,0.1,2,0.2,2.9,0.3c0.9,0.1,1.9,0.2,2.8,0.3
	c3,0.3,6.2,0.6,9.5,0.6c4,0,7.6-0.5,10.8-1.6c0.1,0,0.2-0.1,0.3-0.1c1.5,2.9,4.4,4.7,7.6,4.9c0.1,0,0.2,0,0.4,0c2.5,0,4.9-1,6.5-2.8
	c1.3,0.7,2.7,1,4.2,1c0.7,0,1.5-0.1,2.2-0.3c1.9-0.5,3.5-1.5,4.7-3c4.4-0.4,7.9-4,8.1-8.5c0-0.8,0.1-2,0.1-3.4
	c0.8,0.4,1.8,0.8,2.8,1.1c5.4,1.5,10.8,4.6,16.9,9.6c9.7,8,18.7,13.2,28.1,16.2c7.3,2.4,14.5,3.8,21.6,5.2c4.4,0.9,8.6,1.7,12.8,2.7
	c13.3,3.3,23.1,6.4,28.6,16.6c3.5,6.5,9.4,10.6,15.6,11.1c3.6,0.3,6.3,2,10.5,5.4c5.2,4.2,11.3,6.3,18.3,6.3c4.2,0,8.7-0.8,13.8-2.3
	c0.1,0.3,0.2,1,0.2,1.6c0.1,0.6,0.2,1.1,0.2,1.7c0.5,3,2.5,5.6,5.3,6.8c1.2,0.5,2.4,0.8,3.6,0.8c1.7,0,3.4-0.5,4.9-1.5
	c4.3-2.8,5.4-7.2,5.8-8.7c0.2-0.7,0.3-1.4,0.5-2.2c0.1-0.5,0.3-1.2,0.4-1.8c0.4,0,0.7,0.1,1.1,0.1c0.7,0,1.3-0.1,1.9-0.2
	c0.4,1.1,0.8,2.3,1.2,3.8c1,3.7,4.3,6.3,8.1,6.5c0.2,0,0.4,0,0.6,0c3.6,0,6.8-2.1,8.3-5.4c0.4-0.8,0.7-1.7,1.1-2.6
	c1.3,0.9,2.8,1.5,4.4,1.7c0.3,0,0.6,0,0.9,0c3.6,0,6.9-2.2,8.3-5.5c0.3-0.7,0.6-1.3,0.9-1.9c0.7-1.5,1.4-3.1,1.9-5.1
	c0.4-1.5,0.6-3,0.8-4.5c0.9-0.2,1.8-0.4,2.6-0.9c3-1.6,4.9-4.7,4.9-8.1c-0.1-4.8-0.3-19.2-14.5-27c-1.9-3.1-4.2-5.7-6.7-8
	c2.5,0.4,5,0.8,7.5,1.2c8.5,1.3,16.6,2.5,24,5.3c0.1,0,0.2,0.1,0.3,0.1c4.5,10,16.5,17.5,28,17.5c1.2,0,2.3-0.1,3.4-0.2
	c2.7-0.4,5.1-2,6.5-4.4c0.5-0.8,0.8-1.6,1-2.4c1.4,0.5,2.9,1.2,4.6,2c5.1,2.4,10.5,3.6,15.9,3.6c4.7,0,9.5-0.9,14.2-2.7
	c0,0,0,0.1,0.1,0.1c0.4,0.8,0.8,1.9,1.3,3.1c0.3,0.7,0.6,1.6,0.9,2.4c1.3,3.1,4.2,5.3,7.6,5.6c0.2,0,0.5,0,0.7,0
	c3.1,0,6-1.6,7.7-4.3c0.2-0.4,0.5-0.8,0.8-1.3c1.4,1.9,3.5,3.2,5.9,3.6c0.4,0.1,0.9,0.1,1.3,0.1c3,0,5.9-1.5,7.5-4.1
	c0.3-0.4,0.5-0.9,0.8-1.3c0.2,0,0.4,0,0.7,0c0.1,0,0.2,0,0.3,0c3.3-0.1,6.3-2,7.8-5C721.6,230.9,719.6,217.2,710.5,208.7z
	 M530.8,216.5c-0.3,0-0.6,0.1-0.8,0.1c-0.5,0-0.9-0.1-1.3-0.2c-0.6-0.2-1.2-0.4-1.9-0.6c0.6,0.1,1.2,0.2,1.8,0.3
	C529.4,216.2,530.1,216.3,530.8,216.5z M502.6,207.3c-5.5-2.2-10.7-4.4-15.7-7c3.6-1,7.1-2.2,10.5-3.6c1.1,2.2,2.2,4.3,3,6.3
	C501,204.7,501.8,206.1,502.6,207.3z M141.7,101.6c-0.3,0.9-0.6,1.7-1,2.6c-1.8,5.1-5.4,8.1-12,10.2c-1.6,0.5-3.4,0.8-5.2,0.8
	c-0.8,0-1.7-0.1-2.6-0.1c3.2-1.9,6.2-3.7,8.9-5.5C133.9,106.9,137.8,104.2,141.7,101.6z M346.7,197.9c-1.4-2.1-3.2-4.1-5.6-5.9
	l-0.8-0.6c-1.9-1.4-3.7-2.7-4.5-3.9c-3.8-5.8-9.3-8.8-16.3-8.8c-2.5,0-4.8,0.4-6.9,0.7l-0.5,0.1c-1.3,0.2-2.5,0.5-3.5,0.7
	c-1,0.2-1.9,0.5-2.4,0.5c-0.1,0-0.1,0-0.1,0c-4.9-0.7-7.9-3.1-10.8-7.7c5.9-0.8,12.1-2.4,18.1-5.4c11,10.7,23.1,18.9,36.1,24.4
	C348.6,194,347.7,196,346.7,197.9z"/>
<g>
	<path class="st1" d="M159.6,79.5c-12.2,6.5-23,15.1-34.6,22.4c-15.9,10-32.3,18.6-50.9,22.6c-11.3,2.5-22.5,3.5-33.9,0.6
		c-24.6-6.2-37-28-28.5-51.9C20.2,49.1,38.7,35.2,62.1,27c7.1-2.4,14.3-4.3,21.9-2.1c4.9,1.4,8.2,4.2,9.1,9.3
		c0.7,4.1-2.4,8.5-7.3,10.7c-6.3,2.9-13.3,2.5-19.8,4.1c-12.1,3-22.7,8.5-30.5,18.3C29.2,75.2,25.4,84,30,94
		c4.5,10,13.9,12.3,23.6,12.8c15.7,0.8,29.9-4.8,43.4-12.1c15.8-8.6,29.8-19.9,43.7-31.2c24-19.5,50.4-33.8,81.1-39.8
		c9.2-1.8,17.4-7.1,26.5-9.5c17.6-4.7,34.4-2,50.8,5.3c11.9,5.3,23.6,11.2,36.7,13.1c22.6,3.3,44.6,1.1,65.9-7
		c2.8-1.1,5.2-3.5,7.7-5.4c8.6-6.5,17.7-11.6,29-11.2c5.6,0.2,10.6,2.2,15.5,4.7c10.1,5,20.6,8.2,32,7.3c5.4-0.4,10.9-1.7,16.3-1.8
		c12.5-0.2,24.7,2.4,36.7,5.4c16,4,31.5,9.7,46.5,16.6c4.7,2.1,9.8,0.7,14.7,1.6c16.9,3,31.4,10.5,43.7,21.9
		c6.7,6.2,14.7,10.8,21,17.5c3.9,4.1,5.8,8.3,3.6,13.8c-1.7,4.3,1.6,6.6,4.1,8.7c5,4.4,9.4,9.4,12.6,15.2c3.1,5.6,4.2,10.8-0.4,16.5
		c-2.7,3.4-2.6,8.5-5.4,12.1c-3,3.7-5.2,8.2-10.8,8.7c-1.5,0.1-2,1.6-2.8,2.6c-3.7,4.3-7.9,8.1-13.3,10.2c-2,0.8-4,1.4-6.5,0.7
		c0.9-3,4-4.4,5.3-7c0.5-1,2.2-2,0.6-3.3c-1.1-0.9-2.8-1.1-3.6,0.1c-2.1,2.9-6.5,3.9-5.4,9.6c0.9,4.7-2.2,9.7-5.9,13.6
		c-3.6,3.8-1.8,10.7,3,12.1c11.5,3.2,22.9,5.1,34.5,0.4c5.5-2.2,10.8-1,15.1,3.2c5.2,5.1,9.6,10.9,14.9,15.9
		c6.7,6.2,7.2,15.7,3,24.2c-2.1-3.5-1.8-8.4-6.2-11c-0.2,5.8,0.5,11.3-2.8,16.4c-0.9-3.1-1.8-6-3.4-8.6c-1.1-1.8-2.2-4.9-4.3-4
		c-2.4,1.1-6.9,1.3-5.7,6.3c0.6,2.8-0.6,5.5-2.2,8.1c-0.9-2.3-1.6-4.5-2.7-6.5c-3.4-6.2-4.7-6.6-11.1-4.2
		c-7.8,2.9-15.5,2.9-23.1-0.6c-4.4-2-8.7-4-13.7-3.5c-2.4,0.2-5.5-0.5-6.7,2c-1.3,2.6,2.5,3.4,3.3,5.5c-8.3,1.1-18.8-4.4-22.1-12.3
		c-1.1-2.6-2.7-3.6-5.2-4.6c-11.4-4.4-23.5-5.2-35.3-7.3c-11.2-2-22-5.7-33.3-7.6c-4.7-0.8-9.4-1.9-14.3-1.7
		c-4.6,0.2-7.8-1.5-9.6-6.1c-1.7-4.3-4-8.3-6.2-12.4c-0.6-1-0.9-2.8-3.2-1.6c-10.8,5.7-22.4,8.4-35.3,8.3c3,5,7.2,7.8,11.3,10.2
		c15.9,9.1,33.2,15.1,50.7,20.5c6,1.9,11.4-1.2,16.9-2.4c1.8-0.4,3.6-1.1,5.3-0.1c6.7,4.2,13.6,8.3,17.7,15.4
		c0.7,1.3,1.7,1.8,2.9,2.5c7.4,4,9.7,10.7,9.9,19.2c-2.9-2.1-4.3-5.4-8.1-5.6c0.4,5.7,1.4,11.3,0.1,16.8c-0.4,1.7-1.3,3.3-2.3,5.7
		c-0.9-4.4-1.8-8-4.3-10.9c-0.9-1-1.4-3.6-3.1-2.2c-1.7,1.3-5.1,1.6-4.4,5.1c1,5.1-0.9,9.6-3,14.3c-1.1-4-2.4-7.7-5.1-10.8
		c-1.4-1.5-2.7-3.1-4.7-0.6c-0.5,0.6-1.5,1.3-2.1,1.2c-8.9-1.7-9.2,5-10.6,10.7c-0.3,1.3-0.8,2.5-2,3.3c-0.2-1.5-0.3-3-0.7-4.4
		c-2.1-7.1-4-8.3-10.9-6.1c-8.4,2.6-17,3.5-24.1-2.3c-4.7-3.8-9.1-6.9-15.4-7.4c-3.6-0.3-6.7-3.3-8.5-6.5
		c-7.5-13.7-20.7-17.6-34.4-21c-11.2-2.8-22.7-4.2-33.8-7.8c-9.5-3.1-17.6-8.4-25.2-14.6c-6.1-5-12.6-9.2-20.2-11.3
		c-2.7-0.8-2.2-1.5-1.3-3.3c2-4,3.7-8.1,5.7-12.1c1-2,1-3.1-1.6-3.9c-16-5.5-29.5-14.8-41.3-26.8c-1.7-1.7-2.9-2.7-5.4-1.1
		c-8.3,5-17.6,6.4-27.1,6.9c-1.6,0.1-3.9-0.3-2.6,2.5c4.5,10.3,9.3,20.3,22.3,22.3c3.2,0.5,5.8-0.8,8.7-1.2c5.6-0.8,11-1.9,14.9,4.1
		c1.8,2.8,4.6,4.7,7.4,6.8c5.3,3.9,6.4,9.9,6,16.5c-2.2-0.1-2.2-2.7-4.5-2.8c-0.5,1.8-1,3.7-1.6,6c-2-2.1-2.5-6.1-6.1-5.4
		c-3.2,0.6-3,4.3-4.7,7.2c-2.6-5.5-5.6-6.2-11.2-4.3c-6,2-12.9,0.8-19.3,0.2c-2.3-0.2-4.6-0.5-6.9-0.7c-4.8-0.3-9-1.8-12.1-5.8
		c-12-15.5-24.7-30.5-37.6-45.2c-1.4-1.6-2.7-3.4-3.7-5.3c-3.3-5.7-2.2-9.6,3.5-12.7c2.3-1.2,4.7-2.3,7-3.6c2.1-1.2,3.7-2.9,3.5-5.6
		c-0.2-1.9-1.4-3.1-3-3.7c-2.6-1-3.8,1.4-5.3,2.8c-18.2,17-38.3,30.8-62.7,37.4c-10.9,3-20.8,1.3-30.7-3.7
		c-8.7-4.5-17.9-6.6-26.6-0.3c-8.7,6.3-14,15.2-17.3,25.4c-0.9,2.9,0.2,4.6,3.5,4.2c8.1-1.1,12,2.9,14.5,10.2
		c1.4,4.1,4.9,7.4,4.8,12.2c-0.1,2.7-0.2,5.3-1.4,7.7c-0.2-0.1-0.6-0.1-0.7-0.3c-1.2-1.6-1.1-4.8-3.8-4.6c-2.5,0.2-3.4,2.8-4.2,5
		c-0.6,1.7-1.5,3.3-2.4,5.2c-2.5-1.8-0.5-8.3-6.9-5.5c-3.8,1.7-5.2,4.7-7.1,8c-1.5-2.2-1.3-7.1-3.2-6.4c-4.8,1.8-12.1-0.7-13.8,7.5
		c-0.5-5.1-2.3-7.4-7.7-7.2c-4.7,0.2-8.6-2.9-11-7.3c-10.1-18.6-9-25,1.9-39.4c11.9-15.6,21-32.3,25.4-51.5c0.6-2.7,1.6-5.4,3.3-7.7
		c3.5-4.8,7.7-6.5,13.4-4.8c8,2.4,16.1,4.6,24.4,2c8.2-2.5,14.7-7,17.9-15.7c3.3-9.1,7.3-18,11-27c0.5-0.2,0.8-0.5,0.5-1
		C160.6,79.1,160,79.4,159.6,79.5z M549.9,237.9L549.9,237.9c-0.3-0.3-0.6-0.6-1-1c0,0,0,0,0,0c-0.3-0.3-0.7-0.7-1-1l0,0
		c-0.4-1-1-1.7-2-2l0,0c-0.5-0.7-0.8-1.8-2-1l0,0c0.4-1.1-0.4-1.1-1.1-1.2c-3-2-6.3-1.5-9.8-1.2c8.2,12,10,12.9,19.9,11
		c-0.7-0.8-1.4-1.7-2.1-2.5C550.9,238.2,550.5,237.9,549.9,237.9z M275,63.1c0.1,0,0.3-0.1,0.4-0.1c0.1,0,0.1-0.2,0.1-0.3
		C275.4,62.8,275.2,62.9,275,63.1c-0.1,0.1-0.2,0.1-0.3,0.2c-0.1,0,0,0.2-0.1,0.3C274.8,63.3,274.9,63.2,275,63.1z M255,98
		c-0.3,0.3-0.7,0.7-1,1c-2.7,0.5-4.4,2.7-6.6,4c-3.6,2.2-5.6,6.6-10.3,7.1l-0.2-0.2c5.6-7.4,11.4-14.8,14.8-23.5
		c4.5-11.7,9.2-23.5,0.3-35.4l0,0c15.5,7.1,30-1.2,45.1-2.9c-7.3,3.6-14.5,6.9-19.6,13.4c4.4-1,8.5-2.6,12.7-3.7
		c7.9-2.1,15.9-3,24-0.3c1.9,0.6,3.3,1.1,2.2,3.7c-6.1,14.4-4.8,28.7,0.8,42.9c1.1,2.8,2.3,5.6,5.2,7.6c0.5-2.8-1.7-4.7-0.8-8.1
		c5,9,11.3,15.8,20.4,19.3c0.1,0.1,0.1,0.2,0.2,0.3c0,0.1,0.2,0,0.2,0.1c-0.1-0.1-0.3-0.2-0.4-0.4c0.3-3.9-3.6-6.9-2.6-11.5
		c4,4.7,8.1,8.7,13.6,11c6.2,2.6,8.2,2.2,11-3.8c4.7-10.2,7.9-21.1,11.9-31.6c2-5.4,3.1-11.3,6.8-16.2c-0.1,6.9,0.8,13.6,2.2,20.2
		c0.5,2.6-0.3,5.3,1.1,7.8c0.6,1.1,1.3,2.1,2.6,1.9c1.5-0.2,2.3-1.3,2.4-2.8c0.2-4.8,0.8-9.6,0.6-14.3c-0.6-10.2,2.9-19.1,6.7-28
		c0.2-0.4,1.1-0.5,1.7-0.8l0.1,0.1c0.6,16.1,12,28.2,15.5,43.8c7.1-7.4,10-16.2,13-24.9c0.9,10-1.1,19.3-5.1,28.3
		c-4.2,9.6-11.1,17.8-14.5,27.8c-1.2,3.5-1.5,7.3-3.7,10.4c-1.3-0.6-1.1-1.5-1.1-2.3c-0.4-7.7,1.3-15.2,2.6-22.7
		c0.2-1.1,0.7-2.4-0.4-3.2c-1.1-0.8-2.3,0-3.2,0.6c-2,1.4-4.1,2.8-6,4.5c-17.6,16.1-18.5,37.4-18.4,60c8.6-8.4,14.7-17.7,19.6-27.8
		c-0.2,6.2-1.3,12.1-3.6,18.8c4.1-2.4,7.2-3.8,10.6-4.8c7.1-2.1,7.1-2.2,4.8-9.2c-0.1-0.2,0.2-0.6,0.5-1.1c4.7,4.6,9.9,8.3,16.7,7.4
		c33.1-4.3,49.1-40,45.2-64.5c-1.7-10.6-6.1-19.7-12.8-28.1c8.1,4.4,14.7,10.4,20.8,17.3c-0.1-6-4.2-10.6-4.7-16.3L476,69
		c2.3,0.7,4.6,1.4,6.9,2.1c0.1,0.1,0.3,0.1,0.4,0.2c-0.1-0.1-0.3-0.1-0.4-0.2c0.2-4.5-4.7-6.7-5.1-10.9L478,60
		c6.2,2.7,11.9,6.5,18.6,8.2c11.1,2.9,22.6,2.8,33.8,5.4c3.3,0.8,2-1.5,1.7-2.9c-1.5-7.7-2.2-15.4,0.4-23.1c1.1-3.1,2.5-4.4,5.9-3
		c5.8,2.3,12,3.1,18.1,2.3c4.5-0.6,9.7,0.5,13.5-3.4c1.7,0.2,3.5,1.7,5.1-1.1c-9.9-3.8-19.5-8.2-29.7-10.8
		c-13.9-3.6-27.9-7.9-42.4-7.2c-10.2,0.4-20.5,1.8-30.8,1.8c-1.9,0-3.6-1.9-5.7-0.4c0.1,2.1,1.9,3,3.2,4.1c4.4,3.6,9.6,4.1,15,4.3
		c7.3,0.3,14.5,1,21.4,3.8c-9-2.1-17.8-0.5-26.7,0.1c-2.8,0.2-5.1-1-7.5-2.1c-1.7-0.8-2.9-4-4.8-2.3c-1.4,1.2,0.6,3.6,1.1,5.4
		c0.3,1.3,0.8,2.5,1,3.8c0.3,1.5-0.7,2.1-2,2.1c0.1-1.1,0.5-2.4-0.9-3.1l0.1,0.1c-3.4-8.6-8.5-16.1-15.4-22.2
		c-6.4-5.7-13.9-7-22.2-4.1c-12.8,4.5-22.3,13.2-30.8,23.3c-4.3,1.8-6.9,5.5-9.4,9.1c-1.3,1.9-2.4,2.9-5,2.6
		c1.3-2.3,2.5-4.3,3.5-6.3c0.4-0.9,0.6-2.1-0.3-2.7c-0.5-0.3-1.6,0-2.3,0.3c-14.9,6.2-30.4,6.2-46,3.9c-6.3-0.9-12.6-2.1-18.3-5.6
		c2.9-0.1,5.7-0.4,8.2-1.6c0.6-0.2,1.2-0.8,1.4-1.3c0.2-0.7-0.4-1.2-1.2-1.3c-4.2-0.6-7.9-3.4-12.3-3.1c-1.1,1.8,1.9,3.4,0,4.6
		c-1.8,1.1-3.6-0.3-5-1.2c-3.7-2.4-7.3-5-11-7.6c1.3,0,3.1,1.3,3.8-0.7c0.5-1.2-1.1-1.5-1.9-1.9c-25.3-13.2-50.4-13-75.1,1.8
		c-3.3,0-4.3,3.4-6.9,4.6c-8.8,4-16.3,10.1-23.9,16c-2.8,2.2-6.4,3.9-8.2,8.9c15-6.9,29.8-10.1,45.2-11.3c-0.1,1.5-1,1.7-1.7,2
		c-12.1,6.7-22.7,15.6-32.9,24.8c-15.3,13.9-28.1,30.1-39.3,47.5c-1.1,1.7-2.2,3.5-4.6,4.2c0.2-1.1,0.3-1.7,0.4-2.4
		c0.2-2.4-0.2-5.2-2.6-6c-3.1-1.1-3.2,2.7-3.8,4.1c-2.4,5.6-3.5,11.2-11.6,12.1c-5.6,0.6-10.9,3.7-16.7,4.4
		c-1.5,0.2-3.1-0.1-3.3,2.1c-3.1-0.6-6.2-1.1-9.3-1.8c-3.7-0.9-5.6,0.7-6.5,4.2c-0.9,3.2-2,6.3-3.1,9.4c-0.3,0.8-0.4,1.7-0.8,2.3
		c-9.7,13.6-17.2,28.6-28.2,41.4c-6.5,7.7-4.7,18,3.3,24.2c1.1,0.9,2.5,1.6,3.6,0.9c2.4-1.5,5.9-3.2,6.3-5.3
		c0.6-2.8-1.7-5.9-4.6-7.6c-1-0.6-2-1.1-3.1-1.7c-0.7-0.4-1.6-0.9-1.2-1.9c3.1-6.9,5.1-14.5,12-18.9c1.9-1.2,3.1-2.7,4-4.8
		c3.7-9.1,9.4-16.3,19-19.8c1.3-0.5,2.7-0.7,3.6-2.3c3.6-5.9,16.6-8.6,22.4-4.9c8.7,5.7,18.5,7.9,28.6,6c18.4-3.4,32.7-13.9,45-27.5
		c3.6-4,6.4-8.9,11-12.1l0,0c-0.9,6.7-6.3,11.3-8.7,17.3c1,0.6,1.5,0.2,2-0.3c9.9-9,19.8-18,30.8-25.8c4.2-3,8.9-5.9,10.9-11.2
		C254.4,98.7,254.7,98.4,255,98c0.2-0.1,0.3-0.3,0.5-0.4C255.3,97.7,255.2,97.9,255,98z M187.1,65.1c0.9,0,1.6-0.1,2-1
		c0.4-0.1,0.9-0.2,1.3-0.3c-0.1-0.1-0.2-0.3-0.3-0.4c-0.4,0.2-0.7,0.5-1.1,0.7C188.3,64.1,187.5,64.2,187.1,65.1c-0.8,0-1.6,0.2-2,1
		c-12.4,5.1-19.5,14.8-24,26.9c-0.2,0.4-0.5,0.8-0.7,1.2c0,0,0.2,0.2,0.4,0.3c0.2-0.4,0.3-0.9,0.5-1.3c2.7,4.2,3.6,1.6,5.1-1.1
		c4.8-8.1,9.5-16.4,16.8-22.7c1-0.9,2.1-1.7,2-3.3C186,66.1,186.7,66,187.1,65.1z M464,202.9c-0.4-0.8-0.8-1.8-2-1l0,0
		c0.1-2.1-1.5-2.5-3-3l0,0c-6.3-7.4-13.6-13.9-21-20.2c-4.9-4.1-10.5-6.8-16.7-8.4c-7-1.7-13.9-2.3-20.4,1.6
		c-8.3,3-12.2,6.7-13.1,12.5c26.4-4.6,48,6.5,68.6,20.9c-5.6-0.8-10.3-4.1-15.4-6.3c-2.4-1-4.9-2.5-7,0.5c-2.3-0.9-4.6-1.8-7-2.7
		c-2.8-3.5-7.3-5.1-11-5.5c-8.3-0.9-16.7-0.3-26-0.3c1.1,1.4,1.6,2,2.1,2.6c10.3,10.4,23,15.1,37.4,16.4c9.5,0.9,18.6,3.3,26.6,9
		c1.9,1.4,4,2.7,4.6,5.8c-9.3-1.3-18.1-4-27.2-1.8c3.7,1.8,7.4,2.9,11.2,4.2c11.3,4.1,22.5,8.1,29.8,18.6c1.7,2.4,4,4.4,6.7,5.8
		c2.5,1.4,5.4,3.3,7.9,1.6c2.4-1.6,0.5-4.6,0-6.9c-0.1-0.5-0.1-1-0.1-1.5l0,0c3.4,2.1,5.3,5.5,6.8,9c1.4,3.3,3.3,6.2,6.1,8.3
		c3.5,2.7,5.6,2,7.1-2.1c1.3-3.4,2.1-7.1,5.8-8.9c0.7-0.4,1.8-0.3,1.8-1.4c0-1.2-1.1-1.5-2.1-1.8c-4.5-1.5-8.9-2.3-13.3,0.3
		c-1.7,1-3.6,2.5-6.5,0.5c6.3-1.7,3.5-4.6,1.4-7.1c-2-2.5-3.7-5.2-5.1-9.1c1.6,0.9,2.3,1.3,2.9,1.7c4.2,2.4,8.4,4.7,13.2,5.5
		c1.7,0.3,3.4,0.4,4.4-1.3c1.1-2-0.9-2.4-1.8-3.5c-1.2-1.4-3.2-2.2-3.5-5c1.8,0.7,3.3,1.1,4.4,1.9c3,2.3,6.3,1.3,9.5,1
		c1.2-0.1,2.3-0.6,2.6-2c0.3-1.6-1-1.8-2-2.2c-16.3-6.6-32.5-13.2-48.8-19.8c-0.8-2.4-2.9-3.1-4.9-4l0,0
		C466.3,203.8,465.4,203,464,202.9L464,202.9z M648,114.5c0.8-0.9,0.8-1.8-0.4-2.4c-1-0.5-2.1-1.2-2.7,0.5c-1.8-0.4-3.7-0.8-5.5-1.2
		c-2.2-0.4-4.2,0.4-5,2.3c-1.1,2.5,1.9,2.5,3,3.7c4.2,4.5,11.2,6.2,13.1,13.5c-2.1-0.7-3.9-1.2-5.7-1.8c-0.9-4.7-4.8-6.2-8.6-7.7
		c-6.4-3-6.4-3-9,1.2c6.3,3.5,12.6,6.9,17.3,12.6c-1.8-0.4-3.4-1.3-4.9-2.2c-1.8-1.1-3.5-1.1-4.8,0.7c-1.7,2.4,0.9,2.9,2,3.5
		c2.1,1.3,4.5,2.2,6.7,3.2c1.2,0.6,2.3,1.2,3.5,1.8c-2.3,2.6,0.5,2.5,1.6,2.7c5.4,0.6,10.6,0,15.6-2.2c4.3-1.9,4.7-4.7,1.7-8.1
		c-3.6-4-6.5-8.2-8.1-13.5c-1.6-5.3-4.9-7.2-9.4-6.2C648.2,114.8,648,114.6,648,114.5z M647.5,88.9c0.1-3-2-4.7-3.8-6.7
		c-0.3-1-0.7-2.1-1-3.1c4.7,1,7.6,4.1,8.9,8.4c0.7,2.6,1.6,5.3,4,5.7c2.6,0.5,1.2-3.6,3.1-4.6c0.8,0.4,1.3,1.1,1.3,1.9
		c0.1,2.1,0.4,4.8,2.5,4.7c1.9-0.2,3-2.8,2.8-5.2c-2.1-6-7.5-9-11.9-12.9c-0.4-0.4-1.3-0.1-1.4,0.8c-3,0.2-4.5-1.9-6.1-3.9
		c-0.4-2.5-2.6-3.7-4.3-5.3C622.5,51,600,43.9,574.1,47.2c-3.6,1-7.9,0.6-10.3,4.4c6.6,2,13.1,3.9,19.8,7.1c-8.3,1,1,4.1-1.5,6
		c-1.2-0.2-2.7-0.4-4.1-0.5c-0.3-0.6-0.4-1.4-0.9-1.7c-9.9-7.2-21.8-5.9-33-8.1c1.6,2.7,4.7,2.1,6.6,3.9c5.5,8.9,13.5,12.8,24.1,12
		c-1,1.3-3.3,0.7-3,2.9c0.5,3.3,3.7,0.9,5.1,2.4c-0.7,0.9-1.4,1.8-2.1,2.6c-0.1,0.1-0.2,0.3-0.2,0.4c0.1-0.1,0.1-0.3,0.2-0.4
		c4.5,0.2,7.5-4.1,12-4c0,0,0.1,0.1,0.1,0.1c-4.2,4-8.4,8-12.6,12c-8.4,8.2-13.8,26.3-7.5,37.7c3.5,6.3,8.2,11,16,13.3
		c-3.3-10.7-12.3-19.3-7.4-30.9c0.5,6.6,2,12.8,5.6,18.6c2.8-2.7,1-6,3.1-9.2c1.1,4.4,4.8,6,6.2,9c1.3,2.9-1.7,6.5,0.2,9.9
		c3.1-3.4,5.5-7.2,10.4-9.7c-1.1,4.5-4,7.5-3.8,12.2c3.4-3.6,4.5-8.2,8-10.4c7.2-4.5,11.6-11.8,17.8-17.2c0.7-0.6,1.8-1.3,1.2-2.4
		c-0.5-1.1-1.7-0.7-2.7-0.8c-1.2-0.1-2.4-0.2-3.5,0c-3.3,0.5-5.1-0.6-5.9-4.1c-1.3-5.7-3.3-11.2-9-14.4c-0.5-0.3-1-1.1-0.9-1.6
		c0.3-1.3,1.6-0.9,2.5-1c2.3-0.4,6.1-0.1,6.2-2.4c0.1-2.1-3.7-1.9-5.8-2.7c-0.2-0.1-0.2-0.5-0.3-0.7c13.3-1.6,24.9,2.3,34.8,11.3
		c1.6,1.4,3.2,3,5.7,1.8C648.3,92.4,647.8,90.6,647.5,88.9z M621.9,181.9c8.7,4.4,14,2,16.7-8c-4.5,4.7-9,8.8-15.8,6.1
		c-0.3-2.7,2.5-4.8,1.7-8.1c-2,1.8-3.5,3.6-5.4,4.9c-1.9,1.3-4,2.3-6,3.4c-3.2,1.6-1.6,3,0.2,4.2C617,186.6,619.2,183.3,621.9,181.9
		z M550.9,168.3c2.4-2.3,4.2-5.1,5.7-8c1-1.9,0.9-3.6-2-3.3c-1.9,0.2-4-0.8-5.6,1c-2.7,7.1-5.4,14.1-9.7,20.6
		C544.3,176.2,548.4,173.2,550.9,168.3z M634.8,168c5.9-3.6,11.1-7.8,13.3-14.9c-7-2.1-7.1-2.1-8.7,4.2
		C638.5,161.3,636.5,164.6,634.8,168l0.1,0.1L634.8,168z M576.9,154c0.1,0.1,0.3,0.3,0.4,0.4C577.2,154.3,577.1,154.1,576.9,154
		c-1.1-2.4-3.3-3.6-5.5-4.8c-6.4-3.7-12.6-7.7-15-15.3c-1.4-4.4-1.6-9.1-1.8-13.7C552.4,139.1,560.2,150.7,576.9,154z M537.2,241.9
		c-4.9-4.9-9-5.8-14.3-3c-2.7-0.2-4.5,1.4-7.3,3.1c6.6,3.1,11.4,7,13.8,13.4c0.2,0.6,0.8,1.1,1.3,1.5c1.2,1,2.3,0.9,2.3-0.8
		c0.2-4.3,2.9-7.3,5-10.6C538.8,244,540,242.6,537.2,241.9z M570.9,170c-2.4-2-4.5-4.3-7.1-6c-3.9-2.5-3.8,2.3-5.7,3.6
		c-1.2,0.7-1,1.7,0.6,2.5c8,4.1,15.1,9.6,22.5,14.7c1.7,1.2,3.7,3.2,5.8,1.8c2-1.4,1-3.9,0.5-6C582.7,175.8,577.4,171.9,570.9,170z
		 M680.8,122c-0.3-3.4-1.1-6.4-4.9-7.5l0.2-0.2l-0.1-0.2c-0.3-0.3-0.6-0.6-1-0.9c-1-1.4-1.9-2.8-2.9-4.2c-1.9,1.8-0.2,4-2.1,5.6
		c-5.6-4.4-10.7-10.2-20-8c6.9,2.9,11.6,7.1,13.1,14c0.3,1.2,1.3,1.4,2.3,1.4c4.7,0.2,8.6,2.4,12.4,4.7c1.7,1.1,3.3,2,4.8,0
		C684.2,124.5,682.6,123.2,680.8,122z M143.9,161.6c-1.6-1.5-3.2-2.9-6.1-3.3c1.9,2.9,4.3,4,6.3,5.5c21.1,13,50.8,6.4,64.6-14.6
		c-2.9,0.1-5.6,0.8-7.4,2.5c-6.3,6.1-14.4,8.9-22.2,11.9C167.2,168,155.3,167.6,143.9,161.6z M614.9,200.9c3.8,0.6,5.9-3.4,9.2-3.7
		c0.5,1.4-1.6,2-0.1,3.5c3.4-2.2,6-4.9,7.2-9c0.7-2.3,0.1-3-2.3-2.9c-4.2,0.1-8.3,0.2-12.5,0.1c-3.9-0.1-7.2-1.3-9.9-4.7
		c-3-3.8-4.4-8-5.7-12.5c-0.3-1-0.5-2.3-1.6-2.2c-1.7,0-1.2,1.7-1.3,2.7c0,3.8-0.2,7.7,0.1,11.5c0.4,4.4,2.1,9.3,6.3,10.6
		c4.6,1.5,5,2.5,1.3,5.5c3.1,0.7,5.3-0.6,7.6-1.4C616.7,197.2,615.5,199.4,614.9,200.9c0,0.2-0.1,0.3-0.2,0.4
		C614.7,201.2,614.8,201.1,614.9,200.9z M498.9,145c19.2-3.8,37.9-0.3,56.3,4.8c-4.4-7.7-9.8-13-19-14.5
		C522.1,132.9,509.5,134.6,498.9,145c-0.2,0.1-0.5,0.2-0.7,0.3c0.1,0.1,0.2,0.2,0.3,0.4C498.7,145.4,498.8,145.2,498.9,145z
		 M496.8,180c2.3-1.2,5-1.1,7.2-2.9c5.8-4.7,11.8-9.1,17.5-13.8c1.4-1.1,3.5-2,3.3-4.4c0.4,0,0.8,0,1.3-0.1c0-0.2,0-0.3,0-0.5
		c-0.4,0.2-0.8,0.4-1.2,0.6c-10.2,5.1-19.9,11.3-30.9,14.6c-5.1,1.6-10.3,3.1-16.5,3.7c2.9-3.6,5.4-6.4,7.4-9.5
		c2-3,3.6-6.4,3.9-10.9c-8.5,11.6-19.3,19.1-30.9,25.8c-1.2,0.7-3.4,0.9-3,2.7c0.4,1.5,2.1,2.8,3.8,2.8c3.7,0.1,7.5,1,11.2-0.4
		C479.8,188.3,488.9,186.1,496.8,180z M658,204.2c0.2-0.2,0.4-0.4,0.5-0.7c0-0.1-0.1-0.4-0.2-0.4c-4.1,0.1-8-1.5-12.1-0.9
		c-3.7-0.2-7.3-1.5-10.7-2.7c-0.9-0.3-1.5-1.2-2.5-0.4c-0.9,0.8-0.3,1.5,0.1,2.2c1.8,3.4-0.4,4.8-3,5.3c-2.3,0.4-4.3,1.4-6.5,2.3
		c-3.4,1.3-6.6,1.9-10.4-0.2c-2.6-1.4-6.1-1.9-10.6-1.2c3.8,3.8,6.2,7.7,8.3,11.8c0.4,0.9,1,1.8,1.7,2.5c2.9,2.6,6.2,3.7,10.1,3.1
		c3-0.5,3.4-2.6,3.3-5.1c0-0.9,0.6-1.6,1.6-1.6c3.4-0.2,4.8-2.3,4.7-5.5c2.3,0.3,3.7,1.5,5.3,2.4c4.7,2.8,9.4,5.7,14.2,8.3
		c4.1,2.3,7.6,1.2,10.4-2.6c1.9-2.6,4.1-4.8,6.8-6.3c-5.5-6.7-13.5-2.9-20.3-4.7C651.2,206.4,655.7,207.3,658,204.2z M362.9,179.1
		c0.6-3.2,3.7-7.5-1.2-9.1c-21.7-7-38.8-20-52.1-38.3c-5.1-7.1-11.6-12.8-19.6-16.5c-7.5-3.5-15.2-4.9-24.5-1.4
		c11,0.8,20.8,1.2,29.2,7.2c-10.1-1.8-20.2-2.3-31.1,0.9c5.2,0,9.2,0.8,13.3,1.8c15.1,3.9,26.4,13.6,36.9,24.4
		c11.3,11.7,23.1,22.6,38.3,29c2.2,1.9,5,2.6,7.5,3.6C360.9,181.1,363.1,182.2,362.9,179.1z M208.1,32.1c-7.9,1.5-15.2,4.7-22.5,7.9
		c-18.5,8.3-34.3,20.7-50.1,33.2c-16.6,13.1-33.6,25.6-53.7,33c-13,4.8-26.2,6.9-40,2.9c-9.4-2.7-17.1-10.7-17.7-19.4
		c-0.7-12.2,3-23.3,11.4-32.3c10.2-11,24-14.7,38.2-17.4c4.2-0.8,9.5,0.5,12.4-4.4c3.1-2.4,2.2-4.3-0.8-5.9
		c-2.2-1.2-4.6-1.7-7.2-1.6C65.3,28.3,54,32.9,44.1,41.1c-1.8-0.2-3.2,0.6-4.6,1.5C29,49.6,22.1,59.6,16.6,70.7
		c-0.5,0.9-0.1,2.2-0.1,3.5c2.4-1.6,2.9-4.5,5.5-5.2l0.2,0.2c-0.6,1.5-1.3,3-1.9,4.6c-7.5,18.8-0.9,33.5,17.5,40.4
		c10.5,3.9,21.2,3.7,31.8,1.2C87,111.1,103,103.5,118,93.7c27.3-17.6,52.1-38.9,80.8-54.4C202.1,37.6,205.9,35.7,208.1,32.1
		c0.3-0.3,1.3,0.4,1-0.7C208.8,31.6,208.4,31.9,208.1,32.1z M299.9,97c1.8-2.3,1-4.6,1.4-6.6c2-9.1,4.9-17.9,10.3-25.7
		c0.6-0.9,1.6-1.9,0.8-3.1c-0.3-0.4-1.3-0.6-1.8-0.4c-6.5,2-13.2,3.6-18.4,8.4c-1.9,1.7-3.5,5.1-1.5,6.6c3.7,2.6,3.2,6.3,4.4,9.5
		C296.5,89.4,297.1,93.4,299.9,97z M612,163.6c0.3-3.8,0.6-6.6,0.8-9.4c0.2-2.7-1-4.8-2.4-6.9c-0.5-0.7-1.2-1.3-2.1-0.9
		c-1.1,0.4-1.5,1.3-1.1,2.4c1.7,4.7,0.4,9.2-0.8,13.7c-1.3,4.9,0.3,8.9,3.8,12.2c2.2,2.1,4.6,1.4,6.9,0c2.1-1.3,3-2.9,1.8-5.4
		c-1.3-2.7-0.9-5.5-0.5-8.3c0.4-3.1,0.4-6.3,0.5-9.4c0-1-0.2-2.2-1.4-2.3c-1.3,0-1.4,1.2-1.4,2.2C616.2,155.6,614.1,159.1,612,163.6
		z M629.1,170.8c4.3-4.9,6.6-10.5,7.7-16.6c0.6-3.4-0.6-6.5-3.7-7.9c-3.4-1.5-5,1.6-6.6,3.8c-3.1,4.5-4.2,9.6-4.4,15
		c0,1.2,0,2.5,1.3,2.9c1.1,0.3,1.8-0.8,2.2-1.6c0.4-0.8,0.9-1.4,1.8-1.2C628.8,166.6,628.1,168.6,629.1,170.8z M441.4,173
		c3.6,6.7,7.7,8,13.1,4.7c7.9-4.7,13.5-11.7,18.2-19.4c1.8-3,4-6,3.9-11C467.3,160.1,458.5,172.1,441.4,173z M109,164.9
		c0-1.7-1-1.9-2.3-1.6c-4.6,0.8-14.3,12.2-14.4,16.8c0,1.9,1.4,2.9,2.4,4.2c0.4,0.6,1.2,0,1.6-0.6c4.1-5.8,8.2-11.7,12.2-17.5
		C108.7,165.8,108.8,165.3,109,164.9z M270.9,166c4.2,6.9,7.3,13.6,12,19.1c2.8,3.2,5.5,6.8,9.7,8.5c0.9,0.4,2.1,0.7,2.8-0.2
		c0.9-1.1-0.2-1.7-1.1-2.3c-7.5-5.3-11.8-13-15.8-20.8C277,167.3,275.2,166.1,270.9,166z M529.7,275.6c-0.7-7.2-1.7-12.8-6.4-16.9
		c-1.9-1.6-4.2-2.6-6,0c-1.5,2.3-2.5,5.1,0.5,7C521.8,268.2,525.2,271.5,529.7,275.6z M97.4,213.6c-1.2-5.2-4.3-7.8-8.8-9
		c-1.9-0.5-4-3.1-5.8-0.6c-2,2.8,1.3,3.9,2.7,5.5c1.6,1.9,3.4,3.6,4.5,5.9c0.7,1.4,1,3.9,3.1,3.1C95.2,217.8,96.5,215.4,97.4,213.6z
		 M552.9,271.1c0.5-7.9-2.5-13.1-7.2-17.6c-1.1-1-3-2.5-4.1-0.2c-1.4,2.9-2.5,6.3,0.8,8.5C546,264.2,549,267.3,552.9,271.1z
		 M663.4,206c0.5,1.5,2.3,1.1,3.2,2c1.1,1,2.5,1.7,3.6,2.7c6.6,5.8,6.6,5.9,13.4,0.2C669.8,203.1,669.6,203.1,663.4,206z
		 M567.9,264.2c0.4-8.1-2.8-13.3-7.9-17.5c-1.1-0.9-3.2-2.6-3.8,0.2c-0.7,3.5-1,7.4,2.8,9.8C562,258.6,564.6,260.8,567.9,264.2z
		 M666.9,125c-0.7,0.5-2.6-0.6-2.5,1.2c0.1,1.7,1.6,3.2,3.3,3.3c4.3,0.4,5.7,2.8,5.3,6.8c-0.1,0.9-0.2,2.1,1.2,2.3
		c1.7,0.3,8.3-4.7,8.4-6.5c0.1-3.5-3.2-1-4.5-2.3c-0.7-0.7-1.7-1-2.5-1.6C673,126.3,670.1,125.6,666.9,125z M586.1,172.2
		c-1.5-7.3-12.4-16.3-18.5-16.2c-1.1,0-2,0.4-2.4,1.4c-0.5,1.2,0.6,1.8,1.4,2.3C572.8,163.8,579.2,167.8,586.1,172.2z M95.1,204.3
		c6.1,4.9,7.5,10.9,9.3,16.9c0.3-4.3,6.6-6.8,3.3-11.7C105.3,205.7,101.7,203.6,95.1,204.3z M680.9,230.9c-1.3-3.4-2.7-7-6-9.4
		c-1.4-1.1-3.2-2.6-4.6-0.2c-1.3,2.1-2.6,4.6,0.5,6.5c2.5,1.6,5.1,3.1,7.7,4.6C680.1,233.4,680.9,233.1,680.9,230.9z M697.4,232.4
		c-0.1-6-2.7-11.5-6.5-14c-1-0.7-2.5-2-2.9,0.4c-0.4,2.6-0.8,5.3,1.7,7.3C692.2,228,694.5,230,697.4,232.4z M654.6,164.9
		c4.6-1.9,7.7-5.4,10.2-9.5c-1.7-1.6-3.7,0.2-5.3-1.3c-0.8-0.8-2.7,0.5-2.2,1.6C659,159.7,655.6,161.7,654.6,164.9z M635.4,100.2
		c0.8-0.5,4.6,1.4,2.7-2.4c-1.5-2.9-4.3-5-7.7-5.8c-1.2-0.3-2.3-0.1-3.1,1c-0.8,1.1-0.6,2.2,0.1,3.2
		C629.3,98.7,631.5,100.6,635.4,100.2z M297.7,157.6c3.8,0.4,6.9-1.1,10.1-2.7c1-0.5,2.4-1,1.7-2.5c-0.8-1.6-2.1-3-3.8-3.7
		c-1.6-0.7-1.8,1.1-2.3,2C302.1,153.4,300.3,155.7,297.7,157.6z M657.7,97.8c-0.3,0.2-1.1,0.5-1.2,1c-0.1,0.4,0.2,1.3,0.7,1.6
		c2.6,2.4,5.3,4.8,7.9,7.2c0.7,0.6,1.5,1.7,2.4,0.8c0.5-0.6,0.5-1.9,0.4-2.8C667.4,102.8,660.8,97.7,657.7,97.8z M679.6,200
		c-1.4-0.4-3.3-1.3-3.9,0.3c-0.5,1.5,1.7,2,2.7,2.9c2.2,1.9,4.9,2.6,7.6,3.4c0.8,0.2,1.7,0.6,2.3-0.1c0.7-0.8,0.1-1.5-0.5-2.1
		C685.4,202.1,683.9,198.5,679.6,200z M560.1,237.9c0.2-0.4,0.5-0.8,0.7-1.3c-3.5-2.9-6.9-5.9-10.5-8.7c-1-0.8-2.5-1.3-3.7-0.4
		c-0.9,0.7-0.1,1.6,0.6,2C551.3,232.5,555.4,235.8,560.1,237.9z M82.5,231.6c1.7-3.1,1.9-5.5,1.2-8c-0.3-1.1-0.7-2.4-2.2-2.2
		c-1.4,0.2-1.8,1.5-1.9,2.6C79.1,226.8,80.9,228.8,82.5,231.6z M698.4,214.8c-1.9,6.2,2.2,7.8,6.4,10.5
		C704.7,220.2,702.4,217.4,698.4,214.8z M100,225.9c0-2.1-0.5-4.1-2.7-4.7c-1.9-0.5-2,1.2-2,2.5c0.1,2.3,1,4.4,3.3,4.8
		C100,228.8,99.8,227,100,225.9z M573.6,250.6c-1.2-3.7-4-7.2-5.4-7.1c-1.1,0.1-1.2,0.9-1.2,1.8C567.2,249.2,570,250,573.6,250.6z
		 M122.7,222.3c0.3-3.1-0.3-5.8-3-7.7c-0.7-0.5-1.2,0.2-1.3,1c-0.4,3.1,0.7,5.5,3.6,6.8C122.1,222.4,122.3,222.3,122.7,222.3z
		 M637,171.3c-2.5-0.9-4.3,1-6.5,0.8c-1.6-0.2-1.7,1.2-1.6,2.4c0.1,1.8,1.6,1.8,2.6,1.3C633.6,174.9,635.8,173.8,637,171.3z
		 M113,227.9c0-2.5,0.1-4.3,0-6.1c-0.1-1.6-1.5-2.3-2.7-2.3c-1.6,0.1-1.2,1.7-1.2,2.8C109,224.4,110.4,225.8,113,227.9z
		 M322.9,213.6c-0.2-2.9-1.1-4.5-2.6-5.9c-0.7-0.7-1.5-2.3-2.7-1c-0.8,0.9-0.7,2.3,0.3,3.1C319.2,211.1,320.7,212,322.9,213.6z
		 M333,210c-0.7-3.4-2-5.3-4.7-6.5C327.6,207.1,329.5,208.6,333,210z M477.4,146.3c0.1,0,0.3-0.1,0.3-0.1c0-0.1,0-0.3-0.1-0.4
		c-0.1,0-0.3,0.1-0.3,0.1C477.3,146.1,477.3,146.2,477.4,146.3z M136.8,156.7c-0.1,0-0.3,0-0.3,0.1c-0.1,0.1-0.1,0.3-0.1,0.4
		c0.2,0,0.4-0.1,0.6-0.1C136.9,156.9,136.8,156.8,136.8,156.7z"/>
	<path class="st2" d="M117.1,139.1c0.1-2.2,1.8-1.9,3.3-2.1c5.8-0.8,11.1-3.8,16.7-4.4c8.1-0.8,9.2-6.5,11.6-12.1
		c0.6-1.4,0.7-5.2,3.8-4.1c2.4,0.8,2.7,3.5,2.6,6c0,0.6-0.2,1.3-0.4,2.4c2.5-0.7,3.5-2.5,4.6-4.2c11.2-17.4,24-33.5,39.3-47.5
		c10.2-9.3,20.8-18.1,32.9-24.8c0.7-0.4,1.6-0.6,1.7-2c-15.4,1.2-30.2,4.4-45.2,11.3c1.7-5.1,5.4-6.8,8.2-8.9c7.6-5.9,15-12,23.9-16
		c2.6-1.2,3.6-4.5,6.9-4.6c5.4,0.8,9.9-2.1,14.8-3.4c19.9-5.2,39.4-4.6,58.3,4.2c3.7,2.5,7.3,5.2,11,7.6c1.5,1,3.3,2.3,5,1.2
		c1.9-1.2-1.1-2.8,0-4.6c4.4-0.2,8.1,2.5,12.3,3.1c0.8,0.1,1.4,0.6,1.2,1.3c-0.2,0.5-0.8,1.1-1.4,1.3c-2.6,1.1-5.3,1.5-8.2,1.6
		c5.6,3.5,12,4.7,18.3,5.6c15.6,2.3,31.1,2.3,46-3.9c0.7-0.3,1.8-0.6,2.3-0.3c1,0.6,0.8,1.8,0.3,2.7c-1,2.1-2.2,4-3.5,6.3
		c2.6,0.3,3.7-0.7,5-2.6c2.5-3.6,5.1-7.3,9.4-9.1c0.9,0.4,1.6-0.2,2.2-0.8c6.1-5.8,13.3-9.8,20.7-13.6c13.3-7,23.5-5.5,34.4,4.8
		c3,2.9,5.3,6.3,7.9,9.5c0.9,1.1,1,3.3,3.2,3c0,0-0.1-0.1-0.1-0.1c-0.5,1.3-0.2,2.3,0.9,3.1c1.4-0.1,2.3-0.6,2-2.1
		c-0.2-1.3-0.7-2.5-1-3.8c-0.5-1.8-2.5-4.2-1.1-5.4c1.9-1.7,3.2,1.5,4.8,2.3c2.4,1.1,4.7,2.3,7.5,2.1c8.9-0.6,17.7-2.2,26.7-0.1
		c-6.9-2.8-14.1-3.6-21.4-3.8c-5.4-0.2-10.6-0.7-15-4.3c-1.4-1.1-3.1-2-3.2-4.1c2.1-1.5,3.8,0.4,5.7,0.4c3.4,2.3,7.3,2.6,11.2,3
		c11.8,1.4,23.9,0,35.5,3.8c1.6,0.5,4.8-0.1,5,1.3c0.7,5,3.6,2.3,5.6,1.9c2.3-0.4,4.5-1.1,6.9-0.8c11.5,1.7,22.9,3.5,33.7,8
		c-3.8,4-8.9,2.8-13.5,3.4c-6.1,0.9-12.3,0-18.1-2.3c-3.4-1.4-4.8-0.1-5.9,3c-2.6,7.7-1.9,15.4-0.4,23.1c0.3,1.4,1.7,3.7-1.7,2.9
		c-11.1-2.6-22.7-2.5-33.8-5.4c-6.7-1.8-12.4-5.5-18.6-8.2c-0.4-0.3-0.7-0.6-1.1-0.9c-0.1-0.1-0.1-0.2-0.2-0.3c0-0.1-0.2,0-0.2-0.1
		c0.1,0.1,0.3,0.2,0.4,0.4c0.3,0.4,0.6,0.7,0.9,1.1c0.3,4.3,5.2,6.4,5.1,10.9l0,0c-2.3-0.7-4.6-1.4-6.9-2.1
		c-0.2-0.1-0.4-0.2-0.6-0.4c0.1,0.2,0.3,0.4,0.4,0.6c0.5,5.7,4.6,10.2,4.7,16.3c-6-6.9-12.7-12.9-20.8-17.3
		c6.7,8.4,11.1,17.5,12.8,28.1c3.9,24.5-12,60.3-45.2,64.5c-6.9,0.9-12.1-2.8-16.7-7.4c-0.2,0.5-0.5,0.9-0.5,1.1
		c2.3,7,2.3,7.1-4.8,9.2c-3.3,1-6.5,2.4-10.6,4.8c2.3-6.7,3.4-12.6,3.6-18.8c-5,10.1-11.1,19.4-19.6,27.8
		c-0.2-22.6,0.8-43.9,18.4-60c1.8-1.7,3.9-3.1,6-4.5c0.9-0.6,2.1-1.4,3.2-0.6c1.1,0.8,0.6,2.1,0.4,3.2c-1.4,7.5-3,15-2.6,22.7
		c0,0.8-0.2,1.7,1.1,2.3c2.2-3.1,2.5-7,3.7-10.4c3.4-10,10.2-18.2,14.5-27.8c4-9,6-18.3,5.1-28.3c-3,8.7-5.9,17.5-13,24.9
		C412,83.3,400.6,71.2,400,55.1c0.2-0.4,0.5-0.8,0.7-1.2c0,0-0.2-0.2-0.4-0.3c-0.1,0.4-0.3,0.9-0.4,1.3c-0.6,0.3-1.5,0.4-1.7,0.8
		c-3.8,8.9-7.3,17.9-6.7,28c0.3,4.7-0.4,9.5-0.6,14.3c-0.1,1.5-0.8,2.6-2.4,2.8c-1.3,0.1-2-0.9-2.6-1.9c-1.4-2.5-0.6-5.2-1.1-7.8
		c-1.4-6.7-2.3-13.3-2.2-20.2c-3.6,4.9-4.7,10.7-6.8,16.2c-3.9,10.6-7.2,21.4-11.9,31.6c-2.8,6.1-4.8,6.5-11,3.8
		c-5.5-2.4-9.6-6.3-13.6-11c-1,4.5,2.9,7.5,2.6,11.5l0,0c-9.2-3.5-15.4-10.3-20.4-19.3c-0.9,3.4,1.4,5.3,0.8,8.1
		c-2.9-1.9-4.1-4.8-5.2-7.6c-5.7-14.2-6.9-28.5-0.8-42.9c1.1-2.7-0.3-3.1-2.2-3.7c-8-2.7-16.1-1.8-24,0.3c-4.2,1.1-8.4,2.7-12.7,3.7
		c5.1-6.5,12.4-9.9,19.6-13.4c-15,1.7-29.6,10-45.1,2.9c-0.1-0.1-0.3-0.2-0.4-0.3c0.1,0.1,0.3,0.2,0.4,0.2
		c8.9,11.9,4.3,23.7-0.3,35.4c-3.4,8.7-9.2,16.1-14.8,23.5c-0.3,0.4-0.6,0.7-0.9,1.1c-0.1,0.1-0.2,0.1-0.3,0.2
		c-0.1,0.1,0,0.2-0.1,0.3c0.1-0.1,0.3-0.3,0.4-0.4c0.4-0.3,0.7-0.6,1.1-0.9c4.7-0.5,6.7-4.9,10.3-7.1c2.2-1.3,3.8-3.6,6.6-4l0,0
		c-2,5.3-6.7,8.2-10.9,11.2c-11,7.8-20.9,16.8-30.8,25.8c-0.5,0.4-1,0.8-2,0.3c2.4-6,7.8-10.6,8.7-17.3c0.1,0,0.3-0.1,0.4-0.2
		c0.1-0.1,0-0.2,0.1-0.3c-0.1,0.1-0.3,0.3-0.4,0.4c-4.5,3.2-7.3,8.1-11,12.1c-12.3,13.6-26.6,24.2-45,27.5
		c-10.1,1.9-19.9-0.3-28.6-6c-5.8-3.8-18.7-1-22.4,4.9c-1,1.6-2.4,1.8-3.6,2.3c-9.6,3.5-15.3,10.8-19,19.8c-0.9,2.1-2.1,3.6-4,4.8
		c-6.8,4.5-8.9,12-12,18.9c-0.4,1,0.4,1.5,1.2,1.9c1,0.6,2.1,1.1,3.1,1.7c2.9,1.8,5.2,4.8,4.6,7.6c-0.4,2.1-3.9,3.7-6.3,5.3
		c-1.1,0.7-2.5,0-3.6-0.9c-7.9-6.2-9.8-16.5-3.3-24.2c11-12.8,18.5-27.8,28.2-41.4c0.5-0.6,0.6-1.5,0.8-2.3c2.6,0.4,2.9-1.9,3.7-3.3
		c2.4-4.2,5.7-6.7,10.6-7.2C114,140.3,115.8,140.5,117.1,139.1z M234,95c1-0.4,1.1-1.1,1-2c0.2-0.1,0.4-0.3,0.6-0.4
		c-0.1,0-0.3,0-0.3,0c-0.1,0.1-0.1,0.3-0.2,0.4C234.2,93.5,234,94.2,234,95c-0.7,0-0.9,0.4-1,1c-0.9,0.3-1.1,1-1.2,1.8
		c-0.7,0.5-1.4,0.8-2,1.4c-14.6,15.8-31.5,28.6-50.5,38.6c-5.1,2.7-10.4,4.9-16.3,6.6c1.1,1.2,1.6,1.2,2.4,1.1
		c31-3.5,50.2-23.5,66.7-47.4c0.9-0.4,1.1-1.1,0.9-2.1C233.8,96.1,234,95.7,234,95z M180.1,121c-0.2,0.3-0.5,0.6-0.7,0.9
		c0.1,0.1,0.2,0.2,0.4,0.2C179.9,121.8,180,121.4,180.1,121c0.6,0.1,0.9-0.3,1.2-0.8c8.6-8,17.3-15.8,25.7-24
		c9.2-9.1,18.1-18.4,24.3-29.9c0.4-0.2,0.9-0.4,0.2-0.9c0,0-0.4,0.3-0.6,0.5c-3.3,1.5-6.7,2.9-9.9,4.6c-20,10.9-33.9,26.9-40.4,49
		C180.5,120.1,180.3,120.6,180.1,121z M357,73.1c-6.6,7.9-8,26.9-2.2,32.9C354.4,94.8,356.3,83.9,357,73.1c0-0.1,0.1-0.2,0.2-0.3
		C357.1,72.9,357.1,73,357,73.1z M418.1,137.2c8.3-7,16.2-14.3,20.6-24.6c4.9-11.7,4.3-23.1-1.3-34.4c1,17.1-5.4,31.8-14.1,45.8
		c-2.4,3.9-4.7,8-5.8,12.6c-0.4,0.4-0.7,0.8-0.1,1.2C417.5,137.8,417.9,137.4,418.1,137.2z M430,140c1.8,0.4,3.6,0,5.4-0.4
		c27.6-6.9,33.7-34.2,26.7-54.1c-0.4,2.3-0.8,4.3-0.9,6.2c-1.3,14.8-7.2,27.5-18.2,37.6C438.8,133.1,434.3,136.4,430,140
		c-0.5,0.1-0.9,0.2-1.3,0.4c0.1,0.1,0.3,0.3,0.3,0.3C429.3,140.5,429.7,140.2,430,140z M285.4,38.2c-22.5-11-38.6-9.3-52.5,5.9
		C250.4,39.2,267.7,42.2,285.4,38.2z M522.4,57.8c1.8-8.4,1.8-8.4-6.4-10.4c-1.5-0.4-2.9-0.8-4.4-1c-8.7-1.1-16.5,1.3-25,6.2
		C499.8,51.8,511.3,53.5,522.4,57.8z M364.8,102.9c1.2-12.8,3.7-24.6,6.4-36.9C362,73.1,359,90.6,364.8,102.9z M449.5,40.1
		c-5.1-13.4-20.7-16-33.8-5.5C428.2,32.4,439.8,30.6,449.5,40.1z M348.4,67.9c-9.5,7.8-8.9,26.8-3.3,36.3
		C344.3,91.9,345.4,80.2,348.4,67.9z M334.9,67.4c-8.3,6.8-9.6,19.3-2.8,29.3C331.9,86.5,332.7,77,334.9,67.4z M322.8,70
		c-3.5,7.7-3.7,15.4-1.3,23.1c0.4,0,0.9,0,1.3,0C322.8,85.4,322.8,77.7,322.8,70z M148.6,136.7c1.5-1.6,2.4-2.7,1.7-4.5
		C148,133.1,148,134.5,148.6,136.7z M469.9,47.6c-0.1-0.3-0.3-0.6-0.4-0.8c-0.1,0.3-0.4,0.6-0.4,0.8c0,0.3,0.2,0.6,0.4,0.8
		C469.6,48.1,469.8,47.8,469.9,47.6z"/>
	<path class="st2" d="M665.2,90.1c0.1,2.4-1,5-2.8,5.2c-2.1,0.2-2.5-2.6-2.5-4.7c0-0.9-0.5-1.6-1.3-1.9c-2,1-0.5,5-3.1,4.6
		c-2.3-0.4-3.2-3.1-4-5.7c-1.2-4.3-4.2-7.4-8.9-8.4c-0.9,0.4-1.8,0.4-2.7-0.1c0,0-0.1-0.1-0.1-0.1l0.1,0.1c-0.1,1.5,1.7,2.4,1.2,4.3
		c-3.9-0.7-6.3-4.7-10.5-4.6c5.5,4,10.7,8.3,14.9,13.6c-2.5,1.2-4.1-0.4-5.7-1.8c-9.9-9-21.4-12.9-34.8-11.3
		c0.1,0.2,0.1,0.6,0.3,0.7c2.1,0.8,5.9,0.6,5.8,2.7c-0.2,2.2-3.9,2-6.2,2.4c-0.9,0.2-2.2-0.2-2.5,1c-0.1,0.4,0.4,1.3,0.9,1.6
		c5.7,3.1,7.6,8.7,9,14.4c0.8,3.5,2.6,4.6,5.9,4.1c1.1-0.2,2.3-0.1,3.5,0c0.9,0.1,2.2-0.3,2.7,0.8c0.6,1.2-0.5,1.8-1.2,2.4
		c-6.3,5.4-10.6,12.7-17.8,17.2c-3.5,2.2-4.6,6.8-8,10.4c-0.2-4.6,2.7-7.7,3.8-12.2c-4.9,2.5-7.3,6.3-10.4,9.7c-2-3.4,1.1-7-0.2-9.9
		c-1.4-3.1-5.1-4.6-6.2-9c-2.1,3.2-0.3,6.6-3.1,9.2c-3.6-5.8-5.1-12-5.6-18.6c-4.8,11.7,4.1,20.3,7.4,30.9c-7.9-2.2-12.6-7-16-13.3
		c-6.3-11.4-0.9-29.5,7.5-37.7c4.2-4,8.4-8,12.6-12c0.4-0.2,0.9-0.3,1.3-0.5c-0.1-0.1-0.3-0.4-0.3-0.4c-0.4,0.2-0.8,0.5-1.1,0.7
		c-4.5-0.1-7.5,4.2-12,4l0,0c0.7-0.9,1.4-1.7,2.1-2.6c-1.4-1.5-4.6,0.9-5.1-2.4c-0.3-2.2,2-1.6,3-2.9c-10.6,0.8-18.6-3.1-24.1-12
		c2.1,0.2,4.2,0.4,6.4,0.5c7.3,0.3,13.9,3.4,20.8,5.5c1.4,0.2,2.8,0.4,4.1,0.5c2.5-1.9-6.8-4.9,1.5-6c-6.8-3.2-13.2-5-19.8-7.1
		c2.5-3.8,6.7-3.4,10.3-4.4c0.9,1.7,2.6,1.1,4,1.2c19.3,0.6,36.5,7.3,52.8,17.1c4.9,3,9.3,6.8,15,8.6c1.6,2,3.1,4.1,6.1,3.9
		c1,1.1,1.9,2.2,3,3.2C658.3,84.3,660.5,88.6,665.2,90.1z M591.7,94.8c-6.4,4.1-8.9,9.8-6.9,16.1c1.4-5.9,3.4-11.2,7.7-15.4
		c0.4-0.4,1.5-0.5,0.8-1.3C592.9,93.8,592.1,94.2,591.7,94.8z M579.5,93.5c2.6-2.2,5.3-4.4,8.9-7.5
		C582.9,86.7,580.4,89.1,579.5,93.5z"/>
	<path class="st2" d="M434,199.6c2.1-3,4.6-1.5,7-0.5c5.1,2.2,9.7,5.4,15.4,6.3c-20.6-14.4-42.2-25.5-68.6-20.9
		c0.9-5.8,4.8-9.5,13.1-12.5c11.7-0.6,22.6,1.6,32.5,8.5c7.4,5.1,14.1,11,21.1,16.5c1.2,1,2.2,3.1,4.5,1.8c0,0,0,0,0,0
		c-0.4,2.4,1.2,2.8,3,3c0,0,0,0,0,0c0.2,1.2,0.9,1.6,2,1l0,0c0,2.2,1.1,2.7,3,2c0,0,0,0,0,0c0.1,3.2,2.6,3.5,4.9,4
		c16.3,6.6,32.5,13.2,48.8,19.8c1.1,0.4,2.4,0.6,2,2.2c-0.3,1.3-1.3,1.9-2.6,2c-3.2,0.3-6.5,1.3-9.5-1c-1.1-0.8-2.6-1.1-4.4-1.9
		c0.2,2.8,2.3,3.7,3.5,5c0.9,1,3,1.5,1.8,3.5c-1,1.8-2.8,1.6-4.4,1.3c-4.8-0.9-9.1-3.1-13.2-5.5c-0.7-0.4-1.4-0.8-2.9-1.7
		c1.4,3.9,3.1,6.6,5.1,9.1c2,2.5,4.9,5.4-1.4,7.1c3,2,4.9,0.5,6.5-0.5c4.4-2.6,8.8-1.8,13.3-0.3c1,0.3,2,0.6,2.1,1.8
		c0,1.1-1.1,1-1.8,1.4c-3.6,1.9-4.5,5.5-5.8,8.9c-1.6,4.2-3.6,4.8-7.1,2.1c-2.8-2.2-4.7-5-6.1-8.3c-1.5-3.5-3.4-6.9-6.8-9
		c-0.1-0.4-0.3-0.9-0.4-1.3c-0.1,0.1-0.4,0.2-0.4,0.3c0.2,0.4,0.5,0.7,0.7,1.1c0,0.5,0,1,0.1,1.5c0.5,2.4,2.4,5.3,0,6.9
		c-2.5,1.7-5.4-0.3-7.9-1.6c-2.7-1.5-5.1-3.4-6.7-5.8c-7.3-10.5-18.6-14.5-29.8-18.6c-3.7-1.3-7.5-2.5-11.2-4.2
		c9.1-2.2,18,0.5,27.2,1.8c-0.6-3.1-2.7-4.5-4.6-5.8c-7.9-5.7-17.1-8.1-26.6-9c-14.4-1.4-27.1-6-37.4-16.4c-0.5-0.6-1-1.2-2.1-2.6
		c9.2,0,17.7-0.6,26,0.3c3.8,0.4,8.2,2,11,5.5c-5.8,0.4-11.2-4.1-18-1c10.2,4.6,20.4,6.1,31.6,8.4
		C438.4,200.9,435.7,201.1,434,199.6z M457.9,205.7c2.9,3.9,6.2,4.8,9.6,5.5C465.4,208,462.2,207,457.9,205.7z"/>
	<path class="st2" d="M22,68.9c-2.6,0.8-3.2,3.6-5.5,5.2c0-1.3-0.4-2.6,0.1-3.5C22.1,59.6,29,49.6,39.5,42.6
		c1.4-0.9,2.9-1.7,4.6-1.5c1.8,2.3,3.4,0.7,5-0.3c6.5-3.9,13.1-7.6,20.6-9c5.9-1.1,11.9-1.5,16.5,3.8c-2.9,4.9-8.1,3.6-12.4,4.4
		c-14.2,2.7-28,6.4-38.2,17.4c-8.3,8.9-12.1,20-11.4,32.3c0.5,8.7,8.3,16.7,17.7,19.4c13.7,4,27,1.8,40-2.9
		c20.1-7.4,37.1-19.9,53.7-33c15.8-12.4,31.6-24.9,50.1-33.2c7.3-3.2,14.6-6.4,22.5-7.9l0,0c-2.2,3.6-6,5.5-9.3,7.3
		c-28.7,15.5-53.5,36.8-80.8,54.4c-15,9.7-31,17.3-48.4,21.5c-10.6,2.6-21.3,2.8-31.8-1.2c-18.3-6.9-24.9-21.6-17.5-40.4
		c0.6-1.5,1.3-3.1,1.9-4.6c0.8-0.5,1-1.2,0.9-2.1c0.1,0,0.3-0.1,0.4-0.1c0.1,0,0.1-0.2,0.1-0.3c-0.1,0.1-0.3,0.3-0.4,0.4
		C22.3,67.4,22.1,68.1,22,68.9z"/>
	<path class="st3" d="M352.2,177c-15.2-6.4-27-17.3-38.3-29c-10.5-10.8-21.8-20.5-36.9-24.4c-4-1-8.1-1.7-13.3-1.8
		c10.9-3.2,20.9-2.6,31.1-0.9c-8.4-6-18.2-6.3-29.2-7.2c9.3-3.5,17.1-2.1,24.5,1.4c8,3.7,14.4,9.5,19.6,16.5
		C322.9,150,340,163,361.7,170c4.8,1.5,1.7,5.9,1.2,9.1C359,179.7,355.9,177,352.2,177z"/>
	<path class="st2" d="M658,204.2c-2.3,3.1-6.8,2.2-9.5,5.6c6.8,1.7,14.8-2,20.3,4.7c-2.7,1.5-4.9,3.7-6.8,6.3
		c-2.8,3.7-6.2,4.8-10.4,2.6c-4.8-2.6-9.5-5.5-14.2-8.3c-1.6-0.9-3-2.1-5.3-2.4c0,3.2-1.3,5.3-4.7,5.5c-0.9,0-1.6,0.7-1.6,1.6
		c0.1,2.6-0.3,4.7-3.3,5.1c-3.9,0.6-7.3-0.4-10.1-3.1c-0.7-0.7-1.2-1.6-1.7-2.5c-2-4.1-4.5-8-8.3-11.8c4.5-0.8,8-0.2,10.6,1.2
		c3.8,2.1,7,1.5,10.4,0.2c2.1-0.8,4.1-1.8,6.5-2.3c2.6-0.5,4.8-1.9,3-5.3c-0.3-0.6-1-1.4-0.1-2.2c1-0.8,1.6,0,2.5,0.4
		c3.5,1.3,7,2.5,10.7,2.7c0.4,2.1,2.1,1.7,3.5,1.8C652.4,204.1,655.2,204.1,658,204.2z"/>
	<path class="st2" d="M644.8,129c1.8,0.6,3.6,1.1,5.7,1.8c-2-7.3-8.9-9-13.1-13.5c-1.1-1.2-4.1-1.1-3-3.7c0.8-1.9,2.8-2.7,5-2.3
		c5.1,2.4,8.9,6.5,12.5,10.7c0.2,0.2,0.3,0.4,0.5,0.6c0.1-0.1,0.3-0.3,0.3-0.3c-0.1-0.2-0.3-0.4-0.5-0.6c-0.1-3-2.6-4.5-3.8-6.9
		c4.4-1,7.7,0.9,9.4,6.2c1.6,5.2,4.6,9.5,8.1,13.5c3.1,3.4,2.6,6.3-1.7,8.1c-4.9,2.1-10.2,2.8-15.6,2.2c-1.2-0.1-3.9-0.1-1.6-2.7
		c-1.2-0.6-2.3-1.3-3.5-1.8c-2.2-1.1-4.6-1.9-6.7-3.2c-1.1-0.7-3.7-1.1-2-3.5c1.3-1.9,2.9-1.8,4.8-0.7c1.5,0.9,3.1,1.8,4.9,2.2
		c-4.6-5.8-11-9.2-17.3-12.6c2.6-4.2,2.6-4.2,9-1.2C638.3,124.7,641.3,127.1,644.8,129z"/>
	<path class="st3" d="M470,187.8c-3.7,1.4-7.5,0.5-11.2,0.4c-1.7-0.1-3.5-1.3-3.8-2.8c-0.4-1.8,1.8-2.1,3-2.7
		c11.6-6.6,22.4-14.2,30.9-25.8c-0.3,4.5-1.9,7.9-3.9,10.9c-2,3.1-4.5,5.9-7.4,9.5c6.3-0.5,11.4-2.1,16.5-3.7
		c11-3.3,20.7-9.5,30.9-14.6l-0.1-0.1c0.2,2.4-1.9,3.3-3.3,4.4c-5.8,4.7-11.8,9.1-17.5,13.8c-2.2,1.8-4.9,1.7-7.2,2.9
		C487.6,181.7,478.8,184.8,470,187.8z"/>
	<path class="st3" d="M569.9,43.5c-10.8-4.5-22.3-6.3-33.7-8c-2.4-0.3-4.6,0.4-6.9,0.8c-2.1,0.4-4.9,3.1-5.6-1.9
		c-0.2-1.4-3.3-0.8-5-1.3c-11.6-3.8-23.7-2.5-35.5-3.8c-3.9-0.5-7.8-0.8-11.2-3c10.3,0,20.5-1.4,30.8-1.8
		c14.5-0.6,28.5,3.6,42.4,7.2c10.2,2.7,19.8,7,29.7,10.8C573.4,45.2,571.6,43.7,569.9,43.5z"/>
	<path class="st3" d="M499,145c10.5-10.4,23.1-12.1,37.2-9.8c9.2,1.5,14.7,6.9,19,14.5C536.8,144.6,518.1,141.2,499,145L499,145z"/>
	<path class="st2" d="M614.9,201c0.6-1.5,1.8-3.7-1.6-2.6c-2.4,0.8-4.5,2.1-7.6,1.4c3.7-3,3.3-4-1.3-5.5c-4.1-1.3-5.9-6.2-6.3-10.6
		c-0.4-3.8-0.2-7.6-0.1-11.5c0-1-0.5-2.7,1.3-2.7c1.1,0,1.3,1.2,1.6,2.2c1.2,4.5,2.7,8.8,5.7,12.5c2.7,3.3,6,4.6,9.9,4.7
		c4.2,0.1,8.3,0.1,12.5-0.1c2.3-0.1,2.9,0.6,2.3,2.9c-1.2,4.1-3.8,6.8-7.2,9c-1.5-1.5,0.6-2.2,0.1-3.5
		C620.7,197.6,618.6,201.5,614.9,201L614.9,201z"/>
	<path class="st4" d="M466,42.1c-2.2,0.2-2.3-1.9-3.2-3c-2.6-3.2-4.9-6.7-7.9-9.5c-10.9-10.3-21.1-11.8-34.4-4.8
		c-7.3,3.9-14.6,7.9-20.7,13.6c-0.6,0.6-1.2,1.2-2.2,0.8c8.6-10,18-18.8,30.8-23.3c8.3-2.9,15.7-1.6,22.2,4.1
		C457.5,26,462.7,33.5,466,42.1z"/>
	<path class="st2" d="M299.9,97c-2.8-3.6-3.4-7.7-4.8-11.4c-1.2-3.2-0.7-7-4.4-9.5c-2.1-1.4-0.4-4.8,1.5-6.6
		c5.2-4.8,11.9-6.5,18.4-8.4c0.5-0.2,1.6,0,1.8,0.4c0.8,1.2-0.2,2.2-0.8,3.1c-5.4,7.8-8.2,16.6-10.3,25.7
		C300.9,92.4,301.8,94.7,299.9,97z"/>
	<path class="st5" d="M143.9,161.6c11.4,6,23.3,6.4,35.1,1.9c7.8-3,15.9-5.8,22.2-11.9c1.8-1.7,4.6-2.4,7.4-2.5
		c-13.7,21-43.4,27.6-64.6,14.6C144,163,144,162.3,143.9,161.6z"/>
	<path class="st3" d="M300,28.9c-18.9-8.9-38.3-9.5-58.3-4.2c-4.9,1.3-9.4,4.2-14.8,3.4c24.7-14.8,49.7-15,75.1-1.8
		c0.8,0.4,2.3,0.7,1.9,1.9C303.1,30.2,301.4,29,300,28.9z"/>
	<path class="st3" d="M645.9,74.1c-5.6-1.8-10-5.6-15-8.6c-16.3-9.8-33.5-16.5-52.8-17.1c-1.4,0-3.1,0.5-4-1.2
		c25.9-3.3,48.4,3.8,67.5,21.6C643.3,70.3,645.5,71.5,645.9,74.1z"/>
	<path class="st5" d="M612,163.6c2-4.6,4.1-8,4-12.2c0-1,0.1-2.2,1.4-2.2c1.2,0,1.4,1.3,1.4,2.3c-0.1,3.1-0.1,6.3-0.5,9.4
		c-0.4,2.8-0.8,5.6,0.5,8.3c1.2,2.5,0.3,4.1-1.8,5.4c-2.3,1.4-4.7,2.1-6.9,0c-3.5-3.3-5.1-7.3-3.8-12.2c1.2-4.5,2.5-9,0.8-13.7
		c-0.4-1.1,0-2,1.1-2.4c0.9-0.3,1.6,0.2,2.1,0.9c1.4,2.1,2.6,4.3,2.4,6.9C612.6,157,612.4,159.9,612,163.6z"/>
	<path class="st2" d="M675.9,114.1c0,0,0.1,0.2,0.1,0.2s-0.2,0.2-0.2,0.2c0.3,2.7,2,4.9,2.3,7.7c0.4,3.6,1.7-0.3,2.6-0.2
		c1.8,1.1,3.4,2.5,1.7,4.7c-1.5,1.9-3,1-4.8,0c-3.8-2.3-7.7-4.6-12.4-4.7c-1,0-2.1-0.2-2.3-1.4c-1.5-6.9-6.1-11.1-13.1-14
		c9.3-2.2,14.4,3.6,20,8c1.9-1.5,0.2-3.8,2.1-5.6c1,1.4,2,2.8,2.9,4.2C675.3,113.5,675.6,113.8,675.9,114.1z"/>
	<path class="st5" d="M441.4,173c17.1-0.9,25.8-13,35.2-25.7c0.1,5-2.1,8-3.9,11c-4.7,7.7-10.3,14.7-18.2,19.4
		C449.1,181,445.1,179.7,441.4,173z"/>
	<path class="st3" d="M459,198.9c-2.3,1.3-3.3-0.8-4.5-1.8c-7-5.6-13.8-11.4-21.1-16.5c-9.9-6.9-20.8-9.1-32.5-8.5
		c6.5-4,13.4-3.4,20.4-1.6c6.2,1.5,11.9,4.3,16.7,8.4C445.4,185,452.7,191.4,459,198.9z"/>
	<path class="st2" d="M587.4,180.5c0.5,2.1,1.5,4.6-0.5,6c-2.1,1.4-4-0.6-5.8-1.8c-7.4-5.1-14.5-10.6-22.5-14.7
		c-1.6-0.8-1.7-1.8-0.6-2.5c1.9-1.2,1.9-6.1,5.7-3.6c2.6,1.7,4.8,4,7.1,6c2.9,2.4,5.7,4.9,8.8,7C582,178.6,584,181.3,587.4,180.5z"
		/>
	<path class="st2" d="M537.2,241.9c2.8,0.7,1.7,2.1,0.7,3.6c-2.1,3.3-4.8,6.3-5,10.6c-0.1,1.7-1.1,1.8-2.3,0.8
		c-0.5-0.4-1.1-0.9-1.3-1.5c-2.3-6.4-7.2-10.3-13.8-13.4c2.8-1.7,4.7-3.3,7.3-3.1C527.9,238.8,532.4,241,537.2,241.9z"/>
	<path class="st2" d="M185.1,66.1c0.1,1.5-1,2.4-2,3.3c-7.3,6.3-12,14.6-16.8,22.7c-1.6,2.6-2.5,5.3-5.1,1.1L161,93
		C165.5,80.9,172.7,71.1,185.1,66.1L185.1,66.1z"/>
	<path class="st2" d="M109,164.9c-0.2,0.4-0.3,0.9-0.6,1.3c-4.1,5.8-8.2,11.7-12.2,17.5c-0.4,0.6-1.1,1.1-1.6,0.6
		c-1-1.3-2.4-2.3-2.4-4.2c0.1-4.6,9.9-16,14.4-16.8C108,163,109,163.2,109,164.9z"/>
	<path class="st2" d="M270.9,166c4.3,0.1,6.1,1.3,7.6,4.3c4,7.8,8.3,15.5,15.8,20.8c0.8,0.6,1.9,1.2,1.1,2.3
		c-0.7,0.9-1.9,0.6-2.8,0.2c-4.2-1.7-6.9-5.2-9.7-8.5C278.2,179.5,275,172.9,270.9,166z"/>
	<path class="st3" d="M86.2,35.5c-4.6-5.3-10.6-4.9-16.5-3.8c-7.5,1.4-14.1,5.1-20.6,9c-1.6,1-3.2,2.6-5,0.3
		C54,32.9,65.3,28.3,78.2,28c2.5-0.1,4.9,0.5,7.2,1.6C88.4,31.2,89.3,33.1,86.2,35.5z"/>
	<path class="st5" d="M529.7,275.6c-4.5-4.1-7.9-7.4-11.9-9.9c-3-1.8-2-4.7-0.5-7c1.8-2.6,4.1-1.6,6,0
		C528,262.8,529,268.4,529.7,275.6z"/>
	<path class="st2" d="M97.4,213.6c-0.9,1.8-2.1,4.1-4.3,4.9c-2.1,0.8-2.4-1.7-3.1-3.1c-1.1-2.3-2.9-4-4.5-5.9
		c-1.4-1.6-4.7-2.7-2.7-5.5c1.8-2.5,3.8,0.1,5.8,0.6C93.1,205.8,96.2,208.4,97.4,213.6z"/>
	<path class="st5" d="M552.9,271.1c-3.9-3.8-6.9-6.9-10.5-9.3c-3.3-2.2-2.3-5.7-0.8-8.5c1.1-2.3,3-0.8,4.1,0.2
		C550.4,258,553.4,263.3,552.9,271.1z"/>
	<path class="st2" d="M663.4,206c6.3-2.9,6.4-2.8,20.2,4.8c-6.8,5.7-6.8,5.7-13.4-0.2c-1.1-1-2.5-1.6-3.6-2.7
		C665.6,207,663.9,207.4,663.4,206z"/>
	<path class="st2" d="M550.9,238.8c0.7,0.9,1.4,1.7,2.1,2.5c-9.9,1.9-11.7,1-19.9-11c3.5-0.3,6.8-0.8,9.8,1.2
		c-0.1,0.8,0.2,1.3,1.1,1.2c0,0,0,0,0,0c0.3,1,0.7,2,2,1c0,0,0,0,0,0c-0.5,1.9,0.3,2.4,2,2c0,0,0,0,0,0c-0.4,1,0.1,1.3,1,1
		c0,0,0,0,0,0c-0.3,1,0.2,1.2,1,1c0,0,0-0.1,0-0.1C549.7,238.7,550.2,238.8,550.9,238.8z"/>
	<path class="st5" d="M567.9,264.2c-3.3-3.4-6-5.5-8.9-7.4c-3.8-2.4-3.5-6.3-2.8-9.8c0.6-2.8,2.7-1.2,3.8-0.2
		C565.1,250.9,568.3,256.1,567.9,264.2z"/>
	<path class="st5" d="M666.9,125c3.2,0.7,6.1,1.4,8.6,3.2c0.8,0.6,1.8,0.9,2.5,1.6c1.3,1.2,4.5-1.2,4.5,2.3c0,1.8-6.7,6.8-8.4,6.5
		c-1.4-0.2-1.3-1.4-1.2-2.3c0.4-4-1-6.3-5.3-6.8c-1.7-0.2-3.2-1.6-3.3-3.3C664.3,124.4,666.2,125.5,666.9,125z"/>
	<path class="st4" d="M586.1,172.2c-6.9-4.4-13.3-8.4-19.6-12.5c-0.8-0.5-1.9-1.1-1.4-2.3c0.4-1,1.3-1.3,2.4-1.4"/>
	<path class="st3" d="M434,199.6c1.7,1.5,4.4,1.3,6.7,4.7c-11.3-2.4-21.5-3.9-31.6-8.4c6.8-3.1,12.2,1.5,18,1
		C429.4,197.7,431.7,198.7,434,199.6z"/>
	<path class="st2" d="M95.1,204.3c6.6-0.7,10.1,1.4,12.6,5.2c3.2,4.9-3.1,7.4-3.3,11.7C102.6,215.3,101.2,209.3,95.1,204.3z"/>
	<path class="st2" d="M576.9,154c-16.7-3.3-24.5-14.9-22.3-33.8c0.2,4.6,0.4,9.3,1.8,13.7c2.4,7.6,8.6,11.6,15,15.3
		C573.6,150.4,575.8,151.6,576.9,154L576.9,154z"/>
	<path class="st4" d="M634.7,168.1c1.8-3.5,3.8-6.8,4.7-10.8c1.5-6.3,1.7-6.3,8.7-4.2c-2.2,7-7.4,11.3-13.3,14.9L634.7,168.1z"/>
	<path class="st2" d="M550.9,168.3c-2.5,4.9-6.6,7.9-11.6,10.3c4.2-6.5,7-13.6,9.7-20.6c2,0,2.3,1.3,2.2,3
		C551,163.4,551,165.9,550.9,168.3z"/>
	<path class="st3" d="M578.1,64.1c-6.9-2-13.5-5.1-20.8-5.5c-2.1-0.1-4.2-0.3-6.4-0.5c-1.9-1.7-5.1-1.2-6.6-3.9
		c11.1,2.2,23,0.9,33,8.1C577.7,62.7,577.8,63.5,578.1,64.1z"/>
	<path class="st5" d="M680.9,230.9c0.1,2.3-0.8,2.5-2.4,1.5c-2.6-1.6-5.2-3-7.7-4.6c-3.1-1.9-1.8-4.3-0.5-6.5
		c1.4-2.4,3.2-0.9,4.6,0.2C678.1,223.9,679.5,227.5,680.9,230.9z"/>
	<path class="st4" d="M621.9,181.9c-2.7,1.5-5,4.7-8.7,2.4c-1.8-1.1-3.4-2.6-0.2-4.2c2.1-1,4.2-2,6-3.4c1.9-1.3,3.4-3.1,5.4-4.9
		c0.9,3.3-2,5.4-1.7,8.1l0.1-0.1c-1.2,0.3-1.4,1.1-1.1,2.1L621.9,181.9z"/>
	<path class="st3" d="M117.1,139.1c-1.3,1.4-3.1,1.2-4.6,1.3c-4.9,0.5-8.2,3-10.6,7.2c-0.8,1.4-1.1,3.7-3.7,3.3
		c1-3.1,2.2-6.2,3.1-9.4c0.9-3.5,2.8-5.1,6.5-4.2C110.9,138,114,138.5,117.1,139.1z"/>
	<path class="st5" d="M697.4,232.4c-2.9-2.4-5.2-4.4-7.7-6.3c-2.5-2-2.1-4.7-1.7-7.3c0.4-2.4,1.8-1.1,2.9-0.4
		C694.7,220.9,697.3,226.4,697.4,232.4z"/>
	<path class="st4" d="M470,187.8c8.8-3,17.6-6.1,26.8-7.8C488.9,186.1,479.8,188.3,470,187.8z"/>
	<path class="st3" d="M639.9,79c0.9,0.5,1.8,0.4,2.7,0.1c0.3,1,0.7,2.1,1,3.1c-0.8,3.4,0,5.9,3.8,6.7c0.3,1.7,0.8,3.5-2,3.4
		c-4.2-5.3-9.4-9.6-14.9-13.6c4.1-0.1,6.6,3.9,10.5,4.6C641.7,81.4,639.9,80.5,639.9,79L639.9,79z"/>
	<path class="st4" d="M622.8,180c6.9,2.7,11.3-1.4,15.8-6.1c-2.7,10-8,12.5-16.7,8c0,0-0.1,0.2-0.1,0.2
		C623.1,181.8,623.9,181.3,622.8,180L622.8,180z"/>
	<path class="st4" d="M654.6,164.9c1-3.2,4.4-5.2,2.7-9.2c-0.4-1.1,1.4-2.4,2.2-1.6c1.6,1.6,3.6-0.2,5.3,1.3
		C662.2,159.5,659.1,163,654.6,164.9z"/>
	<path class="st5" d="M635.4,100.2c-3.9,0.4-6.1-1.5-8-4c-0.7-1-0.9-2.1-0.1-3.2c0.8-1.1,1.9-1.3,3.1-1c3.4,0.8,6.2,2.8,7.7,5.8
		C640,101.7,636.2,99.7,635.4,100.2z"/>
	<path class="st5" d="M297.7,157.6c2.6-1.9,4.4-4.2,5.7-6.9c0.4-0.9,0.7-2.6,2.3-2c1.7,0.7,3,2.1,3.8,3.7c0.7,1.5-0.8,2-1.7,2.5
		C304.7,156.5,301.5,158,297.7,157.6z"/>
	<path class="st2" d="M657.7,97.8c3.2-0.1,9.8,5,10.2,7.8c0.1,0.9,0.1,2.2-0.4,2.8c-0.9,0.9-1.7-0.1-2.4-0.8
		c-2.7-2.4-5.3-4.8-7.9-7.2c-0.4-0.4-0.8-1.2-0.7-1.6C656.6,98.3,657.4,98,657.7,97.8z"/>
	<path class="st2" d="M679.6,200c4.3-1.5,5.8,2.1,8.1,4.3c0.6,0.6,1.2,1.3,0.5,2.1c-0.6,0.7-1.5,0.3-2.3,0.1
		c-2.7-0.7-5.4-1.5-7.6-3.4c-1-0.9-3.2-1.3-2.7-2.9C676.3,198.7,678.2,199.7,679.6,200z"/>
	<path class="st3" d="M550.9,168.3c0.1-2.5,0.1-4.9,0.3-7.4c0.1-1.7-0.2-2.9-2.2-3c1.6-1.8,3.7-0.8,5.6-1c2.9-0.3,3,1.5,2,3.3
		C555.1,163.2,553.3,166,550.9,168.3z"/>
	<path class="st2" d="M560.1,237.9c-4.7-2-8.8-5.3-12.9-8.3c-0.6-0.4-1.4-1.4-0.6-2c1.2-0.9,2.7-0.4,3.7,0.4c3.6,2.8,7,5.8,10.5,8.7
		C560.6,237,560.3,237.4,560.1,237.9z"/>
	<path class="st3" d="M587.4,180.5c-3.4,0.8-5.4-1.9-7.8-3.5c-3.1-2.1-5.9-4.7-8.8-7C577.4,171.9,582.7,175.8,587.4,180.5z"/>
	<path class="st3" d="M665.2,90.1c-4.7-1.5-7-5.8-10.3-8.9c-1.1-1-2-2.1-3-3.2c0.1-0.9,1-1.2,1.4-0.8C657.8,81,663.2,84,665.2,90.1z
		"/>
	<path class="st5" d="M82.5,231.6c-1.5-2.8-3.4-4.8-3-7.6c0.2-1.1,0.5-2.4,1.9-2.6c1.5-0.2,1.9,1.2,2.2,2.2
		C84.3,226.1,84.2,228.5,82.5,231.6z"/>
	<path class="st5" d="M698.4,214.8c3.9,2.6,6.3,5.4,6.4,10.5C700.7,222.6,696.5,221,698.4,214.8z"/>
	<path class="st3" d="M648.3,114.9c1.2,2.4,3.7,3.9,3.8,6.9l-0.3,0.3c-3.6-4.2-7.3-8.3-12.5-10.7c1.8,0.4,3.7,0.8,5.5,1.2
		c1,0.6,2.1,1.3,3.1,1.9C648,114.6,648.2,114.8,648.3,114.9z"/>
	<path class="st5" d="M100,225.9c-0.2,1.1,0.1,2.9-1.3,2.6c-2.3-0.4-3.2-2.6-3.3-4.8c-0.1-1.3,0.1-3,2-2.5
		C99.5,221.8,100,223.8,100,225.9z"/>
	<path class="st5" d="M573.6,250.6c-3.6-0.6-6.4-1.4-6.6-5.3c0-0.8,0.1-1.7,1.2-1.8C569.7,243.4,572.4,246.9,573.6,250.6z"/>
	<path class="st3" d="M537.2,241.9c-4.8-0.9-9.3-3.1-14.3-3C528.2,236.1,532.3,237,537.2,241.9z"/>
	<path class="st5" d="M122.7,222.3c-0.4,0.1-0.6,0.2-0.7,0.1c-2.9-1.4-4-3.7-3.6-6.8c0.1-0.7,0.6-1.4,1.3-1
		C122.4,216.4,123,219.2,122.7,222.3z"/>
	<path class="st5" d="M113,227.9c-2.6-2-4-3.4-4-5.6c0-1.1-0.3-2.7,1.2-2.8c1.2-0.1,2.6,0.7,2.7,2.3C113,223.5,113,225.3,113,227.9z
		"/>
	<path class="st3" d="M644.8,129c-3.5-1.9-6.5-4.3-8.6-7.7C640,122.8,643.9,124.2,644.8,129z"/>
	<path class="st5" d="M322.9,213.6c-2.2-1.6-3.7-2.6-5-3.8c-0.9-0.8-1.1-2.2-0.3-3.1c1.3-1.3,2,0.3,2.7,1
		C321.7,209.1,322.7,210.7,322.9,213.6z"/>
	<path class="st3" d="M680.8,122c-1-0.1-2.3,3.8-2.6,0.2c-0.3-2.9-2-5-2.3-7.7C679.7,115.6,680.5,118.6,680.8,122z"/>
	<path class="st4" d="M647.5,88.9c-3.8-0.8-4.6-3.3-3.8-6.7C645.5,84.1,647.6,85.8,647.5,88.9z"/>
	<path class="st3" d="M658,204.2c-2.8-0.1-5.5-0.1-8.3-0.2c-1.3-0.1-3.1,0.4-3.5-1.8c4.1-0.6,8,0.9,12.1,0.9c0.1,0,0.2,0.3,0.2,0.4
		C658.3,203.7,658.1,204,658,204.2z"/>
	<path class="st4" d="M352.2,177c3.7,0,6.9,2.8,10.7,2.1c0.2,3.1-1.9,2.1-3.2,1.6C357.1,179.5,354.3,178.9,352.2,177z"/>
	<path class="st5" d="M333,210c-3.5-1.4-5.4-2.9-4.7-6.5C331,204.7,332.3,206.6,333,210z"/>
	<path class="st2" d="M143.9,161.6c0,0.7,0.1,1.4,0.1,2.1c-2-1.5-4.4-2.6-6.3-5.5C140.8,158.7,142.4,160.1,143.9,161.6z"/>
	<path class="st3" d="M471.9,208.9c-2.3-0.6-4.8-0.9-4.9-4C469,205.8,471.2,206.5,471.9,208.9z"/>
	<path class="st2" d="M648,114.5c-1-0.6-2.1-1.3-3.1-1.9c0.6-1.7,1.7-1,2.7-0.5C648.8,112.7,648.7,113.5,648,114.5z"/>
	<path class="st3" d="M462,201.9c-1.8-0.2-3.4-0.6-3-3C460.5,199.4,462.1,199.8,462,201.9z"/>
	<path class="st3" d="M467,204.9c-1.9,0.7-3,0.2-3-2C465.4,203,466.3,203.8,467,204.9z"/>
	<path class="st4" d="M466.9,45c-1.1-0.8-1.4-1.8-0.9-3.1C467.4,42.7,467,43.9,466.9,45z"/>
	<path class="st3" d="M548,235.9c-1.7,0.4-2.6-0.1-2-2C546.9,234.2,547.6,234.9,548,235.9z"/>
	<path class="st2" d="M189.1,64.1c0.4-0.2,0.7-0.5,1.1-0.7c0.1,0.1,0.2,0.3,0.3,0.4C190,63.8,189.5,63.9,189.1,64.1
		C189.1,64,189.1,64.1,189.1,64.1z"/>
	<path class="st2" d="M189.1,64c-0.4,0.9-1.1,1-2,1c0,0,0,0,0,0C187.5,64.2,188.3,64.1,189.1,64C189.1,64.1,189.1,64,189.1,64z"/>
	<path class="st2" d="M185.1,66c0.4-0.8,1.2-1,2-1c0,0,0,0,0,0C186.7,66,186,66.1,185.1,66C185.1,66.1,185.1,66,185.1,66z"/>
	<path class="st5" d="M477.4,146.3c0-0.1-0.1-0.3-0.1-0.4c0,0,0.2-0.1,0.3-0.1c0,0.1,0.1,0.3,0.1,0.4
		C477.6,146.3,477.5,146.3,477.4,146.3z"/>
	<path class="st3" d="M498.9,145c-0.1,0.2-0.3,0.4-0.4,0.7c-0.1-0.1-0.2-0.2-0.3-0.4C498.5,145.2,498.7,145.1,498.9,145
		C499,145,498.9,145,498.9,145z"/>
	<path class="st2" d="M136.8,156.7c0.1,0.1,0.1,0.3,0.2,0.4c-0.2,0-0.4,0.1-0.6,0.1c0-0.1,0-0.3,0.1-0.4
		C136.5,156.7,136.7,156.7,136.8,156.7z"/>
	<path class="st3" d="M524.9,159c0.4-0.2,0.8-0.4,1.2-0.6c0,0.2,0,0.3,0,0.5C525.7,158.8,525.3,158.8,524.9,159
		C524.9,158.9,524.9,159,524.9,159z"/>
	<path class="st2" d="M161.2,93.1c-0.2,0.4-0.3,0.9-0.5,1.3c-0.1-0.1-0.4-0.3-0.4-0.3c0.2-0.4,0.5-0.8,0.7-1.2
		C161,93,161.2,93.1,161.2,93.1z"/>
	<path class="st3" d="M464,202.9c-1.1,0.6-1.8,0.2-2-1C463.3,201.1,463.6,202.1,464,202.9z"/>
	<path class="st3" d="M546,233.9c-1.3,0.9-1.7,0-2-1C545.2,232.1,545.5,233.2,546,233.9z"/>
	<path class="st2" d="M208.1,32.1c0.3-0.2,0.7-0.5,1-0.7C209.3,32.5,208.4,31.8,208.1,32.1C208.1,32.1,208.1,32.1,208.1,32.1z"/>
	<path class="st2" d="M254,99c0.3-0.3,0.7-0.7,1-1l0,0C254.7,98.4,254.4,98.7,254,99C254.1,99,254,99,254,99z"/>
	<path class="st2" d="M576.9,154c0.1,0.1,0.3,0.3,0.4,0.4C577.2,154.3,577.1,154.1,576.9,154C576.9,154,576.9,154,576.9,154z"/>
	<path class="st4" d="M159.6,79.5c0.4-0.1,1-0.4,1.1-0.2c0.3,0.4,0.1,0.8-0.5,1C160,80,159.8,79.7,159.6,79.5z"/>
	<path class="st3" d="M675.9,114.1c-0.3-0.3-0.6-0.6-1-0.9C675.3,113.5,675.6,113.8,675.9,114.1z"/>
	<path class="st2" d="M574.9,78c-0.1,0.1-0.1,0.3-0.2,0.4C574.8,78.3,574.9,78.2,574.9,78C574.9,78.1,574.9,78,574.9,78z"/>
	<path class="st2" d="M342,123c0.1,0.1,0.3,0.2,0.4,0.4c-0.1,0-0.2,0-0.2-0.1C342.1,123.2,342.1,123.1,342,123
		C342,123,342,123,342,123z"/>
	<path class="st2" d="M275,63.1c0.2-0.1,0.3-0.3,0.5-0.4c0,0.1,0,0.2-0.1,0.3C275.3,63,275.2,63,275,63.1
		C275,63.1,275,63.1,275,63.1z"/>
	<path class="st2" d="M275,63.1c-0.1,0.1-0.3,0.3-0.4,0.4c0-0.1,0-0.2,0.1-0.3C274.8,63.1,274.9,63.1,275,63.1
		C275,63.1,275,63.1,275,63.1z"/>
	<path class="st3" d="M544,232.9c-0.9,0.1-1.2-0.4-1.1-1.2C543.6,231.7,544.4,231.8,544,232.9z"/>
	<path class="st4" d="M634.8,168l0.1,0.1c0,0-0.2,0-0.2,0S634.8,168,634.8,168z"/>
	<path class="st3" d="M549,236.9c-0.9,0.2-1.4,0-1-1C548.3,236.2,548.6,236.5,549,236.9z"/>
	<path class="st3" d="M550,237.9c-0.9,0.2-1.3-0.1-1-1C549.3,237.2,549.6,237.6,550,237.9z"/>
	<path class="st3" d="M550.9,238.8c-0.6,0-1.2-0.1-0.9-1C550.5,237.9,550.9,238.2,550.9,238.8z"/>
	<path class="st2" d="M482.9,71.1c0.1,0.1,0.3,0.1,0.4,0.2C483.2,71.2,483.1,71.1,482.9,71.1C483,71,482.9,71.1,482.9,71.1z"/>
	<path class="st2" d="M255,98c0.2-0.1,0.3-0.3,0.5-0.4C255.4,97.7,255.2,97.9,255,98C255.1,98,255,98,255,98z"/>
	<path class="st2" d="M614.9,200.9c-0.1,0.1-0.1,0.3-0.2,0.4C614.8,201.2,614.8,201.1,614.9,200.9
		C614.9,201,614.9,200.9,614.9,200.9z"/>
	<path class="st3" d="M231.3,66.3C225,77.8,216.1,87.1,207,96.2c-8.3,8.2-17.1,16-25.7,24c-0.2-0.2-0.4-0.4-0.7-0.6
		c6.5-22.1,20.5-38,40.4-49c3.2-1.7,6.6-3.1,9.9-4.6L231.3,66.3z"/>
	<path class="st3" d="M430,140c4.3-3.5,8.9-6.9,13-10.6c11.1-10.1,16.9-22.8,18.2-37.6c0.2-2,0.6-3.9,0.9-6.2
		c6.9,19.9,0.9,47.2-26.7,54.1C433.6,140.1,431.8,140.4,430,140L430,140z"/>
	<path class="st3" d="M417.6,136.6c1-4.6,3.4-8.7,5.8-12.6c8.7-14.1,15.1-28.7,14.1-45.8c5.5,11.3,6.2,22.7,1.3,34.4
		c-4.3,10.3-12.3,17.6-20.6,24.6C418,137,417.8,136.8,417.6,136.6z"/>
	<path class="st3" d="M285.4,38.2c-17.7,3.9-35,1-52.5,5.9C246.8,29,262.9,27.3,285.4,38.2z"/>
	<path class="st3" d="M232.1,98.1c-16.5,23.9-35.6,44-66.7,47.4c-0.8,0.1-1.3,0-2.4-1.1c5.9-1.7,11.2-3.9,16.3-6.6
		c19-10,35.9-22.8,50.5-38.6c0.5-0.6,1.3-0.9,2-1.4C231.9,97.9,232.1,98.1,232.1,98.1z"/>
	<path class="st3" d="M522.4,57.8c-11.1-4.2-22.6-5.9-35.8-5.1c8.5-4.9,16.3-7.4,25-6.2c1.5,0.2,2.9,0.6,4.4,1
		C524.2,49.4,524.2,49.4,522.4,57.8z"/>
	<path class="st3" d="M364.8,102.9C359,90.6,362,73.1,371.2,66C368.5,78.3,366,90.1,364.8,102.9z"/>
	<path class="st3" d="M449.5,40.1c-9.7-9.5-21.4-7.7-33.8-5.5C428.8,24.1,444.5,26.7,449.5,40.1z"/>
	<path class="st3" d="M348.4,67.9c-3,12.3-4.1,24.1-3.3,36.3C339.4,94.7,338.8,75.7,348.4,67.9z"/>
	<path class="st3" d="M357,73c-0.7,10.9-2.6,21.8-2.2,32.9C349,100,350.4,80.9,357,73L357,73z"/>
	<path class="st3" d="M334.9,67.4c-2.2,9.6-3.1,19.1-2.8,29.3C325.4,86.7,326.7,74.2,334.9,67.4z"/>
	<path class="st3" d="M322.8,70c0,7.7,0,15.4,0,23.1c-0.4,0-0.9,0-1.3,0C319.1,85.4,319.2,77.7,322.8,70z"/>
	<path class="st1" d="M148.6,136.7c-0.6-2.2-0.5-3.6,1.7-4.5C151,134,150,135.1,148.6,136.7z"/>
	<path class="st1" d="M469.9,47.6c-0.1,0.3-0.3,0.6-0.4,0.8c-0.1-0.3-0.4-0.6-0.4-0.8c0-0.3,0.2-0.6,0.4-0.8
		C469.6,47,469.8,47.3,469.9,47.6z"/>
	<path class="st1" d="M399.9,55c0.1-0.4,0.3-0.9,0.4-1.3c0.1,0.1,0.4,0.2,0.4,0.3C400.5,54.3,400.3,54.7,399.9,55
		C400,55.1,399.9,55,399.9,55z"/>
	<path class="st3" d="M430,140c-0.3,0.2-0.7,0.5-1,0.7c0,0-0.2-0.2-0.3-0.3C429.1,140.2,429.5,140.1,430,140
		C430,140,430,140,430,140z"/>
	<path class="st3" d="M180,121c-0.1,0.4-0.2,0.8-0.3,1.2c-0.1-0.1-0.2-0.2-0.4-0.2C179.6,121.7,179.9,121.3,180,121
		C180.1,121,180,121,180,121z"/>
	<path class="st3" d="M233.1,96c0.2,0.9-0.1,1.6-0.9,2.1c0,0-0.3-0.2-0.3-0.2C231.9,97,232.2,96.3,233.1,96L233.1,96z"/>
	<path class="st3" d="M235,93c0.1,0.9,0,1.7-1,2c0,0,0,0,0,0C234,94.2,234.2,93.5,235,93L235,93z"/>
	<path class="st1" d="M237.2,110.1c-0.4,0.3-0.7,0.6-1.1,0.9l0,0c0.3-0.4,0.6-0.7,0.9-1.1C237,109.9,237.2,110.1,237.2,110.1z"/>
	<path class="st1" d="M236.1,111c-0.1,0.1-0.3,0.3-0.4,0.4c0-0.1,0-0.2,0.1-0.3C235.8,111.1,235.9,111.1,236.1,111
		C236.1,111,236.1,111,236.1,111z"/>
	<path class="st1" d="M219.1,119c0.1-0.1,0.3-0.3,0.4-0.4c0,0.1,0,0.2-0.1,0.3C219.3,119,219.2,119,219.1,119
		C219.1,119,219.1,119,219.1,119z"/>
	<path class="st3" d="M181.3,120.2c-0.3,0.5-0.6,0.9-1.3,0.7c0,0,0.1,0.1,0.1,0.1c0.2-0.5,0.4-1,0.5-1.4
		C180.9,119.8,181.1,120,181.3,120.2z"/>
	<path class="st3" d="M418.1,137.2c-0.2,0.2-0.6,0.7-0.6,0.6c-0.6-0.4-0.3-0.8,0.1-1.2C417.8,136.8,418,137,418.1,137.2z"/>
	<path class="st3" d="M235.1,93.1c0.1-0.1,0.1-0.3,0.2-0.4c0-0.1,0.2,0,0.3,0C235.4,92.7,235.2,92.9,235.1,93.1
		C235,93,235.1,93.1,235.1,93.1z"/>
	<path class="st1" d="M477.9,60.1c-0.3-0.4-0.6-0.7-0.9-1.1c0,0,0,0,0,0c0.4,0.3,0.7,0.6,1.1,0.9C478,60,477.9,60.1,477.9,60.1z"/>
	<path class="st3" d="M357,73.1c0.1-0.1,0.1-0.2,0.2-0.3C357.1,72.9,357,72.9,357,73.1C357,73,357,73.1,357,73.1z"/>
	<path class="st1" d="M477,59c-0.1-0.1-0.3-0.2-0.4-0.4c0.1,0,0.2,0,0.2,0.1C476.9,58.8,476.9,59,477,59C476.9,59.1,477,59,477,59z"
		/>
	<path class="st1" d="M252.1,51.1c-0.1-0.1-0.3-0.2-0.4-0.2C251.8,50.9,251.9,51,252.1,51.1C252,51.1,252.1,51.1,252.1,51.1z"/>
	<path class="st1" d="M475.8,69.2c-0.1-0.2-0.3-0.4-0.4-0.6c0.2,0.1,0.4,0.2,0.6,0.4C476,69,475.8,69.2,475.8,69.2z"/>
	<path class="st3" d="M231,66c0.2-0.2,0.5-0.6,0.6-0.5c0.6,0.5,0.1,0.6-0.2,0.9C231.3,66.3,231,66,231,66z"/>
	<path class="st3" d="M233.1,96c0-0.6,0.3-1,1-1c0,0,0,0,0,0C234,95.7,233.8,96.1,233.1,96C233.1,96,233.1,96,233.1,96z"/>
	<path class="st3" d="M592.5,95.6c-4.3,4.1-6.3,9.4-7.7,15.4c-2-6.4,0.5-12,6.9-16.1C592,95.1,592.2,95.3,592.5,95.6z"/>
	<path class="st1" d="M579.5,93.5c0.8-4.4,3.4-6.7,8.9-7.5C584.8,89,582.2,91.2,579.5,93.5z"/>
	<path class="st3" d="M591.7,94.8c0.4-0.6,1.2-1,1.6-0.5c0.6,0.8-0.5,0.9-0.8,1.3C592.2,95.3,592,95.1,591.7,94.8z"/>
	<path class="st1" d="M586.9,74c0.4-0.2,0.8-0.5,1.1-0.7c0,0,0.2,0.2,0.3,0.4c-0.4,0.2-0.9,0.3-1.3,0.5C587,74.1,586.9,74,586.9,74z
		"/>
	<polygon class="st3" points="639.9,79 639.8,78.9 639.9,79 	"/>
	<path class="st1" d="M457.9,205.7c4.3,1.3,7.6,2.3,9.6,5.5C464,210.5,460.7,209.5,457.9,205.7z"/>
	<path class="st1" d="M488.9,244.9c-0.2-0.4-0.5-0.7-0.7-1.1c0,0,0.2-0.2,0.4-0.3C488.7,244,488.8,244.4,488.9,244.9
		C489,244.9,488.9,244.9,488.9,244.9z"/>
	<path class="st1" d="M22,68.9c0.1-0.8,0.3-1.5,1.1-1.9l0,0c0.1,0.9-0.1,1.6-0.9,2.1C22.2,69.1,22,68.9,22,68.9z"/>
	<path class="st1" d="M23.2,67.1c0.1-0.1,0.3-0.3,0.4-0.4c0,0.1,0,0.2-0.1,0.3C23.4,67,23.3,67,23.2,67.1
		C23.1,67,23.2,67.1,23.2,67.1z"/>
	<path class="st3" d="M652.1,121.8c0.2,0.2,0.4,0.4,0.5,0.6c0,0-0.2,0.2-0.3,0.3c-0.2-0.2-0.3-0.4-0.5-0.6
		C651.8,122.1,652.1,121.8,652.1,121.8z"/>
	<path class="st1" d="M622.9,179.9c1,1.4,0.2,1.9-1.1,2.1C621.5,181,621.7,180.2,622.9,179.9z"/>
</g>
</svg>
